<svg width="20" height="20" viewBox="0 0 20 20" fill="none" xmlns="http://www.w3.org/2000/svg">
<path d="M10.0001 13C9.40674 13 8.82672 12.8241 8.33337 12.4944C7.84002 12.1648 7.45551 11.6963 7.22844 11.1481C7.00138 10.5999 6.94197 9.99671 7.05773 9.41476C7.17348 8.83282 7.4592 8.29827 7.87876 7.87871C8.29832 7.45915 8.83287 7.17343 9.41481 7.05768C9.99675 6.94192 10.6 7.00133 11.1481 7.22839C11.6963 7.45546 12.1648 7.83997 12.4945 8.33332C12.8241 8.82667 13.0001 9.40669 13.0001 10C12.9979 10.795 12.6811 11.5568 12.119 12.1189C11.5568 12.6811 10.7951 12.9978 10.0001 13ZM10.0001 8.25003C9.65396 8.25003 9.31562 8.35267 9.02783 8.54496C8.74005 8.73725 8.51575 9.01057 8.38329 9.33034C8.25084 9.65011 8.21618 10.002 8.28371 10.3414C8.35123 10.6809 8.5179 10.9927 8.76264 11.2375C9.00739 11.4822 9.31921 11.6489 9.65867 11.7164C9.99814 11.7839 10.35 11.7493 10.6698 11.6168C10.9895 11.4844 11.2629 11.2601 11.4552 10.9723C11.6474 10.6845 11.7501 10.3461 11.7501 10C11.7501 9.5359 11.5657 9.09078 11.2375 8.7626C10.9093 8.43441 10.4642 8.25003 10.0001 8.25003ZM10.0001 17.7584C7.74187 17.6549 5.59423 16.7509 3.94175 15.2084C2.12508 13.6167 1.04175 11.6667 1.04175 10C1.04175 6.30003 5.73341 2.2417 10.0001 2.2417C14.2667 2.2417 18.9584 6.40837 18.9584 10C18.9584 13.7667 14.3501 17.7584 10.0001 17.7584ZM10.0001 3.4917C6.47508 3.4917 2.29175 7.0167 2.29175 10C2.29175 11.3 3.24175 12.9334 4.79175 14.2667C6.2144 15.5968 8.05613 16.3895 10.0001 16.5084C13.9667 16.5084 17.7084 12.8417 17.7084 10C17.7084 7.30837 13.7251 3.4917 10.0001 3.4917Z" fill="#4B39EF"/>
</svg>
