<svg width="20" height="20" viewBox="0 0 20 20" fill="none" xmlns="http://www.w3.org/2000/svg">
<path d="M12.7132 10.3405L13.4203 9.63337C13.0381 9.25119 12.4214 9.24185 12.0278 9.61228L12.7132 10.3405ZM15.5585 14.6C15.949 14.9905 16.5822 14.9905 16.9727 14.6C17.3632 14.2094 17.3632 13.5763 16.9727 13.1858L15.5585 14.6ZM10.937 4.23572C11.4893 4.23572 11.937 3.78801 11.937 3.23572C11.937 2.68344 11.4893 2.23572 10.937 2.23572V4.23572ZM17.7096 10.3405C17.7096 9.7882 17.2619 9.34048 16.7096 9.34048C16.1574 9.34048 15.7096 9.7882 15.7096 10.3405H17.7096ZM14.8215 7.52382C14.8215 8.07611 15.2693 8.52382 15.8215 8.52382C16.3738 8.52382 16.8215 8.07611 16.8215 7.52382L14.8215 7.52382ZM16.8215 2.5C16.8215 1.94771 16.3738 1.5 15.8215 1.5C15.2693 1.5 14.8215 1.94772 14.8215 2.5L16.8215 2.5ZM13.3096 4.01191C12.7573 4.01191 12.3096 4.45963 12.3096 5.01191C12.3096 5.5642 12.7573 6.01191 13.3096 6.01191L13.3096 4.01191ZM18.3335 6.01191C18.8857 6.01191 19.3335 5.5642 19.3335 5.01191C19.3335 4.45963 18.8857 4.01191 18.3335 4.01191L18.3335 6.01191ZM5.84977 18.1734L13.3986 11.0687L12.0278 9.61228L4.47904 16.717L5.84977 18.1734ZM12.0061 11.0476L15.5585 14.6L16.9727 13.1858L13.4203 9.63337L12.0061 11.0476ZM14.0454 16.4452H5.16441V18.4452H14.0454V16.4452ZM3.50012 14.781V5.90001H1.50012V14.781H3.50012ZM5.16441 16.4452C4.24525 16.4452 3.50012 15.7001 3.50012 14.781H1.50012C1.50012 16.8047 3.14068 18.4452 5.16441 18.4452V16.4452ZM15.7096 14.781C15.7096 15.7001 14.9645 16.4452 14.0454 16.4452V18.4452C16.0691 18.4452 17.7096 16.8047 17.7096 14.781H15.7096ZM5.16441 2.23572C3.14068 2.23572 1.50012 3.87628 1.50012 5.90001H3.50012C3.50012 4.98085 4.24525 4.23572 5.16441 4.23572V2.23572ZM6.82869 7.23215C6.82869 7.41559 6.67999 7.56429 6.49655 7.56429V9.56429C7.78456 9.56429 8.82869 8.52015 8.82869 7.23215H6.82869ZM6.49655 7.56429C6.31311 7.56429 6.16441 7.41559 6.16441 7.23215H4.16441C4.16441 8.52015 5.20854 9.56429 6.49655 9.56429V7.56429ZM6.16441 7.23215C6.16441 7.04871 6.31311 6.90001 6.49655 6.90001V4.90001C5.20854 4.90001 4.16441 5.94414 4.16441 7.23215H6.16441ZM6.49655 6.90001C6.67999 6.90001 6.82869 7.04871 6.82869 7.23215H8.82869C8.82869 5.94414 7.78456 4.90001 6.49655 4.90001V6.90001ZM5.16441 4.23572H10.937V2.23572H5.16441V4.23572ZM15.7096 10.3405V14.781H17.7096V10.3405H15.7096ZM16.8215 7.52382L16.8215 5.01191L14.8215 5.01191L14.8215 7.52382L16.8215 7.52382ZM16.8215 5.01191L16.8215 2.5L14.8215 2.5L14.8215 5.01191L16.8215 5.01191ZM13.3096 6.01191L15.8215 6.01191V4.01191L13.3096 4.01191L13.3096 6.01191ZM15.8215 6.01191L18.3335 6.01191L18.3335 4.01191L15.8215 4.01191V6.01191Z" fill="white"/>
</svg>
