<svg width="20" height="20" viewBox="0 0 20 20" fill="none" xmlns="http://www.w3.org/2000/svg">
<path d="M7.65001 0.975098C6.82592 0.975098 6.02033 1.21947 5.33513 1.67731C4.64993 2.13515 4.11587 2.78589 3.80051 3.54725C3.48514 4.30861 3.40263 5.14639 3.5634 5.95464C3.72417 6.76289 4.12101 7.50532 4.70373 8.08804C5.28645 8.67076 6.02888 9.0676 6.83713 9.22837C7.64538 9.38914 8.48316 9.30663 9.24452 8.99126C10.0059 8.6759 10.6566 8.14184 11.1145 7.45664C11.5723 6.77144 11.8167 5.96585 11.8167 5.14176C11.8167 4.59459 11.7089 4.05277 11.4995 3.54725C11.2901 3.04173 10.9832 2.5824 10.5963 2.19549C10.2094 1.80858 9.75004 1.50166 9.24452 1.29227C8.739 1.08287 8.19718 0.975098 7.65001 0.975098ZM7.65001 8.10843C7.05738 8.10514 6.47901 7.9264 5.98786 7.59476C5.49671 7.26312 5.11479 6.79344 4.89028 6.24498C4.66577 5.69652 4.60873 5.09385 4.72636 4.51301C4.84399 3.93217 5.13102 3.39918 5.55124 2.98129C5.97145 2.5634 6.50602 2.27933 7.0875 2.16491C7.66899 2.0505 8.27133 2.11088 8.81854 2.33842C9.36575 2.56597 9.8333 2.95049 10.1622 3.44347C10.4911 3.93645 10.6667 4.5158 10.6667 5.10843C10.6623 5.90561 10.3425 6.66864 9.77724 7.23077C9.21198 7.79291 8.4472 8.10844 7.65001 8.10843Z" fill="#022150"/>
<path d="M7.65001 9.94189C4.01667 9.94189 1.16667 11.9336 1.16667 14.4836C1.16667 17.0336 4.01667 19.0252 7.65001 19.0252C11.2833 19.0252 14.1667 17.0336 14.1667 14.4836C14.1667 11.9336 11.2833 9.94189 7.65001 9.94189ZM7.65001 17.7752C4.80834 17.7752 2.41667 16.2669 2.41667 14.4836C2.41667 12.7002 4.80834 11.1919 7.65001 11.1919C10.4917 11.1919 12.875 12.7002 12.875 14.4836C12.875 16.2669 10.4833 17.7752 7.65001 17.7752Z" fill="#022150"/>
<path d="M13.8583 9.48345C14.7601 9.46355 15.617 9.08626 16.2405 8.43458C16.8641 7.78289 17.2032 6.91018 17.1833 6.00845C17.1634 5.10671 16.7862 4.24981 16.1345 3.62625C15.4828 3.00269 14.6101 2.66355 13.7083 2.68345C13.5426 2.68345 13.3836 2.74929 13.2664 2.8665C13.1492 2.98371 13.0833 3.14268 13.0833 3.30845C13.0833 3.47421 13.1492 3.63318 13.2664 3.75039C13.3836 3.8676 13.5426 3.93345 13.7083 3.93345C13.9907 3.92688 14.2715 3.97599 14.5349 4.07797C14.7983 4.17995 15.039 4.33281 15.2433 4.52781C15.4475 4.72281 15.6114 4.95614 15.7255 5.21448C15.8397 5.47282 15.9018 5.7511 15.9083 6.03345C15.9149 6.31579 15.8658 6.59666 15.7638 6.86002C15.6618 7.12338 15.509 7.36408 15.314 7.56837C15.119 7.77266 14.8856 7.93654 14.6273 8.05065C14.369 8.16477 14.0907 8.22688 13.8083 8.23345C13.6918 8.24202 13.5748 8.24202 13.4583 8.23345C13.2943 8.21411 13.1292 8.25875 12.9972 8.35809C12.8653 8.45743 12.7767 8.60381 12.75 8.76678C12.7382 8.84834 12.7427 8.93143 12.7632 9.01125C12.7837 9.09108 12.8197 9.16606 12.8693 9.2319C12.9189 9.29773 12.981 9.35311 13.052 9.39485C13.1231 9.43659 13.2017 9.46387 13.2833 9.47511C13.4414 9.4881 13.6003 9.4881 13.7583 9.47511L13.8583 9.48345Z" fill="#022150"/>
<path d="M15 17.2749C17.25 16.9166 18.8167 15.5249 18.8167 13.8749C18.8167 11.9249 16.6667 10.3999 13.925 10.3999C13.7592 10.3999 13.6003 10.4658 13.4831 10.583C13.3659 10.7002 13.3 10.8591 13.3 11.0249C13.3 11.1907 13.3659 11.3496 13.4831 11.4668C13.6003 11.5841 13.7592 11.6499 13.925 11.6499C15.9 11.6499 17.5667 12.6666 17.5667 13.8749C17.5667 14.8749 16.4083 15.7832 14.8 16.0332C14.6375 16.0618 14.4926 16.1528 14.3961 16.2866C14.2996 16.4205 14.2591 16.5867 14.2833 16.7499C14.3071 16.8964 14.3822 17.0296 14.4951 17.1258C14.6081 17.222 14.7516 17.2748 14.9 17.2749H15Z" fill="#022150"/>
</svg>
