<svg width="24" height="24" viewBox="0 0 24 24" fill="none" xmlns="http://www.w3.org/2000/svg">
<path d="M11.9999 2C6.48594 2 1.99994 6.486 1.99994 12C1.99994 17.514 6.48594 22 11.9999 22C17.5139 22 21.9999 17.514 21.9999 12C21.9999 6.486 17.5139 2 11.9999 2ZM11.9999 20C7.58894 20 3.99994 16.411 3.99994 12C3.99994 7.589 7.58894 4 11.9999 4C16.4109 4 19.9999 7.589 19.9999 12C19.9999 16.411 16.4109 20 11.9999 20Z" fill="#4F5E7B"/>
<path d="M10.9999 11H12.9999V17H10.9999V11ZM10.9999 7H12.9999V9H10.9999V7Z" fill="#4F5E7B"/>
</svg>
