<svg width="20" height="20" viewBox="0 0 20 20" fill="none" xmlns="http://www.w3.org/2000/svg">
<path d="M16.425 11.8334C15.7378 10.7974 15.3832 9.57634 15.4083 8.3334V8.2084C15.4064 6.898 14.9175 5.6351 14.0366 4.66493C13.1558 3.69475 11.9458 3.08654 10.6417 2.9584V1.9834C10.6417 1.90132 10.6255 1.82005 10.5941 1.74422C10.5627 1.66839 10.5167 1.59949 10.4586 1.54146C10.4006 1.48342 10.3317 1.43738 10.2559 1.40597C10.18 1.37456 10.0988 1.3584 10.0167 1.3584C9.9346 1.3584 9.85333 1.37456 9.7775 1.40597C9.70167 1.43738 9.63277 1.48342 9.57473 1.54146C9.5167 1.59949 9.47066 1.66839 9.43925 1.74422C9.40784 1.82005 9.39168 1.90132 9.39168 1.9834V2.99173C8.92862 3.04584 8.47472 3.16072 8.04168 3.3334C7.08341 3.72979 6.2674 4.40669 5.70077 5.27521C5.13415 6.14374 4.84339 7.16331 4.86668 8.20007C4.88117 9.51973 4.46257 10.8077 3.67501 11.8667L3.11668 12.6334C2.81615 13.0449 2.65287 13.5405 2.65001 14.0501C2.65001 14.6844 2.90199 15.2927 3.35051 15.7412C3.79904 16.1898 4.40737 16.4417 5.04168 16.4417H7.78334V16.7167C7.85718 17.2555 8.12365 17.7493 8.53346 18.1068C8.94327 18.4643 9.46869 18.6613 10.0125 18.6613C10.5563 18.6613 11.0817 18.4643 11.4916 18.1068C11.9014 17.7493 12.1678 17.2555 12.2417 16.7167V16.4417H15C15.4344 16.4345 15.859 16.311 16.2296 16.0842C16.6002 15.8573 16.9033 15.5354 17.1074 15.1519C17.3115 14.7683 17.4092 14.3371 17.3903 13.903C17.3714 13.4689 17.2367 13.0478 17 12.6834L16.425 11.8334ZM11 16.5751C10.9639 16.8091 10.8446 17.0222 10.6639 17.1753C10.4833 17.3284 10.2535 17.4112 10.0167 17.4084C9.78082 17.4078 9.55277 17.3238 9.37283 17.1713C9.1929 17.0188 9.07265 16.8076 9.03334 16.5751V16.4417H11V16.5751ZM15 15.1917H5.04168C4.73889 15.1917 4.4485 15.0715 4.2344 14.8573C4.02029 14.6432 3.90001 14.3529 3.90001 14.0501C3.90997 13.8014 4.00398 13.5634 4.16668 13.3751L4.72501 12.6084C5.66413 11.3114 6.1529 9.74263 6.11668 8.14173C6.10533 7.36728 6.32632 6.6072 6.75115 5.95957C7.17597 5.31193 7.78513 4.80647 8.50001 4.5084C9.02988 4.29613 9.59588 4.1886 10.1667 4.19173C11.2283 4.19394 12.2457 4.61722 12.9956 5.36869C13.7455 6.12016 14.1667 7.13843 14.1667 8.20007V8.3334C14.1439 9.81426 14.571 11.2672 15.3917 12.5001L15.95 13.3334C16.0812 13.5336 16.148 13.7691 16.1417 14.0084C16.1473 14.1618 16.1219 14.3147 16.067 14.4581C16.0122 14.6015 15.929 14.7323 15.8224 14.8428C15.7158 14.9532 15.5881 15.0411 15.4467 15.101C15.3054 15.161 15.1535 15.1918 15 15.1917Z" fill="#022150"/>
<path d="M2.90834 8.84993C2.98998 8.83868 3.06859 8.81141 3.13964 8.76967C3.2107 8.72793 3.27279 8.67254 3.32236 8.60671C3.37193 8.54088 3.40799 8.46589 3.42847 8.38607C3.44894 8.30624 3.45343 8.22316 3.44167 8.14159C3.31587 7.3864 3.39398 6.6113 3.66793 5.89639C3.94189 5.18148 4.40175 4.55267 5.00001 4.07493C5.12502 3.98019 5.20984 3.84191 5.23762 3.68753C5.26541 3.53316 5.23413 3.37398 5.15001 3.24159C5.0565 3.11495 4.91809 3.02886 4.76315 3.00097C4.60821 2.97308 4.44848 3.0055 4.31667 3.09159C3.52881 3.69708 2.91766 4.5027 2.54686 5.42458C2.17606 6.34645 2.05916 7.35087 2.20834 8.33326C2.22862 8.48198 2.30244 8.61819 2.41596 8.71638C2.52948 8.81456 2.67492 8.86797 2.82501 8.86659L2.90834 8.84993Z" fill="#022150"/>
<path d="M15.7167 3.05022C15.6507 2.99312 15.5734 2.95049 15.4899 2.92506C15.4064 2.89963 15.3185 2.89197 15.2319 2.90258C15.1452 2.91319 15.0618 2.94184 14.9869 2.98666C14.912 3.03149 14.8473 3.09151 14.797 3.16285C14.7467 3.2342 14.7119 3.31528 14.6949 3.40089C14.6778 3.4865 14.6789 3.57473 14.698 3.65989C14.7171 3.74506 14.7539 3.82528 14.8059 3.89537C14.8579 3.96547 14.924 4.0239 15 4.06689C15.5963 4.54819 16.0545 5.17872 16.3282 5.89444C16.6019 6.61015 16.6813 7.38556 16.5583 8.14189C16.5466 8.22346 16.5511 8.30654 16.5716 8.38636C16.592 8.46619 16.6281 8.54117 16.6777 8.60701C16.7272 8.67284 16.7893 8.72822 16.8604 8.76996C16.9314 8.8117 17.01 8.83898 17.0917 8.85022H17.175C17.3251 8.8516 17.4705 8.79819 17.5841 8.70001C17.6976 8.60182 17.7714 8.46561 17.7917 8.31689C17.9493 7.33364 17.8399 6.32611 17.4748 5.39962C17.1098 4.47314 16.5026 3.66173 15.7167 3.05022Z" fill="#022150"/>
</svg>
