<svg width="30" height="31" viewBox="0 0 30 31" fill="none" xmlns="http://www.w3.org/2000/svg">
<path d="M14.6993 1.11994L15.5926 0.444459C15.3809 0.164523 15.0502 1.80219e-06 14.6993 -3.48424e-06C14.3483 -8.77066e-06 14.0176 0.164503 13.806 0.444432L14.6993 1.11994ZM27.7577 5.24131L28.8513 5.00012C28.7247 4.42594 28.1756 4.04745 27.5939 4.1334L27.7577 5.24131ZM14.6935 29.88L14.4487 30.9729C14.6104 31.0091 14.778 31.009 14.9397 30.9726L14.6935 29.88ZM1.65751 5.24131L1.81852 4.13301C1.23815 4.04869 0.691022 4.42639 0.56411 4.99895L1.65751 5.24131ZM11.8168 16.0627C11.3297 15.6815 10.6258 15.7674 10.2447 16.2545C9.8635 16.7417 9.94938 17.4455 10.4365 17.8267L11.8168 16.0627ZM13.4953 18.7982L12.8052 19.6802C13.257 20.0337 13.9028 19.9887 14.3012 19.5759L13.4953 18.7982ZM20.7969 12.8451C21.2264 12.4 21.2138 11.691 20.7687 11.2615C20.3237 10.832 19.6147 10.8446 19.1851 11.2897L20.7969 12.8451ZM14.6993 1.11994C13.8059 1.79542 13.8063 1.79595 13.8068 1.79649C13.8069 1.7967 13.8074 1.79728 13.8077 1.7977C13.8083 1.79854 13.809 1.79947 13.8098 1.80048C13.8113 1.8025 13.8131 1.80485 13.8152 1.80753C13.8193 1.81288 13.8245 1.81954 13.8307 1.82745C13.8431 1.84327 13.8598 1.86411 13.8806 1.8896C13.9223 1.94056 13.9808 2.01015 14.0565 2.0953C14.2078 2.26551 14.428 2.49841 14.7187 2.76919C15.2995 3.31034 16.1657 4.00622 17.33 4.65465C19.6723 5.95907 23.1843 7.04925 27.9214 6.34922L27.5939 4.1334C23.3883 4.7549 20.3711 3.7844 18.4198 2.69775C17.4374 2.15064 16.7157 1.5684 16.2455 1.13029C16.0105 0.911455 15.8393 0.72945 15.7306 0.607164C15.6763 0.546061 15.6377 0.500006 15.6147 0.471886C15.6032 0.457831 15.5956 0.448274 15.592 0.443577C15.5901 0.441229 15.5892 0.440099 15.5893 0.44023C15.5894 0.440295 15.5897 0.440677 15.5902 0.44138C15.5905 0.441731 15.5908 0.442163 15.5912 0.442676C15.5914 0.442932 15.5917 0.443378 15.5918 0.443506C15.5922 0.443972 15.5926 0.444459 14.6993 1.11994ZM27.7577 5.24131C26.664 5.4825 26.6639 5.48213 26.6639 5.48183C26.6639 5.48183 26.6638 5.48161 26.6638 5.48162C26.6638 5.48163 26.6639 5.48196 26.664 5.48259C26.6643 5.48386 26.6648 5.48637 26.6656 5.49009C26.6672 5.49752 26.6698 5.50982 26.6733 5.52684C26.6803 5.56088 26.691 5.61377 26.7045 5.6844C26.7314 5.82567 26.7697 6.03768 26.8128 6.31138C26.8991 6.85913 27.0044 7.65192 27.0778 8.61767C27.225 10.5549 27.2413 13.1588 26.7332 15.8652C26.2251 18.5718 25.2014 21.3349 23.3039 23.6443C21.4193 25.938 18.6225 27.8468 14.4474 28.7875L14.9397 30.9726C19.5757 29.9281 22.8175 27.7646 25.0345 25.0663C27.2386 22.3837 28.3795 19.2353 28.9347 16.2785C29.4898 13.3215 29.468 10.5101 29.3113 8.44794C29.2327 7.41398 29.1196 6.56103 29.0254 5.96296C28.9783 5.66375 28.9358 5.42783 28.9046 5.2644C28.889 5.18268 28.8762 5.11903 28.8671 5.07461C28.8625 5.0524 28.8588 5.03499 28.8562 5.02253C28.8548 5.0163 28.8538 5.01131 28.853 5.00757C28.8526 5.0057 28.8522 5.00414 28.8519 5.0029C28.8518 5.00228 28.8517 5.00158 28.8516 5.00127C28.8515 5.00066 28.8513 5.00012 27.7577 5.24131ZM14.9383 28.7872C10.7637 27.852 7.96937 25.9461 6.08786 23.6541C4.19327 21.3463 3.17293 18.583 2.66813 15.875C2.1634 13.1673 2.18307 10.5613 2.33287 8.62221C2.40754 7.65555 2.51397 6.86194 2.60097 6.31358C2.64444 6.03958 2.68299 5.82732 2.71015 5.68587C2.72373 5.61516 2.73446 5.56219 2.74152 5.5281C2.74506 5.51106 2.74767 5.49874 2.74927 5.49129C2.75007 5.48756 2.75062 5.48505 2.7509 5.48378C2.75103 5.48314 2.75111 5.48281 2.75111 5.48279C2.75111 5.48278 2.75106 5.483 2.75107 5.483C2.751 5.4833 2.75092 5.48367 1.65751 5.24131C0.56411 4.99895 0.563991 4.99949 0.563856 5.0001C0.563787 5.00041 0.563634 5.00111 0.563498 5.00173C0.563225 5.00297 0.562884 5.00452 0.562476 5.00639C0.56166 5.01014 0.560576 5.01513 0.559239 5.02137C0.556564 5.03383 0.552871 5.05125 0.548264 5.07348C0.53905 5.11793 0.526175 5.18163 0.510466 5.26343C0.479053 5.42699 0.436272 5.66312 0.388758 5.96259C0.293785 6.56119 0.17958 7.4149 0.09964 8.44969C-0.0597924 10.5135 -0.0853025 13.327 0.466181 16.2855C1.0176 19.2437 2.15486 22.3933 4.35662 25.0754C6.57144 27.7733 9.81218 29.9342 14.4487 30.9729L14.9383 28.7872ZM1.49651 6.34962C6.23216 7.03758 9.73887 5.94772 12.0766 4.64634C13.2388 3.99941 14.1028 3.3057 14.6822 2.76627C14.9721 2.49635 15.1917 2.26422 15.3426 2.09454C15.418 2.00966 15.4765 1.94028 15.518 1.88945C15.5388 1.86403 15.5554 1.84324 15.5678 1.82745C15.574 1.81955 15.5792 1.8129 15.5833 1.80756C15.5853 1.80488 15.5871 1.80253 15.5887 1.80051C15.5895 1.7995 15.5902 1.79857 15.5908 1.79773C15.5911 1.79731 15.5916 1.79673 15.5917 1.79652C15.5921 1.79597 15.5925 1.79544 14.6993 1.11994C13.806 0.444432 13.8063 0.443944 13.8067 0.443477C13.8068 0.443348 13.8071 0.4429 13.8073 0.442643C13.8077 0.442128 13.808 0.441694 13.8083 0.441339C13.8089 0.44063 13.8092 0.440242 13.8092 0.440168C13.8093 0.44002 13.8085 0.441129 13.8066 0.443449C13.803 0.448093 13.7955 0.457577 13.7841 0.471541C13.7612 0.49948 13.7228 0.545286 13.6688 0.606086C13.5606 0.727767 13.39 0.908963 13.1559 1.12692C12.6873 1.56323 11.9676 2.14346 10.9872 2.68926C9.03975 3.77335 6.0256 4.74418 1.81852 4.13301L1.49651 6.34962ZM10.4365 17.8267L12.8052 19.6802L14.1855 17.9162L11.8168 16.0627L10.4365 17.8267ZM14.3012 19.5759L20.7969 12.8451L19.1851 11.2897L12.6895 18.0205L14.3012 19.5759Z" fill="#F1FFF3"/>
</svg>
