<svg width="21" height="30" viewBox="0 0 21 30" fill="none" xmlns="http://www.w3.org/2000/svg">
<path d="M15.2996 20.1022L19.2961 15.7927C19.4709 15.5795 19.5665 15.3124 19.5665 15.0367C19.5665 14.761 19.4709 14.4939 19.2961 14.2807L15.2996 9.97119M19.5559 15.02H7.74642M15.4197 26.0436V26.2034C15.4197 26.8571 15.16 27.4839 14.6978 27.9461C14.2356 28.4083 13.6087 28.6679 12.9551 28.6679H3.79652C3.14289 28.6679 2.5161 28.4083 2.05392 27.9461C1.59174 27.4839 1.33207 26.8571 1.33207 26.2034V3.79666C1.33207 3.14304 1.59174 2.5162 2.05392 2.05403C2.5161 1.59185 3.14289 1.33219 3.79652 1.33219H12.9551C13.6087 1.33219 14.2356 1.59185 14.6978 2.05403C15.16 2.5162 15.4197 3.14304 15.4197 3.79666V3.88325" stroke="#4B39EF" stroke-width="2.63004" stroke-linecap="round" stroke-linejoin="round"/>
</svg>
