<svg width="20" height="20" viewBox="0 0 20 20" fill="none" xmlns="http://www.w3.org/2000/svg">
<path d="M14.7833 17.7081H5.21667C4.1116 17.7081 3.05179 17.2692 2.27039 16.4878C1.48899 15.7063 1.05 14.6465 1.05 13.5415V6.46647C1.05 5.3614 1.48899 4.30159 2.27039 3.52019C3.05179 2.73879 4.1116 2.2998 5.21667 2.2998H14.7833C15.8884 2.2998 16.9482 2.73879 17.7296 3.52019C18.511 4.30159 18.95 5.3614 18.95 6.46647V13.5331C18.9511 14.081 18.8441 14.6237 18.6352 15.1302C18.4263 15.6367 18.1196 16.097 17.7326 16.4848C17.3455 16.8726 16.8858 17.1803 16.3798 17.3902C15.8737 17.6001 15.3312 17.7081 14.7833 17.7081ZM5.21667 3.54147C4.44091 3.54147 3.69693 3.84964 3.14838 4.39818C2.59984 4.94673 2.29167 5.69071 2.29167 6.46647V13.5331C2.29167 14.3089 2.59984 15.0529 3.14838 15.6014C3.69693 16.15 4.44091 16.4581 5.21667 16.4581H14.7833C15.5591 16.4581 16.3031 16.15 16.8516 15.6014C17.4002 15.0529 17.7083 14.3089 17.7083 13.5331V6.46647C17.7083 5.69071 17.4002 4.94673 16.8516 4.39818C16.3031 3.84964 15.5591 3.54147 14.7833 3.54147H5.21667ZM11.825 10.1581L14.5667 7.83314C14.6904 7.72383 14.7673 7.57103 14.7812 7.40651C14.7952 7.24198 14.7452 7.07841 14.6417 6.9498C14.5324 6.82543 14.3787 6.7488 14.2136 6.73634C14.0485 6.72388 13.8851 6.77658 13.7583 6.88314L11.0167 9.20814C10.7297 9.44967 10.3667 9.58211 9.99167 9.58211C9.61661 9.58211 9.2536 9.44967 8.96667 9.20814L6.15 6.8748C6.02292 6.7643 5.85714 6.7088 5.68914 6.72052C5.52114 6.73224 5.36468 6.81022 5.25417 6.9373C5.14366 7.06439 5.08817 7.23016 5.09989 7.39817C5.11161 7.56617 5.18959 7.72263 5.31667 7.83314L8.16667 10.1748C8.67663 10.6103 9.32523 10.8496 9.99584 10.8496C10.6664 10.8496 11.315 10.6103 11.825 10.1748V10.1581Z" fill="#022150"/>
</svg>
