<svg width="24" height="24" viewBox="0 0 24 24" fill="none" xmlns="http://www.w3.org/2000/svg">
<path d="M12.18 15.49C11.4383 15.49 10.7133 15.2701 10.0966 14.858C9.47993 14.446 8.99928 13.8603 8.71546 13.1751C8.43163 12.4898 8.35736 11.7358 8.50206 11.0084C8.64675 10.281 9.00391 9.61279 9.52835 9.08835C10.0528 8.5639 10.721 8.20675 11.4484 8.06205C12.1758 7.91736 12.9298 7.99162 13.6151 8.27545C14.3003 8.55928 14.886 9.03993 15.298 9.65661C15.7101 10.2733 15.93 10.9983 15.93 11.74C15.93 12.2325 15.833 12.7201 15.6446 13.1751C15.4561 13.63 15.1799 14.0434 14.8317 14.3916C14.4834 14.7399 14.07 15.0161 13.6151 15.2045C13.1601 15.393 12.6725 15.49 12.18 15.49ZM12.18 9.36C11.7093 9.36 11.2491 9.49958 10.8577 9.7611C10.4664 10.0226 10.1613 10.3943 9.98117 10.8292C9.80103 11.2641 9.7539 11.7426 9.84573 12.2043C9.93757 12.666 10.1642 13.0901 10.4971 13.4229C10.8299 13.7558 11.254 13.9824 11.7157 14.0743C12.1774 14.1661 12.6559 14.119 13.0908 13.9388C13.5257 13.7587 13.8974 13.4536 14.1589 13.0623C14.4204 12.6709 14.56 12.2107 14.56 11.74C14.56 11.1088 14.3093 10.5034 13.8629 10.0571C13.4166 9.61075 12.8112 9.36 12.18 9.36ZM12.18 22.79C9.57 22.79 7.52 21.38 7.52 19.58C7.52 17.78 9.57 16.37 12.18 16.37C14.79 16.37 16.84 17.78 16.84 19.58C16.84 21.38 14.79 22.79 12.18 22.79ZM12.18 17.79C10.27 17.79 8.94 18.73 8.94 19.58C8.94 20.43 10.27 21.37 12.18 21.37C14.09 21.37 15.42 20.42 15.42 19.58C15.42 18.74 14.09 17.79 12.18 17.79ZM17.18 7.99C16.5108 7.98408 15.8584 7.78023 15.3049 7.40415C14.7513 7.02807 14.3215 6.49658 14.0695 5.87664C13.8175 5.2567 13.7547 4.57605 13.8888 3.92044C14.023 3.26484 14.3482 2.66361 14.8235 2.1925C15.2988 1.7214 15.9028 1.4015 16.5596 1.27311C17.2164 1.14472 17.8964 1.21358 18.5141 1.47102C19.1318 1.72846 19.6595 2.16296 20.0307 2.71977C20.4019 3.27658 20.6 3.9308 20.6 4.6C20.6013 5.04602 20.5146 5.48792 20.3448 5.90037C20.1751 6.31281 19.9256 6.68771 19.6106 7.00356C19.2957 7.31941 18.9216 7.57001 18.5096 7.741C18.0977 7.91198 17.656 8 17.21 8L17.18 7.99ZM17.18 2.63C16.7844 2.63 16.3978 2.7473 16.0689 2.96706C15.74 3.18682 15.4836 3.49918 15.3322 3.86463C15.1809 4.23008 15.1413 4.63222 15.2184 5.02018C15.2956 5.40814 15.4861 5.76451 15.7658 6.04421C16.0455 6.32392 16.4019 6.5144 16.7898 6.59157C17.1778 6.66874 17.5799 6.62913 17.9454 6.47776C18.3108 6.32638 18.6232 6.07004 18.8429 5.74114C19.0627 5.41224 19.18 5.02556 19.18 4.63C19.1801 4.10472 18.9735 3.60051 18.6049 3.22629C18.2363 2.85206 17.7352 2.63788 17.21 2.63H17.18ZM7.12 8C6.44995 7.99999 5.79493 7.80142 5.23766 7.42937C4.6804 7.05731 4.24589 6.52845 3.98902 5.90959C3.73215 5.29073 3.66443 4.60963 3.79443 3.95231C3.92442 3.29499 4.2463 2.69093 4.7194 2.21644C5.1925 1.74194 5.7956 1.41829 6.45254 1.28636C7.10947 1.15443 7.79077 1.22014 8.41039 1.47518C9.03 1.73023 9.56013 2.16318 9.93383 2.71935C10.3075 3.27551 10.508 3.92995 10.51 4.6C10.5113 5.04602 10.4246 5.48792 10.2548 5.90037C10.0851 6.31281 9.83556 6.68771 9.52064 7.00356C9.20572 7.31941 8.83156 7.57001 8.41961 7.741C8.00767 7.91198 7.56603 8 7.12 8ZM7.12 2.64C6.72444 2.64 6.33776 2.7573 6.00886 2.97706C5.67996 3.19682 5.42362 3.50918 5.27224 3.87463C5.12087 4.24008 5.08126 4.64222 5.15843 5.03018C5.2356 5.41814 5.42608 5.77451 5.70579 6.05421C5.98549 6.33392 6.34186 6.5244 6.72982 6.60157C7.11778 6.67874 7.51992 6.63913 7.88537 6.48776C8.25082 6.33638 8.56318 6.08004 8.78294 5.75114C9.0027 5.42224 9.12 5.03556 9.12 4.64C9.12132 4.37651 9.07056 4.11537 8.97064 3.87156C8.87072 3.62775 8.72361 3.40609 8.53776 3.21932C8.35192 3.03254 8.13099 2.88432 7.88769 2.78319C7.64438 2.68206 7.38349 2.62999 7.12 2.63V2.64ZM22.12 11.94C22.12 10.09 19.89 8.64 17.05 8.64C16.949 8.62803 16.8466 8.6376 16.7496 8.66807C16.6526 8.69854 16.5631 8.74921 16.4871 8.81677C16.411 8.88432 16.3502 8.96721 16.3085 9.05998C16.2668 9.15275 16.2453 9.2533 16.2453 9.355C16.2453 9.4567 16.2668 9.55725 16.3085 9.65002C16.3502 9.74279 16.411 9.82568 16.4871 9.89323C16.5631 9.96078 16.6526 10.0115 16.7496 10.0419C16.8466 10.0724 16.949 10.082 17.05 10.07C19.19 10.07 20.69 11.07 20.69 11.94C20.69 12.81 19.19 13.82 17.05 13.82C16.8617 13.82 16.6811 13.8948 16.548 14.028C16.4148 14.1611 16.34 14.3417 16.34 14.53C16.34 14.7183 16.4148 14.8989 16.548 15.032C16.6811 15.1652 16.8617 15.24 17.05 15.24C19.9 15.23 22.13 13.79 22.13 11.93L22.12 11.94ZM7.66 14.37C7.66001 14.2759 7.64132 14.1828 7.60502 14.096C7.56871 14.0092 7.51552 13.9304 7.44853 13.8644C7.38153 13.7983 7.30208 13.7462 7.21478 13.7111C7.12748 13.6761 7.03408 13.6587 6.94 13.66C4.8 13.66 3.3 12.66 3.3 11.78C3.3 10.9 4.8 9.91 6.94 9.91C7.041 9.92196 7.14338 9.9124 7.24041 9.88193C7.33744 9.85146 7.42691 9.80078 7.50294 9.73323C7.57897 9.66568 7.63982 9.58279 7.68149 9.49002C7.72316 9.39725 7.74471 9.2967 7.74471 9.195C7.74471 9.0933 7.72316 8.99275 7.68149 8.89998C7.63982 8.80721 7.57897 8.72432 7.50294 8.65677C7.42691 8.58921 7.33744 8.53854 7.24041 8.50807C7.14338 8.4776 7.041 8.46803 6.94 8.48C4.1 8.48 1.87 9.93 1.87 11.78C1.87 13.63 4.1 15.08 6.94 15.08C7.03408 15.0813 7.12748 15.0639 7.21478 15.0288C7.30208 14.9938 7.38153 14.9417 7.44853 14.8756C7.51552 14.8096 7.56871 14.7308 7.60502 14.644C7.64132 14.5572 7.66001 14.4641 7.66 14.37Z" fill="#969AA8"/>
</svg>
