<svg width="30" height="27" viewBox="0 0 30 27" fill="none" xmlns="http://www.w3.org/2000/svg">
<path d="M15.0973 26.8775C14.5585 26.8707 14.0266 26.7541 13.5344 26.5348C10.3261 25.0677 -0.175993 19.5151 0.00224135 9.41053C0.000618227 7.34116 0.684509 5.32954 1.94706 3.68995C3.20962 2.05037 4.97972 0.875178 6.98081 0.34799C8.31933 -0.00948851 9.71762 -0.0843917 11.0867 0.128048C12.4557 0.340487 13.7656 0.835616 14.9328 1.58192C14.9532 1.60121 14.9802 1.61195 15.0082 1.61195C15.0363 1.61195 15.0633 1.60121 15.0836 1.58192C16.3529 0.764873 17.7916 0.247646 19.2906 0.0694796C20.7896 -0.108686 22.3094 0.0568892 23.7349 0.553645C25.5507 1.20075 27.1247 2.38868 28.2449 3.9575C29.3652 5.52631 29.9779 7.40068 30.0005 9.32827C29.8085 20.6393 19.5669 25.4105 16.441 26.617C16.0125 26.7842 15.5573 26.8725 15.0973 26.8775ZM9.6132 2.07549C8.90583 2.07428 8.2011 2.16179 7.51551 2.33599C5.94076 2.7442 4.54682 3.66527 3.55374 4.95379C2.56066 6.2423 2.02502 7.82487 2.03137 9.45166C1.88056 18.2948 11.4367 23.3265 14.3707 24.6564C14.5865 24.7524 14.82 24.8021 15.0562 24.8021C15.2924 24.8021 15.5259 24.7524 15.7417 24.6564C18.5798 23.587 27.8205 19.2957 27.9851 9.27343C27.9526 7.77981 27.469 6.33096 26.5979 5.11726C25.7268 3.90356 24.5089 2.9818 23.1042 2.47309C21.9744 2.08315 20.7711 1.95338 19.5841 2.09344C18.3971 2.23351 17.257 2.6398 16.249 3.282C15.8965 3.51264 15.4843 3.63548 15.0631 3.63548C14.6418 3.63548 14.2297 3.51264 13.8771 3.282C12.5958 2.46805 11.1035 2.0485 9.58578 2.07549H9.6132Z" fill="#4B39EF"/>
</svg>
