<svg width="19" height="20" viewBox="0 0 19 20" fill="none" xmlns="http://www.w3.org/2000/svg">
<g clip-path="url(#clip0_42_5776)">
<path d="M14.9996 12.0898L14.2166 13.4375H15.7863L15.0033 12.0898H14.9996ZM13.7824 10L11.7785 6.5625H7.22148L5.21758 10L7.22148 13.4375H11.7785L13.7824 10ZM16.2205 10L18.2021 13.3984C18.3357 13.6289 18.4062 13.8945 18.4062 14.1641C18.4062 14.9727 17.7828 15.625 17.0184 15.625H12.94L10.8545 19.1992C10.5688 19.6992 10.0529 20 9.5 20C8.94707 20 8.43125 19.6992 8.1418 19.1992L6.05996 15.625H1.98164C1.21719 15.625 0.59375 14.9688 0.59375 14.1641C0.59375 13.8945 0.664258 13.6289 0.797852 13.3984L2.77949 10L0.797852 6.60156C0.664258 6.37109 0.59375 6.10547 0.59375 5.83594C0.59375 5.03125 1.21719 4.375 1.98164 4.375H6.05996L8.14551 0.800781C8.43125 0.300781 8.94707 0 9.5 0C10.0529 0 10.5688 0.300781 10.8582 0.800781L12.94 4.375H17.0184C17.7865 4.375 18.4062 5.03125 18.4062 5.83594C18.4062 6.10547 18.3357 6.37109 18.2021 6.60156L16.2205 10ZM14.2166 6.5625L14.9996 7.91016L15.7863 6.5625H14.2166ZM10.502 4.375L9.5 2.65625L8.49805 4.375H10.502ZM4.7834 6.5625H3.21367L3.99668 7.91016L4.7834 6.5625ZM4.00039 12.0898L3.21367 13.4375H4.7834L4.00039 12.0898ZM8.49805 15.625L9.5 17.3438L10.502 15.625H8.49805Z" fill="black"/>
</g>
<defs>
<clipPath id="clip0_42_5776">
<rect width="19" height="20" fill="white"/>
</clipPath>
</defs>
</svg>
