<svg width="20" height="20" viewBox="0 0 20 20" fill="none" xmlns="http://www.w3.org/2000/svg">
<path d="M9.83328 11.0753C8.89217 11.0753 7.9722 10.7962 7.18969 10.2733C6.40719 9.75049 5.7973 9.00734 5.43715 8.13786C5.07701 7.26839 4.98278 6.31165 5.16638 5.38862C5.34998 4.4656 5.80317 3.61774 6.46863 2.95228C7.1341 2.28681 7.98195 1.83363 8.90498 1.65003C9.828 1.46642 10.7847 1.56066 11.6542 1.9208C12.5237 2.28095 13.2668 2.89084 13.7897 3.67334C14.3125 4.45584 14.5916 5.37582 14.5916 6.31693C14.5916 6.9418 14.4685 7.56056 14.2294 8.13786C13.9903 8.71517 13.6398 9.23973 13.1979 9.68158C12.7561 10.1234 12.2315 10.4739 11.6542 10.7131C11.0769 10.9522 10.4582 11.0753 9.83328 11.0753ZM9.83328 2.8086C9.13905 2.80695 8.45993 3.0113 7.88189 3.3958C7.30385 3.7803 6.85288 4.32765 6.58607 4.96856C6.31925 5.60948 6.24859 6.31515 6.38301 6.99625C6.51744 7.67735 6.85092 8.30325 7.34123 8.79473C7.83155 9.28622 8.45666 9.62118 9.13744 9.75723C9.81821 9.89328 10.524 9.82429 11.1656 9.559C11.8071 9.29371 12.3556 8.84404 12.7414 8.26692C13.1273 7.6898 13.3333 7.01117 13.3333 6.31693C13.3311 5.38858 12.9619 4.49875 12.3062 3.84152C11.6506 3.1843 10.7616 2.81299 9.83328 2.8086ZM3.03328 17.9253C3.51661 15.0586 6.44161 12.9253 9.83328 12.9253C10.4361 12.9245 11.0371 12.9916 11.6249 13.1253C11.7069 13.1495 11.793 13.1566 11.8779 13.1463C11.9628 13.1359 12.0446 13.1082 12.1183 13.0649C12.1921 13.0217 12.2562 12.9637 12.3066 12.8947C12.3571 12.8257 12.3928 12.7471 12.4117 12.6637C12.4305 12.5803 12.4321 12.4939 12.4162 12.4099C12.4003 12.3259 12.3674 12.246 12.3194 12.1752C12.2715 12.1045 12.2095 12.0443 12.1373 11.9984C12.0652 11.9526 11.9844 11.922 11.8999 11.9086C11.2227 11.7483 10.5292 11.6672 9.83328 11.6669C5.83328 11.6669 2.39161 14.2586 1.79995 17.7169C1.77574 17.8802 1.81618 18.0464 1.91268 18.1802C2.00918 18.3141 2.15411 18.405 2.31661 18.4336H2.42495C2.56949 18.4323 2.7091 18.3809 2.82002 18.2882C2.93094 18.1955 3.00631 18.0673 3.03328 17.9253ZM12.7249 17.7503C12.5601 17.7504 12.3968 17.7173 12.245 17.6529C12.0932 17.5884 11.956 17.494 11.8416 17.3753C11.7112 17.2319 11.6161 17.06 11.564 16.8734C11.5119 16.6867 11.5043 16.4904 11.5416 16.3003L11.7916 15.1169C11.8544 14.8183 12.0054 14.5455 12.2249 14.3336L15.0749 11.6669C15.2231 11.5318 15.3966 11.4276 15.5855 11.3603C15.7744 11.2931 15.9748 11.2642 16.1749 11.2753C16.5786 11.3006 16.9573 11.4795 17.2333 11.7753L17.7749 12.3586C18.0599 12.6471 18.2197 13.0364 18.2197 13.4419C18.2197 13.8475 18.0599 14.2367 17.7749 14.5253L14.9249 17.1836C14.6963 17.3987 14.4037 17.5333 14.0916 17.5669L12.8916 17.7336L12.7249 17.7503ZM16.0583 12.5336C15.9999 12.5318 15.9432 12.5527 15.8999 12.5919L13.0833 15.2503C13.0505 15.2821 13.0274 15.3225 13.0166 15.3669L12.7666 16.5586L13.9166 16.3336C13.9635 16.3283 14.0074 16.3078 14.0416 16.2753L16.8833 13.6169C16.9325 13.5619 16.9597 13.4907 16.9597 13.4169C16.9597 13.3431 16.9325 13.2719 16.8833 13.2169L16.3333 12.6336C16.3056 12.6034 16.2722 12.579 16.235 12.5618C16.1978 12.5446 16.1576 12.535 16.1166 12.5336H16.0583Z" fill="#022150"/>
</svg>
