<svg width="30" height="31" viewBox="0 0 30 31" fill="none" xmlns="http://www.w3.org/2000/svg">
<path d="M24.7705 16.9355L28.4987 19.089C28.5832 19.1353 28.6578 19.1978 28.7181 19.2729C28.7784 19.348 28.8233 19.4344 28.8502 19.5269C28.8771 19.6194 28.8854 19.7163 28.8748 19.812C28.8641 19.9078 28.8346 20.0005 28.7881 20.0849L25.9494 25.0004C25.8524 25.1675 25.6933 25.2894 25.5067 25.3396C25.3202 25.3899 25.1213 25.3643 24.9536 25.2686L21.2297 23.1406C20.4309 23.7839 19.5362 24.2979 18.5783 24.6642V28.9669C18.5788 29.0628 18.5604 29.1579 18.5241 29.2467C18.4878 29.3355 18.4343 29.4162 18.3666 29.4842C18.299 29.5523 18.2186 29.6063 18.13 29.6431C18.0414 29.6799 17.9464 29.6989 17.8505 29.6989H12.1774C12.0813 29.6989 11.9861 29.68 11.8973 29.6432C11.8085 29.6064 11.7278 29.5525 11.6598 29.4845C11.5918 29.4165 11.5379 29.3358 11.5012 29.247C11.4644 29.1582 11.4454 29.063 11.4454 28.9669V24.6642C10.4879 24.297 9.5934 23.783 8.79401 23.1406L5.07438 25.2686C4.9066 25.3643 4.70775 25.3899 4.5212 25.3396C4.33465 25.2894 4.17552 25.1675 4.0785 25.0004L1.23984 20.0849C1.14407 19.9171 1.11852 19.7183 1.16874 19.5317C1.21897 19.3452 1.3409 19.1861 1.50796 19.089L5.23611 16.9355C5.15308 16.4304 5.10897 15.9196 5.10418 15.4077C5.10915 14.8972 5.15326 14.3879 5.23611 13.8841L1.50796 11.7306C1.42272 11.6851 1.34735 11.6231 1.28618 11.5483C1.22501 11.4735 1.17924 11.3873 1.15155 11.2947C1.12385 11.2022 1.11475 11.105 1.12479 11.0089C1.13483 10.9128 1.16381 10.8196 1.21005 10.7348L4.0487 5.81921C4.14573 5.65215 4.30486 5.53024 4.49141 5.48002C4.67796 5.42979 4.87681 5.45532 5.04459 5.55109L8.76422 7.67902C9.56449 7.03685 10.4588 6.52156 11.4156 6.15118V1.8485C11.4168 1.6551 11.4944 1.46997 11.6315 1.33361C11.7687 1.19725 11.9542 1.12071 12.1476 1.12071H17.8292C18.0222 1.12071 18.2073 1.19739 18.3438 1.33387C18.4803 1.47035 18.557 1.65549 18.557 1.8485V6.15118C19.5143 6.52064 20.4087 7.03601 21.2084 7.67902L24.9323 5.55109C25.1 5.45532 25.2989 5.42979 25.4854 5.48002C25.672 5.53024 25.8311 5.65215 25.9282 5.81921L28.7668 10.7348C28.8626 10.9025 28.8881 11.1014 28.8379 11.2879C28.7877 11.4745 28.6658 11.6336 28.4987 11.7306L24.7705 13.8841C24.852 14.388 24.8947 14.8973 24.8982 15.4077C24.8948 15.9195 24.8521 16.4303 24.7705 16.9355Z" stroke="#4B39EF" stroke-width="2.22242" stroke-linecap="round" stroke-linejoin="round"/>
</svg>
