<svg width="24" height="21" viewBox="0 0 24 21" fill="none" xmlns="http://www.w3.org/2000/svg">
<mask id="path-1-inside-1_0_28" fill="white">
<path fill-rule="evenodd" clip-rule="evenodd" d="M1.85472 10.9303L11.8377 21L20.9271 11.9897L20.8897 11.952L21.863 10.9792C24.375 8.46828 24.3758 4.39647 21.8649 1.88452C19.3541 -0.627424 15.2823 -0.628288 12.7703 1.88259L11.8345 2.81803L10.9441 1.91994C8.4559 -0.589928 4.40405 -0.607551 1.89408 1.88058C-0.615887 4.36871 -0.633511 8.42039 1.85472 10.9303Z"/>
</mask>
<path d="M11.8377 21L10.3743 22.4507L11.825 23.914L13.2883 22.4634L11.8377 21ZM1.85472 10.9303L3.31806 9.47953L1.85472 10.9303ZM20.9271 11.9897L22.3777 13.4531L23.8412 12.0024L22.3904 10.539L20.9271 11.9897ZM20.8897 11.952L19.433 10.4947L17.9816 11.9454L19.4264 13.4027L20.8897 11.952ZM12.7703 1.88259L14.227 3.33994L12.7703 1.88259ZM11.8345 2.81803L10.3711 4.26875L11.8278 5.73812L13.2912 4.27538L11.8345 2.81803ZM10.9441 1.91994L12.4075 0.469221L10.9441 1.91994ZM1.89408 1.88058L3.34474 3.34397L1.89408 1.88058ZM13.301 19.5493L3.31806 9.47953L0.391388 12.381L10.3743 22.4507L13.301 19.5493ZM19.4764 10.5263L10.387 19.5366L13.2883 22.4634L22.3777 13.4531L19.4764 10.5263ZM19.4264 13.4027L19.4637 13.4404L22.3904 10.539L22.3531 10.5013L19.4264 13.4027ZM20.4063 9.5218L19.433 10.4947L22.3465 13.4094L23.3197 12.4365L20.4063 9.5218ZM20.4076 3.34126C22.1139 5.04833 22.1134 7.81545 20.4063 9.5218L23.3197 12.4365C26.6366 9.1211 26.6377 3.74461 23.3223 0.427791L20.4076 3.34126ZM14.227 3.33994C15.9341 1.63359 18.7012 1.63418 20.4076 3.34126L23.3223 0.427791C20.0069 -2.88903 14.6304 -2.89017 11.3136 0.42524L14.227 3.33994ZM13.2912 4.27538L14.227 3.33994L11.3136 0.42524L10.3777 1.36068L13.2912 4.27538ZM9.4808 3.37066L10.3711 4.26875L13.2978 1.36731L12.4075 0.469221L9.4808 3.37066ZM3.34474 3.34397C5.04653 1.657 7.79375 1.66895 9.4808 3.37066L12.4075 0.469221C9.11805 -2.8488 3.76158 -2.8721 0.443423 0.417186L3.34474 3.34397ZM3.31806 9.47953C1.63106 7.77787 1.64301 5.03091 3.34474 3.34397L0.443423 0.417186C-2.87478 3.70652 -2.89808 9.06291 0.391388 12.381L3.31806 9.47953Z" fill="black" mask="url(#path-1-inside-1_0_28)"/>
</svg>
