<svg width="30" height="37" viewBox="0 0 30 37" fill="none" xmlns="http://www.w3.org/2000/svg">
<path fill-rule="evenodd" clip-rule="evenodd" d="M15 0C9.51495 0 5.06845 4.4465 5.06845 9.93152C5.06845 14.46 8.09925 18.2805 12.2431 19.4754C8.97174 19.874 6.1659 21.0311 4.0522 23.1142C1.36203 25.7655 0 29.7124 0 34.8628C0 35.5817 0.582659 36.1642 1.30137 36.1642C2.02011 36.1642 2.60274 35.5817 2.60274 34.8628C2.60274 30.1505 3.8434 26.9743 5.87916 24.968C7.91875 22.9579 10.9636 21.9178 14.9998 21.9178C19.0361 21.9178 22.0811 22.9579 24.1208 24.968C26.1564 26.9743 27.3973 30.1505 27.3973 34.8628C27.3973 35.5817 27.9797 36.1642 28.6986 36.1642C29.4173 36.1644 30 35.5817 30 34.8631C30 29.7124 28.6378 25.7655 25.9477 23.1142C23.834 21.0311 21.0281 19.8741 17.7568 19.4754C21.9005 18.2806 24.9315 14.46 24.9315 9.93152C24.9315 4.4465 20.485 0 15 0ZM7.67119 9.93152C7.67119 5.88396 10.9524 2.60274 15 2.60274C19.0475 2.60274 22.3288 5.88396 22.3288 9.93152C22.3288 13.9791 19.0475 17.2603 15 17.2603C10.9524 17.2603 7.67119 13.9791 7.67119 9.93152Z" fill="#4B39EF"/>
</svg>
