<svg width="24" height="21" viewBox="0 0 24 21" fill="none" xmlns="http://www.w3.org/2000/svg">
<mask id="path-1-inside-1_0_56" fill="white">
<path fill-rule="evenodd" clip-rule="evenodd" d="M1.85472 10.9303L11.8377 21L20.927 11.9897L20.8897 11.952L21.863 10.9792C24.3749 8.4683 24.3758 4.3965 21.8649 1.88455C19.354 -0.627392 15.2822 -0.628256 12.7703 1.88262L11.8345 2.81806L10.9441 1.91997C8.45589 -0.589896 4.40405 -0.607519 1.89408 1.88061C-0.615886 4.36874 -0.63351 8.42041 1.85472 10.9303Z"/>
</mask>
<path d="M11.8377 21L10.3743 22.4507L11.825 23.914L13.2883 22.4634L11.8377 21ZM1.85472 10.9303L3.31805 9.47956L1.85472 10.9303ZM20.927 11.9897L22.3777 13.4531L23.8412 12.0024L22.3904 10.539L20.927 11.9897ZM20.8897 11.952L19.433 10.4947L17.9816 11.9454L19.4264 13.4028L20.8897 11.952ZM21.863 10.9792L23.3197 12.4365L21.863 10.9792ZM11.8345 2.81806L10.3711 4.26877L11.8278 5.73814L13.2912 4.27541L11.8345 2.81806ZM10.9441 1.91997L12.4075 0.469252L10.9441 1.91997ZM1.89408 1.88061L3.34474 3.344L1.89408 1.88061ZM13.301 19.5493L3.31805 9.47956L0.391387 12.381L10.3743 22.4507L13.301 19.5493ZM19.4764 10.5263L10.387 19.5366L13.2883 22.4634L22.3777 13.4531L19.4764 10.5263ZM19.4264 13.4028L19.4637 13.4404L22.3904 10.539L22.353 10.5013L19.4264 13.4028ZM20.4063 9.52183L19.433 10.4947L22.3464 13.4094L23.3197 12.4365L20.4063 9.52183ZM20.4076 3.34128C22.1139 5.04835 22.1133 7.81548 20.4063 9.52183L23.3197 12.4365C26.6365 9.12112 26.6377 3.74464 23.3223 0.427822L20.4076 3.34128ZM14.227 3.33997C15.9341 1.63362 18.7012 1.63421 20.4076 3.34128L23.3223 0.427822C20.0069 -2.88899 14.6304 -2.89013 11.3136 0.425271L14.227 3.33997ZM13.2912 4.27541L14.227 3.33997L11.3136 0.425271L10.3777 1.36071L13.2912 4.27541ZM9.48079 3.37069L10.3711 4.26877L13.2978 1.36734L12.4075 0.469252L9.48079 3.37069ZM3.34474 3.344C5.04652 1.65703 7.79374 1.66898 9.48079 3.37069L12.4075 0.469252C9.11804 -2.84877 3.76158 -2.87207 0.443422 0.417217L3.34474 3.344ZM3.31805 9.47956C1.63106 7.77789 1.643 5.03093 3.34474 3.344L0.443422 0.417217C-2.87478 3.70654 -2.89808 9.06293 0.391387 12.381L3.31805 9.47956Z" fill="black" mask="url(#path-1-inside-1_0_56)"/>
</svg>
