<svg width="17" height="19" viewBox="0 0 17 19" fill="none" xmlns="http://www.w3.org/2000/svg">
<path fill-rule="evenodd" clip-rule="evenodd" d="M7.28463 4.375L8.71086 1.96406L10.129 4.36126L7.28463 4.375ZM6.11943 4.38062L8.28052 0.727451C8.4741 0.400216 8.94761 0.400217 9.1412 0.727451L11.2875 4.35566L15.6873 4.33441C16.078 4.33253 16.327 4.7486 16.1333 5.07977L13.9373 8.83485L16.5536 13.2576C16.7508 13.5909 16.5105 14.0122 16.1233 14.0122H10.9094L8.78435 17.6459C8.59239 17.9741 8.10874 17.9728 7.9117 17.6435L5.73895 14.0122H1.29844C0.911183 14.0122 0.670928 13.5909 0.8681 13.2576L3.06519 9.5436L0.435668 5.14895C0.238629 4.81965 0.475103 4.40788 0.862336 4.40601L6.11943 4.38062ZM3.64441 8.56447L1.74649 5.39254L5.53163 5.37426L3.64441 8.56447ZM4.22865 9.54091L6.69683 5.36863L10.7134 5.34923L12.7718 8.82888L10.3253 13.0122H6.30568L4.22865 9.54091ZM3.64943 10.52L2.17516 13.0122H5.1406L3.64943 10.52ZM6.90403 14.0122L8.33848 16.4096L9.74051 14.0122H6.90403ZM11.4942 13.0122H15.2466L13.3596 9.82251L11.4942 13.0122ZM13.3495 7.84122L14.8184 5.32941L11.872 5.34364L13.3495 7.84122Z" fill="#022150"/>
</svg>
