<svg width="20" height="20" viewBox="0 0 20 20" fill="none" xmlns="http://www.w3.org/2000/svg">
<path d="M7.29166 18.4583C6.91156 18.4552 6.5386 18.3548 6.20833 18.1666L4.84999 17.375C4.60283 17.2336 4.38634 17.0443 4.21321 16.8182C4.04007 16.5921 3.91376 16.3338 3.84166 16.0583C3.76541 15.78 3.74531 15.4893 3.7825 15.2032C3.8197 14.9171 3.91346 14.6412 4.05833 14.3916L4.42499 13.7666C4.24514 13.5002 4.08365 13.2217 3.94166 12.9333H3.19166C2.90713 12.9322 2.6256 12.8751 2.36314 12.7652C2.10069 12.6553 1.86245 12.4948 1.66203 12.2928C1.46161 12.0909 1.30293 11.8514 1.19506 11.5881C1.08719 11.3248 1.03223 11.0428 1.03333 10.7583V9.16665C1.03574 8.8886 1.09292 8.61375 1.20159 8.3578C1.31026 8.10186 1.46829 7.86983 1.66666 7.67498C1.8667 7.47488 2.10455 7.31657 2.36637 7.20927C2.62818 7.10197 2.90872 7.04782 3.19166 7.04998H3.92499C4.06803 6.76042 4.23237 6.48187 4.41666 6.21665L4.04999 5.55831C3.90865 5.31047 3.81804 5.03697 3.78346 4.75376C3.74888 4.47055 3.77102 4.18328 3.84858 3.90871C3.92614 3.63414 4.05758 3.37776 4.23523 3.1545C4.41288 2.93124 4.63319 2.74557 4.88333 2.60831L6.24999 1.82498C6.49838 1.68587 6.77175 1.59708 7.05447 1.56368C7.33719 1.53028 7.62372 1.55292 7.89769 1.63031C8.17165 1.7077 8.42768 1.83833 8.65114 2.01472C8.8746 2.19111 9.0611 2.40981 9.19999 2.65831L9.55833 3.28331C9.85253 3.26664 10.1475 3.26664 10.4417 3.28331L10.8333 2.62498C10.9758 2.37868 11.1655 2.16286 11.3914 1.98985C11.6173 1.81684 11.8751 1.69002 12.15 1.61665C12.428 1.53803 12.7191 1.51669 13.0056 1.55393C13.2921 1.59118 13.568 1.68623 13.8167 1.83331L15.175 2.61665C15.672 2.90419 16.0346 3.37728 16.183 3.93198C16.3315 4.48668 16.2537 5.07762 15.9667 5.57498L15.6083 6.20831C15.7959 6.47298 15.9631 6.75157 16.1083 7.04165H16.8583C17.4323 7.04824 17.9803 7.28144 18.3831 7.69042C18.7858 8.0994 19.0106 8.651 19.0083 9.22498V10.8333C19.0018 11.4044 18.7709 11.9499 18.3655 12.3522C17.9601 12.7545 17.4128 12.9812 16.8417 12.9833H16.1C15.9634 13.2536 15.8103 13.5152 15.6417 13.7666L16.0167 14.425C16.1558 14.6734 16.2446 14.9467 16.278 15.2295C16.3114 15.5122 16.2887 15.7987 16.2113 16.0727C16.1339 16.3466 16.0033 16.6027 15.8269 16.8261C15.6505 17.0496 15.4318 17.2361 15.1833 17.375L13.8167 18.1583C13.5685 18.2985 13.2951 18.3882 13.0121 18.4222C12.7292 18.4562 12.4423 18.4338 12.168 18.3563C11.8938 18.2789 11.6375 18.1478 11.4142 17.9708C11.1908 17.7938 11.0047 17.5743 10.8667 17.325L10.5 16.7C10.1894 16.7249 9.87727 16.7249 9.56666 16.7L9.18333 17.35C8.99508 17.6863 8.72054 17.9663 8.38803 18.1611C8.05551 18.3559 7.67705 18.4585 7.29166 18.4583ZM3.20833 8.33331C2.96653 8.33278 2.73379 8.42528 2.55833 8.59165C2.47332 8.67713 2.40601 8.77855 2.36025 8.89008C2.31449 9.00162 2.29118 9.12109 2.29166 9.24165V10.8083C2.3063 11.0383 2.40704 11.2544 2.57383 11.4135C2.74062 11.5725 2.96121 11.6629 3.19166 11.6666H4.34166C4.46508 11.6647 4.58617 11.7003 4.68888 11.7687C4.79158 11.8372 4.87102 11.9353 4.91666 12.05C5.11091 12.508 5.36296 12.9393 5.66666 13.3333C5.7411 13.433 5.78538 13.5519 5.79425 13.676C5.80311 13.8001 5.77618 13.9241 5.71666 14.0333L5.14166 15.0083C5.02473 15.222 4.99203 15.4717 5.04999 15.7083C5.11314 15.9407 5.26601 16.1386 5.47499 16.2583L6.83333 17.05C6.93762 17.1121 7.0535 17.1523 7.17387 17.168C7.29423 17.1838 7.41655 17.1748 7.53333 17.1416C7.76685 17.0764 7.9666 16.9244 8.09166 16.7166L8.66666 15.7166C8.73006 15.6105 8.82277 15.5249 8.93365 15.4702C9.04453 15.4155 9.16885 15.394 9.29166 15.4083C9.77323 15.4667 10.2601 15.4667 10.7417 15.4083C10.864 15.3887 10.9894 15.407 11.1011 15.4606C11.2128 15.5142 11.3054 15.6006 11.3667 15.7083L11.9333 16.6916C12.0538 16.9026 12.2532 17.0572 12.4876 17.1212C12.722 17.1853 12.9722 17.1537 13.1833 17.0333L14.5417 16.25C14.6473 16.1923 14.7401 16.1138 14.8146 16.0193C14.889 15.9248 14.9436 15.8162 14.975 15.7C15.033 15.4634 15.0003 15.2137 14.8833 15L14.3083 14C14.2413 13.8971 14.2056 13.7769 14.2056 13.6541C14.2056 13.5313 14.2413 13.4112 14.3083 13.3083C14.6015 12.9297 14.8451 12.5153 15.0333 12.075C15.0744 11.9566 15.1525 11.8546 15.256 11.784C15.3596 11.7135 15.4831 11.6782 15.6083 11.6833H16.7417C16.9811 11.6928 17.215 11.6099 17.395 11.4516C17.5749 11.2934 17.6871 11.072 17.7083 10.8333V9.24998C17.7088 9.12942 17.6855 9.00995 17.6397 8.89842C17.594 8.78688 17.5267 8.68546 17.4417 8.59998C17.3587 8.51334 17.2591 8.44432 17.1489 8.39707C17.0386 8.34982 16.9199 8.3253 16.8 8.32498H15.6583C15.5347 8.32294 15.4144 8.28477 15.3122 8.21517C15.2101 8.14557 15.1305 8.04759 15.0833 7.93331C14.8889 7.47879 14.6338 7.05269 14.325 6.66665C14.2499 6.56704 14.2058 6.44747 14.1984 6.32294C14.191 6.19841 14.2206 6.07446 14.2833 5.96665L14.85 4.98331C14.9703 4.77222 15.002 4.52198 14.9379 4.28759C14.8738 4.0532 14.7193 3.85383 14.5083 3.73331L13.15 2.91665C12.9534 2.8029 12.7203 2.77002 12.5 2.82498C12.2657 2.88863 12.0654 3.04108 11.9417 3.24998L11.3667 4.24998C11.3049 4.35762 11.2124 4.44443 11.1011 4.49934C10.9898 4.55426 10.8647 4.57478 10.7417 4.55831C10.274 4.50001 9.80096 4.50001 9.33333 4.55831C9.21152 4.57418 9.08775 4.55331 8.97788 4.49838C8.86801 4.44344 8.77705 4.35695 8.71666 4.24998L8.11666 3.25831C7.99459 3.04898 7.79524 2.89591 7.56149 2.83201C7.32773 2.76812 7.07824 2.79851 6.86666 2.91665L5.49999 3.68331C5.28923 3.804 5.1344 4.00274 5.06891 4.23661C5.00343 4.47048 5.03255 4.72073 5.14999 4.93331L5.71666 5.94165C5.78617 6.05221 5.81879 6.182 5.8098 6.31229C5.80082 6.44259 5.75069 6.56667 5.66666 6.66665C5.36538 7.05031 5.11341 7.47026 4.91666 7.91665C4.87006 8.03066 4.79038 8.1281 4.6879 8.19642C4.58542 8.26475 4.46482 8.30081 4.34166 8.29998H3.20833V8.33331ZM9.99999 13.3333C9.34072 13.3333 8.69626 13.1378 8.14809 12.7715C7.59993 12.4053 7.17269 11.8847 6.92039 11.2756C6.6681 10.6665 6.60209 9.99628 6.73071 9.34968C6.85933 8.70307 7.17679 8.10913 7.64297 7.64296C8.10914 7.17678 8.70309 6.85931 9.34969 6.73069C9.99629 6.60208 10.6665 6.66809 11.2756 6.92038C11.8847 7.17267 12.4053 7.59992 12.7716 8.14808C13.1378 8.69624 13.3333 9.34071 13.3333 9.99998C13.3333 10.884 12.9821 11.7319 12.357 12.357C11.7319 12.9821 10.884 13.3333 9.99999 13.3333ZM9.99999 7.91665C9.58795 7.91665 9.18516 8.03883 8.84255 8.26775C8.49995 8.49667 8.23293 8.82204 8.07524 9.20272C7.91756 9.5834 7.8763 10.0023 7.95669 10.4064C8.03708 10.8105 8.23549 11.1818 8.52685 11.4731C8.81821 11.7645 9.18943 11.9629 9.59355 12.0433C9.99768 12.1237 10.4166 12.0824 10.7972 11.9247C11.1779 11.767 11.5033 11.5 11.7322 11.1574C11.9611 10.8148 12.0833 10.412 12.0833 9.99998C12.0833 9.44744 11.8638 8.91754 11.4731 8.52684C11.0824 8.13614 10.5525 7.91665 9.99999 7.91665Z" fill="#022150"/>
</svg>
