<svg width="150" height="110" viewBox="0 0 150 110" fill="none" xmlns="http://www.w3.org/2000/svg">
<path d="M149.455 34.9271C149.161 34.2458 148.83 33.5645 148.548 32.8895C148.173 31.8415 147.525 30.9119 146.673 30.1956C145.768 29.559 144.79 29.0323 143.761 28.6268C140.602 27.4487 137.327 26.6106 133.991 26.1266C125.76 24.8766 117.459 24.0327 109.24 22.6389C107.215 22.2952 105.171 22.1139 103.152 21.6952C101.133 21.2764 99.1894 21.0701 97.208 20.7451C92.9328 20.0201 88.6076 19.6513 84.3448 18.87C81.976 18.4262 79.5759 18.1574 77.2007 17.7699C72.9255 17.0824 68.6253 16.5886 64.3376 15.9823C61.9499 15.6448 59.5623 15.3573 57.1809 14.9323C52.1431 14.051 47.0429 13.6197 41.9989 12.7322C38.3049 12.1071 34.5672 11.7634 30.8233 11.4821C28.5794 11.3071 26.3418 11.0446 24.0979 10.8946C22.1416 10.7633 20.179 10.7008 18.2163 10.7196C15.7973 10.7819 13.3881 11.0537 11.016 11.5321C10.3127 11.6725 9.65469 11.9837 9.09992 12.4382C8.54515 12.8927 8.11062 13.4766 7.83456 14.1385C6.69633 16.688 5.90588 19.3789 5.48443 22.1389C4.97815 24.9266 4.49062 27.708 4.0781 30.5081C3.52182 34.2583 3.02805 37.9773 2.79679 41.7587C2.68428 43.5838 2.39052 45.4089 2.17176 47.234C1.69673 51.4467 1.1217 55.6532 0.921691 59.8909C0.802935 62.266 0.577906 64.6349 0.552904 67.01C0.515402 70.5227 0.102882 74.0229 0.0466291 77.5356C-0.0587804 78.9975 0.0146874 80.4668 0.265395 81.9108C0.404508 82.643 0.71026 83.3333 1.15898 83.9284C1.6077 84.5234 2.18735 85.0072 2.85304 85.3423C4.0031 85.8923 13.2348 88.0174 16.285 88.5237L17.7851 106.5C17.9539 107.07 18.2799 107.581 18.7257 107.975C19.1715 108.369 19.7192 108.63 20.3061 108.727C20.893 108.824 21.4954 108.754 22.0444 108.525C22.5933 108.296 23.0667 107.917 23.4104 107.431L35.5235 90.6863C38.3862 91.078 41.2447 91.4947 44.099 91.9364C50.6118 92.9052 57.1184 93.949 63.7063 94.3552C65.8001 94.4865 67.8815 94.7178 69.9566 94.8928C72.0317 95.0678 74.2693 95.2115 76.4194 95.4678C80.2071 95.9241 84.0261 96.1866 87.7888 96.8366C89.2826 97.0991 90.7827 97.3304 92.2828 97.5617C94.3079 97.8804 96.3517 98.0929 98.3706 98.493C100.933 98.993 103.54 99.218 106.115 99.6868C108.402 100.099 110.715 100.312 113.459 100.693C117.097 101.318 121.228 101.593 125.335 102.156C126.441 102.306 127.553 102.293 128.666 102.343C130.06 102.406 131.429 101.981 132.804 101.981C134.26 101.961 135.687 101.574 136.954 100.856C137.316 100.688 137.633 100.438 137.883 100.127C138.132 99.8159 138.306 99.4513 138.391 99.0617C138.508 98.6068 138.654 98.16 138.829 97.7242C139.175 96.699 139.465 95.6557 139.698 94.599C140.11 92.8427 140.46 91.0676 140.867 89.305C141.467 86.6757 142.021 84.0359 142.529 81.3858C143.054 78.6857 143.498 75.9668 143.898 73.2604C144.404 69.7977 144.942 66.3413 145.561 62.8973C145.979 60.5535 146.361 58.2033 146.773 55.8595C147.186 53.5156 147.679 51.3905 148.08 49.1466C148.58 46.3152 149.198 43.5213 149.536 40.6399C149.59 40.2718 149.663 39.9067 149.755 39.5461C150.164 38.0152 150.059 36.3921 149.455 34.9271Z" fill="#FFE159"/>
<path d="M109.903 41.0521C109.89 41.0471 109.878 41.0395 109.869 41.0298C109.859 41.0202 109.851 41.0086 109.846 40.9958C109.621 40.5646 109.402 40.1271 109.171 39.7021C108.656 38.7843 108.038 37.9286 107.327 37.1519C105.79 35.4143 103.715 34.6143 101.615 33.8705C100.071 33.3267 98.5394 32.7204 96.8456 33.0704C96.469 32.712 95.9821 32.4916 95.4642 32.4454C94.7856 32.3453 94.0999 32.3014 93.4141 32.3142C89.1452 32.2579 86.0825 34.3892 84.8137 38.302C84.6937 38.3848 84.566 38.456 84.4324 38.5145C82.9866 39.0316 81.7957 40.0859 81.1072 41.4584C80.4836 42.6742 80.0153 43.9635 79.7134 45.2961C79.2473 46.972 79.2044 48.7373 79.5884 50.4339C79.7947 51.2214 80.2134 51.9214 80.4072 52.6965C80.0628 53.842 79.9755 55.0493 80.1516 56.2324C80.3278 57.4155 80.7629 58.5451 81.426 59.5406C82.5516 61.1719 84.2304 62.3399 86.1512 62.8283C88.4294 63.4014 90.6431 64.2056 92.7579 65.2284C93.8054 65.799 95.0224 65.9764 96.1893 65.7284C98.0599 65.291 99.7943 64.4003 101.24 63.1345C104.077 62.7095 106.165 61.1157 107.846 58.8968C108.146 58.8968 108.315 58.6593 108.521 58.4906C110.804 56.5278 112.348 53.844 112.896 50.8839L113.003 48.215C112.617 45.6051 111.537 43.1466 109.878 41.0959L109.903 41.0521Z" fill="#FFFAB8"/>
<path d="M98.6894 30.489C104.221 31.3203 108.652 33.958 111.746 38.6457C113.692 41.5428 114.68 44.977 114.572 48.465C114.397 55.3403 111.296 60.5906 105.69 64.3658C102.18 66.7382 97.9865 67.8871 93.7579 67.6348C91.3592 67.5742 88.9961 67.04 86.8047 66.0628C84.6132 65.0856 82.6366 63.6847 80.9885 61.9407C77.8884 58.7852 76.1511 54.5386 76.1508 50.1151C76.0883 43.071 79.2384 37.6957 84.9637 33.758C86.8459 32.5004 88.9402 31.5941 91.1453 31.0828C94.5142 30.2453 95.9268 30.1265 98.6894 30.489ZM109.903 41.0521C109.89 41.0471 109.878 41.0395 109.869 41.0298C109.859 41.0201 109.851 41.0086 109.846 40.9958C109.621 40.5646 109.403 40.1271 109.171 39.702C108.656 38.7842 108.038 37.9286 107.327 37.1519C105.79 35.4143 103.715 34.6143 101.615 33.8705C100.071 33.3267 98.5394 32.7204 96.8456 33.0704C96.469 32.7119 95.9821 32.4916 95.4643 32.4454C94.7857 32.3453 94.1 32.3014 93.4142 32.3141C89.1452 32.2579 86.0825 34.3892 84.8137 38.3019C84.6937 38.3848 84.566 38.456 84.4324 38.5145C82.9867 39.0316 81.7958 40.0859 81.1073 41.4584C80.4836 42.6741 80.0154 43.9635 79.7135 45.2961C79.2474 46.9719 79.2044 48.7373 79.5884 50.4338C79.7947 51.2214 80.2135 51.9214 80.4072 52.6965C80.0628 53.8419 79.9756 55.0493 80.1517 56.2324C80.3278 57.4155 80.7629 58.5451 81.426 59.5406C82.5517 61.1719 84.2304 62.3399 86.1513 62.8282C88.4294 63.4013 90.6431 64.2055 92.7579 65.2284C93.8054 65.799 95.0225 65.9764 96.1893 65.7284C98.06 65.291 99.7944 64.4002 101.24 63.1345C104.077 62.7095 106.165 61.1157 107.846 58.8968C108.146 58.8968 108.315 58.6593 108.521 58.4905C113.009 55.2466 113.009 48.215 113.009 48.215C112.623 45.6051 111.544 43.1466 109.884 41.0959L109.903 41.0521Z" fill="#FFAF19"/>
<path d="M96.8267 33.0708C98.5206 32.7207 100.052 33.327 101.596 33.8708C103.696 34.6146 105.771 35.4146 107.309 37.1522C108.019 37.9289 108.637 38.7846 109.152 39.7024C109.384 40.1274 109.602 40.5649 109.827 40.9962H109.871V41.0399V41.0837C110.353 42.5263 110.733 44.0008 111.009 45.4964C111.771 50.3904 110.89 54.8719 107.815 58.8847C106.133 61.1035 104.065 62.6973 101.208 63.1224C98.7081 63.0849 97.9455 61.6536 97.883 59.7034C97.8749 59.1654 97.9617 58.6301 98.1393 58.1221C98.505 57.1907 98.9482 56.2917 99.4644 55.4345C99.5831 55.3782 99.6081 55.2532 99.6581 55.1469C100.668 53.8222 101.397 52.3059 101.802 50.6904C102.119 49.4099 102.166 48.0774 101.94 46.7777C101.514 44.4839 100.064 42.765 98.6018 41.0837C98.0781 40.3828 97.4449 39.7708 96.7267 39.2711C96.4978 38.8172 96.1886 38.4086 95.8142 38.0648C94.6329 36.5772 95.1266 33.9521 96.8267 33.0708Z" fill="#F7760C"/>
<path d="M80.3884 52.7027C80.1759 51.9277 79.7634 51.2277 79.5696 50.4401C79.1856 48.7435 79.2286 46.9782 79.6946 45.3023C79.9966 43.9697 80.4648 42.6804 81.0885 41.4646C81.777 40.0921 82.9679 39.0378 84.4136 38.5207C84.5472 38.4622 84.6749 38.3911 84.7949 38.3082L85.3762 38.2707C85.8322 38.2053 86.2972 38.2473 86.734 38.3935C87.1709 38.5396 87.5676 38.7858 87.8924 39.1125C88.2172 39.4391 88.4612 39.8372 88.6049 40.2749C88.7486 40.7125 88.7881 41.1777 88.7201 41.6334C88.6701 42.2584 88.5576 42.8834 88.4764 43.5085C88.2513 44.196 88.0201 44.8898 87.7951 45.5836L86.2012 50.4901C86.0742 50.6789 85.9871 50.8915 85.945 51.1151C85.6604 52.0589 85.2393 52.956 84.6949 53.7778C84.5344 54.035 84.3172 54.252 84.0599 54.4124C83.8026 54.5727 83.512 54.672 83.2104 54.7028C82.9088 54.7336 82.6042 54.6949 82.3198 54.5898C82.0354 54.4848 81.7789 54.316 81.5697 54.0965C81.1135 53.6903 80.8259 53.1277 80.3884 52.7027Z" fill="#F7760C"/>
<path d="M88.4763 43.5147C89.3669 42.2811 90.5087 41.2501 91.8265 40.4896C93.313 39.6155 95.0232 39.1961 96.7455 39.2832C97.4637 39.783 98.0968 40.395 98.6206 41.0959C100.083 42.7772 101.533 44.496 101.958 46.7899C102.184 48.0896 102.138 49.422 101.821 50.7026C101.416 52.3181 100.686 53.8343 99.6769 55.1591C99.6203 55.1832 99.5719 55.2232 99.5375 55.2742C99.5031 55.3252 99.4842 55.3851 99.4831 55.4466C98.3132 56.1161 97.0489 56.6049 95.7329 56.8967C95.0527 57.0778 94.3548 57.1847 93.6516 57.2154L92.9015 56.6279C92.2503 56.0369 91.5521 55.4996 90.8139 55.0216C89.812 54.5735 88.7476 54.2805 87.6575 54.1528C86.7324 53.2465 86.6074 52.0027 86.2824 50.8464L86.1824 50.5026L87.7762 45.5961C88.0263 44.9023 88.2513 44.2085 88.4763 43.5147ZM100.352 49.2525C100.411 48.8568 100.411 48.4545 100.352 48.0587C99.9269 44.0648 96.2204 41.6021 92.2827 43.896C89.6513 45.4336 88.8701 48.8963 90.4076 51.8089C91.0163 52.9296 92.021 53.7831 93.2254 54.2027C94.4297 54.6222 95.7472 54.5777 96.9205 54.0778C98.8456 53.1715 99.9581 51.5902 100.352 49.2588V49.2525Z" fill="#FFAF19"/>
<path d="M87.6761 54.1406C88.7662 54.2683 89.8305 54.5613 90.8324 55.0094C91.5705 55.4874 92.2686 56.0246 92.9199 56.6156L93.6699 57.2031C94.8821 58.4258 95.8066 59.9033 96.3761 61.5281C96.4992 61.8741 96.5708 62.2363 96.5886 62.6031C96.6225 62.9487 96.5383 63.2955 96.3499 63.5872C96.1616 63.8788 95.88 64.0981 95.5511 64.2094C95.0536 64.4521 94.5107 64.5881 93.9574 64.6086C93.4042 64.629 92.8528 64.5335 92.3386 64.3281C91.9261 64.1781 91.5074 64.0344 91.0886 63.8969C89.6824 63.4406 88.7699 62.3906 87.9199 61.2656C87.032 60.1573 86.3753 58.8821 85.9886 57.5156C85.8557 57.132 85.8043 56.7248 85.8376 56.3202C85.871 55.9155 85.9884 55.5223 86.1824 55.1656C86.5639 54.6794 87.0852 54.3217 87.6761 54.1406Z" fill="#F7760C"/>
<path d="M84.701 58.2468C84.6891 58.4056 84.6461 58.5605 84.5743 58.7027C84.5025 58.8449 84.4035 58.9716 84.2827 59.0755C84.162 59.1794 84.022 59.2584 83.8707 59.3082C83.7194 59.358 83.5598 59.3774 83.401 59.3655C83.0947 59.3219 82.8171 59.1617 82.6261 58.9183C82.4351 58.6749 82.3455 58.3671 82.376 58.0593C82.4164 57.739 82.5757 57.4456 82.8223 57.2372C83.0688 57.0289 83.3847 56.9207 83.7072 56.9342C83.8601 56.9517 84.0079 57 84.1416 57.0763C84.2753 57.1525 84.3921 57.2551 84.485 57.3778C84.578 57.5005 84.645 57.6408 84.6821 57.7901C84.7192 57.9395 84.7256 58.0948 84.701 58.2468Z" fill="#FFAF19"/>
<path d="M91.864 35.2082C92.0495 35.2252 92.2297 35.2793 92.3938 35.3674C92.5579 35.4555 92.7026 35.5758 92.8193 35.721C92.9359 35.8662 93.0221 36.0335 93.0728 36.2127C93.1234 36.392 93.1374 36.5796 93.114 36.7644C93.0063 37.1597 92.7534 37.4998 92.4057 37.7165C92.058 37.9332 91.6413 38.0106 91.239 37.9332C90.897 37.8665 90.595 37.6677 90.3984 37.3799C90.2019 37.0922 90.1266 36.7385 90.189 36.3957C90.2592 36.0189 90.4733 35.6843 90.7859 35.4626C91.0986 35.241 91.4852 35.1497 91.864 35.2082Z" fill="#FFAF19"/>
<path d="M100.351 49.2588C99.9576 51.59 98.8451 53.1713 96.8701 54.0838C95.6969 54.5836 94.3795 54.6282 93.1752 54.2086C91.9709 53.7891 90.9663 52.9357 90.3576 51.815C88.8514 48.9025 89.6326 45.44 92.2326 43.9025C96.1701 41.6088 99.8764 44.0713 100.301 48.065C100.377 48.4583 100.394 48.8606 100.351 49.2588Z" fill="#FFFAB8"/>
<path d="M59.7561 57.9843C60.0499 58.1468 60.2749 57.9405 60.5062 57.8405C62.071 57.1275 63.5634 56.2651 64.9626 55.2654C65.6581 54.7846 66.2704 54.1935 66.7752 53.5153C67.4378 52.634 68.0878 51.7402 68.7441 50.8527C69.4012 49.9621 69.9509 48.997 70.3817 47.9775C72.0568 44.0211 72.0005 40.1521 69.7566 36.4082C69.0253 35.1893 68.2628 33.983 67.519 32.7705C66.5437 31.193 65.0895 29.9687 63.3688 29.2765C61.2187 28.364 58.9936 27.7077 56.781 26.9514C55.2846 26.4535 53.7136 26.2167 52.137 26.2514C48.618 26.2889 45.5366 27.6077 42.724 29.6141C40.7591 31.004 39.274 32.9695 38.4737 35.2394C37.5439 37.8077 37.1421 40.5374 37.2924 43.2648C37.3104 45.6063 37.8868 47.9098 38.9738 49.9839C39.1082 50.2864 39.3107 50.5538 39.5655 50.7652C39.8203 50.9766 40.1204 51.1263 40.4426 51.2027C40.6228 51.3349 40.7599 51.5177 40.8364 51.7277C41.5254 53.3012 42.6214 54.6626 44.0115 55.6717C44.9803 56.453 45.8491 56.853 46.8992 55.4904C47.8947 56.3987 49.0496 57.1149 50.3056 57.603C50.5745 58.0741 50.9954 58.44 51.4994 58.6406C52.6503 59.0615 53.8776 59.2319 55.0996 59.1406C56.6193 59.1772 58.1238 58.8311 59.4749 58.1343C59.5561 58.1156 59.7249 58.1968 59.7561 57.9843Z" fill="#FFFAB8"/>
<path d="M51.7057 61.0784C41.5614 59.8284 34.2797 50.2029 35.6673 40.0711C36.9799 30.4518 45.5178 22.8827 56.5809 24.314C59.0097 24.6482 61.3484 25.4596 63.4622 26.7017C65.576 27.9438 67.4231 29.5919 68.8971 31.551C70.371 33.5101 71.4428 35.7415 72.0505 38.1167C72.6582 40.4919 72.7899 42.9638 72.438 45.3901C72.1149 47.7851 71.3212 50.0924 70.1025 52.1793C68.8838 54.2661 67.2643 56.0913 65.3372 57.5495C63.4101 59.0078 61.2135 60.0703 58.874 60.676C56.5345 61.2816 54.0983 61.4184 51.7057 61.0784ZM59.7561 57.9533C60.0499 58.1158 60.2749 57.9095 60.5061 57.8095C62.071 57.0965 63.5634 56.2341 64.9626 55.2344C65.6556 54.7631 66.2678 54.1826 66.7752 53.5156C67.4377 52.6343 68.0878 51.7405 68.7441 50.8529C69.4012 49.9623 69.9509 48.9973 70.3816 47.9778C72.0567 44.0213 72.0005 40.1524 69.7566 36.4084C69.0253 35.1896 68.2628 33.9833 67.519 32.7707C66.5437 31.1932 65.0894 29.9689 63.3688 29.2768C61.2187 28.3642 58.9936 27.7079 56.7809 26.9517C55.2845 26.4537 53.7136 26.2169 52.1369 26.2516C48.618 26.2891 45.5366 27.6079 42.7239 29.6143C40.7591 31.0042 39.274 32.9698 38.4737 35.2396C37.5439 37.808 37.1421 40.5376 37.2924 43.265C37.3104 45.6066 37.8868 47.91 38.9737 49.9841C39.1082 50.2866 39.3107 50.554 39.5655 50.7654C39.8203 50.9768 40.1204 51.1266 40.4426 51.2029C40.6228 51.3352 40.7598 51.5179 40.8363 51.728C41.5254 53.3015 42.6214 54.6629 44.0115 55.6719C44.9803 56.4532 45.8491 56.8532 46.8992 55.4907C47.8946 56.3989 49.0495 57.1152 50.3056 57.6033C50.5745 58.0744 50.9954 58.4402 51.4994 58.6408C52.6502 59.0617 53.8776 59.2322 55.0996 59.1409C56.6193 59.1774 58.1238 58.8314 59.4748 58.1346C59.5561 58.1158 59.7248 58.1971 59.7561 57.9846V57.9533Z" fill="#FFAF19"/>
<path d="M40.4113 51.1965C40.4547 50.9278 40.3992 50.6524 40.255 50.4215C39.1613 47.4377 38.7471 44.2476 39.0425 41.0835C39.2487 38.7458 39.9175 36.427 41.7863 34.7394C43.0069 33.6182 44.5269 32.8755 46.1616 32.6018C46.4518 32.5611 46.7464 32.5611 47.0366 32.6018C47.247 32.6036 47.4539 32.6552 47.6404 32.7524C47.8269 32.8497 47.9877 32.9897 48.1097 33.1611C48.2317 33.3324 48.3113 33.5303 48.3421 33.7383C48.3728 33.9464 48.3539 34.1588 48.2867 34.3581C48.043 35.2566 47.7339 36.1361 47.3616 36.9895C47.2036 37.2958 47.1636 37.6495 47.2491 37.9833C47.1804 38.7146 46.9929 39.4271 46.8679 40.1459C46.4366 42.5335 46.0991 44.9399 46.6304 47.365L46.7241 47.6401C46.8991 48.9901 47.2429 50.3215 47.3054 51.6903C47.4395 52.9806 47.2967 54.2847 46.8866 55.5155C45.8366 56.8781 44.9678 56.478 43.999 55.6967C42.6088 54.6877 41.5128 53.3263 40.8238 51.7528C40.7478 51.5288 40.6036 51.3342 40.4113 51.1965Z" fill="#F7760C"/>
<path d="M58.6872 49.8277C60.2579 49.84 61.813 50.1409 63.275 50.7153C65.5751 51.6841 65.8814 53.1654 64.1125 54.9092C63.5288 55.4327 62.8871 55.8878 62.1999 56.2656C61.3481 56.7898 60.5279 57.3637 59.7435 57.9844C59.6821 57.9739 59.619 57.9819 59.5622 58.0075C59.5054 58.0331 59.4575 58.0751 59.4248 58.1282C58.0737 58.825 56.5692 59.171 55.0495 59.1344C53.8276 59.2258 52.6002 59.0553 51.4494 58.6344C50.9454 58.4338 50.5244 58.068 50.2555 57.5969C50.0618 56.0468 50.6806 54.7592 51.5056 53.5342C51.9181 52.9091 52.5619 52.5403 52.9244 51.8966C53.066 51.8716 53.203 51.8252 53.3307 51.7591C54.9745 50.6403 56.6746 49.8027 58.6872 49.8277Z" fill="#F7760C"/>
<path d="M54.8245 35.5583C54.862 35.3395 54.6808 35.2645 54.5683 35.152C54.362 34.9395 54.137 34.7457 53.9432 34.527C52.3119 32.6519 52.6932 30.5268 54.962 29.383C55.2676 29.2249 55.5879 29.0972 55.9183 29.0017C56.7434 28.7705 57.5684 28.5454 58.4185 28.3767C59.5018 28.1657 60.6247 28.3903 61.5436 29.0017C65.2938 31.2956 68.1877 34.3395 69.7441 38.5022C70.6816 41.0023 70.2566 43.5025 68.9565 45.7901C67.844 47.759 66.0439 48.1215 64.1688 46.8339C63.3022 46.151 62.5363 45.3493 61.8936 44.4525C61.3311 43.4025 60.7311 42.3649 60.2248 41.2836C59.6699 40.0823 58.9366 38.9717 58.0497 37.9897C57.1471 36.9727 56.0506 36.1461 54.8245 35.5583Z" fill="#F7760C"/>
<path d="M54.8246 35.5581C56.0384 36.1458 57.1239 36.9678 58.0185 37.977C58.9054 38.959 59.6388 40.0695 60.1936 41.2709C60.6999 42.3522 61.2999 43.3897 61.8625 44.4398C61.7569 45.5147 61.4181 46.5537 60.8697 47.4843C60.3213 48.4148 59.5766 49.2145 58.6873 49.8276C56.6747 49.8276 54.9746 50.6401 53.3745 51.759C53.2468 51.8251 53.1099 51.8715 52.9682 51.8964C51.9062 51.0326 50.679 50.3946 49.3618 50.0213C48.427 49.692 47.6417 49.0377 47.1492 48.1775C47.0117 47.9838 46.9554 47.7275 46.7054 47.615L46.6116 47.34C46.0804 44.9148 46.4179 42.5085 46.8492 40.1208C46.9742 39.4021 47.1617 38.6895 47.2304 37.9582C48.1117 36.3269 49.5868 35.8394 51.3181 35.7769C52.4995 35.7456 53.6495 35.6331 54.8246 35.5581ZM58.9561 44.1398C59.1462 42.9469 58.9094 41.7251 58.2873 40.6896C57.9573 40.0779 57.4893 39.5516 56.9203 39.1525C56.3512 38.7534 55.697 38.4925 55.0095 38.3906C54.322 38.2887 53.6202 38.3485 52.9599 38.5653C52.2996 38.7821 51.6989 39.1499 51.2056 39.6396C50.3517 40.4855 49.8115 41.5972 49.674 42.7913C49.5365 43.9854 49.81 45.1908 50.4494 46.2087C50.8602 46.9453 51.4737 47.5488 52.217 47.9476C52.9603 48.3464 53.8023 48.5238 54.6433 48.4588C56.9059 48.29 58.6123 46.5712 58.9561 44.1398Z" fill="#FFAF19"/>
<path d="M50.2992 28.8829C50.5075 28.8973 50.7107 28.9542 50.8962 29.0501C51.0817 29.1459 51.2457 29.2787 51.378 29.4403C51.5103 29.6019 51.6081 29.7888 51.6655 29.9896C51.7229 30.1904 51.7386 30.4007 51.7117 30.6078C51.6473 31.0544 51.4203 31.4614 51.0743 31.7509C50.7283 32.0404 50.2876 32.192 49.8367 32.1766C49.4239 32.0976 49.0554 31.8673 48.8034 31.5309C48.5514 31.1946 48.434 30.7762 48.4742 30.3579C48.4909 30.1387 48.5523 29.9254 48.6545 29.7308C48.7566 29.5363 48.8975 29.3647 49.0684 29.2265C49.2393 29.0884 49.4367 28.9867 49.6483 28.9276C49.86 28.8685 50.0815 28.8533 50.2992 28.8829Z" fill="#FFAF19"/>
<path d="M64.4562 47.8902C64.615 47.9009 64.77 47.9439 64.9117 48.0166C65.0534 48.0894 65.1787 48.1903 65.2799 48.3132C65.3812 48.4361 65.4562 48.5784 65.5005 48.7313C65.5448 48.8843 65.5573 49.0447 65.5374 49.2027C65.4551 49.5234 65.2661 49.8065 65.0013 50.0053C64.7366 50.2041 64.4121 50.3068 64.0811 50.2964C63.775 50.2514 63.4977 50.0911 63.306 49.8482C63.1143 49.6054 63.0227 49.2984 63.0499 48.9902C63.0684 48.825 63.1197 48.6651 63.2008 48.5199C63.2818 48.3748 63.391 48.2473 63.522 48.1448C63.6529 48.0424 63.803 47.9671 63.9634 47.9234C64.1238 47.8797 64.2913 47.8684 64.4562 47.8902Z" fill="#FFAF19"/>
<path d="M50.5242 53.0965C50.5095 53.2495 50.463 53.3978 50.3878 53.5319C50.3126 53.6659 50.2103 53.7829 50.0874 53.8752C49.9645 53.9675 49.8237 54.0332 49.674 54.0681C49.5243 54.103 49.369 54.1063 49.2179 54.0778C48.8963 53.9908 48.6187 53.7868 48.4395 53.5059C48.2603 53.225 48.1925 52.8873 48.2492 52.559C48.2628 52.4245 48.3055 52.2945 48.3741 52.178C48.4427 52.0615 48.5357 51.9613 48.6467 51.8841C48.7578 51.8069 48.8842 51.7546 49.0173 51.7309C49.1504 51.7071 49.2871 51.7125 49.4179 51.7465C49.5837 51.7503 49.7466 51.7898 49.8956 51.8625C50.0446 51.9351 50.1762 52.0391 50.2813 52.1673C50.3863 52.2955 50.4624 52.445 50.5044 52.6054C50.5463 52.7657 50.553 52.9333 50.5242 53.0965Z" fill="#FFAF19"/>
<path d="M58.9554 44.1395C58.6117 46.5958 56.9054 48.3145 54.6429 48.4583C53.802 48.5233 52.96 48.3459 52.2167 47.9471C51.4734 47.5483 50.8601 46.9449 50.4492 46.2083C49.8099 45.1904 49.5364 43.9852 49.6739 42.7911C49.8113 41.597 50.3515 40.4854 51.2054 39.6395C51.6987 39.1499 52.2993 38.7821 52.9596 38.5653C53.6199 38.3485 54.3216 38.2887 55.0091 38.3906C55.6965 38.4926 56.3508 38.7534 56.9197 39.1525C57.4887 39.5516 57.9568 40.0778 58.2867 40.6895C58.9087 41.7249 59.1455 42.9467 58.9554 44.1395Z" fill="#FFFAB8"/>
<path d="M119.072 50.6402C120.047 45.9712 120.659 41.2647 121.265 36.5332C121.634 33.6893 121.784 33.6018 124.697 33.8456C127.479 34.0525 130.224 34.6004 132.872 35.4769C137.173 36.9457 140.016 39.7396 141.123 44.2774C143.085 52.309 141.223 59.3969 135.979 65.6473C134.791 67.1368 133.262 68.3187 131.522 69.0933C129.781 69.8678 127.88 70.2123 125.978 70.0975C123.828 70.0162 121.659 70.0975 119.547 69.6287C117.046 69.0787 116.684 68.6349 116.996 66.1348C117.672 60.9658 118.134 55.7655 119.072 50.6402ZM126.097 53.1404C125.753 55.7218 125.359 58.2969 125.078 60.8783C124.934 62.1783 125.391 62.5221 126.616 62.1283C127.303 61.9166 127.96 61.6183 128.572 61.2408C131.063 59.6587 132.859 57.1874 133.594 54.3291C134.329 51.4708 133.948 48.44 132.529 45.8525C131.819 44.5914 130.751 43.5691 129.46 42.9148C127.903 42.1147 127.422 42.1023 127.26 43.7836C126.903 47.3588 126.428 49.9089 126.097 53.1216V53.1404Z" fill="#FFAF19"/>
<path d="M13.3848 34.5892C13.8285 30.164 14.2286 25.7262 14.7223 21.301C15.0224 18.6259 15.2911 18.4258 18.0475 18.7446C22.9228 19.3009 27.798 19.9134 32.6608 20.551C34.9047 20.8447 34.9734 20.9885 34.7672 23.1011C34.6234 24.5512 34.5046 26.0013 34.2921 27.4388C34.0609 29.0202 33.7671 29.2139 32.1108 29.0389C29.4919 28.7577 26.8792 28.4139 24.2541 28.1826C22.2102 28.0138 22.0227 28.2389 21.879 30.1515C21.6727 32.8454 21.879 33.1266 23.9103 33.3641H24.1853C25.7417 33.6017 27.9355 32.8704 28.6356 34.6142C29.4919 36.6893 29.0794 39.0832 28.6356 41.3271C28.4668 42.2209 27.7168 42.3896 26.9355 42.2709C25.2291 42.0146 23.4916 41.8208 21.7977 41.6833C20.3789 41.5646 20.0101 41.8958 19.9726 43.1647C19.8726 46.3398 19.7164 49.515 19.5851 52.6902C19.5851 53.3152 19.5476 53.9402 19.4726 54.5653C19.4765 54.7721 19.4334 54.9772 19.3466 55.165C19.2599 55.3528 19.1317 55.5185 18.9717 55.6496C18.8116 55.7808 18.624 55.874 18.4228 55.9221C18.2216 55.9703 18.0121 55.9723 17.81 55.9278H17.5412C12.3597 55.7466 11.8409 55.2153 12.1784 50.065C12.516 44.9147 12.9285 39.7395 13.3098 34.5767L13.3848 34.5892Z" fill="#FFAF19"/>
<path d="M67.0565 84.9047C66.9315 85.5297 66.7564 85.6672 66.1127 85.611C65.6189 85.5735 65.1314 85.5047 64.6376 85.436C64.5499 85.4295 64.4646 85.4047 64.3872 85.363C64.3098 85.3214 64.242 85.2639 64.1884 85.1943C64.1347 85.1247 64.0963 85.0446 64.0757 84.9591C64.0551 84.8737 64.0528 84.7848 64.0688 84.6984C64.0688 84.4484 64.1126 84.2046 64.1438 83.9546C64.648 80.2753 65.1564 76.5917 65.6689 72.904C65.6689 72.8353 65.6689 72.7603 65.6689 72.6915C65.8189 72.2352 65.6689 71.5227 66.1502 71.3665C66.9155 71.1925 67.7174 71.2897 68.419 71.6415C68.7191 71.754 68.6878 72.1227 68.6815 72.3978C68.6815 73.1728 68.619 73.9541 68.569 74.7291C68.569 75.0854 68.4753 75.4354 68.4753 75.7854C68.4753 76.1355 68.2003 76.673 68.594 76.8542C69.0343 76.9826 69.4973 77.0124 69.9504 76.9418C70.2816 76.9418 70.2816 76.6167 70.3129 76.3792C70.3941 75.7542 70.4629 75.1291 70.5379 74.5041C70.6129 73.8791 70.6754 73.3103 70.7879 72.7165C70.9317 71.9415 71.0817 71.854 71.8817 71.954C73.6756 72.179 73.7568 72.2727 73.5943 74.0228C73.2568 77.7293 72.8505 81.4232 72.6443 85.1359C72.6395 85.3837 72.6123 85.6306 72.563 85.8735C72.55 85.9699 72.5179 86.0628 72.4686 86.1467C72.4192 86.2306 72.3536 86.3038 72.2756 86.362C72.1976 86.4203 72.1088 86.4623 72.0143 86.4857C71.9198 86.5092 71.8216 86.5135 71.7255 86.4985C71.549 86.4764 71.3737 86.4451 71.2004 86.4047C69.7316 86.1235 69.7254 86.1235 69.7629 84.6297C69.7629 83.5671 69.8066 82.5045 69.8316 81.442C69.8316 80.5544 69.8316 80.5357 69.0253 80.4669C67.3815 80.3232 67.6065 80.3232 67.4127 81.7545C67.4002 82.1295 67.1877 84.2484 67.0565 84.9047Z" fill="#F7760C"/>
<path d="M111.103 91.7114C110.971 92.3364 110.796 92.474 110.153 92.4239C109.665 92.3802 109.171 92.3114 108.684 92.2427C108.595 92.2371 108.509 92.2129 108.431 92.1716C108.353 92.1303 108.285 92.0729 108.23 92.0032C108.176 91.9335 108.137 91.8531 108.116 91.7672C108.095 91.6814 108.093 91.5921 108.109 91.5051C108.109 91.2551 108.152 91.0114 108.19 90.7676L109.709 79.7108C109.715 79.641 109.727 79.5719 109.746 79.5045C109.89 79.042 109.746 78.3357 110.221 78.1732C110.989 77.9999 111.792 78.097 112.496 78.4482C112.796 78.567 112.765 78.9295 112.759 79.2045C112.759 79.9858 112.69 80.7608 112.646 81.5359C112.646 81.8921 112.553 82.2422 112.546 82.5984C112.54 82.9547 112.271 83.4797 112.665 83.661C113.105 83.7916 113.569 83.8215 114.021 83.7485C114.359 83.7485 114.353 83.4235 114.384 83.186C114.472 82.5609 114.534 81.9359 114.615 81.3109C114.697 80.6858 114.747 80.1108 114.859 79.517C115.003 78.742 115.153 78.6607 115.953 78.7545C117.753 78.9795 117.828 79.0732 117.672 80.8296C117.328 84.5298 116.922 88.2237 116.722 91.9427C116.714 92.1906 116.685 92.4374 116.634 92.6802C116.622 92.777 116.59 92.8704 116.541 92.9547C116.492 93.0391 116.427 93.1126 116.348 93.171C116.27 93.2293 116.181 93.2713 116.086 93.2944C115.991 93.3174 115.893 93.3211 115.797 93.3052C115.622 93.2836 115.449 93.2524 115.278 93.2115C113.803 92.9365 113.803 92.9365 113.834 91.4364L113.909 88.2487C113.909 87.3612 113.909 87.3424 113.103 87.2737C111.453 87.1299 111.678 87.1299 111.484 88.5612C111.434 88.9363 111.228 91.0551 111.103 91.7114Z" fill="#F7760C"/>
<path d="M103.871 80.5918L105.552 80.823C105.651 80.8255 105.748 80.849 105.837 80.8918C105.927 80.9346 106.006 80.9958 106.069 81.0714C106.133 81.147 106.18 81.2352 106.208 81.3303C106.235 81.4254 106.241 81.5252 106.227 81.6231C106.204 83.2914 105.869 84.9407 105.24 86.4858C105.099 86.8123 104.87 87.093 104.579 87.2962C104.287 87.4994 103.945 87.617 103.59 87.6359C102.143 87.8553 100.665 87.7289 99.2769 87.2671C98.7514 87.1006 98.2751 86.807 97.8902 86.4123C97.5053 86.0176 97.2238 85.534 97.0706 85.0045C96.8434 84.2193 96.7484 83.4019 96.7893 82.5856C96.8391 80.2625 97.508 77.9948 98.7269 76.0165C99.2806 75.0338 100.126 74.2474 101.146 73.766C102.166 73.2845 103.31 73.1318 104.421 73.3289C104.961 73.3907 105.479 73.5805 105.931 73.8826C106.384 74.1847 106.757 74.5904 107.021 75.0659C107.285 75.5414 107.432 76.0731 107.45 76.6167C107.467 77.1603 107.354 77.7003 107.121 78.1916C107.067 78.3803 106.941 78.5403 106.771 78.6372C106.6 78.7342 106.398 78.7605 106.209 78.7104L105.684 78.6354C104.702 78.4916 104.702 78.4916 104.565 77.4916C104.396 76.2915 103.621 75.8478 102.621 76.4915C100.321 77.9666 99.1644 80.0542 99.8394 82.9231C99.8892 83.2139 99.9984 83.4913 100.16 83.738C100.322 83.9846 100.533 84.1952 100.78 84.3565C101.027 84.5179 101.305 84.6265 101.596 84.6756C101.887 84.7247 102.185 84.7133 102.471 84.642C102.749 84.5062 102.968 84.2717 103.083 83.9842C103.199 83.6966 103.203 83.3764 103.096 83.0856C103.053 83.0295 102.999 82.984 102.936 82.9525C102.873 82.9211 102.804 82.9046 102.733 82.9044C102.521 82.8669 102.308 82.8544 102.108 82.8231C101.027 82.6481 100.858 82.3918 100.996 81.3418C101.133 80.2917 101.333 80.1542 102.402 80.2917C102.89 80.3605 103.377 80.4667 103.865 80.5543L103.871 80.5918Z" fill="#F7760C"/>
<path d="M39.7612 75.8916C40.4425 77.0167 41.0863 78.1105 41.7613 79.1793C42.4339 80.1427 42.9702 81.1944 43.3552 82.3045C43.6114 83.167 43.4989 83.2983 42.5864 83.1795L42.2739 83.1295C41.1613 83.042 40.5363 83.1295 40.0925 81.8232C39.3777 80.2336 38.5593 78.6927 37.6424 77.2105C37.5361 77.9855 37.4299 78.698 37.3486 79.4168C37.2674 80.1356 37.2173 80.8982 37.1236 81.6295C37.0298 82.3607 36.9236 82.4232 36.2235 82.3295C34.1484 82.0607 34.3109 82.4045 34.4797 80.2731C34.7672 76.5729 35.3985 72.9102 35.8298 69.2225C35.8985 68.6538 36.086 68.435 36.6923 68.4537C37.966 68.4753 39.2354 68.607 40.4863 68.8475C41.0414 68.9584 41.5572 69.2148 41.9806 69.5905C42.4041 69.9662 42.7201 70.4478 42.8962 70.9858C43.0724 71.5238 43.1024 72.0989 42.9831 72.6524C42.8639 73.2058 42.5997 73.7176 42.2176 74.1353C41.5235 74.878 40.6885 75.4751 39.7612 75.8916ZM37.8174 72.2664C37.8174 72.554 37.7736 73.079 37.7674 73.6103C37.7611 74.1415 37.9486 74.2978 38.4737 74.1603C38.8814 74.0352 39.2586 73.8267 39.5814 73.548C39.9042 73.2694 40.1655 72.9266 40.3488 72.5415C40.4951 72.2972 40.5411 72.0057 40.477 71.7283C40.4129 71.4509 40.2437 71.2091 40.005 71.0539C39.7595 70.8798 39.4758 70.7673 39.1777 70.726C38.8796 70.6846 38.576 70.7156 38.2924 70.8164C37.7486 71.0164 37.8486 72.0164 37.8174 72.2664Z" fill="#F7760C"/>
<path d="M83.6511 79.0293C83.5421 80.1818 83.3478 81.3246 83.0698 82.4483C82.2823 85.1484 80.9197 86.1235 77.8383 84.9484C77.1903 84.7463 76.6257 84.3387 76.2299 83.7873C75.8341 83.2359 75.6286 82.5706 75.6444 81.892C75.5028 79.5954 75.6097 77.2903 75.9632 75.0166C76.1384 74.0024 76.5145 73.0333 77.0695 72.1665C77.3083 71.7477 77.6631 71.4069 78.0911 71.1851C78.5192 70.9633 79.0022 70.87 79.4821 70.9164C80.1562 70.9391 80.8191 71.0949 81.4327 71.3749C82.0463 71.6548 82.5984 72.0535 83.0573 72.5478C83.4106 72.9679 83.6747 73.4555 83.8338 73.9809C83.9928 74.5063 84.0433 75.0586 83.9823 75.6042C83.9539 76.7523 83.8432 77.897 83.6511 79.0293ZM78.3508 77.5793C78.3508 77.5793 78.2383 78.6356 78.2258 79.1669C78.1099 80.0177 78.2355 80.8841 78.5883 81.667C78.6627 81.8413 78.78 81.994 78.9291 82.1108C79.0783 82.2277 79.2546 82.305 79.4417 82.3356C79.6287 82.3661 79.8204 82.349 79.9991 82.2856C80.1777 82.2223 80.3374 82.1148 80.4634 81.9732C80.8294 81.6332 81.075 81.1836 81.1634 80.6919C81.3814 79.6524 81.5131 78.5967 81.5572 77.5355C81.6325 76.6921 81.539 75.8422 81.2822 75.0354C81.2244 74.8392 81.1162 74.6615 80.9683 74.5202C80.8204 74.379 80.638 74.279 80.4393 74.2302C80.2407 74.1815 80.0327 74.1858 79.8362 74.2426C79.6397 74.2995 79.4616 74.4069 79.3196 74.5541C78.9444 74.8756 78.6925 75.3175 78.6071 75.8042C78.482 76.3855 78.4196 76.9792 78.3446 77.5793H78.3508Z" fill="#F7760C"/>
<path d="M32.8608 71.579C32.7538 72.7313 32.5616 73.874 32.2858 74.9979C31.4983 77.6918 30.1357 78.6669 27.0543 77.4981C26.4089 77.2909 25.8469 76.8822 25.451 76.3321C25.055 75.782 24.8458 75.1194 24.8542 74.4417C24.7184 72.1448 24.8273 69.8401 25.1792 67.5663C25.3527 66.5535 25.729 65.5862 26.2855 64.7224C26.5272 64.3062 26.8826 63.9676 27.3099 63.7462C27.7372 63.5248 28.2187 63.4298 28.6981 63.4723C30.0583 63.5235 31.3432 64.1098 32.2733 65.1037C33.1046 65.9787 33.2046 67.0538 33.1983 68.1663C33.1702 69.3106 33.0574 70.4513 32.8608 71.579ZM27.5668 70.1227C27.5668 70.1227 27.4543 71.1852 27.4418 71.7102C27.327 72.5611 27.4525 73.4272 27.8043 74.2104C27.88 74.3835 27.9978 74.5349 28.147 74.6507C28.2962 74.7666 28.4721 74.8433 28.6585 74.8737C28.845 74.9042 29.0361 74.8875 29.2144 74.8251C29.3927 74.7627 29.5526 74.6567 29.6794 74.5167C30.0444 74.1733 30.2897 73.7221 30.3794 73.2291C30.5961 72.1999 30.7278 71.1547 30.7732 70.1039C30.8495 69.2605 30.756 68.4104 30.4982 67.6038C30.441 67.4063 30.3328 67.2274 30.1844 67.0852C30.036 66.9429 29.8527 66.8423 29.653 66.7934C29.4534 66.7446 29.2443 66.7493 29.047 66.8071C28.8497 66.8649 28.6712 66.9737 28.5294 67.1225C28.1572 67.4456 27.9078 67.8871 27.8231 68.3726C27.7043 68.9288 27.6418 69.5289 27.5668 70.1227Z" fill="#F7760C"/>
<path d="M88.3451 82.2671C88.2482 83.1067 88.3226 83.9572 88.5638 84.7672C88.7013 85.236 88.8763 85.6173 89.4139 85.736C89.6733 85.8067 89.9478 85.7987 90.2027 85.713C90.4575 85.6273 90.6812 85.4678 90.8452 85.2547C91.1963 84.8115 91.4671 84.3101 91.6452 83.7734C92.0303 82.5229 92.2407 81.2251 92.2703 79.917C92.3328 78.7481 92.514 77.5918 92.6765 76.4418C92.8015 75.5792 92.9328 75.5042 93.7891 75.573C95.2392 75.6917 95.3017 75.698 95.1642 77.1606C95.0469 79.4915 94.7565 81.8105 94.2954 84.0984C94.0109 85.3816 93.4452 86.5856 92.639 87.6236C92.3601 87.9675 92.015 88.252 91.6243 88.4603C91.2335 88.6686 90.8049 88.7964 90.3639 88.8362C89.6588 88.9111 88.946 88.8624 88.2575 88.6924C87.7202 88.5607 87.2299 88.2823 86.8415 87.8883C86.453 87.4944 86.1816 87.0002 86.0574 86.4611C85.7809 85.2166 85.6778 83.9398 85.7512 82.6671C85.7865 80.2604 86.0608 77.863 86.57 75.5105C86.7325 74.6667 86.77 74.6542 87.62 74.7417C89.4951 74.9292 89.4951 74.9292 89.1513 76.7918C89.0263 77.5481 88.4763 81.1795 88.3451 82.2671Z" fill="#F7760C"/>
<path d="M14.5787 69.9914C14.7537 68.2663 14.91 66.5412 15.1037 64.8224C15.2162 63.7786 15.3225 63.6973 16.3976 63.8223C18.2727 64.0411 20.1915 64.2786 22.0854 64.5286C22.9542 64.6411 22.9792 64.6974 22.9042 65.5224C22.8479 66.085 22.7979 66.6475 22.7167 67.21C22.6354 67.7726 22.5104 67.8976 21.8666 67.8351C20.8478 67.7288 19.829 67.5913 18.8102 67.5038C18.0164 67.435 17.9414 67.5038 17.8851 68.2663C17.8039 69.3164 17.8851 69.4289 18.6789 69.5164H18.7852C19.4102 69.6102 20.2353 69.3226 20.5165 69.9977C20.7666 70.8506 20.7666 71.7574 20.5165 72.6103C20.4478 72.9541 20.1603 73.0228 19.854 72.9728C19.1915 72.8728 18.5164 72.7978 17.8539 72.7478C17.3039 72.6978 17.1601 72.8291 17.1414 73.3229C17.1039 74.5729 17.0476 75.7917 16.9914 77.0293C16.9914 77.2793 16.9914 77.5231 16.9539 77.7668C16.954 77.8449 16.9371 77.9221 16.9044 77.993C16.8717 78.0639 16.8239 78.1268 16.7644 78.1773C16.705 78.2279 16.6352 78.2649 16.5599 78.2857C16.4847 78.3066 16.4059 78.3108 16.3288 78.2981H16.2226C14.21 78.2294 14.0099 78.0231 14.1412 76.0167C14.2725 74.0104 14.4287 71.9978 14.5787 69.9914Z" fill="#F7760C"/>
<path d="M122.403 84.9105C122.553 83.3917 122.772 81.8854 122.847 80.3603C122.903 79.379 122.891 79.3415 121.953 79.1914C121.359 79.0914 120.759 79.0165 120.165 78.9539C120.076 78.9607 119.987 78.9461 119.905 78.9115C119.822 78.8768 119.75 78.8231 119.692 78.7547C119.635 78.6862 119.594 78.6052 119.575 78.5181C119.555 78.431 119.556 78.3404 119.578 78.2539C119.578 78.1789 119.578 78.1101 119.578 78.0414C119.734 76.2663 119.728 76.3038 121.453 76.5601C123.591 76.8726 125.741 77.1101 127.878 77.4101C128.266 77.4601 128.841 77.3351 128.947 77.8789C129.121 78.536 129.033 79.2348 128.703 79.829C128.553 80.079 128.272 80.0103 128.022 79.9852C127.397 79.929 126.822 79.8915 126.222 79.8165C125.622 79.7415 125.528 79.979 125.503 80.4415C125.453 81.4353 125.322 82.4229 125.316 83.4104C125.211 85.5684 124.978 87.7182 124.616 89.8483C124.497 90.7796 124.391 90.8296 123.428 90.7108C121.503 90.4608 121.716 90.5796 121.866 88.7857C122.003 87.4981 122.228 86.2043 122.403 84.9105Z" fill="#F7760C"/>
<path d="M57.2559 75.6479C57.4059 74.1353 57.6247 72.6227 57.706 71.1039C57.756 70.1164 57.7435 70.0789 56.8122 69.9288C56.2184 69.8351 55.6183 69.7601 55.0183 69.6913C54.5808 69.6476 54.3933 69.4288 54.437 68.9913C54.437 68.9225 54.437 68.8538 54.437 68.7788C54.587 67.0099 54.5808 67.0474 56.3121 67.2974C58.4435 67.6162 60.5936 67.8537 62.7312 68.1475C63.1187 68.2038 63.6938 68.0725 63.8 68.6163C63.9733 69.2748 63.8884 69.9747 63.5625 70.5726C63.4125 70.8164 63.125 70.7476 62.875 70.7289C62.2812 70.6726 61.6749 70.6351 61.0811 70.5539C60.4874 70.4726 60.3811 70.7226 60.3561 71.1789C60.3061 72.1665 60.1811 73.154 60.1686 74.1478C60.0655 76.3057 59.8339 78.4554 59.4748 80.5857C59.356 81.5107 59.2498 81.567 58.2872 81.4419C56.3559 81.1982 56.5684 81.3107 56.7247 79.5169C56.8559 78.2418 57.0809 76.948 57.2559 75.6479Z" fill="#F7760C"/>
<path d="M133.479 87.2668C133.181 87.2399 132.892 87.1531 132.629 87.0114C132.366 86.8698 132.134 86.6763 131.948 86.4427C131.761 86.2091 131.624 85.9401 131.545 85.6521C131.465 85.3641 131.445 85.0629 131.485 84.7668C131.566 83.573 133.16 82.7105 134.76 82.8918C135.003 82.9402 135.234 83.0363 135.44 83.1747C135.646 83.313 135.822 83.4908 135.959 83.6977C136.095 83.9047 136.189 84.1366 136.236 84.3802C136.282 84.6238 136.28 84.8741 136.229 85.1168C136.199 85.4425 136.103 85.7588 135.947 86.0461C135.79 86.3333 135.577 86.5855 135.319 86.787C135.061 86.9884 134.765 87.135 134.449 87.2175C134.132 87.3 133.802 87.3168 133.479 87.2668Z" fill="#FFAF19"/>
<path d="M11.1469 70.5724C11.0118 71.2108 10.6608 71.7831 10.1531 72.1929C9.64534 72.6027 9.01188 72.8251 8.35938 72.8224C7.10938 72.6724 6.31562 71.4099 6.51562 69.9412C6.71562 68.4724 7.98437 67.3287 9.29062 67.5224C10.4281 67.6974 11.3031 69.1412 11.1469 70.5724Z" fill="#FFAF19"/>
<path d="M51.4116 75.4789C51.2178 76.9039 49.8553 78.0539 48.5678 77.8727C47.9665 77.7639 47.4301 77.4281 47.0694 76.9349C46.7088 76.4416 46.5516 75.8286 46.6303 75.2227C46.7928 74.0352 48.2678 72.7914 49.3553 73.0289C50.6803 73.3164 51.6741 73.9727 51.4116 75.4789Z" fill="#FFAF19"/>
<path d="M122.191 20.045C121.95 20.3728 121.678 20.6763 121.378 20.9513C120.522 21.6451 119.622 21.3138 119.39 20.2387C119.101 19.056 118.925 17.8484 118.865 16.6323C118.865 15.4385 118.297 14.2947 117.39 14.1759C116.412 13.9694 115.415 13.8605 114.415 13.8509C114.091 13.891 113.762 13.8108 113.493 13.6254C113.223 13.4399 113.031 13.1622 112.953 12.8446C112.765 12.0883 113.315 11.707 113.84 11.3132C114.628 10.6882 115.953 10.5632 116.147 9.53191C116.34 8.50061 114.384 4.85666 114.053 3.90661C113.949 3.6867 113.924 3.43745 113.983 3.20147C114.043 2.96548 114.182 2.75739 114.378 2.61279C114.555 2.49348 114.764 2.42975 114.978 2.42975C115.191 2.42975 115.4 2.49348 115.578 2.61279C116.447 3.05031 117.928 3.86284 118.659 4.23786C119.069 4.46872 119.542 4.5629 120.009 4.50666C120.192 4.49051 120.369 4.43249 120.526 4.33712C120.684 4.24176 120.817 4.11159 120.916 3.95663C121.478 2.94407 121.828 1.81273 122.628 0.918936C123.828 -0.418635 124.566 -0.331106 125.185 1.41274C125.597 2.5628 125.96 3.73159 126.291 4.90665C126.322 5.09292 126.389 5.27113 126.49 5.43074C126.591 5.59035 126.723 5.72813 126.878 5.83592C127.033 5.94372 127.208 6.01933 127.393 6.05833C127.577 6.09733 127.768 6.09893 127.953 6.06299C129.256 6.03091 130.559 6.08937 131.854 6.23797C132.479 6.29423 133.279 6.28797 133.485 7.05051C133.729 7.93806 132.904 8.21311 132.36 8.56937C131.218 9.34858 129.994 10.0004 128.71 10.5132C127.903 10.8195 127.747 11.2945 128.185 12.1445C128.987 13.6705 129.665 15.2591 130.21 16.8948C130.298 17.0769 130.323 17.2832 130.281 17.4812C130.239 17.6793 130.133 17.8577 129.978 17.9886C129.785 18.1331 129.552 18.2154 129.311 18.2243C129.07 18.2332 128.832 18.1684 128.628 18.0386C127.247 17.4636 125.885 16.8698 124.509 16.276C124.472 16.2546 124.43 16.2434 124.388 16.2434C124.345 16.2434 124.303 16.2546 124.266 16.276C123.066 17.2636 122.941 18.8387 122.191 20.045Z" fill="#8ADEFF"/>
<path d="M142.791 16.8631C142.689 17.3197 142.494 17.7503 142.218 18.1277C141.942 18.5051 141.59 18.8212 141.186 19.0561C140.781 19.2909 140.332 19.4395 139.867 19.4923C139.403 19.5452 138.932 19.5011 138.485 19.3631C136.36 18.7881 135.36 16.9818 135.91 14.7693C136.009 14.286 136.202 13.8269 136.479 13.4184C136.756 13.0099 137.111 12.6601 137.523 12.3889C137.935 12.1178 138.397 11.9307 138.882 11.8383C139.366 11.7459 139.864 11.7501 140.347 11.8506C142.341 12.3193 143.366 14.4256 142.791 16.8631Z" fill="#8ADEFF"/>
<path d="M11.7719 97.2675C11.6693 97.7236 11.4736 98.1536 11.197 98.5306C10.9205 98.9075 10.569 99.2232 10.1647 99.4579C9.76039 99.6927 9.31195 99.8413 8.84749 99.8946C8.38302 99.9478 7.91255 99.9046 7.46559 99.7675C5.34059 99.1862 4.3406 97.3862 4.8906 95.1737C5.4406 92.9612 7.34685 91.7737 9.3281 92.2487C11.3094 92.7237 12.3406 94.8612 11.7719 97.2675Z" fill="#8ADEFF"/>
</svg>
