<svg width="16" height="11" viewBox="0 0 16 11" fill="none" xmlns="http://www.w3.org/2000/svg">
<path fill-rule="evenodd" clip-rule="evenodd" d="M7.66075 2.28453C9.88365 2.28462 12.0215 3.13875 13.6326 4.67038C13.7539 4.78863 13.9478 4.78714 14.0673 4.66704L15.2269 3.49668C15.2874 3.43577 15.3212 3.35325 15.3207 3.2674C15.3202 3.18155 15.2855 3.09944 15.2243 3.03924C10.9958 -1.01308 4.325 -1.01308 0.0965769 3.03924C0.0353252 3.0994 0.000571802 3.18148 6.99282e-06 3.26733C-0.000557817 3.35319 0.0331126 3.43572 0.0935674 3.49668L1.25356 4.66704C1.37296 4.78732 1.56702 4.78881 1.68826 4.67038C3.29949 3.13865 5.43763 2.28452 7.66075 2.28453ZM7.66068 6.0921C8.88201 6.09202 10.0598 6.54599 10.9651 7.36578C11.0875 7.48213 11.2804 7.4796 11.3998 7.3601L12.5581 6.18974C12.6191 6.12835 12.653 6.04507 12.6521 5.95854C12.6512 5.872 12.6157 5.78942 12.5534 5.72929C9.79654 3.16482 5.52715 3.16482 2.77026 5.72929C2.70799 5.78942 2.67246 5.87204 2.67164 5.9586C2.67083 6.04517 2.70479 6.12844 2.76592 6.18974L3.9239 7.3601C4.04326 7.4796 4.23615 7.48213 4.3586 7.36578C5.26333 6.54653 6.44014 6.0926 7.66068 6.0921ZM9.98105 8.65374C9.98282 8.74052 9.94871 8.82419 9.88676 8.88499L7.88311 10.907C7.82437 10.9665 7.7443 10.9999 7.66074 10.9999C7.57719 10.9999 7.49711 10.9665 7.43837 10.907L5.43439 8.88499C5.37249 8.82414 5.33843 8.74045 5.34027 8.65367C5.3421 8.56689 5.37967 8.48471 5.44409 8.42654C6.72369 7.34425 8.59779 7.34425 9.87739 8.42654C9.94177 8.48476 9.97928 8.56696 9.98105 8.65374Z" fill="white"/>
</svg>
