<svg width="24" height="24" viewBox="0 0 24 24" fill="none" xmlns="http://www.w3.org/2000/svg">
<path d="M17.6222 16.3214C17.2252 15.9374 16.5921 15.9479 16.2081 16.3448C15.8241 16.7417 15.8346 17.3748 16.2316 17.7588L17.6222 16.3214ZM19.7047 21.1188C20.1016 21.5028 20.7347 21.4923 21.1187 21.0954C21.5027 20.6985 21.4922 20.0654 21.0953 19.6814L19.7047 21.1188ZM18.28 11.4401C18.28 15.2177 15.2176 18.2801 11.44 18.2801V20.2801C16.3222 20.2801 20.28 16.3223 20.28 11.4401H18.28ZM11.44 18.2801C7.66237 18.2801 4.6 15.2177 4.6 11.4401H2.6C2.6 16.3223 6.5578 20.2801 11.44 20.2801V18.2801ZM4.6 11.4401C4.6 7.66247 7.66237 4.6001 11.44 4.6001V2.6001C6.5578 2.6001 2.6 6.5579 2.6 11.4401H4.6ZM11.44 4.6001C15.2176 4.6001 18.28 7.66247 18.28 11.4401H20.28C20.28 6.5579 16.3222 2.6001 11.44 2.6001V4.6001ZM16.2316 17.7588L19.7047 21.1188L21.0953 19.6814L17.6222 16.3214L16.2316 17.7588Z" fill="black"/>
</svg>
