<svg width="43" height="43" viewBox="0 0 43 43" fill="none" xmlns="http://www.w3.org/2000/svg">
<path d="M15.6771 39.6854C14.8599 39.6788 14.058 39.4629 13.3479 39.0583L10.4275 37.3563C9.89609 37.0522 9.43066 36.6453 9.05841 36.1592C8.68617 35.6731 8.4146 35.1177 8.25958 34.5254C8.09566 33.9271 8.05242 33.3021 8.1324 32.6869C8.21237 32.0717 8.41396 31.4786 8.72542 30.9421L9.51375 29.5983C9.12706 29.0254 8.77986 28.4268 8.47458 27.8067H6.86208C6.25034 27.8043 5.64505 27.6815 5.08077 27.4452C4.5165 27.2089 4.00429 26.8638 3.57338 26.4296C3.14248 25.9954 2.80132 25.4805 2.5694 24.9145C2.33747 24.3484 2.21931 23.7422 2.22167 23.1304V19.7083C2.22686 19.1105 2.34978 18.5196 2.58342 17.9693C2.81706 17.419 3.15684 16.9202 3.58333 16.5012C4.01343 16.071 4.52481 15.7307 5.0877 15.5C5.6506 15.2693 6.25377 15.1529 6.86208 15.1575H8.43875C8.74628 14.5349 9.09962 13.9361 9.49583 13.3658L8.7075 11.9504C8.4036 11.4176 8.2088 10.8295 8.13446 10.2206C8.06011 9.61172 8.10771 8.99411 8.27447 8.40378C8.44123 7.81345 8.72381 7.26222 9.10576 6.78221C9.48771 6.3022 9.96138 5.90301 10.4992 5.60792L13.4375 3.92375C13.9715 3.62467 14.5593 3.43377 15.1671 3.36196C15.775 3.29014 16.391 3.33882 16.98 3.50521C17.5691 3.6716 18.1195 3.95244 18.6 4.33168C19.0804 4.71092 19.4814 5.18113 19.78 5.71542L20.5504 7.05917C21.183 7.02333 21.817 7.02333 22.4496 7.05917L23.2917 5.64375C23.598 5.11421 24.0057 4.6502 24.4915 4.27823C24.9772 3.90625 25.5314 3.6336 26.1225 3.47583C26.7202 3.3068 27.346 3.26093 27.962 3.341C28.5779 3.42108 29.1712 3.62543 29.7058 3.94167L32.6262 5.62583C33.6949 6.24405 34.4744 7.2612 34.7935 8.4538C35.1127 9.64641 34.9454 10.9169 34.3283 11.9862L33.5579 13.3479C33.9613 13.917 34.3206 14.5159 34.6329 15.1396H36.2454C37.4794 15.1538 38.6578 15.6551 39.5236 16.5344C40.3895 17.4138 40.8727 18.5997 40.8679 19.8337V23.2917C40.8538 24.5194 40.3574 25.6924 39.4858 26.5573C38.6142 27.4222 37.4374 27.9095 36.2096 27.9142H34.615C34.3213 28.4952 33.9922 29.0577 33.6296 29.5983L34.4358 31.0137C34.7349 31.5478 34.9258 32.1355 34.9976 32.7434C35.0694 33.3512 35.0208 33.9673 34.8544 34.5563C34.688 35.1453 34.4071 35.6958 34.0279 36.1762C33.6487 36.6566 33.1785 37.0576 32.6442 37.3563L29.7058 39.0404C29.1724 39.3419 28.5845 39.5347 27.9761 39.6078C27.3678 39.6809 26.7509 39.6327 26.1613 39.4662C25.5716 39.2996 25.0207 39.0179 24.5405 38.6373C24.0603 38.2567 23.6602 37.7848 23.3633 37.2488L22.575 35.905C21.9072 35.9586 21.2361 35.9586 20.5683 35.905L19.7442 37.3025C19.3394 38.0255 18.7492 38.6275 18.0343 39.0464C17.3194 39.4652 16.5057 39.6858 15.6771 39.6854ZM6.89792 17.9167C6.37805 17.9155 5.87766 18.1144 5.50042 18.4721C5.31765 18.6559 5.17293 18.8739 5.07455 19.1137C4.97617 19.3535 4.92606 19.6104 4.92708 19.8696V23.2379C4.95855 23.7324 5.17516 24.197 5.53375 24.539C5.89235 24.881 6.36662 25.0753 6.86208 25.0833H9.33458C9.59993 25.0791 9.86029 25.1556 10.0811 25.3028C10.3019 25.45 10.4727 25.6609 10.5708 25.9075C10.9885 26.8922 11.5304 27.8195 12.1833 28.6667C12.3434 28.8809 12.4386 29.1366 12.4576 29.4034C12.4767 29.6702 12.4188 29.9368 12.2908 30.1717L11.0546 32.2679C10.8032 32.7274 10.7329 33.2642 10.8575 33.7729C10.9933 34.2726 11.3219 34.698 11.7712 34.9554L14.6917 36.6575C14.9159 36.7911 15.165 36.8774 15.4238 36.9113C15.6826 36.9452 15.9456 36.9259 16.1967 36.8546C16.6987 36.7143 17.1282 36.3874 17.3971 35.9408L18.6333 33.7908C18.7696 33.5626 18.969 33.3787 19.2074 33.261C19.4458 33.1434 19.713 33.0972 19.9771 33.1279C21.0125 33.2534 22.0592 33.2534 23.0946 33.1279C23.3576 33.0858 23.6272 33.125 23.8673 33.2403C24.1075 33.3555 24.3067 33.5414 24.4383 33.7729L25.6567 35.8871C25.9158 36.3407 26.3444 36.6729 26.8484 36.8107C27.3523 36.9484 27.8903 36.8804 28.3442 36.6217L31.2646 34.9375C31.4916 34.8135 31.6912 34.6448 31.8513 34.4415C32.0115 34.2383 32.1288 34.0048 32.1962 33.755C32.3209 33.2463 32.2506 32.7094 31.9992 32.25L30.7629 30.1C30.6187 29.8788 30.542 29.6205 30.542 29.3565C30.542 29.0924 30.6187 28.8341 30.7629 28.6129C31.3932 27.799 31.9171 26.9079 32.3217 25.9612C32.41 25.7067 32.5779 25.4874 32.8005 25.3357C33.0232 25.1841 33.2887 25.1081 33.5579 25.1192H35.9946C36.5094 25.1396 37.0123 24.9612 37.3992 24.621C37.7861 24.2808 38.0273 23.8048 38.0729 23.2917V19.8875C38.0739 19.6283 38.0238 19.3714 37.9255 19.1316C37.8271 18.8918 37.6824 18.6738 37.4996 18.49C37.3212 18.3037 37.1071 18.1553 36.8701 18.0537C36.633 17.9522 36.3779 17.8994 36.12 17.8987H33.6654C33.3997 17.8944 33.141 17.8123 32.9213 17.6627C32.7016 17.513 32.5306 17.3024 32.4292 17.0567C32.0111 16.0794 31.4627 15.1633 30.7987 14.3333C30.6373 14.1192 30.5426 13.8621 30.5267 13.5944C30.5107 13.3266 30.5742 13.0601 30.7092 12.8283L31.9275 10.7142C32.1863 10.2603 32.2542 9.72231 32.1165 9.21836C31.9788 8.71442 31.6466 8.28579 31.1929 8.02667L28.2725 6.27083C27.8499 6.02627 27.3488 5.9556 26.875 6.07375C26.3712 6.2106 25.9406 6.53837 25.6746 6.9875L24.4383 9.1375C24.3055 9.36893 24.1067 9.55557 23.8674 9.67364C23.6281 9.7917 23.3591 9.83583 23.0946 9.80042C22.0892 9.67506 21.0721 9.67506 20.0667 9.80042C19.8048 9.83453 19.5387 9.78966 19.3025 9.67156C19.0662 9.55345 18.8707 9.36748 18.7408 9.1375L17.4508 7.00542C17.1884 6.55535 16.7598 6.22624 16.2572 6.08887C15.7546 5.95151 15.2182 6.01684 14.7633 6.27083L11.825 7.91917C11.3719 8.17865 11.039 8.60593 10.8982 9.10876C10.7574 9.61158 10.82 10.1496 11.0725 10.6067L12.2908 12.7746C12.4403 13.0123 12.5104 13.2913 12.4911 13.5715C12.4718 13.8516 12.364 14.1184 12.1833 14.3333C11.5356 15.1582 10.9938 16.0611 10.5708 17.0208C10.4706 17.266 10.2993 17.4755 10.079 17.6224C9.85866 17.7692 9.59939 17.8468 9.33458 17.845H6.89792V17.9167ZM21.5 28.6667C20.0826 28.6667 18.697 28.2463 17.5184 27.4589C16.3399 26.6714 15.4213 25.5521 14.8789 24.2426C14.3364 22.933 14.1945 21.4921 14.471 20.1019C14.7476 18.7117 15.4301 17.4347 16.4324 16.4324C17.4347 15.4301 18.7117 14.7476 20.1019 14.471C21.4921 14.1945 22.933 14.3364 24.2426 14.8789C25.5521 15.4213 26.6714 16.3399 27.4589 17.5184C28.2463 18.697 28.6667 20.0826 28.6667 21.5C28.6667 23.4007 27.9116 25.2236 26.5676 26.5676C25.2236 27.9116 23.4007 28.6667 21.5 28.6667ZM21.5 17.0208C20.6141 17.0208 19.7481 17.2835 19.0115 17.7757C18.2749 18.2679 17.7008 18.9674 17.3618 19.7859C17.0228 20.6044 16.9341 21.505 17.1069 22.3738C17.2797 23.2427 17.7063 24.0408 18.3328 24.6672C18.9592 25.2937 19.7573 25.7203 20.6262 25.8931C21.495 26.0659 22.3956 25.9772 23.2141 25.6382C24.0326 25.2992 24.7321 24.7251 25.2243 23.9885C25.7165 23.2519 25.9792 22.3859 25.9792 21.5C25.9792 20.312 25.5073 19.1728 24.6672 18.3328C23.8272 17.4927 22.6879 17.0208 21.5 17.0208Z" fill="white"/>
</svg>
