<svg width="20" height="20" viewBox="0 0 20 20" fill="none" xmlns="http://www.w3.org/2000/svg">
<path d="M12.8833 10.4501L10.3833 12.9501C10.2633 13.0682 10.1017 13.1344 9.93334 13.1344C9.76497 13.1344 9.60336 13.0682 9.48334 12.9501C9.42387 12.8913 9.37667 12.8212 9.34446 12.7439C9.31225 12.6667 9.29566 12.5838 9.29566 12.5001C9.29566 12.4165 9.31225 12.3336 9.34446 12.2564C9.37667 12.1791 9.42387 12.109 9.48334 12.0501L10.875 10.6585H2.5C2.41683 10.6585 2.33448 10.6421 2.25764 10.6103C2.1808 10.5784 2.11098 10.5318 2.05217 10.473C1.99336 10.4142 1.94671 10.3444 1.91488 10.2675C1.88305 10.1907 1.86667 10.1083 1.86667 10.0251C1.86667 9.94197 1.88305 9.85962 1.91488 9.78278C1.94671 9.70594 1.99336 9.63612 2.05217 9.57731C2.11098 9.5185 2.1808 9.47185 2.25764 9.44002C2.33448 9.40819 2.41683 9.39181 2.5 9.39181H10.9L9.50834 7.97514C9.38899 7.8558 9.32194 7.69393 9.32194 7.52514C9.32194 7.35636 9.38899 7.19449 9.50834 7.07514C9.62768 6.9558 9.78955 6.88875 9.95833 6.88875C10.1271 6.88875 10.289 6.9558 10.4083 7.07514L12.9083 9.57514C13.0176 9.69617 13.076 9.85467 13.0713 10.0177C13.0667 10.1806 12.9993 10.3356 12.8833 10.4501ZM18.1167 15.0918V4.90848C18.0818 3.85039 17.629 2.84926 16.8573 2.12447C16.0857 1.39969 15.0582 1.01036 14 1.04181H10.3C9.241 1.01033 8.2126 1.3994 7.43963 2.12396C6.66665 2.84853 6.21198 3.84965 6.175 4.90848C6.17716 5.07799 6.24546 5.23995 6.36533 5.35982C6.4852 5.47969 6.64716 5.54799 6.81667 5.55014C6.9854 5.54795 7.14648 5.47938 7.26502 5.35928C7.38356 5.23918 7.45002 5.07722 7.45 4.90848C7.48458 4.18627 7.80389 3.50719 8.33805 3.01989C8.8722 2.53259 9.57766 2.27679 10.3 2.30848H14C14.7223 2.27679 15.4278 2.53259 15.962 3.01989C16.4961 3.50719 16.8154 4.18627 16.85 4.90848V15.0918C16.8154 15.814 16.4961 16.4931 15.962 16.9804C15.4278 17.4677 14.7223 17.7235 14 17.6918H10.3C9.57766 17.7235 8.8722 17.4677 8.33805 16.9804C7.80389 16.4931 7.48458 15.814 7.45 15.0918C7.45002 14.9231 7.38356 14.7611 7.26502 14.641C7.14648 14.5209 6.9854 14.4523 6.81667 14.4501C6.64716 14.4523 6.4852 14.5206 6.36533 14.6405C6.24546 14.7603 6.17716 14.9223 6.175 15.0918C6.21198 16.1506 6.66665 17.1518 7.43963 17.8763C8.2126 18.6009 9.241 18.99 10.3 18.9585H14C15.0582 18.9899 16.0857 18.6006 16.8573 17.8758C17.629 17.151 18.0818 16.1499 18.1167 15.0918Z" fill="#022150"/>
</svg>
