<svg width="34" height="32" viewBox="0 0 34 32" fill="none" xmlns="http://www.w3.org/2000/svg">
<path d="M30.3716 20.6956C29.0221 24.1153 27.5273 26.0286 23.2615 28.7209L30.3716 20.6956Z" fill="#F1FFF3"/>
<path d="M16.9934 1.14126L16.9936 -3.55057e-06H16.9934L16.9934 1.14126ZM3.1429 20.7616L3.14776 19.6203H3.14333L3.1429 20.7616ZM1.64969 19.6493L0.554481 19.9703L0.556316 19.9764L1.64969 19.6493ZM1.14178 16.0076L2.28305 16.0167V16.0076L1.14178 16.0076ZM2.70611 14.4483L2.70239 15.5896L2.70984 15.5896L2.70611 14.4483ZM4.26541 16.0076L3.12414 16.0038L3.12414 16.0077L4.26541 16.0076ZM4.66661 18.7452L3.5733 19.0725L3.57413 19.0753L4.66661 18.7452ZM3.62036 20.6956L3.93478 21.7927L3.94216 21.7906L3.94952 21.7883L3.62036 20.6956ZM30.849 20.7616L30.8483 21.9029H30.8495L30.849 20.7616ZM32.3422 19.6493L33.4356 19.9764L33.4374 19.9703L32.3422 19.6493ZM32.8502 16.0076L31.7088 16.0038L31.7089 16.0167L32.8502 16.0076ZM31.2909 14.4483L31.2872 15.5896L31.2946 15.5896L31.2909 14.4483ZM29.7266 16.0076L28.5853 16.0076L28.5853 16.0105L29.7266 16.0076ZM29.3253 18.7452L28.2329 18.4149L28.2318 18.4186L29.3253 18.7452ZM24.0381 22.0161L23.2317 21.2085L23.2308 21.2094L24.0381 22.0161ZM23.2153 7.74904L23.9235 6.85412L23.9223 6.85316L23.2153 7.74904ZM11.3862 7.70335L10.6861 6.80203L10.6833 6.80422L11.3862 7.70335ZM8.98379 20.02L10.0635 20.3897L10.2313 19.8998L9.97305 19.4509L8.98379 20.02ZM7.25696 25.0635L8.33466 25.4392L8.33669 25.4332L7.25696 25.0635ZM7.46008 25.2717L7.80898 26.3584L7.81972 26.3549L7.8304 26.3512L7.46008 25.2717ZM12.5087 23.5398L13.0787 22.5511L12.6291 22.2919L12.1384 22.4603L12.5087 23.5398ZM17.1915 17.1148L16.0502 17.1139V17.1148H17.1915ZM19.7971 12.6808L20.9383 12.6795L20.9383 12.6714L20.9382 12.6634L19.7971 12.6808ZM17.1915 10.0804L17.2067 8.9392L17.1991 8.93909H17.1915V10.0804ZM14.591 12.6808H15.7323H14.591ZM3.79295 14.473C4.05752 11.1535 5.56295 8.05555 8.00934 5.79635L6.46077 4.11948C3.59272 6.76809 1.82781 10.4 1.51765 14.2916L3.79295 14.473ZM8.00934 5.79635C10.4557 3.53715 13.6634 2.28258 16.9934 2.28252L16.9934 -3.55057e-06C13.0895 6.23186e-05 9.32883 1.47087 6.46077 4.11948L8.00934 5.79635ZM16.9933 2.28252C20.3178 2.28299 23.5207 3.53343 25.9661 5.78567L27.5124 4.10673C24.6457 1.46642 20.8909 0.000549726 16.9936 -3.55057e-06L16.9933 2.28252ZM25.9661 5.78567C28.4115 8.03791 29.9207 11.1273 30.1941 14.4406L32.4689 14.2529C32.1484 10.3687 30.3792 6.74704 27.5124 4.10673L25.9661 5.78567ZM29.31 20.2766C28.6635 21.9148 28.0104 23.1217 27.0474 24.234C26.0749 25.3571 24.7387 26.439 22.6524 27.7558L23.8706 29.686C26.0501 28.3104 27.5942 27.0895 28.773 25.728C29.9611 24.3557 30.7301 22.8961 31.4332 21.1145L29.31 20.2766ZM3.14333 19.6203C3.05347 19.6203 2.96595 19.5913 2.89379 19.5375L1.53026 21.368C1.9961 21.715 2.56146 21.9026 3.14246 21.9029L3.14333 19.6203ZM2.89379 19.5375C2.82172 19.4839 2.76885 19.4083 2.74306 19.3221L0.556316 19.9764C0.722822 20.5329 1.06433 21.021 1.53026 21.368L2.89379 19.5375ZM2.74488 19.3283C2.4297 18.2529 2.27409 17.1372 2.28301 16.0167L0.000557072 15.9985C-0.0101436 17.3424 0.176493 18.6806 0.554498 19.9703L2.74488 19.3283ZM2.28305 16.0076C2.28305 15.9525 2.2939 15.8981 2.31498 15.8473L0.206913 14.9721C0.0706353 15.3004 0.000519117 15.6522 0.000520954 16.0076L2.28305 16.0076ZM2.31498 15.8473C2.33606 15.7965 2.36696 15.7504 2.40595 15.7115L0.794592 14.0949C0.542926 14.3458 0.343195 14.6438 0.206913 14.9721L2.31498 15.8473ZM2.40595 15.7115C2.44487 15.6727 2.4911 15.642 2.54203 15.621L1.6737 13.5101C1.3451 13.6453 1.04634 13.844 0.794592 14.0949L2.40595 15.7115ZM2.54203 15.621C2.59296 15.6001 2.64744 15.5894 2.70239 15.5896L2.70982 13.3071C2.35439 13.3059 2.00231 13.3749 1.6737 13.5101L2.54203 15.621ZM2.70984 15.5896C2.76437 15.5894 2.81831 15.6 2.86858 15.6207L3.73862 13.5105C3.40992 13.375 3.05775 13.3059 2.70237 13.3071L2.70984 15.5896ZM2.86858 15.6207C2.91893 15.6415 2.96471 15.672 3.00321 15.7105L4.6172 14.0965C4.36585 13.8452 4.06723 13.646 3.73862 13.5105L2.86858 15.6207ZM3.00321 15.7105C3.04166 15.749 3.07216 15.7947 3.09294 15.8451L5.20314 14.9751C5.06768 14.6465 4.86859 14.3479 4.6172 14.0965L3.00321 15.7105ZM3.09294 15.8451C3.11375 15.8956 3.12433 15.9495 3.12415 16.0038L5.40666 16.0113C5.40783 15.6557 5.33857 15.3035 5.20314 14.9751L3.09294 15.8451ZM3.12414 16.0077C3.12429 17.0457 3.27556 18.0781 3.5733 19.0725L5.75991 18.4178C5.52576 17.6358 5.40678 16.8238 5.40667 16.0074L3.12414 16.0077ZM3.57413 19.0753C3.59022 19.1285 3.59565 19.1844 3.59014 19.2397L5.86138 19.4664C5.89668 19.1126 5.8619 18.7553 5.75909 18.4151L3.57413 19.0753ZM3.59014 19.2397C3.5846 19.2951 3.56822 19.3488 3.542 19.3977L5.55338 20.4767C5.7215 20.1633 5.82609 19.82 5.86138 19.4664L3.59014 19.2397ZM3.542 19.3977C3.5158 19.4465 3.48012 19.4899 3.43697 19.5252L4.88193 21.2921C5.157 21.0671 5.38525 20.7901 5.55338 20.4767L3.542 19.3977ZM3.43697 19.5252C3.39378 19.5605 3.34423 19.5868 3.29119 19.6028L3.94952 21.7883C4.29011 21.6857 4.60689 21.517 4.88193 21.2921L3.43697 19.5252ZM3.30594 19.5985C3.25454 19.6132 3.20126 19.6206 3.14776 19.6203L3.13803 21.9029C3.40746 21.904 3.67574 21.8669 3.93478 21.7927L3.30594 19.5985ZM30.8495 21.9029C31.4305 21.9026 31.9958 21.715 32.4617 21.368L31.0981 19.5375C31.026 19.5913 30.9385 19.6203 30.8486 19.6203L30.8495 21.9029ZM32.4617 21.368C32.9276 21.021 33.2691 20.5329 33.4356 19.9764L31.2489 19.3221C31.2231 19.4083 31.1702 19.4839 31.0981 19.5375L32.4617 21.368ZM33.4374 19.9703C33.8154 18.6806 34.0021 17.3424 33.9914 15.9985L31.7089 16.0167C31.7178 17.1372 31.5622 18.2529 31.2471 19.3283L33.4374 19.9703ZM33.9914 16.0113C33.9926 15.6559 33.9235 15.3037 33.788 14.9751L31.6777 15.8451C31.6985 15.8954 31.7091 15.9493 31.7089 16.0038L33.9914 16.0113ZM33.788 14.9751C33.6524 14.6463 33.4532 14.3478 33.2019 14.0965L31.588 15.7105C31.6265 15.7491 31.657 15.7949 31.6777 15.8451L33.788 14.9751ZM33.2019 14.0965C32.9507 13.8453 32.6522 13.6461 32.3234 13.5105L31.4534 15.6207C31.5036 15.6414 31.5494 15.6719 31.588 15.7105L33.2019 14.0965ZM32.3234 13.5105C31.9947 13.375 31.6426 13.3059 31.2872 13.3071L31.2946 15.5896C31.3492 15.5894 31.4031 15.6 31.4534 15.6207L32.3234 13.5105ZM31.2946 13.3071C30.9392 13.3059 30.5871 13.3749 30.2585 13.5101L31.1268 15.621C31.1778 15.6001 31.2322 15.5894 31.2872 15.5896L31.2946 13.3071ZM30.2585 13.5101C29.9299 13.6453 29.6311 13.844 29.3794 14.0949L30.9908 15.7115C31.0297 15.6727 31.0759 15.642 31.1268 15.621L30.2585 13.5101ZM29.3794 14.0949C29.1277 14.3458 28.928 14.6438 28.7917 14.9721L30.8998 15.8473C30.9209 15.7965 30.9518 15.7504 30.9908 15.7115L29.3794 14.0949ZM28.7917 14.9721C28.6554 15.3004 28.5853 15.6522 28.5853 16.0076L30.8679 16.0076C30.8679 15.9525 30.8787 15.8981 30.8998 15.8473L28.7917 14.9721ZM28.5853 16.0105C28.5874 16.8249 28.4686 17.6352 28.2329 18.4149L30.4177 19.0755C30.7188 18.0798 30.8705 17.0449 30.8679 16.0046L28.5853 16.0105ZM28.2318 18.4186C28.0268 19.1049 28.1018 19.8444 28.4404 20.4757L30.4518 19.3967C30.3983 19.297 30.3865 19.1802 30.4189 19.0717L28.2318 18.4186ZM28.4404 20.4757C28.779 21.1069 29.3537 21.5784 30.0389 21.7873L30.7043 19.6039C30.5961 19.5709 30.5053 19.4964 30.4518 19.3967L28.4404 20.4757ZM30.0626 21.7942C30.3183 21.8661 30.5827 21.9027 30.8483 21.9029L30.8498 19.6203C30.7926 19.6203 30.7356 19.6124 30.6806 19.5969L30.0626 21.7942ZM24.8445 22.8237C25.9137 21.756 26.7447 20.4741 27.283 19.0623L25.1502 18.2491C24.7267 19.3599 24.0729 20.3685 23.2317 21.2085L24.8445 22.8237ZM27.283 19.0623C27.8213 17.6505 28.0546 16.1407 27.9676 14.6322L25.6889 14.7636C25.7573 15.9505 25.5738 17.1383 25.1502 18.2491L27.283 19.0623ZM27.9676 14.6322C27.8806 13.1238 27.4753 11.6508 26.7783 10.3102L24.7531 11.3632C25.3015 12.4179 25.6204 13.5768 25.6889 14.7636L27.9676 14.6322ZM26.7783 10.3102C26.0813 8.96965 25.1083 7.79177 23.9235 6.85412L22.507 8.64397C23.4392 9.38169 24.2047 10.3084 24.7531 11.3632L26.7783 10.3102ZM23.9223 6.85316C22.039 5.36688 19.7121 4.55432 17.313 4.54505L17.3042 6.82756C19.1932 6.83486 21.0254 7.47466 22.5082 8.64492L23.9223 6.85316ZM17.313 4.54505C14.9139 4.53578 12.5808 5.33035 10.6861 6.80203L12.0862 8.60467C13.5781 7.4459 15.4151 6.82026 17.3042 6.82756L17.313 4.54505ZM10.6833 6.80422C8.65058 8.39326 7.25955 10.6624 6.76561 13.1948L9.00592 13.6317C9.39465 11.6388 10.4894 9.85301 12.089 8.60248L10.6833 6.80422ZM6.76561 13.1948C6.27168 15.7271 6.708 18.3526 7.99453 20.5891L9.97305 19.4509C8.96058 17.6909 8.61719 15.6247 9.00592 13.6317L6.76561 13.1948ZM7.90406 19.6503L6.17723 24.6939L8.33669 25.4332L10.0635 20.3897L7.90406 19.6503ZM6.17929 24.6879C6.09975 24.9161 6.08492 25.1627 6.13771 25.4001L8.3658 24.9046C8.40547 25.0829 8.39429 25.268 8.33464 25.4392L6.17929 24.6879ZM6.13771 25.4001C6.19057 25.6377 6.30866 25.8547 6.47721 26.0275L8.111 24.4335C8.23733 24.563 8.32606 24.7259 8.3658 24.9046L6.13771 25.4001ZM6.47721 26.0275C6.64579 26.2003 6.85981 26.3237 7.09604 26.3824L7.64642 24.1672C7.82399 24.2113 7.98461 24.304 8.111 24.4335L6.47721 26.0275ZM7.09604 26.3824C7.33269 26.4412 7.57953 26.432 7.80898 26.3584L7.11118 24.1851C7.28307 24.1299 7.46843 24.123 7.64642 24.1672L7.09604 26.3824ZM7.8304 26.3512L12.879 24.6193L12.1384 22.4603L7.08975 24.1922L7.8304 26.3512ZM11.9387 24.5285C13.9779 25.7041 16.3479 26.1742 18.6814 25.8658L18.3824 23.603C16.5469 23.8455 14.6827 23.4758 13.0787 22.5511L11.9387 24.5285ZM18.6814 25.8658C21.015 25.5574 23.1816 24.4878 24.8454 22.8228L23.2308 21.2094C21.9221 22.519 20.2179 23.3604 18.3824 23.603L18.6814 25.8658ZM22.2518 29.3401C22.2518 29.5485 22.0828 29.7174 21.8744 29.7174V32C23.3434 32 24.5343 30.8091 24.5343 29.3401H22.2518ZM21.8744 29.7174C21.666 29.7174 21.497 29.5485 21.497 29.3401H19.2145C19.2145 30.8091 20.4054 32 21.8744 32V29.7174ZM21.497 29.3401C21.497 29.1316 21.666 28.9627 21.8744 28.9627V26.6802C20.4054 26.6802 19.2145 27.871 19.2145 29.3401H21.497ZM21.8744 28.9627C22.0828 28.9627 22.2518 29.1316 22.2518 29.3401H24.5343C24.5343 27.871 23.3434 26.6802 21.8744 26.6802V28.9627ZM18.3328 18.1306V17.1148H16.0502V18.1306H18.3328ZM18.3328 17.1158C18.333 16.8787 18.3967 16.646 18.5172 16.442L16.5518 15.2812C16.224 15.8364 16.0508 16.4692 16.0503 17.1139L18.3328 17.1158ZM18.5172 16.442C18.6377 16.2378 18.794 16.081 19.0248 15.9515L17.908 13.9609C17.3305 14.2849 16.8796 14.7262 16.5518 15.2812L18.5172 16.442ZM19.0248 15.9515C19.6058 15.6255 20.0895 15.1505 20.4258 14.5753L18.4555 13.423C18.3241 13.6478 18.135 13.8335 17.908 13.9609L19.0248 15.9515ZM20.4258 14.5753C20.7622 14.0002 20.9391 13.3458 20.9383 12.6795L18.6558 12.6822C18.6561 12.9426 18.587 13.1983 18.4555 13.423L20.4258 14.5753ZM20.9382 12.6634C20.9231 11.6791 20.525 10.7395 19.8282 10.044L18.2158 11.6596C18.4921 11.9353 18.65 12.3079 18.6559 12.6983L20.9382 12.6634ZM19.8282 10.044C19.1314 9.34862 18.191 8.95233 17.2067 8.9392L17.1763 11.2215C17.5666 11.2267 17.9395 11.3839 18.2158 11.6596L19.8282 10.044ZM17.1915 8.93909C16.1991 8.93909 15.2474 9.33333 14.5457 10.035L16.1597 11.649C16.4334 11.3754 16.8045 11.2216 17.1915 11.2216V8.93909ZM14.5457 10.035C13.844 10.7367 13.4498 11.6884 13.4498 12.6808H15.7323C15.7323 12.2938 15.886 11.9227 16.1597 11.649L14.5457 10.035ZM13.4498 12.6808V13.2548H15.7323V12.6808H13.4498Z" fill="#F1FFF3"/>
<circle cx="16.9937" cy="19.8465" r="1.01581" fill="#F1FFF3"/>
</svg>
