<svg width="16" height="11" viewBox="0 0 16 11" fill="none" xmlns="http://www.w3.org/2000/svg">
<path fill-rule="evenodd" clip-rule="evenodd" d="M7.66092 2.28458C9.88387 2.28468 12.0218 3.13882 13.6329 4.67048C13.7542 4.78873 13.9481 4.78724 14.0676 4.66714L15.2273 3.49676C15.2878 3.43584 15.3215 3.35333 15.321 3.26748C15.3205 3.18162 15.2858 3.09951 15.2246 3.03931C10.9961 -1.0131 4.3251 -1.0131 0.096579 3.03931C0.035326 3.09947 0.000571815 3.18155 6.99298e-06 3.26741C-0.000557829 3.35326 0.0331133 3.4358 0.0935695 3.49676L1.25358 4.66714C1.37299 4.78742 1.56705 4.78892 1.6883 4.67048C3.29956 3.13872 5.43775 2.28457 7.66092 2.28458ZM7.66085 6.09223C8.88221 6.09216 10.06 6.54613 10.9653 7.36594C11.0878 7.48229 11.2807 7.47977 11.4 7.36026L12.5584 6.18988C12.6194 6.12849 12.6532 6.04521 12.6524 5.95867C12.6515 5.87213 12.6159 5.78955 12.5537 5.72942C9.79676 3.16489 5.52727 3.16489 2.77033 5.72942C2.70805 5.78955 2.67252 5.87217 2.6717 5.95874C2.67088 6.0453 2.70485 6.12858 2.76598 6.18988L3.92399 7.36026C4.04335 7.47977 4.23625 7.48229 4.3587 7.36594C5.26344 6.54667 6.44029 6.09274 7.66085 6.09223ZM9.98127 8.65393C9.98304 8.74072 9.94893 8.82438 9.88698 8.88518L7.88329 10.9073C7.82455 10.9667 7.74447 11.0001 7.66091 11.0001C7.57736 11.0001 7.49728 10.9667 7.43854 10.9073L5.43451 8.88518C5.37261 8.82434 5.33855 8.74064 5.34038 8.65386C5.34222 8.56708 5.37979 8.4849 5.44421 8.42673C6.72384 7.34441 8.59798 7.34441 9.87761 8.42673C9.942 8.48495 9.9795 8.56715 9.98127 8.65393Z" fill="white"/>
</svg>
