<svg width="88" height="88" viewBox="0 0 88 88" fill="none" xmlns="http://www.w3.org/2000/svg">
<path opacity="0.1" d="M44 1.01063e-08C19.6995 2.13453e-06 1.70197e-06 19.6995 3.82639e-06 44C5.95081e-06 68.3005 19.6995 88 44 88C68.3005 88 88 68.3005 88 44C88 19.6995 68.3005 -2.11431e-06 44 1.01063e-08Z" fill="#4B39EF"/>
<path d="M44 50.16C42.833 50.16 41.7139 49.6964 40.8887 48.8713C40.0636 48.0461 39.6 46.927 39.6 45.76L39.6 25.256C39.6 24.0891 40.0636 22.9699 40.8887 22.1447C41.7139 21.3196 42.833 20.856 44 20.856C45.1669 20.856 46.2861 21.3196 47.1113 22.1447C47.9364 22.9699 48.4 24.089 48.4 25.256L48.4 45.76C48.4 46.927 47.9364 48.0461 47.1113 48.8713C46.2861 49.6964 45.1669 50.16 44 50.16Z" fill="#4B39EF"/>
<path d="M44 56.144C40.9624 56.144 38.5 58.6064 38.5 61.644C38.5 64.6816 40.9624 67.144 44 67.144C47.0376 67.144 49.5 64.6816 49.5 61.644C49.5 58.6064 47.0376 56.144 44 56.144Z" fill="#4B39EF"/>
</svg>
