<svg width="19" height="19" viewBox="0 0 19 19" fill="none" xmlns="http://www.w3.org/2000/svg">
<path d="M0.362984 0.527003L0.438947 0.439011C0.717476 0.160481 1.15333 0.13516 1.46046 0.363048L1.54846 0.439011L9.49917 8.39042L17.4514 0.439011C17.7578 0.132628 18.2545 0.132628 18.5609 0.439011C18.8673 0.745393 18.8673 1.24214 18.5609 1.54852L10.609 9.49924L18.5609 17.4515C18.8395 17.73 18.8648 18.1659 18.6369 18.473L18.5609 18.561C18.2824 18.8395 17.8465 18.8648 17.5394 18.6369L17.4514 18.561L9.49917 10.6091L1.54846 18.561C1.24207 18.8674 0.745329 18.8674 0.438947 18.561C0.132564 18.2546 0.132564 17.7579 0.438947 17.4515L8.39036 9.49924L0.438947 1.54852C0.160417 1.26999 0.135096 0.834137 0.362984 0.527003L0.438947 0.439011L0.362984 0.527003Z" fill="white"/>
<path d="M0.283803 0.458647L0.283586 0.45846L0.278978 0.464672C0.0206478 0.812833 0.0492471 1.30675 0.364979 1.62249L0.364983 1.62249L8.24242 9.49924L0.36498 17.3775C0.017746 17.7247 0.017746 18.2877 0.36498 18.635C0.712213 18.9822 1.27519 18.9822 1.62242 18.635L1.54846 18.561L1.62243 18.6349L9.49918 10.757L17.3774 18.635L17.3772 18.6352L17.3831 18.6402L17.4711 18.7161L17.4709 18.7163L17.4771 18.721C17.8252 18.9793 18.3192 18.9507 18.6349 18.635L18.6351 18.6352L18.6401 18.6293L18.7161 18.5413L18.7163 18.5415L18.7209 18.5353C18.9792 18.1872 18.9506 17.6932 18.6349 17.3775L10.757 9.49924L18.6349 1.62249L18.5609 1.54852L18.6349 1.62249C18.9821 1.27525 18.9821 0.712277 18.6349 0.365043C18.2877 0.0178099 17.7247 0.0178099 17.3775 0.365039L9.49918 8.24248L1.62243 0.365046L1.62262 0.364847L1.61681 0.359829L1.52882 0.283866L1.52901 0.28365L1.52279 0.279041C1.17463 0.0207116 0.680712 0.0493109 0.364979 0.365043L0.364781 0.364844L0.359765 0.370654L0.283803 0.458647Z" stroke="black" stroke-opacity="0.2" stroke-width="0.2"/>
</svg>
