<svg width="17" height="17" viewBox="0 0 17 17" fill="none" xmlns="http://www.w3.org/2000/svg">
<path d="M2.61375 14.9954H4.10125C4.36703 14.9945 4.62869 14.9296 4.86415 14.8063C5.09961 14.6831 5.30197 14.505 5.45417 14.2871L6.80709 15.3708C7.30152 15.7223 7.89339 15.9105 8.5 15.9092H12.0913C12.5462 15.9095 12.9893 15.7637 13.3552 15.4934C13.7212 15.2231 13.9907 14.8424 14.1242 14.4075L15.9658 8.40082C16.0475 8.13399 16.0656 7.85179 16.0189 7.57669C15.9723 7.30159 15.862 7.0412 15.6969 6.81625C15.5318 6.59131 15.3164 6.40802 15.068 6.28099C14.8195 6.15396 14.5449 6.0867 14.2658 6.08457H11.3829C11.3369 6.08463 11.2914 6.0745 11.2498 6.05491C11.2082 6.03531 11.1714 6.00674 11.1421 5.97124C11.1121 5.93521 11.0903 5.89315 11.0781 5.84792C11.0658 5.8027 11.0635 5.75536 11.0713 5.70915L11.4467 3.58415C11.5387 3.10349 11.4585 2.60576 11.2202 2.17832C10.9819 1.75088 10.6006 1.42103 10.1433 1.24665C9.88629 1.14464 9.61238 1.09178 9.33584 1.09082C8.98824 1.09495 8.64696 1.18429 8.34193 1.35101C8.0369 1.51773 7.77742 1.75673 7.58625 2.04707L5.61 5.04332C5.48023 4.7512 5.26877 4.50284 5.00108 4.32815C4.73339 4.15346 4.4209 4.0599 4.10125 4.05874H2.61375C2.17351 4.06061 1.75193 4.23681 1.44129 4.54878C1.13065 4.86075 0.956249 5.28307 0.956253 5.72332V13.3379C0.956253 13.5556 0.999126 13.7711 1.08242 13.9722C1.16572 14.1733 1.28781 14.356 1.44172 14.5099C1.59564 14.6638 1.77836 14.7859 1.97946 14.8692C2.18055 14.9525 2.39609 14.9954 2.61375 14.9954ZM8.5 2.6279C8.63387 2.42569 8.83329 2.27574 9.06473 2.20329C9.29617 2.13083 9.54549 2.14029 9.77077 2.23007C9.99606 2.31985 10.1835 2.48448 10.3017 2.69625C10.4199 2.90803 10.4615 3.15404 10.4196 3.3929L10.0513 5.5179C10.0153 5.71596 10.0234 5.9195 10.0748 6.11411C10.1262 6.30873 10.2197 6.48967 10.3488 6.64415C10.4786 6.79608 10.6392 6.9188 10.8199 7.00425C11.0005 7.08971 11.1973 7.13597 11.3971 7.13999H14.28C14.3964 7.13339 14.5127 7.15563 14.6184 7.20474C14.7242 7.25385 14.8162 7.32831 14.8862 7.4215C14.9563 7.5147 15.0023 7.62375 15.0201 7.73899C15.0379 7.85422 15.027 7.97207 14.9883 8.08207L13.1467 14.0887C13.0847 14.3193 12.9468 14.5223 12.7554 14.6649C12.5639 14.8076 12.3299 14.8816 12.0913 14.875H8.5C8.12501 14.8792 7.75821 14.7652 7.45167 14.5492L5.77292 13.1892V11.8362V6.74332L8.5 2.6279ZM2.01875 5.72332C2.01782 5.64459 2.03251 5.56646 2.062 5.49345C2.09148 5.42044 2.13516 5.35401 2.1905 5.29801C2.24584 5.242 2.31175 5.19754 2.38441 5.1672C2.45706 5.13685 2.53502 5.12123 2.61375 5.12124H4.10125C4.2597 5.1231 4.41103 5.18736 4.52242 5.30007C4.6338 5.41278 4.69626 5.56486 4.69625 5.72332V13.3379C4.69441 13.4951 4.63114 13.6454 4.51995 13.7566C4.40876 13.8678 4.25849 13.9311 4.10125 13.9329H2.61375C2.45595 13.9329 2.30461 13.8702 2.19302 13.7586C2.08144 13.647 2.01875 13.4957 2.01875 13.3379V5.72332Z" fill="#022150"/>
</svg>
