<svg width="24" height="22" viewBox="0 0 24 22" fill="none" xmlns="http://www.w3.org/2000/svg">
<path d="M7.91988 1.05952H4.53988V2.55952H7.91988V1.05952ZM11.2099 4.12662C11.2099 2.37437 9.67988 1.05952 7.91988 1.05952V2.55952C8.97987 2.55952 9.70988 3.32563 9.70988 4.12662H11.2099ZM11.2099 7.21095V4.12662H9.70988V7.21095H11.2099ZM7.91988 10.2771C9.6777 10.2771 11.2099 8.97334 11.2099 7.21095H9.70988C9.70988 8.01809 8.98205 8.77714 7.91988 8.77714V10.2771ZM4.53988 10.2771H7.91988V8.77714H4.53988V10.2771ZM1.24988 7.21095C1.24988 8.97516 2.79406 10.2771 4.53988 10.2771V8.77714C3.4857 8.77714 2.74988 8.01627 2.74988 7.21095H1.24988ZM1.24988 4.12662V7.21095H2.74988V4.12662H1.24988ZM4.53988 1.05952C2.79187 1.05952 1.24988 2.37254 1.24988 4.12662H2.74988C2.74988 3.32746 3.48788 2.55952 4.53988 2.55952V1.05952ZM7.91988 11.4369H4.53988V12.9369H7.91988V11.4369ZM11.2099 14.504C11.2099 12.7419 9.6781 11.4369 7.91988 11.4369V12.9369C8.98165 12.9369 9.70988 13.6965 9.70988 14.504H11.2099ZM11.2099 17.5883V14.504H9.70988V17.5883H11.2099ZM7.91988 20.6545C9.67969 20.6545 11.2099 19.3398 11.2099 17.5883H9.70988C9.70988 18.3882 8.98007 19.1545 7.91988 19.1545V20.6545ZM4.53988 20.6545H7.91988V19.1545H4.53988V20.6545ZM1.24988 17.5883C1.24988 19.3416 2.79207 20.6545 4.53988 20.6545V19.1545C3.48769 19.1545 2.74988 18.3864 2.74988 17.5883H1.24988ZM1.24988 14.504V17.5883H2.74988V14.504H1.24988ZM4.53988 11.4369C2.79366 11.4369 1.24988 12.7401 1.24988 14.504H2.74988C2.74988 13.6983 3.4861 12.9369 4.53988 12.9369V11.4369ZM16.08 2.55952H19.46V1.05952H16.08V2.55952ZM14.29 4.12662C14.29 3.32563 15.02 2.55952 16.08 2.55952V1.05952C14.32 1.05952 12.79 2.37437 12.79 4.12662H14.29ZM14.29 7.21095V4.12662H12.79V7.21095H14.29ZM16.08 8.77714C15.0178 8.77714 14.29 8.01809 14.29 7.21095H12.79C12.79 8.97334 14.3222 10.2771 16.08 10.2771V8.77714ZM19.46 8.77714H16.08V10.2771H19.46V8.77714ZM21.25 7.21095C21.25 8.01627 20.5142 8.77714 19.46 8.77714V10.2771C21.2058 10.2771 22.75 8.97516 22.75 7.21095H21.25ZM21.25 4.12662V7.21095H22.75V4.12662H21.25ZM19.46 2.55952C20.512 2.55952 21.25 3.32746 21.25 4.12662H22.75C22.75 2.37254 21.208 1.05952 19.46 1.05952V2.55952ZM19.46 11.4369H16.08V12.9369H19.46V11.4369ZM22.75 14.504C22.75 12.7401 21.2062 11.4369 19.46 11.4369V12.9369C20.5138 12.9369 21.25 13.6983 21.25 14.504H22.75ZM22.75 17.5883V14.504H21.25V17.5883H22.75ZM19.46 20.6545C21.2078 20.6545 22.75 19.3416 22.75 17.5883H21.25C21.25 18.3864 20.5122 19.1545 19.46 19.1545V20.6545ZM16.08 20.6545H19.46V19.1545H16.08V20.6545ZM12.79 17.5883C12.79 19.3398 14.3202 20.6545 16.08 20.6545V19.1545C15.0198 19.1545 14.29 18.3882 14.29 17.5883H12.79ZM12.79 14.504V17.5883H14.29V14.504H12.79ZM16.08 11.4369C14.3218 11.4369 12.79 12.7419 12.79 14.504H14.29C14.29 13.6965 15.0182 12.9369 16.08 12.9369V11.4369Z" fill="#BDBDBD"/>
</svg>
