<svg width="43" height="43" viewBox="0 0 43 43" fill="none" xmlns="http://www.w3.org/2000/svg">
<path d="M15.6412 23.2917C15.3408 23.2952 15.0482 23.3875 14.8001 23.557C14.552 23.7265 14.3596 23.9655 14.2471 24.2441C14.1346 24.5227 14.107 24.8283 14.1677 25.1225C14.2285 25.4167 14.3749 25.6864 14.5886 25.8976C14.8023 26.1088 15.0737 26.2521 15.3686 26.3094C15.6635 26.3667 15.9688 26.3356 16.246 26.2198C16.5233 26.104 16.7601 25.9088 16.9266 25.6588C17.0932 25.4087 17.1821 25.115 17.1821 24.8146C17.1821 24.6131 17.1421 24.4136 17.0645 24.2276C16.9868 24.0417 16.873 23.873 16.7297 23.7313C16.5864 23.5897 16.4164 23.4779 16.2295 23.4024C16.0427 23.3269 15.8427 23.2893 15.6412 23.2917ZM21.3925 23.2917C21.0921 23.2952 20.7994 23.3875 20.5513 23.557C20.3033 23.7265 20.1109 23.9655 19.9983 24.2441C19.8858 24.5227 19.8582 24.8283 19.919 25.1225C19.9797 25.4167 20.1262 25.6864 20.3399 25.8976C20.5535 26.1088 20.8249 26.2521 21.1198 26.3094C21.4148 26.3667 21.72 26.3356 21.9973 26.2198C22.2745 26.104 22.5113 25.9088 22.6779 25.6588C22.8444 25.4087 22.9333 25.115 22.9333 24.8146C22.9333 24.6131 22.8934 24.4136 22.8157 24.2276C22.7381 24.0417 22.6243 23.873 22.481 23.7313C22.3376 23.5897 22.1676 23.4779 21.9808 23.4024C21.794 23.3269 21.594 23.2893 21.3925 23.2917ZM15.6233 29.025C15.3229 29.0285 15.0303 29.1208 14.7822 29.2903C14.5341 29.4598 14.3417 29.6989 14.2292 29.9774C14.1167 30.256 14.089 30.5616 14.1498 30.8559C14.2106 31.1501 14.357 31.4198 14.5707 31.631C14.7844 31.8421 15.0558 31.9854 15.3507 32.0427C15.6456 32.1001 15.9509 32.0689 16.2281 31.9531C16.5053 31.8373 16.7421 31.6422 16.9087 31.3921C17.0753 31.1421 17.1641 30.8484 17.1642 30.5479C17.174 30.3405 17.1412 30.1332 17.0679 29.9389C16.9947 29.7445 16.8824 29.5672 16.7381 29.4179C16.5938 29.2685 16.4204 29.1503 16.2287 29.0704C16.037 28.9905 15.831 28.9507 15.6233 28.9533V29.025ZM31.4258 6.14541V3.47583C31.3892 3.17131 31.2423 2.89075 31.0129 2.68722C30.7834 2.48369 30.4873 2.3713 30.1806 2.3713C29.8739 2.3713 29.5778 2.48369 29.3484 2.68722C29.1189 2.89075 28.972 3.17131 28.9354 3.47583V5.75125H28.3621H23.0946V3.47583C23.0946 3.14321 22.9624 2.8242 22.7272 2.589C22.492 2.3538 22.173 2.22166 21.8404 2.22166C21.5078 2.22166 21.1888 2.3538 20.9536 2.589C20.7184 2.8242 20.5863 3.14321 20.5863 3.47583V5.71541H14.6379H14.0646V3.47583C14.028 3.17131 13.8811 2.89075 13.6516 2.68722C13.4222 2.48369 13.1261 2.3713 12.8194 2.3713C12.5127 2.3713 12.2166 2.48369 11.9871 2.68722C11.7577 2.89075 11.6108 3.17131 11.5742 3.47583V6.14541C9.27303 6.80917 7.24968 8.20228 5.80858 10.1151C4.36747 12.028 3.58656 14.3571 3.58333 16.7521V29.7237C3.59282 32.6573 4.76604 35.4671 6.84538 37.5364C8.92472 39.6056 11.7402 40.7652 14.6737 40.7604H28.3979C31.319 40.7463 34.1162 39.5783 36.18 37.5111C38.2439 35.4439 39.4072 32.6449 39.4167 29.7237V16.7521C39.4134 14.3571 38.6325 12.028 37.1914 10.1151C35.7503 8.20228 33.727 6.80917 31.4258 6.14541ZM11.5742 8.77916V10.2304C11.6108 10.5349 11.7577 10.8155 11.9871 11.019C12.2166 11.2226 12.5127 11.3349 12.8194 11.3349C13.1261 11.3349 13.4222 11.2226 13.6516 11.019C13.8811 10.8155 14.028 10.5349 14.0646 10.2304V8.25958C14.2617 8.25958 14.4408 8.25958 14.6379 8.25958H20.5863V10.2304C20.5863 10.563 20.7184 10.882 20.9536 11.1172C21.1888 11.3524 21.5078 11.4846 21.8404 11.4846C22.173 11.4846 22.492 11.3524 22.7272 11.1172C22.9624 10.882 23.0946 10.563 23.0946 10.2304V8.20583H28.3621C28.5592 8.20583 28.7383 8.20583 28.9354 8.20583V10.1767C28.972 10.4812 29.1189 10.7617 29.3484 10.9653C29.5778 11.1688 29.8739 11.2812 30.1806 11.2812C30.4873 11.2812 30.7834 11.1688 31.0129 10.9653C31.2423 10.7617 31.3892 10.4812 31.4258 10.1767V8.77916C32.8339 9.32686 34.0724 10.2365 35.0162 11.4163C35.9599 12.596 36.5756 14.004 36.8008 15.4979H6.16333C6.39184 14 7.01284 12.5894 7.96321 11.4093C8.91358 10.2292 10.1594 9.32173 11.5742 8.77916ZM36.9621 29.7237C36.9526 31.9968 36.0418 34.1732 34.4295 35.7754C32.8172 37.3776 30.6351 38.2748 28.3621 38.27H14.6379C12.3649 38.2748 10.1828 37.3776 8.57053 35.7754C6.95823 34.1732 6.0474 31.9968 6.03792 29.7237V17.9167H36.9621V29.7237Z" fill="white"/>
</svg>
