<svg width="35" height="35" viewBox="0 0 35 35" fill="none" xmlns="http://www.w3.org/2000/svg">
<circle cx="17.5" cy="17.5" r="17.25" stroke="white" stroke-opacity="0.15" stroke-width="0.5"/>
<g clip-path="url(#clip0_661_5668)">
<path d="M22.5968 12.9451L20.798 11.6149C20.5029 11.3962 20.1648 11.2364 19.8039 11.1451C19.4429 11.0538 19.0664 11.0328 18.6967 11.0834C18.3271 11.134 17.9719 11.2551 17.6522 11.4396C17.3326 11.6241 17.055 11.8681 16.8361 12.1572L11.8785 18.5628C11.5474 18.9944 11.3607 19.5116 11.3431 20.0465V22.6251C11.3389 22.9796 11.422 23.3301 11.5857 23.6483C11.7494 23.9665 11.9891 24.2434 12.2854 24.4567C12.6806 24.7409 13.1614 24.8953 13.656 24.8967C13.8715 24.907 14.0876 24.8898 14.2984 24.8456L16.8147 24.1395C17.3661 23.9813 17.8477 23.6541 18.1853 23.2084L23.1429 16.8028C23.6003 16.2201 23.7995 15.4888 23.6973 14.767C23.5951 14.0452 23.1998 13.3907 22.5968 12.9451ZM18.9348 12.6074H19.0954C19.3583 12.6089 19.6137 12.6915 19.8236 12.8428L21.6117 14.1628C21.8756 14.3626 22.0478 14.6526 22.0918 14.9716C22.1357 15.2906 22.048 15.6134 21.8473 15.8716L21.2905 16.5981C20.4145 16.6583 19.5458 16.4092 18.8491 15.8981C18.1525 15.387 17.6762 14.6494 17.5107 13.8251L18.0996 13.0679C18.197 12.9392 18.3217 12.8316 18.4657 12.7523C18.6096 12.6729 18.7695 12.6235 18.9348 12.6074ZM16.9004 22.267C16.7658 22.4461 16.5742 22.5789 16.3543 22.6456L13.8166 23.3721C13.7157 23.4047 13.6078 23.4124 13.503 23.3946C13.3982 23.3767 13.2998 23.3337 13.2169 23.2698C13.1217 23.2026 13.0448 23.1146 12.9927 23.0131C12.9405 22.9116 12.9146 22.7996 12.9171 22.6865V20.1079C12.9459 19.8699 13.0549 19.6472 13.2277 19.4735L16.4399 15.3088C16.777 16.0294 17.2976 16.6579 17.9541 17.1369C18.6105 17.6159 19.3821 17.9302 20.1983 18.0512L16.9004 22.267Z" fill="white"/>
</g>
<defs>
<clipPath id="clip0_661_5668">
<rect width="18" height="18" fill="white" transform="translate(8.71338 9)"/>
</clipPath>
</defs>
</svg>
