<svg width="16" height="25" viewBox="0 0 16 25" fill="none" xmlns="http://www.w3.org/2000/svg">
<path fill-rule="evenodd" clip-rule="evenodd" d="M0.86721 10.3318C1.34615 10.3318 1.73441 10.7049 1.73441 11.1652C1.73441 11.1929 1.73301 11.2203 1.73025 11.2474V13.5421H1.72574V13.5487C1.72574 13.5644 1.72688 13.5801 1.72801 13.5957C1.72905 13.6101 1.73009 13.6244 1.73025 13.6388V13.9521H1.74656C2.00432 16.9161 4.52829 19.2263 7.62135 19.3293H7.9717C11.0657 19.228 13.5911 16.9171 13.8479 13.9521H13.8687V11.1752L13.8754 11.1751L13.8753 11.1652C13.8753 10.7049 14.2636 10.3318 14.7425 10.3318C15.2215 10.3318 15.6097 10.7049 15.6097 11.1652C15.6097 11.1894 15.6087 11.2134 15.6066 11.2371V13.2821H15.5962H15.5958C15.5985 17.1107 12.6209 20.3361 8.66511 20.7895V23.3231H11.9327V23.3338C11.9443 23.3334 11.9559 23.3332 11.9675 23.3332C12.4465 23.3332 12.8347 23.7063 12.8347 24.1666C12.8347 24.6269 12.4465 25 11.9675 25C11.9559 25 11.9443 24.9998 11.9327 24.9993V24.9999H3.67348V24.9995C3.66312 24.9998 3.65272 25 3.64227 25C3.16333 25 2.77507 24.6269 2.77507 24.1666C2.77507 23.7063 3.16333 23.3332 3.64227 23.3332C3.65272 23.3332 3.66312 23.3333 3.67348 23.3337V23.3231H6.94805V20.7895C2.98381 20.3467 -0.00482033 17.1175 5.83675e-06 13.2821C5.83675e-06 13.2621 0.00174998 13.2432 0.00345276 13.2246C0.004881 13.2091 0.00628015 13.1939 0.00659653 13.1787V11.2684C0.00224601 11.2346 5.59833e-06 11.2001 5.59833e-06 11.1652C5.59833e-06 10.7049 0.388266 10.3318 0.86721 10.3318ZM12.4809 11.8786C12.4809 12.382 12.4809 12.912 12.4531 13.4154C12.4318 13.8693 12.3597 14.3198 12.2381 14.7589C11.9666 15.6805 11.3877 16.491 10.5904 17.0658C8.95497 18.3058 6.64794 18.3058 5.01253 17.0658C4.21312 16.4928 3.63352 15.6816 3.36415 14.7589C3.24193 14.3199 3.16993 13.8694 3.14943 13.4154C3.11925 12.912 3.12202 12.382 3.12202 11.8786V7.66483C3.12202 7.16478 3.1248 4.95456 3.12202 4.58119C3.13573 4.12451 3.2175 3.67209 3.36484 3.23772C3.92017 1.32383 5.73435 0 7.80181 0C9.86926 0 11.6834 1.32383 12.2388 3.23772C12.3692 3.67597 12.4506 4.12634 12.4816 4.58119C12.5128 5.08457 12.4816 7.16478 12.4816 7.66483V11.8786H12.4809ZM10.7464 12.6652C10.7464 12.9853 10.7395 13.092 10.7187 13.412C10.7067 13.7026 10.6613 13.991 10.5834 14.2721C10.4173 14.8621 10.0556 15.3841 9.55316 15.7589C8.52367 16.5279 7.0826 16.5279 6.05312 15.7589C5.54873 15.3852 5.18564 14.8629 5.01941 14.2721C4.94315 13.9907 4.8978 13.7024 4.88413 13.412C4.86678 13.092 4.86331 12.9853 4.86331 12.6652C4.86331 8.23147 4.8425 4.94447 4.87025 4.59111C4.89032 4.30038 4.94028 4.01228 5.01941 3.73102C5.18564 3.14016 5.54873 2.61792 6.05312 2.2442C7.0826 1.47523 8.52367 1.47523 9.55316 2.2442C10.0556 2.61902 10.4173 3.14097 10.5834 3.73102C10.6715 4.01099 10.7274 4.29941 10.7499 4.59111C10.7742 4.97114 10.7464 8.21813 10.7464 12.6652Z" fill="#50555C"/>
</svg>
