<svg width="43" height="43" viewBox="0 0 43 43" fill="none" xmlns="http://www.w3.org/2000/svg">
<path d="M16.4475 2.09625C14.6757 2.09625 12.9437 2.62165 11.4705 3.606C9.99733 4.59036 8.84911 5.98946 8.17108 7.62638C7.49304 9.2633 7.31564 11.0645 7.6613 12.8023C8.00696 14.54 8.86016 16.1362 10.113 17.3891C11.3658 18.6419 12.9621 19.4951 14.6998 19.8408C16.4376 20.1864 18.2388 20.009 19.8757 19.331C21.5126 18.653 22.9117 17.5048 23.8961 16.0316C24.8804 14.5584 25.4058 12.8264 25.4058 11.0546C25.4058 9.87816 25.1741 8.71325 24.7239 7.62638C24.2737 6.5395 23.6139 5.55195 22.782 4.72009C21.9501 3.88823 20.9626 3.22836 19.8757 2.77816C18.7888 2.32797 17.6239 2.09625 16.4475 2.09625ZM16.4475 17.4329C15.1734 17.4258 13.9299 17.0415 12.8739 16.3285C11.8179 15.6155 10.9968 14.6057 10.5141 13.4265C10.0314 12.2473 9.90876 10.9516 10.1617 9.70276C10.4146 8.45396 11.0317 7.30803 11.9351 6.40956C12.8386 5.5111 13.9879 4.90034 15.2381 4.65436C16.4883 4.40837 17.7833 4.53818 18.9598 5.0274C20.1363 5.51662 21.1416 6.34334 21.8488 7.40324C22.5559 8.46315 22.9333 9.70876 22.9333 10.9829C22.9239 12.6969 22.2364 14.3374 21.0211 15.5459C19.8057 16.7545 18.1615 17.4329 16.4475 17.4329Z" fill="white"/>
<path d="M16.4475 21.3746C8.63583 21.3746 2.50833 25.6567 2.50833 31.1392C2.50833 36.6217 8.63583 40.9037 16.4475 40.9037C24.2592 40.9037 30.4583 36.6217 30.4583 31.1392C30.4583 25.6567 24.2592 21.3746 16.4475 21.3746ZM16.4475 38.2162C10.3379 38.2162 5.19583 34.9733 5.19583 31.1392C5.19583 27.305 10.3379 24.0621 16.4475 24.0621C22.5571 24.0621 27.6812 27.305 27.6812 31.1392C27.6812 34.9733 22.5392 38.2162 16.4475 38.2162Z" fill="white"/>
<path d="M29.7954 20.3892C31.7341 20.3464 33.5765 19.5352 34.9171 18.1341C36.2578 16.733 36.9869 14.8567 36.9442 12.9179C36.9014 10.9792 36.0902 9.13685 34.6891 7.7962C33.288 6.45555 31.4116 5.72641 29.4729 5.76918C29.1165 5.76918 28.7747 5.91075 28.5227 6.16275C28.2707 6.41475 28.1292 6.75654 28.1292 7.11293C28.1292 7.46931 28.2707 7.8111 28.5227 8.0631C28.7747 8.3151 29.1165 8.45668 29.4729 8.45668C30.08 8.44256 30.6838 8.54814 31.2501 8.7674C31.8163 8.98666 32.3338 9.3153 32.773 9.73456C33.2122 10.1538 33.5646 10.6555 33.8099 11.2109C34.0553 11.7663 34.1888 12.3646 34.2029 12.9717C34.217 13.5787 34.1114 14.1826 33.8922 14.7488C33.6729 15.315 33.3443 15.8325 32.925 16.2718C32.5058 16.711 32.0041 17.0633 31.4487 17.3087C30.8933 17.554 30.295 17.6876 29.6879 17.7017C29.4374 17.7201 29.1859 17.7201 28.9354 17.7017C28.5828 17.6601 28.2277 17.7561 27.944 17.9697C27.6604 18.1832 27.47 18.498 27.4125 18.8483C27.3872 19.0237 27.3969 19.2023 27.4409 19.374C27.4849 19.5456 27.5624 19.7068 27.669 19.8483C27.7756 19.9899 27.9091 20.109 28.0619 20.1987C28.2146 20.2884 28.3836 20.3471 28.5592 20.3713C28.899 20.3992 29.2406 20.3992 29.5804 20.3713L29.7954 20.3892Z" fill="white"/>
<path d="M32.25 37.1412C37.0875 36.3708 40.4558 33.3787 40.4558 29.8312C40.4558 25.6387 35.8333 22.36 29.9387 22.36C29.5824 22.36 29.2406 22.5016 28.9886 22.7536C28.7366 23.0056 28.595 23.3474 28.595 23.7037C28.595 24.0601 28.7366 24.4019 28.9886 24.6539C29.2406 24.9059 29.5824 25.0475 29.9387 25.0475C34.185 25.0475 37.7683 27.2333 37.7683 29.8312C37.7683 31.9812 35.2779 33.9342 31.82 34.4717C31.4706 34.5332 31.159 34.7286 30.9515 35.0164C30.7441 35.3042 30.6571 35.6616 30.7092 36.0125C30.7602 36.3274 30.9216 36.6139 31.1645 36.8207C31.4074 37.0275 31.716 37.1411 32.035 37.1412H32.25Z" fill="white"/>
</svg>
