<svg width="16" height="16" viewBox="0 0 16 16" fill="none" xmlns="http://www.w3.org/2000/svg">
<path d="M13.2687 5.72392C13.2371 5.65156 13.1928 5.58542 13.138 5.52859L9.13802 1.52859C9.08119 1.47377 9.01504 1.42953 8.94269 1.39792C8.92269 1.38859 8.90135 1.38325 8.88002 1.37592C8.82424 1.35694 8.76617 1.3455 8.70735 1.34192C8.69335 1.34059 8.68069 1.33325 8.66669 1.33325H4.00002C3.26469 1.33325 2.66669 1.93125 2.66669 2.66659V13.3333C2.66669 14.0686 3.26469 14.6666 4.00002 14.6666H12C12.7354 14.6666 13.3334 14.0686 13.3334 13.3333V5.99992C13.3334 5.98592 13.326 5.97325 13.3247 5.95859C13.3214 5.89973 13.31 5.84162 13.2907 5.78592C13.284 5.76459 13.278 5.74392 13.2687 5.72392ZM11.0574 5.33325H9.33335V3.60925L11.0574 5.33325ZM4.00002 13.3333V2.66659H8.00002V5.99992C8.00002 6.17673 8.07026 6.3463 8.19528 6.47132C8.32031 6.59635 8.48988 6.66659 8.66669 6.66659H12L12.0014 13.3333H4.00002Z" fill="#4F5E7B"/>
<path d="M5.33331 7.99992H10.6666V9.33325H5.33331V7.99992ZM5.33331 10.6666H10.6666V11.9999H5.33331V10.6666ZM5.33331 5.33325H6.66665V6.66659H5.33331V5.33325Z" fill="#4F5E7B"/>
</svg>
