<svg width="150" height="141" viewBox="0 0 150 141" fill="none" xmlns="http://www.w3.org/2000/svg">
<path d="M133.755 100.084C133.643 98.1349 133.361 96.2104 133.061 94.2858C133.061 94.2858 129.431 84.5882 128 81.9326C128 81.8889 128.038 81.8389 128.063 81.7952C127.919 81.7305 127.802 81.6179 127.731 81.4765C126.71 79.8737 125.538 78.3715 124.232 76.9901C123.795 76.5277 123.864 76.3652 124.376 76.0403C126.586 74.7013 128.499 72.926 130 70.8228C147.764 52.946 131.843 25.4152 131.843 25.4152C131.343 24.8529 130.868 24.2655 130.337 23.7282C126.76 20.1548 122.657 17.15 118.171 14.8178C117.05 14.1631 115.871 13.615 114.647 13.1807C114.647 13.1807 103.9 7.01976 78.5811 7.01976C73.107 7.00864 67.6395 7.39917 62.2226 8.18823C56.9752 8.91965 51.8391 10.3007 46.9326 12.2997C42.1262 14.1733 38.1616 17.725 35.7728 22.2973C35.7471 22.369 35.7073 22.4348 35.6557 22.4908C35.6041 22.5468 35.5418 22.5919 35.4725 22.6234C35.4031 22.6548 35.3281 22.6721 35.252 22.674C35.1759 22.6759 35.1001 22.6626 35.0293 22.6347C34.4942 22.5159 33.9435 22.4842 33.3984 22.541C30.4586 22.9477 27.6136 23.87 24.9942 25.2653C20.6203 27.5585 17.3149 31.1388 13.9657 34.638C13.3114 35.3476 12.7119 36.1058 12.1724 36.9062C8.12336 42.6923 6.20508 49.2156 5.33654 56.1077C5.33654 56.1077 4.96789 59.8568 4.95539 60.0005C4.47103 64.6463 4.94528 69.342 6.3488 73.7971C6.92365 75.8529 7.51726 77.9024 8.26707 79.9081C10.1043 85.1442 13.65 89.6099 18.3334 92.5863C20.5766 94.0172 22.9135 95.2731 25.2442 96.554C26.0502 96.9977 26.0752 97.0539 25.869 97.9787C25.4566 99.8532 24.8568 101.64 24.4943 103.509C23.906 106.209 23.6957 108.979 23.8695 111.738C23.8695 111.944 23.8695 112.156 23.8695 112.363C24.1243 115.513 24.8706 118.604 26.0814 121.523C27.8596 125.7 30.7897 129.284 34.5294 131.858C39.2587 135.303 44.878 137.318 50.7191 137.663C55.2493 137.975 59.517 136.882 63.6222 135.076C66.8032 133.568 69.8857 131.861 72.8512 129.965C73.6823 129.458 73.6885 129.44 74.4008 130.133C75.5697 131.278 76.8229 132.332 78.1499 133.289C83.2315 136.897 89.1173 139.209 95.2957 140.025C99.3712 140.619 103.532 140.092 107.33 138.5C110.198 137.244 112.96 135.76 115.591 134.064C118.094 132.554 120.386 130.72 122.408 128.609C125.318 125.664 127.762 122.292 129.656 118.611C131.494 115.585 132.693 112.214 133.18 108.707C133.719 105.867 133.912 102.971 133.755 100.084Z" fill="#FFAF19"/>
<path d="M89.247 69.3482L87.9973 52.9709C88.3847 52.3461 88.1848 51.54 88.1036 50.8277C87.872 48.582 87.4157 46.3652 86.7414 44.2106C86.3748 43.0474 85.9365 41.908 85.4292 40.7989C85.237 40.5168 85.1487 40.1767 85.1793 39.8367C84.7669 39.7617 84.7231 39.368 84.5544 39.0869C83.0975 36.3431 81.0067 33.9867 78.4559 32.2135C76.3157 30.7651 73.906 29.7621 71.3702 29.2643C68.2228 28.5371 64.9722 28.368 61.7663 28.7644C59.085 29.089 56.4573 29.7612 53.9494 30.7639C50.9377 32.0136 48.0509 33.4945 45.714 35.8814C45.2113 36.5107 44.5918 37.0369 43.8894 37.431C43.4071 38.3228 42.7918 39.1361 42.0649 39.8429C40.6551 41.5859 39.5097 43.5271 38.6657 45.604C38.0846 46.9412 37.5285 48.2908 37.0598 49.6718C36.9661 49.9342 36.9474 50.1091 37.0598 50.1716L35.404 84.1133C35.279 83.9321 35.2728 83.6572 34.9166 83.5634C35.504 86.2128 36.0476 88.8246 37.3723 91.1928C37.4834 91.3375 37.5472 91.5129 37.555 91.6951C37.5628 91.8774 37.5143 92.0576 37.416 92.2113C37.6847 92.3238 37.7659 92.5862 37.8784 92.8362C38.2596 93.6297 38.6657 94.4108 39.0344 95.2106C39.7511 96.666 40.8262 97.9153 42.1586 98.8409C44.6288 100.665 47.0032 102.603 49.2818 104.652C50.8712 106.103 52.8083 107.119 54.9055 107.601C56.8686 108.087 58.8564 108.466 60.8603 108.738C63.1035 109.013 65.3342 109.363 67.6086 109.007C69.8923 108.632 71.9727 107.469 73.4884 105.72C74.8506 104.265 76.0753 102.671 77.35 101.134C79.1671 98.8818 80.6585 96.385 81.7801 93.7172C82.3112 92.505 82.6112 91.2178 83.211 90.0243L89.247 69.3482Z" fill="#FFE159"/>
<path d="M130.006 70.823C128.644 70.7105 127.306 71.0542 125.951 70.9667C123.317 70.899 120.726 70.2885 118.34 69.1734C115.932 67.9083 113.917 66.0063 112.516 63.6747C110.594 60.65 109.442 57.2002 109.161 53.6272C108.888 51.3185 109.004 48.9804 109.505 46.7101C109.572 46.4873 109.583 46.2512 109.536 46.0231C109.489 45.7951 109.386 45.5824 109.236 45.4042C107.699 43.4734 106.287 41.4239 104.431 39.7806C101.738 37.3937 98.7198 35.5879 95.0582 35.163C94.1255 35.0329 93.1778 35.0561 92.2526 35.2317C91.6066 35.3224 90.9521 35.335 90.3031 35.2692C90.1137 35.2594 89.9302 35.2008 89.7701 35.0991C89.6101 34.9974 89.4791 34.8561 89.3898 34.6888C89.3006 34.5216 89.256 34.3341 89.2606 34.1446C89.2651 33.955 89.3186 33.7699 89.4158 33.6071C89.682 33.1171 90.098 32.7252 90.603 32.4886C93.5273 31.2469 96.5839 30.3433 99.7133 29.7955C103.025 29.1707 106.218 29.7955 109.398 30.6453C110.936 31.039 112.466 31.4389 113.991 31.895C114.46 32.0263 118.696 28.5833 120.033 27.7336C122.153 26.3799 124.605 25.6382 127.119 25.5903C128.419 25.5903 129.725 25.5903 131.031 25.5903C131.306 25.5903 133.605 25.834 134.492 26.009C140.147 27.1337 144.271 30.3454 147.195 35.2067C149.241 38.6237 150.205 42.579 149.963 46.5539C149.74 49.6014 148.97 52.5838 147.689 55.358C146.501 58.3119 144.87 61.0678 142.853 63.531C139.772 67.1301 136.023 69.617 131.306 70.4918C130.861 70.55 130.424 70.6611 130.006 70.823Z" fill="#FFE159"/>
<path d="M106.118 20.9789C105.924 20.9789 105.824 21.1851 105.674 21.2789C105.563 21.3691 105.43 21.4274 105.288 21.4474C105.146 21.4675 105.002 21.4485 104.87 21.3926C104.739 21.3367 104.625 21.246 104.541 21.1302C104.457 21.0143 104.406 20.8778 104.393 20.7353C104.073 19.3685 103.901 17.9712 103.881 16.5675C103.881 15.8365 103.769 15.749 103.05 15.874C101.313 16.1801 99.5759 16.4988 97.8388 16.8175C97.4283 16.9054 97.0087 16.9432 96.5891 16.9299C96.405 16.9471 96.2199 16.9108 96.0559 16.8255C95.8919 16.7401 95.756 16.6094 95.6643 16.4488C95.6045 16.2743 95.5944 16.0866 95.6353 15.9067C95.6761 15.7268 95.7662 15.5619 95.8955 15.4303C96.2142 15.0492 96.5204 14.6618 96.8515 14.2931C97.6451 13.3871 98.3512 12.4186 99.2197 11.5875C99.5571 11.2563 99.4759 11.0564 99.0947 10.8064C97.8825 9.99415 96.6953 9.15685 95.5081 8.30706C95.0765 8.06254 94.7084 7.7201 94.4334 7.30731C94.2709 7.00738 94.1085 6.68246 94.3834 6.36379C94.484 6.20945 94.6299 6.08998 94.801 6.02174C94.9721 5.95351 95.1602 5.93985 95.3394 5.98263C96.5516 6.27631 97.77 6.55124 98.976 6.85742C100.851 7.3323 100.851 7.3448 101.213 5.47651C101.424 4.06232 101.72 2.66219 102.1 1.28379C102.142 1.02698 102.243 0.783371 102.395 0.571997C102.547 0.360622 102.745 0.187215 102.975 0.0653361C103.6 -0.147112 103.937 0.184057 104.15 0.690183C104.506 1.50248 104.825 2.33353 105.149 3.18957C105.674 4.52674 106.205 5.85766 106.705 7.20108C106.868 7.65722 107.13 7.69471 107.549 7.61973C109.277 7.36783 111.02 7.22799 112.766 7.20108C113.441 7.20108 114.21 7.09486 114.522 7.88841C114.835 8.68197 114.26 9.10062 113.785 9.55676C113.041 10.2891 112.25 10.9717 111.417 11.6C110.986 11.9062 110.904 12.1124 111.417 12.4061C112.167 12.8247 112.891 13.2996 113.622 13.7557C113.729 13.8245 113.847 13.8869 113.954 13.9619C114.391 14.2868 114.941 14.5868 114.716 15.2554C114.491 15.9239 113.904 15.8802 113.347 15.8802C111.86 15.869 110.376 15.7542 108.905 15.5365C108.777 15.4952 108.642 15.4819 108.509 15.4977C108.375 15.5135 108.247 15.5579 108.132 15.6279C108.018 15.698 107.92 15.792 107.845 15.9035C107.77 16.0149 107.72 16.1413 107.699 16.2739C107.186 17.7797 106.649 19.2794 106.124 20.779L106.087 21.0039L106.118 20.9789Z" fill="#F7760C"/>
<path d="M121.927 94.2419L123.308 92.4549C123.545 92.1487 123.482 91.9613 123.089 91.83C122.027 91.4989 120.971 91.149 119.915 90.7928C119.639 90.7153 119.378 90.5951 119.14 90.4366C119.002 90.3471 118.892 90.2216 118.82 90.0737C118.749 89.9258 118.719 89.7612 118.735 89.5977C118.75 89.4342 118.81 89.278 118.908 89.1462C119.006 89.0143 119.138 88.9117 119.29 88.8495C120.183 88.4924 121.114 88.2367 122.064 88.0872C122.539 87.9525 123.027 87.8666 123.52 87.831C123.976 87.831 124.032 87.6123 123.957 87.2062C123.762 86.2776 123.473 85.3711 123.095 84.5006C122.733 83.6633 122.72 83.0884 123.151 82.8697C123.776 82.5448 124.214 82.9885 124.657 83.3696C125.55 84.1248 126.399 84.9301 127.2 85.7815C127.513 86.1189 127.7 86.2127 127.913 85.6441C128.316 84.4918 128.82 83.3773 129.419 82.3136C129.561 82.0644 129.722 81.8263 129.9 81.6013C130.016 81.4574 130.179 81.3591 130.361 81.3236C130.543 81.2882 130.731 81.3179 130.893 81.4076C131.054 81.4696 131.185 81.5889 131.263 81.7425C131.34 81.8961 131.357 82.0729 131.312 82.2387C131.062 84.1944 131.137 86.1814 130.824 88.1372C130.798 88.2225 130.789 88.3123 130.798 88.4012C130.807 88.4901 130.834 88.5763 130.877 88.6545C130.92 88.7327 130.979 88.8014 131.049 88.8564C131.12 88.9114 131.2 88.9516 131.287 88.9745C132.565 89.5546 133.806 90.2119 135.005 90.9428C135.492 91.3052 136.048 91.6676 135.898 92.3674C135.748 93.0672 135.098 93.2859 134.474 93.3984C133.295 93.6025 132.114 93.7879 130.931 93.9545C130.437 94.0233 130.387 94.192 130.624 94.5794C131.044 95.2999 131.388 96.0621 131.649 96.8538C131.799 97.3099 131.887 97.7973 131.418 98.1035C131.216 98.2288 130.977 98.2804 130.741 98.2497C130.506 98.219 130.288 98.1077 130.125 97.9348C129.156 97.1854 128.275 96.328 127.5 95.3792C127.434 95.2725 127.346 95.1803 127.243 95.1081C127.14 95.0358 127.024 94.9851 126.901 94.9589C126.778 94.9326 126.651 94.9314 126.527 94.9553C126.404 94.9792 126.286 95.0278 126.182 95.098C125.038 95.6041 123.864 96.029 122.739 96.5789C122.283 96.8038 121.795 96.9725 121.383 96.5164C120.971 96.0603 121.202 95.5916 121.433 95.1417C121.57 94.873 121.752 94.5606 121.927 94.2419Z" fill="#F7760C"/>
<path d="M114.616 13.1869L114.422 13.0619C114.464 13.0557 114.507 13.065 114.543 13.088C114.578 13.111 114.604 13.1462 114.616 13.1869Z" fill="#FFAF19"/>
<path d="M43.8894 37.4562C43.6304 38.3205 43.2292 39.1356 42.7022 39.8681C41.2924 41.6111 40.147 43.5523 39.303 45.6292C38.7219 46.9663 37.7909 48.3285 37.3223 49.7157C37.2286 50.9279 38.6969 50.1031 38.8782 50.0156C41.59 48.7222 39.8529 58.1761 39.7967 59.1633C39.7217 60.413 39.453 64.3808 39.453 64.3808C39.4093 67.2908 39.1525 70.1937 38.6845 73.0662C38.4658 74.7408 38.4784 76.4375 38.7219 78.1087C38.9521 79.7877 38.9289 81.4916 38.6532 83.1637C38.6174 83.3939 38.5523 83.6186 38.4595 83.8323C38.2033 84.3759 37.9659 85.0008 37.2598 85.0382C36.895 85.0739 36.5273 85.0089 36.1968 84.8502C35.8663 84.6916 35.5857 84.4454 35.3853 84.1385C35.2603 83.9573 35.254 83.6823 34.8979 83.5886C35.4852 86.2379 36.0289 88.8498 37.3535 91.218C37.4646 91.3627 37.5284 91.5381 37.5363 91.7203C37.5441 91.9026 37.4956 92.0828 37.3973 92.2365C36.5975 93.2862 35.604 93.155 34.5292 92.7426C33.5037 92.3545 32.543 91.813 31.6799 91.1367C31.0343 90.6168 30.5482 89.9254 30.2774 89.1418C30.0067 88.3583 29.9622 87.5143 30.149 86.7066C30.3303 85.6381 30.2615 84.957 29.3367 84.2072C27.4622 82.6888 26.7061 80.5518 26.425 78.1837C26.2009 76.2165 26.3172 74.2254 26.7686 72.2976C26.8294 72.1058 26.8334 71.9006 26.7801 71.7066C26.7269 71.5126 26.6188 71.3381 26.4687 71.2041C24.238 68.9484 23.6007 66.2054 23.8443 63.0811C24.0592 60.7367 24.9249 58.4989 26.3437 56.6202C26.4407 56.5145 26.5124 56.3881 26.5535 56.2507C26.5946 56.1133 26.6041 55.9683 26.5812 55.8267C26.3235 54.4593 26.5005 53.0456 27.0873 51.7839C27.9555 49.3938 29.4696 47.2914 31.4612 45.7104C32.536 44.9044 33.7669 44.3045 34.8354 43.461C35.0096 43.3591 35.1462 43.2037 35.225 43.018C35.3038 42.8322 35.3206 42.626 35.2728 42.43C34.9916 40.5992 36.4412 38.1685 38.3033 37.0563C39.9091 36.094 41.5275 36.2315 43.1833 36.8376C43.4701 36.9764 43.7141 37.1901 43.8894 37.4562Z" fill="#FFFAB8"/>
<path d="M87.0665 56.5516C87.0691 55.3002 87.3848 54.0693 87.985 52.9712C88.3724 52.3463 88.1724 51.5403 88.0912 50.828C87.8597 48.5822 87.4033 46.3654 86.729 44.2108C86.3624 43.0477 85.9242 41.9083 85.4169 40.7992C85.2247 40.517 85.1363 40.1769 85.1669 39.8369C86.28 40.0781 87.3633 40.4406 88.3974 40.9179C92.2777 42.6425 95.152 45.3668 96.6141 49.4408C97.2905 51.3852 97.6901 53.415 97.8013 55.4706C98.0217 58.4618 97.824 61.4692 97.214 64.4059C97.0128 65.3219 96.7154 66.2142 96.3267 67.0677C96.1615 67.4502 95.9758 67.8236 95.7706 68.1862C94.8757 69.5451 94.5462 71.1995 94.8521 72.7976C95.2582 74.8408 94.9458 76.8966 94.6896 78.9398C94.2038 82.6011 92.7475 86.0658 90.4719 88.9749C89.7304 89.9208 88.8166 90.718 87.7788 91.3243C86.779 91.9491 85.6793 91.8554 84.5858 91.7554C84.4035 91.7297 84.2305 91.6592 84.0821 91.5501C83.9338 91.4411 83.8149 91.2969 83.736 91.1306C83.5298 90.7744 83.3424 90.3995 83.1487 90.0371C82.6863 87.9001 83.0674 85.7944 83.3486 83.6824C83.7485 80.6519 84.5296 77.6776 84.7045 74.6096C84.8233 72.5414 85.0045 70.4731 85.1607 68.4049C85.2107 67.7801 85.3294 66.6178 85.3294 66.6178C85.3294 66.6178 86.8915 59.3384 87.0665 56.5516Z" fill="#FFFAB8"/>
<path d="M80.6054 14.9741C81.0741 15.1991 81.4552 15.7552 81.9614 15.6739C82.4675 15.5927 82.4987 14.8929 82.8424 14.5492C83.4672 13.9244 83.7859 13.1121 84.4795 12.5685C84.8419 12.2873 85.1918 12.0248 85.673 12.2185C86.1541 12.4122 86.1416 12.8434 86.1291 13.2808C86.1291 14.1618 86.1291 15.0491 86.0291 15.9301C85.9916 16.355 86.0854 16.555 86.5227 16.6112C87.4725 16.7549 88.3973 16.9236 89.3658 17.1173C89.8844 17.2236 90.553 17.2423 90.6155 17.9296C90.678 18.617 90.1344 18.9044 89.5782 19.1169C88.8034 19.4168 88.0224 19.7042 87.2413 19.9916C86.579 20.2291 86.479 20.3853 86.7414 21.0164C87.0726 21.8349 87.2538 22.7097 87.6475 23.5158C87.7515 23.7016 87.7841 23.9191 87.7393 24.1273C87.6944 24.3355 87.5751 24.5202 87.4038 24.6467C87.0539 24.9404 86.7789 24.6467 86.4915 24.478C85.6213 23.955 84.8013 23.3526 84.0421 22.6785C83.7484 22.4348 83.586 22.3598 83.2923 22.6785C82.7559 23.2504 82.332 23.9181 82.0426 24.6467C81.8137 25.2635 81.4043 25.7969 80.8679 26.1776C80.0931 26.8025 79.362 26.4526 79.2808 25.4715C79.1933 24.3843 79.1433 23.2908 79.1121 22.1973C79.1121 21.6787 78.9559 21.3975 78.3685 21.3476C77.6951 21.2731 77.0286 21.1456 76.3752 20.9664C75.9753 20.8664 75.5504 20.6977 75.4755 20.2103C75.4005 19.723 75.6942 19.4855 76.0066 19.2293C76.6481 18.7406 77.363 18.3568 78.1248 18.0921C78.8621 17.8109 78.8684 17.8297 78.5747 17.0611C78.3747 16.53 78.1748 15.9926 77.9499 15.4615C77.8626 15.2845 77.8297 15.0856 77.8552 14.8899C77.8808 14.6942 77.9637 14.5104 78.0936 14.3618C78.4122 13.9869 78.7996 14.0993 79.1745 14.2118C79.6741 14.4211 80.1531 14.6763 80.6054 14.9741Z" fill="#F7760C"/>
<path d="M19.158 54.6955C19.3719 54.8351 19.5531 55.0191 19.6896 55.235C19.826 55.4509 19.9144 55.6936 19.9488 55.9467C19.9832 56.1998 19.9627 56.4573 19.8888 56.7017C19.8149 56.9462 19.6893 57.1719 19.5204 57.3636C18.9643 58.1509 17.3835 58.4133 16.6586 57.7447C16.2426 57.403 15.9722 56.9156 15.9026 56.3817C15.8329 55.8478 15.9692 55.3074 16.2837 54.8704C16.4606 54.6696 16.6754 54.5057 16.9158 54.3881C17.1561 54.2705 17.4174 54.2017 17.6845 54.1854C17.9516 54.1691 18.2193 54.2058 18.4722 54.2934C18.7251 54.3809 18.9581 54.5176 19.158 54.6955Z" fill="#FFE159"/>
<path d="M67.4025 9.71908C68.0037 9.49224 68.6634 9.47245 69.2771 9.66285C69.5991 9.72768 69.8888 9.9018 70.0972 10.1557C70.3055 10.4096 70.4198 10.7278 70.4205 11.0563C70.3268 12.3059 69.9456 12.8746 69.0833 13.0995C68.6733 13.1914 68.2503 13.2105 67.8337 13.1557C67.4538 13.1318 67.0921 12.9846 66.8034 12.7365C66.5148 12.4885 66.3149 12.153 66.2341 11.7811C66.1028 11.1062 66.4403 10.3627 67.4025 9.71908Z" fill="#FFE159"/>
<path d="M56.5615 71.3789C56.9154 70.2273 57.1622 69.0455 57.2988 67.8486C57.5745 67.5583 57.8978 67.3173 58.2548 67.1362C58.4177 69.8508 58.1584 72.5742 57.4863 75.2093C57.2551 76.034 56.9989 76.8526 56.7239 77.6649C56.3133 79.1515 56.279 80.7169 56.624 82.22C56.7739 83.1386 56.7239 83.9009 55.9116 84.507C55.5144 84.8064 55.1862 85.1879 54.9494 85.6254C54.7057 86.0691 54.7807 86.3503 55.318 86.4752C56.0657 86.7068 56.8484 86.8041 57.63 86.7627C57.8069 86.7161 57.9913 86.7055 58.1724 86.7315C58.3535 86.7574 58.5275 86.8194 58.6842 86.9138C58.8409 87.0081 58.9771 87.133 59.0847 87.2809C59.1923 87.4288 59.2692 87.5968 59.3108 87.7749C59.3604 87.9231 59.4298 88.0639 59.517 88.1936C59.607 88.3598 59.7306 88.5054 59.88 88.6213C60.0293 88.7371 60.2011 88.8206 60.3845 88.8665C60.5678 88.9123 60.7587 88.9195 60.945 88.8875C61.1313 88.8556 61.3089 88.7852 61.4665 88.6809C62.0137 88.3784 62.5025 87.9806 62.9099 87.5062C63.1091 87.2477 63.3855 87.0593 63.6989 86.9683C64.0123 86.8773 64.3466 86.8885 64.6532 87.0001C65.5244 87.2078 66.4414 87.0923 67.2339 86.6752C67.347 86.6401 67.4512 86.5811 67.5394 86.5022C67.6277 86.4233 67.6979 86.3263 67.7453 86.2178C67.7927 86.1093 67.8163 85.9919 67.8143 85.8735C67.8123 85.7551 67.7848 85.6385 67.7337 85.5317C67.6934 85.434 67.6681 85.3308 67.6588 85.2255C67.6588 84.7944 67.5026 84.2445 67.9774 84.0258C68.2068 83.9216 68.4614 83.8856 68.7107 83.9222C68.96 83.9587 69.1935 84.0663 69.3833 84.232C69.8333 84.6015 70.24 85.0207 70.5955 85.4817C71.8969 87.1081 73.0158 88.8724 73.9322 90.7429C74.4782 92.1746 74.8414 93.6693 75.0132 95.1918C75.1461 96.0662 75.1984 96.951 75.1694 97.8349C75.1808 98.0173 75.1661 98.2004 75.1257 98.3786C75.0985 98.5343 75.0239 98.6779 74.912 98.7898C74.8002 98.9016 74.6566 98.9762 74.5008 99.0034C74.1134 99.0034 74.1072 98.6535 74.0135 98.3786C73.9281 97.9974 73.9048 97.6049 73.9447 97.2163C73.898 95.7095 73.6608 94.2147 73.2386 92.7674C72.6952 91.0749 71.8482 89.4954 70.7393 88.1061C70.3394 87.5312 69.927 86.9626 69.4896 86.394C69.2646 86.0816 69.0709 86.0503 68.9085 86.469C68.4023 87.7874 67.2901 88.1498 66.0342 88.2186C65.4096 88.3129 64.7726 88.2832 64.1596 88.1311C63.8472 88.0249 63.666 88.1998 63.4848 88.3935C63.0651 88.8583 62.5861 89.2659 62.0601 89.6057C61.7531 89.8004 61.4074 89.9257 61.0469 89.973C60.6865 90.0203 60.3201 89.9883 59.9733 89.8795C59.6265 89.7706 59.3076 89.5874 59.0388 89.3426C58.7701 89.0979 58.558 88.7974 58.4173 88.4622C58.3538 88.2255 58.2034 88.0213 57.9961 87.8905C57.7888 87.7596 57.5399 87.7117 57.2988 87.7562C56.5712 87.8203 55.838 87.7482 55.1368 87.5437C54.5682 87.3625 54.0496 87.1438 53.8871 86.5002C53.7997 86.194 53.6435 86.1878 53.4498 86.3878C52.1251 87.7187 50.7192 88.9746 49.507 90.4055C49.1008 90.8804 48.6447 91.3053 48.2573 91.8177C47.5643 92.6718 47.1616 93.7246 47.1076 94.8232C47.1076 95.1669 47.0201 95.5168 46.6327 95.5043C46.2453 95.4918 46.1953 95.1419 46.1765 94.8044C46.0857 93.5672 46.433 92.3373 47.1575 91.3303C48.9441 88.601 51.2293 86.2331 53.8934 84.3507C54.3164 84.0934 54.7523 83.8577 55.1993 83.6447C55.3805 83.5447 55.568 83.4572 55.5305 83.1823C55.0681 80.1955 55.7179 77.3462 56.6052 74.5157C56.8138 73.7125 56.9806 72.8992 57.1051 72.0788C57.1238 71.9288 56.6427 71.4664 56.5615 71.3789Z" fill="#FFAF19"/>
<path d="M69.8018 97.7099C69.835 97.8508 69.8183 97.9988 69.7544 98.1287C69.6906 98.2586 69.5837 98.3624 69.4519 98.4222C69.1957 98.5534 69.0082 98.4222 68.827 98.2472C68.4006 97.7574 68.0101 97.2375 67.6586 96.6914C67.433 96.4068 67.1888 96.1375 66.9275 95.8853C66.756 95.6893 66.5246 95.5555 66.2692 95.5046C66.0138 95.4538 65.7488 95.4888 65.5153 95.6041C65.0763 95.7669 64.6079 95.835 64.1407 95.8041C61.6413 95.8041 59.1419 96.0665 56.6925 95.3542C55.8596 95.1379 55.0465 94.8515 54.2618 94.4982C53.9995 94.361 53.6997 94.3131 53.4077 94.3616C53.1157 94.41 52.8474 94.5523 52.6435 94.7668C52.3748 94.9793 52.1124 95.1855 51.8374 95.3917C51.7886 95.4365 51.7312 95.4708 51.6686 95.4926C51.6061 95.5145 51.5397 95.5233 51.4737 95.5186C51.4076 95.5139 51.3431 95.4958 51.2843 95.4654C51.2254 95.435 51.1734 95.3929 51.1314 95.3417C51.0897 95.2905 51.0585 95.2316 51.0397 95.1683C51.0208 95.1051 51.0147 95.0387 51.0217 94.973C51.0287 94.9074 51.0486 94.8438 51.0803 94.7859C51.112 94.7279 51.1548 94.6769 51.2064 94.6356C52.2382 93.4095 53.687 92.6082 55.2741 92.3862C56.9316 92.2527 58.5997 92.3686 60.2229 92.7298C62.0412 93.0485 63.8407 93.4609 65.6528 93.8108C67.746 94.217 68.8333 95.7354 69.7331 97.4662C69.7697 97.5429 69.793 97.6253 69.8018 97.7099Z" fill="#F7760C"/>
<path d="M52.7998 51.3838C53.7961 51.3888 54.7883 51.5126 55.7553 51.7524C56.4592 51.8665 57.0994 52.2276 57.5611 52.7709C57.7765 53.0297 57.9066 53.3488 57.9335 53.6844C57.9603 54.0201 57.8826 54.3558 57.7111 54.6455C57.568 54.9809 57.328 55.266 57.0218 55.4642C56.7157 55.6623 56.3573 55.7645 55.9927 55.7577C55.0296 55.7683 54.0669 55.7098 53.1122 55.5828C50.819 55.2516 48.5695 55.2079 46.3951 56.2076C45.9286 56.4459 45.413 56.5722 44.8892 56.5763C44.5881 56.5949 44.2888 56.5187 44.0333 56.3584C43.7778 56.1981 43.5789 55.9618 43.4645 55.6827C43.2646 55.1391 43.5708 54.758 43.8957 54.3643C44.8292 53.2599 46.1125 52.508 47.5323 52.2336C49.2494 51.7477 51.017 51.4625 52.7998 51.3838Z" fill="#FFFAB8"/>
<path d="M75.9441 53.7647C78.4435 53.4522 80.3743 54.7144 82.1926 56.2266C82.5752 56.5563 82.8532 56.9907 82.9924 57.4763C83.0932 57.7317 83.1155 58.0115 83.0565 58.2797C82.9975 58.548 82.8599 58.7925 82.6612 58.9821C82.4766 59.187 82.2294 59.3251 81.9582 59.3748C81.6869 59.4245 81.4068 59.3831 81.1616 59.2571C79.2778 58.4391 77.3074 57.8375 75.288 57.4638C74.2195 57.2763 73.1198 57.32 72.0513 57.0764C71.7991 57.0217 71.5507 56.9507 71.3077 56.8639C71.0552 56.7904 70.8323 56.6391 70.6707 56.4316C70.5092 56.224 70.4172 55.9708 70.408 55.7079C70.408 55.0831 70.7954 54.7832 71.289 54.5582C72.7492 53.9063 74.3503 53.6333 75.9441 53.7647Z" fill="#FFFAB8"/>
<path d="M65.6093 46.5476C67.2589 46.5476 68.5149 46.4914 69.7583 46.5476C72.064 46.6851 74.3822 46.7413 76.6316 47.4349C78.1742 47.9974 79.6546 48.7177 81.0493 49.5844C81.1807 49.6706 81.3005 49.7735 81.4054 49.8905C81.6116 50.0967 81.8366 50.3029 81.6054 50.6279C81.5182 50.7605 81.3838 50.855 81.2294 50.8922C81.0751 50.9293 80.9123 50.9063 80.7743 50.8278C80.0745 50.4842 79.3559 50.1655 78.6811 49.7781C76.7972 48.7784 74.7231 48.1886 72.5951 48.0473C69.1979 47.7558 65.7854 47.6828 62.3789 47.8286C59.4495 47.8591 56.5261 48.0993 53.631 48.5471C52.1585 48.7398 50.6715 48.7984 49.1883 48.7221C48.8884 48.7221 48.4635 48.8033 48.4385 48.3784C48.4313 48.28 48.4451 48.1811 48.4791 48.0884C48.5131 47.9958 48.5665 47.9114 48.6357 47.8411C48.7049 47.7707 48.7883 47.7159 48.8804 47.6803C48.9724 47.6447 49.0711 47.6292 49.1696 47.6349C49.7945 47.6349 50.4568 47.4536 51.1066 47.4724C52.3238 47.4216 53.5365 47.2922 54.737 47.085C56.0804 46.9538 57.4176 46.7663 58.761 46.6976C61.1792 46.5976 63.5973 46.4476 65.6093 46.5476Z" fill="#FFAF19"/>
<path d="M65.1906 42.1675C67.1276 42.1675 68.6147 42.1675 70.0956 42.1675C72.1308 42.1398 74.1497 42.5334 76.0254 43.3235C76.4235 43.5131 76.8431 43.6537 77.2751 43.7421C77.4088 43.7532 77.5331 43.8151 77.6226 43.9151C77.7121 44.015 77.7599 44.1454 77.7562 44.2795C77.7562 44.5982 77.5 44.7669 77.1814 44.8169C76.5008 44.8601 75.8206 44.7266 75.2069 44.4295C73.525 43.7982 71.7346 43.5072 69.9394 43.5734C68.396 43.6234 66.8714 43.4297 65.3343 43.4172C61.9476 43.4172 58.5672 43.6609 55.1805 43.5859C54.5557 43.5859 53.9308 43.7734 53.306 43.7171C53.1251 43.7329 52.9432 43.7329 52.7624 43.7171C52.4437 43.6359 52.0125 43.5922 52.025 43.161C52.0375 42.7299 52.4062 42.6861 52.7624 42.6424C54.2576 42.4615 55.7615 42.3613 57.2675 42.3425C60.0668 42.305 62.8474 42.0113 65.1906 42.1675Z" fill="#FFAF19"/>
<path d="M33.3296 62.7751C33.0315 65.1063 32.8854 67.4544 32.8922 69.8046C32.9499 72.2691 33.1795 74.7265 33.5796 77.159C33.817 78.6587 34.2044 80.1645 33.8108 81.7141C33.6296 82.4077 33.4983 83.1201 32.6611 83.3138C32.0362 83.445 31.4114 82.9951 30.9552 82.1828C30.4245 81.2833 30.1582 80.2525 30.1867 79.2085C30.2903 76.6349 30.0145 74.06 29.3681 71.5666C29.1971 70.8864 29.1131 70.1873 29.1182 69.4859C29.139 68.5515 29.1035 67.6167 29.0119 66.6866C28.8067 65.1973 29.1949 63.687 30.0929 62.4814C30.339 62.14 30.6769 61.8754 31.0673 61.7183C31.4577 61.5613 31.8847 61.5182 32.2986 61.5941C32.5898 61.6196 32.8597 61.7568 33.052 61.977C33.2442 62.1971 33.3437 62.4831 33.3296 62.7751Z" fill="#FFE159"/>
<path d="M87.4788 85.3317C87.4321 84.8164 87.5574 84.3 87.835 83.8633C88.8625 81.7523 89.4977 79.472 89.7095 77.1337C89.8667 75.1613 89.9084 73.1813 89.8345 71.2039C89.9287 68.4241 90.3141 65.6618 90.9842 62.9622C91.1092 62.3749 91.2966 62.3374 91.7965 62.8373C93.1961 64.3181 94.2959 65.9615 93.7585 68.1422C93.4148 69.5044 93.3336 70.9103 93.0087 72.2724C92.7084 73.5117 92.3114 74.7255 91.8215 75.9028C91.5612 76.5556 91.4194 77.2497 91.4028 77.9523C91.3216 80.133 91.2216 82.3262 91.0842 84.4944C91.0345 85.2533 90.7914 85.9868 90.3781 86.6252C90.2344 86.9376 89.9825 87.1875 89.669 87.3287C89.3555 87.47 89.0015 87.4931 88.6723 87.3937C88.3558 87.3053 88.074 87.1218 87.8651 86.8682C87.6561 86.6145 87.53 86.3029 87.5038 85.9753C87.4828 85.7615 87.4745 85.5466 87.4788 85.3317Z" fill="#FFE159"/>
<path d="M53.2372 63L53.3684 63.15C53.2559 63.1563 53.2497 63.0812 53.2372 63Z" fill="#FFFAB8"/>
<path d="M85.6043 64.7306L87.1602 65.1493C87.5476 65.2492 87.8351 65.4554 87.7851 65.8991C87.7589 66.0784 87.6671 66.2417 87.5274 66.3571C87.3877 66.4726 87.2101 66.532 87.029 66.5239C86.4604 66.5677 85.8918 66.5677 85.3232 66.5802C84.0735 66.3865 84.0735 66.3865 83.7298 67.5737C83.2424 69.2483 82.8925 70.9853 81.9927 72.4975C80.5868 74.8469 78.831 76.9151 76.0754 77.6399C74.1966 78.1685 72.1914 78.0158 70.4143 77.2088C68.8655 76.4065 67.6957 75.0256 67.1589 73.366C66.4196 71.3593 65.9857 69.253 65.8717 67.1175C65.7031 65.8275 65.7031 64.521 65.8717 63.231C65.9775 62.5066 66.2327 61.8121 66.621 61.1915C67.0093 60.5708 67.5222 60.0376 68.1274 59.6256C68.2336 59.5498 68.3358 59.4684 68.4336 59.3819C68.5085 59.3194 68.6085 59.2507 68.571 59.132C68.5335 59.0133 68.4023 59.0445 68.3023 59.032C67.0527 58.8821 65.803 58.7008 64.5095 58.5821C61.8414 58.3384 59.1858 57.9573 56.4927 58.0698C56.3615 58.0698 56.2303 58.0698 56.1053 58.0698C55.9804 58.0698 55.7492 57.9885 55.6929 58.1697C55.6367 58.3509 55.8616 58.3947 55.9804 58.4759C58.2611 60.113 58.9921 62.3312 58.561 65.0493C58.411 65.9928 58.0924 68.0298 58.0674 68.1735C57.8051 69.3851 57.435 70.5708 56.9614 71.7164C56.531 72.8365 55.8952 73.8664 55.0868 74.7532C53.4685 76.534 51.4127 76.8901 49.1695 76.6277C45.1955 76.1716 42.9211 73.7097 41.6714 70.148C41.3402 69.242 40.9903 68.3485 40.6216 67.4612C40.3183 66.6297 40.1394 65.758 40.0905 64.8743C40.0468 64.4057 39.8406 64.2995 39.4657 64.3307C39.0586 64.2161 38.6388 64.1532 38.216 64.1433C37.8411 64.062 37.5162 63.8996 37.5411 63.4372C37.5661 62.9748 37.8973 62.8123 38.3347 62.7811H39.5844C39.9343 62.8561 39.9968 62.6561 40.0718 62.3562C40.2652 61.4614 40.6792 60.6292 41.2761 59.9352C41.873 59.2411 42.6339 58.7073 43.4897 58.3822C46.1737 57.2921 49.0542 56.7688 51.9501 56.8451C53.6684 56.8451 55.3743 56.6139 57.0926 56.5951C58.315 56.5764 59.5374 56.6265 60.7542 56.7451C62.8224 56.945 64.8844 57.2137 66.9464 57.4637C68.1961 57.6136 69.4146 57.8011 70.658 57.926C72.8851 58.1076 75.0991 58.4248 77.2876 58.8758C78.7711 59.1714 80.2128 59.6478 81.5803 60.2942C82.2686 60.5872 82.8671 61.0571 83.3149 61.6564C83.7627 62.2556 84.0438 62.9628 84.1297 63.7059C84.2047 64.5244 84.5983 64.6306 85.2107 64.6556L85.6043 64.7306ZM57.1488 64.2245C57.1488 63.4184 57.2301 62.5936 56.7989 61.8501C56.3008 60.9372 55.5828 60.1631 54.7099 59.5979C53.837 59.0327 52.8369 58.6943 51.8001 58.6134C49.7569 58.3947 47.7511 58.8633 45.7766 59.3382C44.3891 59.6418 43.1271 60.361 42.1588 61.4002C41.8603 61.7344 41.6371 62.1288 41.5045 62.5569C41.3719 62.9849 41.3329 63.4364 41.3902 63.8808C41.5849 65.8779 42.0364 67.8416 42.7336 69.7231C43.8646 72.8474 45.7766 75.1281 49.3258 75.4655C52.1001 75.7279 53.4872 75.2218 54.8994 72.9286C56.5177 70.2605 56.9864 67.2675 57.1551 64.2245H57.1488ZM67.1464 65.8303C67.1265 66.763 67.1892 67.6956 67.3338 68.6172C67.4497 70.2545 67.8295 71.8624 68.4586 73.3785C68.8008 74.3686 69.4595 75.2184 70.3331 75.7967C71.1554 76.2575 72.0612 76.5501 72.9977 76.6573C73.9343 76.7646 74.8828 76.6844 75.788 76.4215C78.2874 75.6717 79.787 73.7034 80.8805 71.4227C81.5521 69.8132 82.0993 68.1546 82.5176 66.4614C82.7331 65.6258 82.7587 64.7526 82.5926 63.9058C82.5364 63.5567 82.4044 63.2241 82.2057 62.9315C82.0071 62.6389 81.7467 62.3935 81.4429 62.2125C80.5615 61.6589 79.6036 61.2378 78.5998 60.9628C76.5479 60.4044 74.4602 59.9869 72.3514 59.7131C71.2581 59.558 70.146 59.8086 69.225 60.4177C68.304 61.0267 67.6379 61.9519 67.3526 63.0185C67.1449 63.9404 67.0712 64.8874 67.1339 65.8303H67.1464Z" fill="#F7760C"/>
<path d="M54.7806 63.6375C54.4307 63.7437 54.1183 63.7687 53.8746 63.4C53.7977 63.2917 53.6883 63.2107 53.5622 63.1688L53.4622 62.7564L52.1563 61.613L49.8256 61.5005L49.5007 61.7442C49.0786 61.7658 48.6598 61.8307 48.251 61.9379C48.201 62.1003 48.0635 62.1753 47.9448 62.2753C47.6936 62.4519 47.486 62.6835 47.3378 62.9525C47.1896 63.2214 47.1048 63.5207 47.0897 63.8274C47.0746 64.1341 47.1298 64.4402 47.2509 64.7224C47.372 65.0046 47.5559 65.2554 47.7886 65.4558C48.2271 65.8988 48.7679 66.2271 49.3632 66.4118L52.4187 66.743C52.7932 66.7336 53.1608 66.6401 53.4943 66.4695C53.8278 66.2989 54.1187 66.0556 54.3454 65.7574C54.5722 65.4592 54.729 65.1139 54.8044 64.747C54.8797 64.38 54.8716 64.0008 54.7806 63.6375Z" fill="#FFFAB8"/>
<path d="M117.172 125.116C113.998 123.271 110.597 121.849 107.055 120.885L88.641 116.368C87.5496 116.093 86.4541 115.835 85.3543 115.593L85.1231 115.537C82.48 114.956 79.8244 114.45 77.1563 113.987C77.1563 113.987 51.5376 108.314 37.6785 110.344C35.9102 110.463 34.1357 110.444 32.3673 110.575C29.5004 110.708 26.6517 111.104 23.8569 111.756C23.8569 111.963 23.8569 112.175 23.8569 112.381C24.1117 115.531 24.858 118.622 26.0689 121.542C27.8471 125.718 30.7772 129.303 34.5168 131.876C39.2461 135.322 44.8654 137.337 50.7066 137.681C55.2367 137.994 59.5044 136.9 63.6097 135.094C66.7907 133.587 69.8732 131.88 72.8387 129.983C73.6697 129.477 73.6759 129.458 74.3883 130.152C75.5571 131.296 76.8103 132.351 78.1374 133.307C83.2189 136.915 89.1047 139.227 95.2831 140.043C99.3587 140.638 103.519 140.111 107.318 138.519C110.185 137.263 112.947 135.779 115.578 134.082C118.081 132.573 120.374 130.738 122.395 128.627C120.734 127.342 118.989 126.169 117.172 125.116Z" fill="#255FB7"/>
<path d="M76.8563 116.668C76.8563 119.699 75.7129 122.248 73.8821 124.629C71.8189 127.331 68.7709 129.107 65.4029 129.571C60.4041 130.415 55.4054 130.49 50.4566 129.04C46.645 127.922 43.0896 126.291 40.0966 123.598C38.2614 121.927 36.7969 119.89 35.7977 117.618C35.6014 117.1 35.5751 116.533 35.7227 115.999C35.8775 115.26 36.1275 114.544 36.4663 113.869C37.4557 111.144 38.2308 108.347 38.7844 105.502C39.0554 103.492 39.1703 101.463 39.1281 99.4348C39.1281 98.6724 38.8344 97.9164 39.0219 97.0479C40.8527 99.4285 43.3958 100.847 45.5765 102.728C46.8262 103.809 48.0759 104.852 49.2881 105.946C50.9939 107.47 53.0684 108.189 55.2367 108.707C57.7595 109.305 60.3216 109.722 62.9035 109.957C65.0967 110.151 67.2774 110.27 69.3894 109.57C71.5862 108.784 73.5191 107.399 74.9693 105.571C75.8566 104.521 76.7689 103.49 77.6811 102.447C77.7624 102.353 77.8998 102.215 77.9811 102.234C78.1873 102.278 78.0935 102.49 78.106 102.628C78.2373 104.334 77.8124 105.983 77.5874 107.626C77.4693 108.263 77.388 108.905 77.3437 109.551C77.3187 111.057 76.8563 115.743 76.8563 116.668Z" fill="#FFE159"/>
<path d="M107.055 120.873C106.43 121.754 105.862 122.635 105.256 123.51C102.55 127.397 99.0072 128.378 94.2521 126.928C93.4345 126.662 92.6552 126.29 91.934 125.822C91.0172 125.265 90.2475 124.495 89.6897 123.579C89.132 122.662 88.8023 121.625 88.7285 120.555C88.6057 119.154 88.5764 117.747 88.641 116.343C88.9159 114.975 89.0347 113.588 89.3471 112.219C89.7821 110.208 90.4249 108.248 91.2654 106.371C92.2151 104.315 93.2774 102.303 94.2959 100.278C94.3709 100.128 94.3958 99.8659 94.627 99.9159C94.7145 99.9159 94.777 100.172 94.8082 100.322C95.1394 101.947 95.4831 103.571 95.7768 105.208C95.8849 105.987 95.7857 106.78 95.4893 107.508C94.8645 109.195 94.4771 110.957 93.7898 112.625C93.7023 112.838 93.4836 113.138 93.8335 113.306C94.1834 113.475 94.4021 113.175 94.5458 112.9C94.6733 112.644 94.7819 112.379 94.8707 112.107C95.4956 110.232 96.2079 108.439 96.664 106.533C96.7795 105.838 96.7324 105.126 96.5266 104.452C95.6268 100.266 94.727 96.0731 93.5336 91.9553C93.3193 91.1372 93.3085 90.2791 93.5023 89.4559C93.5773 89.1123 93.5648 88.6124 94.0897 88.5499C94.3441 88.4797 94.6134 88.4836 94.8657 88.5611C95.1181 88.6385 95.3431 88.7864 95.5143 88.9873C96.0371 89.6685 96.458 90.422 96.764 91.2243C97.6271 93.8942 98.2933 96.6237 98.7573 99.391C99.3821 102.653 99.857 105.939 100.326 109.226C100.363 109.526 100.401 109.851 100.801 109.77C101.2 109.688 101.107 109.414 101.069 109.145C100.819 107.32 100.576 105.496 100.338 103.671C99.9757 100.947 99.4571 98.2413 98.876 95.5482C98.6983 94.7901 98.604 94.0149 98.5948 93.2363C98.5948 89.9996 98.5948 86.7691 98.5948 83.5324C98.5178 82.7227 98.7207 81.9111 99.1697 81.233C99.4134 80.9268 99.5946 80.5019 100.057 80.6081C100.272 80.6642 100.468 80.7766 100.625 80.9336C100.782 81.0907 100.894 81.2868 100.95 81.5017C101.244 82.2807 101.442 83.0928 101.538 83.9198C101.882 86.7316 102.319 89.5434 102.788 92.3115C103.075 94.1298 103.231 95.9669 103.462 97.7914C103.8 100.422 103.962 103.065 104.125 105.708C104.142 107.033 104.232 108.355 104.393 109.67C104.437 109.957 104.393 110.295 104.806 110.295C105.218 110.295 105.181 109.888 105.112 109.564C105.061 109.359 105.036 109.149 105.037 108.939C105.037 106.439 104.837 103.996 104.681 101.534C104.55 99.441 104.293 97.354 103.968 95.2858C103.781 94.0361 104.081 92.8489 104.15 91.6304C104.231 90.262 104.406 88.8936 104.556 87.5314C104.735 85.8652 104.922 84.2156 105.118 82.5826C105.312 80.933 105.512 79.2835 105.831 77.6589C105.898 77.0319 106.16 76.4418 106.58 75.9718C106.649 75.8717 106.74 75.7891 106.847 75.7305C106.953 75.6718 107.071 75.6388 107.193 75.6339C107.314 75.6291 107.435 75.6526 107.545 75.7025C107.656 75.7525 107.753 75.8276 107.83 75.9218C108.349 76.3589 108.72 76.9461 108.892 77.6026C109.195 78.9713 109.376 80.3637 109.436 81.7641C109.611 85.5132 109.805 89.206 109.73 92.9238C109.671 95.9189 109.563 98.9078 109.405 101.89C109.361 102.671 109.273 103.446 109.273 104.227C109.273 104.496 109.186 104.902 109.58 104.915C109.973 104.927 110.042 104.509 110.042 104.215C110.042 103.328 110.211 102.447 110.198 101.565C110.161 99.6909 110.304 97.8164 110.417 95.9419C110.611 92.7551 110.498 89.5809 110.504 86.4067C110.504 85.5007 110.354 84.5946 110.373 83.6824C110.373 83.0575 110.611 82.9513 111.148 83.2262C111.954 83.6386 111.973 84.4384 112.079 85.1758C112.244 86.3616 112.302 87.5598 112.254 88.7561C112.216 89.7996 112.354 90.8306 112.398 91.8804C112.453 93.8321 112.386 95.7855 112.198 97.7289C111.954 100.472 111.854 103.221 111.573 105.958C111.099 110.995 109.642 115.89 107.286 120.367C107.199 120.486 107.136 120.686 107.055 120.873Z" fill="#FFE159"/>
<path d="M77.575 65.3429C77.3813 65.1305 77.1251 64.9743 77.0252 64.7181L76.7752 64.0933L73.0261 63.6621L71.4453 64.6119L71.389 65.018C71.2224 65.0522 71.053 65.071 70.8829 65.0743C70.7116 65.3331 70.6041 65.629 70.5693 65.9375C70.5346 66.246 70.5735 66.5583 70.683 66.8488C70.8635 67.3322 71.1593 67.7642 71.5448 68.1073C71.9303 68.4503 72.3938 68.694 72.8949 68.8171L74.9319 69.267C75.4524 69.3012 75.9746 69.2333 76.469 69.067C76.8507 68.9737 77.2013 68.7819 77.4859 68.5109C77.7704 68.2399 77.979 67.8991 78.0909 67.5224C78.2027 67.1457 78.214 66.7463 78.1235 66.3639C78.033 65.9815 77.8439 65.6295 77.575 65.3429Z" fill="#FFFAB8"/>
<path d="M75.9003 64.2746C75.7382 64.0645 75.5232 63.9011 75.2773 63.8012C75.0314 63.7013 74.7634 63.6684 74.5007 63.706C74.2037 63.7092 73.913 63.7914 73.6583 63.944C73.4035 64.0966 73.1939 64.3142 73.051 64.5745C72.5643 65.1609 72.2872 65.8929 72.2634 66.6546C72.2396 67.4163 72.4706 68.1642 72.9198 68.7798C73.1766 69.0481 73.5073 69.2341 73.8699 69.3142C74.2326 69.3943 74.6109 69.3649 74.9568 69.2297C75.4104 68.9488 75.7982 68.5735 76.0937 68.1292C76.3891 67.685 76.5853 67.1822 76.6689 66.6553C76.7934 66.2271 76.7867 65.7714 76.6497 65.3471C76.5127 64.9227 76.2517 64.5492 75.9003 64.2746Z" fill="#255FB7"/>
<path d="M75.9004 64.2747C74.9402 64.1547 73.9652 64.2573 73.0511 64.5746C72.3137 64.6371 71.6514 65.037 70.9078 65.037C70.6517 64.2747 70.7079 64.006 71.2952 63.7436C72.6276 63.0458 74.1031 62.6652 75.6067 62.6313C77.1558 62.7139 78.6151 63.3843 79.6869 64.5059C79.828 64.6057 79.9263 64.7551 79.9622 64.9241C79.9981 65.0932 79.969 65.2696 79.8806 65.4182C79.6682 65.7806 79.2995 65.7056 78.9809 65.5556C78.5757 65.37 78.1814 65.1613 77.7999 64.9308C77.5668 64.7655 77.2856 64.682 77.0001 64.6933C76.6649 64.4822 76.2911 64.3399 75.9004 64.2747Z" fill="#FFAF19"/>
<path d="M53.3622 63.1438C53.3341 62.8133 53.2052 62.4993 52.9928 62.2445C52.7805 61.9897 52.495 61.8063 52.1749 61.7191C52.1749 61.7191 50.5378 61.2755 49.913 61.8566C48.4509 63.175 48.2884 64.5122 49.3631 66.4117C49.7492 66.8224 50.2693 67.0815 50.8297 67.1422C51.39 67.203 51.9536 67.0613 52.4186 66.7429C53.5621 65.7556 53.7371 64.5059 53.3622 63.1438Z" fill="#255FB7"/>
<path d="M53.2371 63.0001C52.283 62.2629 51.1124 61.861 49.9067 61.8566C49.3381 61.5692 48.8007 61.8566 48.2446 61.9378C47.3198 61.9378 46.6638 62.5627 45.9514 62.9876C45.614 63.2063 45.2766 63.6686 44.8892 63.225C44.5018 62.7814 44.8392 62.3752 45.1766 61.9753C46.67 60.3257 48.532 59.9383 50.6378 60.3382C51.5827 60.5226 52.4961 60.8425 53.3496 61.288C54.0121 61.7082 54.541 62.3086 54.8742 63.0188C55.0055 63.2313 54.8742 63.4187 54.7805 63.6062C54.4306 63.7124 54.1182 63.7374 53.8745 63.3687C53.8189 63.2849 53.7424 63.2172 53.6525 63.1723C53.5626 63.1273 53.4625 63.1067 53.3621 63.1125L53.2371 63.0001Z" fill="#FFAF19"/>
<path d="M13.9781 65.6178C14.0805 67.7148 13.451 69.7823 12.1973 71.4663C11.6225 72.3429 10.8143 73.0415 9.86366 73.4831C8.91304 73.9247 7.85791 74.0919 6.81733 73.9657C5.95867 73.9268 5.10534 73.8097 4.26796 73.6158C2.33093 73.1034 1.34367 71.6788 0.631348 69.948C0.0374461 68.5229 -0.142315 66.9592 0.112726 65.4366C0.205283 64.5544 0.508448 63.7074 0.996692 62.9669C1.48494 62.2264 2.14397 61.614 2.91829 61.1814C3.91747 60.4752 5.05103 59.9818 6.24872 59.7317C8.96055 59.3693 13.5407 61.2813 13.9781 65.6178Z" fill="#FFE159"/>
<path d="M122.883 112.619C123.136 112.598 123.391 112.632 123.63 112.718C123.87 112.804 124.088 112.94 124.27 113.118C124.452 113.296 124.593 113.511 124.685 113.748C124.776 113.985 124.816 114.24 124.801 114.493C124.838 115.456 123.751 116.63 122.77 116.549C122.232 116.531 121.721 116.309 121.339 115.929C120.958 115.548 120.735 115.038 120.714 114.5C120.753 113.963 121.003 113.463 121.409 113.111C121.816 112.758 122.346 112.581 122.883 112.619Z" fill="#FFE159"/>
<path d="M134.08 54.2771C134.03 55.0956 133.83 55.2581 133.036 55.3018C132.412 55.3018 131.787 55.3018 131.193 55.3018C131.083 55.3145 130.971 55.3023 130.866 55.2662C130.761 55.23 130.666 55.1708 130.587 55.0929C130.507 55.015 130.447 54.9204 130.409 54.816C130.371 54.7115 130.357 54.6 130.368 54.4895C130.368 54.1771 130.368 53.8647 130.368 53.5648C130.368 48.9534 130.383 44.342 130.412 39.7306C130.406 39.6412 130.406 39.5514 130.412 39.462C130.518 38.8746 130.212 38.0311 130.781 37.7561C131.693 37.4134 132.695 37.3979 133.618 37.7124C134.005 37.8061 134.03 38.2623 134.067 38.5997C134.167 39.5619 134.242 40.5242 134.317 41.4865C134.317 41.9239 134.317 42.3737 134.374 42.8049C134.43 43.236 134.18 43.9359 134.692 44.0983C135.255 44.1817 135.828 44.1412 136.373 43.9796C136.786 43.9109 136.723 43.5235 136.723 43.2298C136.723 42.4425 136.723 41.6489 136.723 40.8554C136.723 40.0618 136.686 39.362 136.723 38.6184C136.773 37.6437 136.942 37.5124 137.942 37.4999C140.185 37.4999 140.297 37.5812 140.391 39.7619C140.585 44.367 140.691 48.9784 141.06 53.5773C141.085 53.8829 141.085 54.1901 141.06 54.4958C141.06 54.618 141.037 54.7391 140.99 54.8521C140.944 54.9651 140.875 55.0677 140.788 55.1538C140.702 55.2399 140.599 55.3079 140.485 55.3537C140.372 55.3995 140.251 55.4222 140.128 55.4205C139.92 55.4194 139.711 55.4068 139.504 55.3831C137.629 55.2893 137.629 55.2893 137.442 53.4398C137.292 52.1339 137.148 50.8217 137.004 49.5157C136.886 48.416 136.886 48.3973 135.855 48.4473C133.805 48.5472 134.08 48.5035 134.08 50.3218C134.03 50.8092 134.13 53.446 134.08 54.2771Z" fill="#F7760C"/>
<path d="M118.009 50.072C118.009 47.4727 117.971 45.0732 117.871 42.6426C117.815 41.3242 118.046 41.1055 119.365 41.1055C121.518 41.1055 123.672 41.118 125.826 41.143C126.175 41.151 126.523 41.1971 126.863 41.2804C127.029 41.3206 127.178 41.4135 127.287 41.5453C127.397 41.677 127.46 41.8406 127.469 42.0115C127.875 44.6546 127.638 44.9545 125.013 44.9545C124.001 44.9545 122.989 44.9545 121.983 44.9545C121.358 44.9545 121.083 45.1295 121.171 45.7918C121.248 46.4472 121.287 47.1064 121.289 47.7663C121.289 48.3349 121.564 48.5286 122.108 48.5161C122.808 48.5161 123.514 48.5161 124.22 48.5161C124.327 48.5001 124.437 48.5072 124.542 48.5371C124.646 48.567 124.743 48.6188 124.826 48.6893C124.909 48.7597 124.976 48.847 125.022 48.9454C125.068 49.0438 125.093 49.151 125.095 49.2597C125.551 51.8778 125.401 51.6216 123.308 51.6154C121.433 51.6154 121.433 51.6154 121.52 53.4899C121.608 55.3645 121.614 55.3645 123.483 55.227C124.401 55.1645 125.32 55.102 126.244 55.052C127.169 55.0021 127.307 55.1833 127.438 56.0643C127.825 58.7199 127.694 58.8824 125.026 58.9511C123.314 58.9948 121.602 59.0136 119.89 59.0511C118.584 59.0511 118.421 58.9698 118.353 57.6826C118.234 55.0708 118.096 52.4777 118.009 50.072Z" fill="#F7760C"/>
</svg>
