<svg width="24" height="24" viewBox="0 0 24 24" fill="none" xmlns="http://www.w3.org/2000/svg">
<path d="M12 12.67C10.869 12.67 9.76343 12.3341 8.82357 11.7048C7.88372 11.0756 7.1519 10.1815 6.72093 9.13579C6.28995 8.09009 6.17923 6.93995 6.40282 5.83124C6.6264 4.72253 7.17421 3.7052 7.97677 2.90826C8.77934 2.11131 9.8005 1.57067 10.9108 1.35489C12.021 1.1391 13.1703 1.2579 14.213 1.69622C15.2556 2.13453 16.1446 2.87262 16.7672 3.81687C17.3898 4.76112 17.7179 5.869 17.71 7C17.6994 8.50745 17.0932 9.94955 16.0235 11.0117C14.9538 12.0739 13.5075 12.67 12 12.67ZM12 2.75C11.1691 2.75004 10.3567 2.99598 9.66526 3.45683C8.97382 3.91769 8.43422 4.57285 8.11444 5.3398C7.79465 6.10675 7.70898 6.95118 7.8682 7.76673C8.02743 8.58228 8.42444 9.33247 9.00923 9.92281C9.59401 10.5132 10.3404 10.9172 11.1544 11.0842C11.9684 11.2511 12.8136 11.1734 13.5836 10.8609C14.3535 10.5484 15.0137 10.015 15.4811 9.32795C15.9485 8.6409 16.2021 7.83091 16.21 7C16.214 6.44415 16.108 5.89298 15.8984 5.37818C15.6887 4.86337 15.3794 4.39506 14.9882 4.00014C14.597 3.60523 14.1316 3.29149 13.6188 3.07695C13.106 2.86242 12.5559 2.75131 12 2.75ZM19.7 22.75H4.3C4.00775 22.7529 3.71841 22.6918 3.45235 22.5708C3.18628 22.4499 2.94995 22.2721 2.76 22.05C2.59477 21.8582 2.47338 21.6327 2.4043 21.3892C2.33521 21.1456 2.32009 20.89 2.36 20.64C3.06 16.49 7.21 13.36 12 13.36C16.79 13.36 20.94 16.49 21.64 20.64C21.6799 20.89 21.6648 21.1456 21.5957 21.3892C21.5266 21.6327 21.4052 21.8582 21.24 22.05C21.05 22.2721 20.8137 22.4499 20.5477 22.5708C20.2816 22.6918 19.9922 22.7529 19.7 22.75ZM12 14.86C7.93 14.86 4.42 17.45 3.84 20.86C3.83581 20.8941 3.839 20.9287 3.84935 20.9615C3.8597 20.9943 3.87697 21.0245 3.9 21.05C3.95003 21.1061 4.01183 21.1504 4.08098 21.1797C4.15013 21.2091 4.22492 21.2229 4.3 21.22H19.7C19.7751 21.2229 19.8499 21.2091 19.919 21.1797C19.9882 21.1504 20.05 21.1061 20.1 21.05C20.123 21.0245 20.1403 20.9943 20.1506 20.9615C20.161 20.9287 20.1642 20.8941 20.16 20.86C19.58 17.45 16.07 14.86 12 14.86Z" fill="#969AA8"/>
</svg>
