<svg width="130" height="102" viewBox="0 0 130 102" fill="none" xmlns="http://www.w3.org/2000/svg">
<path d="M127.28 34.6556C125.892 32.916 124.991 30.8396 124.667 28.6381C124.493 27.6732 124.296 26.71 124.076 25.7487C122.715 19.8614 120.232 14.5976 115.679 10.483C112.833 7.89715 109.645 6.2383 105.661 6.68825C103.699 6.89264 101.775 7.37261 99.9468 8.114C96.5261 9.51263 93.2627 11.2474 89.8853 12.749C85.3208 14.7819 80.8484 15.1885 76.2026 13.0851C74.4337 12.3607 72.6235 11.7416 70.7815 11.2311C66.2224 9.80537 61.9723 10.277 58.0149 13.1447C55.9016 14.6805 53.6188 15.9683 51.2114 16.9829C46.6415 18.9019 42.0282 19.7476 37.1167 18.3815C33.864 17.4653 30.4433 17.1943 26.9739 17.0154C22.8701 17.3135 18.7718 17.7147 14.771 19.2543C10.5394 20.7784 6.95149 23.6954 4.59569 27.5268C2.655 30.7961 1.3182 34.3879 0.649154 38.1304C0.0423358 40.7184 -0.140743 43.3877 0.107047 46.0344C0.564857 50.1756 2.55689 53.9953 5.69074 56.741C9.11685 59.8418 12.955 61.3055 17.5303 61.0778C19.5491 60.9667 21.5724 60.9667 23.5911 61.0778C27.3262 61.3001 29.0122 62.7638 29.5543 65.8538C29.6193 66.2441 29.7223 66.6236 29.7874 67.0085C30.3837 70.5972 30.5138 74.251 31.2728 77.8181C32.666 84.3234 35.1 90.254 40.25 94.7318C43.8171 97.8326 47.9209 99.0199 52.5992 97.8327C54.8978 97.2526 56.8223 95.957 58.6925 94.58C64.0865 90.666 69.719 89.6685 75.8773 92.7531C78.5334 94.0557 81.3634 94.9686 84.28 95.4637C88.6168 96.2389 92.5688 95.648 96.0979 92.7856C101.253 88.6006 105.314 83.6349 107.439 77.2706C108.523 74.0179 109.363 70.6623 108.761 67.1332C108.439 65.2439 108.222 63.3381 108.111 61.4248C107.965 58.8389 108.263 58.4107 110.729 57.5053C112.806 56.741 114.936 56.1284 117.034 55.4128C121.192 54.066 124.798 51.4019 127.307 47.8233C130.576 43.1287 131.216 39.3881 127.28 34.6556Z" fill="#8ADEFF"/>
<path d="M114.069 62.3191C115.018 62.4624 115.919 62.8345 116.693 63.4033C117.37 63.9183 117.695 63.7449 117.918 62.9697C118.099 62.4123 118.32 61.8688 118.579 61.3433C118.747 60.9693 118.991 60.6548 119.463 60.6874C119.665 60.6871 119.86 60.7645 120.008 60.9037C120.155 61.0428 120.243 61.2332 120.254 61.4355C120.298 63.5118 121.046 64.3845 123.241 63.5605C123.941 63.3003 124.629 64.4605 124.049 65.1056C122.683 66.6289 122.786 68.1901 123.23 69.9845C123.485 71.0145 122.623 71.7084 121.718 71.1555C119.755 69.9574 118.65 70.6134 117.804 72.462C117.731 72.6494 117.592 72.8038 117.414 72.8966C117.235 72.9893 117.029 73.014 116.833 72.9661C116.373 72.8523 116.291 72.424 116.221 72.0499C116.064 71.2368 116.53 70.0984 115.934 69.6755C115.337 69.2527 114.307 69.643 113.505 69.6321C112.849 69.6321 112.193 69.5454 111.971 68.7648C111.749 67.9841 112.253 67.4854 112.876 67.1385C113.174 66.9596 113.456 66.759 113.765 66.5964C114.307 66.3307 114.307 66.0054 113.96 65.5663C113.503 65.0477 113.172 64.4297 112.995 63.7611C112.8 62.7691 113.185 62.2649 114.069 62.3191Z" fill="#255FB7"/>
<path d="M38.0274 10.0872C38.2388 9.3554 38.4448 8.49886 38.7321 7.66401C38.9435 7.05143 38.7701 6.78582 38.1575 6.6286C37.3039 6.40726 36.4624 6.14124 35.6367 5.83169C35.1705 5.65822 34.7043 5.36548 34.8018 4.74748C34.8994 4.12948 35.4361 4.0861 35.9403 4.06442L36.6775 4.03732C38.3689 3.9289 38.3743 3.92891 38.0707 2.28632C37.9461 1.61411 37.9949 1.02863 38.6616 0.622053C39.3284 0.215473 39.8109 0.681693 40.1741 1.10454C40.9981 2.06406 41.7029 2.16162 42.4672 1.05031C42.7212 0.74992 43.0148 0.485503 43.34 0.264277C43.4792 0.123366 43.6615 0.0329527 43.8579 0.00741846C44.0543 -0.0181157 44.2536 0.0226867 44.4242 0.123324C44.5934 0.229371 44.7225 0.388647 44.7912 0.576095C44.8599 0.763542 44.8643 0.968502 44.8037 1.15873C44.6382 2.12511 44.4228 3.08232 44.1586 4.0265C43.9363 4.75292 44.1586 5.01855 44.8525 5.11071C45.7199 5.24082 46.5168 5.72326 47.4167 5.72326C47.9588 5.72326 48.3057 5.92385 48.3545 6.43885C48.4033 6.95385 47.9859 7.19781 47.5359 7.32791C46.9307 7.52926 46.3155 7.69935 45.6928 7.83749C44.9392 7.97302 44.7766 8.37962 44.8959 9.07351C45.0151 9.76741 45.5356 10.6998 44.614 11.2094C43.8008 11.6539 43.2262 10.857 42.7166 10.4125C41.9414 9.73487 41.3071 9.66981 40.5482 10.4125C40.2156 10.705 39.8386 10.9429 39.4314 11.1172C38.5207 11.5672 37.984 11.1877 38.0274 10.0872Z" fill="#255FB7"/>
<path d="M81.6942 10.2877C80.4961 10.2877 79.5258 9.2035 79.5258 7.81571C79.4987 6.26529 80.7618 4.73653 82.0736 4.71484C83.2771 4.71484 84.3342 5.89664 84.3613 7.29528C84.3722 8.81318 83.082 10.2715 81.6942 10.2877Z" fill="#FFAF19"/>
<path d="M68.3962 101.725C67.8243 101.72 67.2764 101.494 66.8665 101.095C66.4566 100.696 66.2162 100.155 66.1953 99.5834C66.1953 98.304 67.6698 96.8729 69.0196 96.8403C70.2556 96.8403 71.1555 97.8161 71.123 99.1768C71.0934 99.8742 70.7909 100.532 70.2809 101.009C69.7709 101.485 69.094 101.742 68.3962 101.725Z" fill="#FFAF19"/>
<path d="M21.6829 67.8922C20.7125 67.3501 19.5145 67.5995 18.3381 68.6295C18.2297 68.7216 18.1321 68.83 18.0237 68.933C17.2973 69.6432 16.9395 70.4997 17.3623 71.4592C17.5367 71.8574 17.8212 72.1975 18.1823 72.4396C18.5434 72.6816 18.9661 72.8154 19.4006 72.8254C21.3251 72.8254 22.2087 72.1043 22.6153 70.5756C22.9081 69.4263 22.5611 68.4072 21.6829 67.8922Z" fill="#FFAF19"/>
<path d="M26.0902 36.5039C24.8813 38.0977 23.9597 39.3391 23.0056 40.5534C22.0515 41.7677 21.5961 41.7677 20.474 40.7865C19.7096 40.1143 19.0103 39.3662 18.1483 38.5151C17.4436 40.4179 16.8635 47.5791 16.8039 49.3898C16.8178 49.5858 16.7878 49.7824 16.7161 49.9654C16.6444 50.1483 16.5329 50.313 16.3896 50.4475C16.2463 50.5819 16.0749 50.6828 15.8877 50.7427C15.7006 50.8026 15.5024 50.8201 15.3077 50.7938H15.1125C11.3178 50.7938 11.822 50.989 12.234 47.7743C13.0959 41.1009 13.8603 34.4168 14.3536 27.7163C14.4132 26.8815 14.0988 25.7214 15.2698 25.407C16.5708 25.06 16.6033 26.3719 17.0099 27.0658C18.1863 29.077 19.2651 31.1478 20.4143 33.1699C20.7233 33.712 20.9564 34.3517 21.6991 34.6716C22.3368 33.9623 22.85 33.1504 23.217 32.27C24.2687 30.3401 25.3294 28.4139 26.3992 26.4912C26.616 26.1063 26.8654 25.6563 27.3967 25.6617C28.0472 25.6617 28.2207 26.2364 28.3833 26.7134C28.7248 27.6892 29.0393 28.6758 29.2886 29.6787C30.8878 36.081 32.3949 42.505 33.7393 48.9669C34.0104 50.2788 34.0104 50.2788 32.6063 50.4577C29.4458 50.8534 29.4242 50.8589 28.7032 47.8231C27.8358 44.1693 26.9901 40.5155 26.0902 36.5039Z" fill="#D4FFFF"/>
<path d="M53.819 56.4536C53.4341 56.4536 53.0438 56.4536 52.6589 56.4536C52.4821 56.4795 52.3019 56.4699 52.1289 56.4254C51.9558 56.3809 51.7934 56.3024 51.6511 56.1944C51.5087 56.0863 51.3893 55.951 51.2999 55.7963C51.2105 55.6417 51.1528 55.4707 51.1302 55.2934C50.7398 53.8569 50.279 52.4365 49.9592 50.9891C49.7207 49.9049 49.2111 49.7423 48.0727 49.5526C46.9451 49.52 45.5519 49.1189 44.6628 49.7911C43.7738 50.4633 44.1207 51.9595 43.9798 53.0762C43.5352 56.3614 43.5623 56.3668 40.185 56.5078H39.9899C37.4528 56.5891 37.2197 56.3235 37.854 53.949C39.3719 48.322 40.288 42.5648 41.7409 36.9215C42.1745 35.2355 42.7438 33.5766 43.1612 31.8799C43.2391 31.4684 43.4424 31.0912 43.7433 30.8C44.0443 30.5088 44.4279 30.3179 44.8417 30.2535C46.1373 29.9391 47.4167 30.2536 48.7069 30.3078C49.249 30.3078 49.3412 30.8499 49.4767 31.2944C51.1031 36.6721 52.8053 42.0444 54.4478 47.4275C55.055 49.4062 55.5917 51.4066 56.1555 53.3907C56.2798 53.7587 56.3758 54.1356 56.4428 54.5182C56.6217 56.0145 56.3235 56.356 54.8165 56.421C54.4966 56.421 54.1714 56.421 53.8461 56.421L53.819 56.4536ZM46.6036 38.6128C45.7552 40.5874 45.2071 42.6778 44.9772 44.8145C46.0032 45.0638 47.0739 45.0638 48.0998 44.8145C47.7366 43.1015 47.4059 41.4752 47.0427 39.8543C46.9193 39.4327 46.7728 39.0182 46.6036 38.6128Z" fill="#3BA3F5"/>
<path d="M75.5629 68.868C75.6468 70.983 75.5725 73.1014 75.3406 75.2053C74.5762 80.2848 72.3427 82.3828 66.4771 81.0275C63.81 80.4149 62.265 78.7832 61.75 76.0292C60.94 71.9024 60.5765 67.7004 60.6658 63.4957C60.7351 61.619 61.1813 59.7754 61.9777 58.0747C62.3129 57.2603 62.8735 56.5584 63.5937 56.0514C64.3138 55.5444 65.1637 55.2533 66.0435 55.2124C68.5215 54.9721 70.9936 55.7246 72.9174 57.3049C74.6359 58.6818 75.0858 60.6063 75.3352 62.623C75.5621 64.6964 75.6382 66.7836 75.5629 68.868ZM65.6044 67.5236C65.6532 67.5236 65.664 69.4752 65.7724 70.4347C65.9405 71.9635 66.0326 73.541 67.0355 74.8475C68.0384 76.1539 69.4696 76.1702 70.4833 74.945C71.0587 74.237 71.3913 73.3628 71.432 72.4514C71.5757 70.5144 71.5594 68.5689 71.3832 66.6346C71.3164 65.0774 70.9385 63.5493 70.2719 62.1405C69.4316 60.6172 67.7348 60.4545 66.591 61.7502C65.9862 62.4366 65.6409 63.3131 65.6152 64.2276C65.5718 65.3281 65.6044 66.4285 65.6044 67.5236Z" fill="#D4FFFF"/>
<path d="M81.5748 41.8167C81.6182 37.9894 81.5206 34.4278 81.3688 30.8662C81.2875 28.92 81.629 28.5947 83.5752 28.5947C86.7519 28.5947 89.9269 28.6164 93.1 28.6598C93.6153 28.6673 94.1281 28.7328 94.6287 28.855C94.8811 28.9083 95.1088 29.0436 95.2764 29.2396C95.444 29.4357 95.5422 29.6816 95.5558 29.9392C96.1629 33.8369 95.8051 34.276 91.9399 34.276C90.4491 34.276 88.9583 34.276 87.4675 34.276C86.5676 34.276 86.1448 34.5362 86.2695 35.512C86.3805 36.4767 86.4402 37.4467 86.4484 38.4177C86.4484 39.258 86.8495 39.5507 87.6518 39.5019C88.6873 39.5019 89.7281 39.5345 90.7635 39.5019C90.9217 39.4762 91.0836 39.4849 91.2382 39.5273C91.3927 39.5697 91.5363 39.6449 91.6592 39.7478C91.7822 39.8506 91.8815 39.9788 91.9505 40.1234C92.0195 40.2681 92.0566 40.4259 92.0592 40.5862C92.726 44.4405 92.5037 44.0665 89.4191 44.061C86.6489 44.061 86.6489 44.061 86.7899 46.7716C86.9308 49.4821 86.9254 49.5201 89.6793 49.3357C91.0346 49.2436 92.3898 49.1514 93.7505 49.0701C95.0136 48.9996 95.3227 49.2707 95.507 50.5609C96.0816 54.4803 95.8919 54.7189 91.9562 54.8219C89.4354 54.8869 86.9037 54.9194 84.3667 54.9682C82.4368 55.0116 82.1982 54.849 82.1007 52.9516C81.9055 49.184 81.7429 45.3675 81.5748 41.8167Z" fill="#255FB7"/>
<path d="M90.0968 77.845C90.6985 74.7929 91.2352 72.1637 91.7231 69.529C92.0484 67.8124 92.3321 66.0903 92.5742 64.3628C92.6827 63.593 92.9591 63.1701 93.794 63.2135C94.9541 63.2731 96.1196 63.2948 97.2852 63.3328C98.1254 63.3653 98.3694 63.7122 98.1742 64.5796C97.2364 68.6779 96.3581 72.7871 95.4637 76.8963C94.7589 80.1164 94.103 83.3474 93.3603 86.562C92.932 88.3998 92.8778 88.3889 91.0347 88.4215C90.2594 88.4215 89.4788 88.3727 88.709 88.4215C87.5923 88.519 87.0556 88.0149 86.8171 86.9632C86.237 84.3773 85.6353 81.7915 84.9847 79.2219C83.7704 74.4568 82.5127 69.7079 81.2713 64.9536C80.8268 63.2623 80.843 63.1918 82.6103 63.2081C86.5243 63.2406 86.1828 62.5955 87.1098 66.748C87.8416 70.0007 88.7361 73.2533 89.5547 76.5059C89.7084 76.9627 89.8894 77.4099 90.0968 77.845Z" fill="#FFFAB8"/>
<path d="M69.5238 24.7892C67.3753 25.0072 65.2151 25.0868 63.0564 25.0277C62.7344 25.0241 62.4123 25.0368 62.0915 25.0657C61.1428 25.147 60.6224 24.8163 60.6441 23.7701C60.7037 20.5174 59.5599 20.3331 63.7937 20.3981C66.1222 20.4812 68.4536 20.4288 70.776 20.2409C71.6775 20.165 72.583 20.1487 73.4866 20.1921C75.3243 20.2409 75.308 20.2897 75.4002 22.0353C75.5003 23.5262 75.1347 25.0114 74.3539 26.2854C71.8874 30.3838 69.475 34.52 67.0518 38.6455C66.6343 39.3502 66.2278 40.0712 65.7128 40.9657C66.7799 41.127 67.8616 41.1706 68.9383 41.0958C70.4237 41.0687 71.9145 41.0958 73.3998 41.0307C74.3485 40.9928 74.6575 41.4373 74.6521 42.3101C74.6521 43.0853 74.7388 43.8605 74.7605 44.6357C74.7876 45.8284 74.6792 45.9964 73.4649 46.0344C71.3344 46.094 69.1931 46.0886 67.0626 46.0832C65.1164 46.0832 63.1757 46.0398 61.235 46.0073C59.2942 45.9748 59.1316 45.8121 59.137 43.9147C59.1325 42.6829 59.5431 41.4856 60.3025 40.5157C63.3977 36.2876 66.1806 31.8396 68.6293 27.207C69.1002 26.4759 69.4055 25.6507 69.5238 24.7892Z" fill="#FFFAB8"/>
<path d="M102.186 18.3921C102.186 17.5355 102.544 17.0693 103.487 17.1398C104.326 17.1886 105.168 17.1886 106.008 17.1398C107.011 17.0964 107.363 17.5409 107.379 18.533C107.477 23.7101 107.629 28.8818 107.759 34.0589V34.6444C107.759 36.493 107.818 36.5418 109.754 36.5743C111.44 36.6068 113.12 36.6068 114.806 36.6231C115.191 36.6231 115.581 36.6231 115.966 36.6231C116.114 36.6173 116.261 36.6428 116.398 36.698C116.535 36.7532 116.659 36.8368 116.762 36.9434C116.864 37.0499 116.943 37.1769 116.992 37.3161C117.042 37.4552 117.062 37.6033 117.05 37.7507C117.094 39.1114 117.17 40.4612 117.213 41.8273C117.251 42.8627 116.562 42.9658 115.776 42.879C112.995 42.5809 110.214 42.7869 107.433 42.879C106.349 42.9278 105.238 43.0308 104.137 43.0525C102.831 43.0525 102.804 43.0525 102.798 41.8057C102.766 37.9946 102.191 19.3624 102.186 18.3921Z" fill="#3BA3F5"/>
<path d="M45.1344 78.1812C45.0368 75.4001 45.0585 72.6137 44.8363 69.8327C44.6899 68.0383 44.6574 67.9787 42.928 67.9299C41.8438 67.9028 40.7271 67.9299 39.6266 67.9299C38.8189 67.9299 38.4177 67.6047 38.396 66.8023C38.396 66.6722 38.396 66.5421 38.396 66.412C38.2442 63.1594 38.2388 63.2298 41.4318 63.2732C45.3784 63.322 49.3303 63.2298 53.2769 63.2732C53.9979 63.2732 55.0062 62.9046 55.326 63.8641C55.8038 65.0135 55.8193 66.3031 55.3694 67.4637C55.1526 67.9462 54.6213 67.892 54.1659 67.9082C53.0817 67.9516 51.9704 68.0329 50.8699 68.0383C49.9104 68.0383 49.6448 68.5045 49.7152 69.3882C49.867 71.1934 49.8724 73.0149 50.1001 74.8092C50.5934 78.7503 50.382 82.7023 50.4037 86.6489C50.4037 88.3565 50.2356 88.4812 48.4629 88.492C44.9121 88.492 45.3187 88.6763 45.1615 85.3857C45.0368 82.9788 45.1344 80.5773 45.1344 78.1812Z" fill="#255FB7"/>
</svg>
