<svg width="15" height="15" viewBox="0 0 15 15" fill="none" xmlns="http://www.w3.org/2000/svg">
<g clip-path="url(#clip0_662_5066)">
<path d="M10.7689 7.52663C10.4806 7.38961 10.1865 7.27157 9.88725 7.1727C10.8565 6.4452 11.4846 5.28677 11.4846 3.98438C11.4846 1.7874 9.69724 0 7.50023 0C5.30323 0 3.51586 1.7874 3.51586 3.98438C3.51586 5.2882 4.14539 6.44777 5.11643 7.17513C4.22675 7.46804 3.39193 7.92381 2.66127 8.52481C1.32146 9.62687 0.389911 11.164 0.0382602 12.8532C-0.0719546 13.3825 0.0600864 13.9261 0.400457 14.3447C0.739159 14.7611 1.24139 15 1.77835 15H8.99437C9.31799 15 9.58031 14.7377 9.58031 14.4141C9.58031 14.0904 9.31799 13.8281 8.99437 13.8281H1.77835C1.52821 13.8281 1.3773 13.6885 1.30963 13.6053C1.19276 13.4616 1.14753 13.2745 1.18553 13.092C1.79358 10.1713 4.36983 8.03771 7.3449 7.96576C7.39643 7.96775 7.4482 7.96875 7.50023 7.96875C7.55276 7.96875 7.60506 7.96772 7.65709 7.9657C8.56881 7.98709 9.44566 8.19516 10.2658 8.58504C10.5581 8.72391 10.9076 8.59966 11.0465 8.30736C11.1855 8.0151 11.0612 7.66556 10.7689 7.52663ZM7.64314 6.79327C7.59559 6.79242 7.54796 6.79198 7.50023 6.79198C7.45295 6.79198 7.40566 6.79245 7.35844 6.79333C5.87323 6.71924 4.68773 5.48766 4.68773 3.98438C4.68773 2.43354 5.9494 1.17188 7.50023 1.17188C9.05106 1.17188 10.3127 2.43354 10.3127 3.98438C10.3127 5.48728 9.12782 6.71862 7.64314 6.79327Z" fill="#4B39EF"/>
<path d="M14.4141 11.6309H12.8027V10.0195C12.8027 9.69592 12.5404 9.43359 12.2168 9.43359C11.8932 9.43359 11.6309 9.69592 11.6309 10.0195V11.6309H10.0195C9.69592 11.6309 9.43359 11.8932 9.43359 12.2168C9.43359 12.5404 9.69592 12.8027 10.0195 12.8027H11.6309V14.4141C11.6309 14.7377 11.8932 15 12.2168 15C12.5404 15 12.8027 14.7377 12.8027 14.4141V12.8027H14.4141C14.7377 12.8027 15 12.5404 15 12.2168C15 11.8932 14.7377 11.6309 14.4141 11.6309Z" fill="#4B39EF"/>
</g>
<defs>
<clipPath id="clip0_662_5066">
<rect width="15" height="15" fill="white"/>
</clipPath>
</defs>
</svg>
