<svg width="24" height="24" viewBox="0 0 24 24" fill="none" xmlns="http://www.w3.org/2000/svg">
<path d="M11.6869 16.5912V15.5912C11.4217 15.5912 11.1674 15.6966 10.9798 15.8841L11.6869 16.5912ZM6.67825 21.5999H5.67825C5.67825 22.0044 5.9219 22.369 6.29557 22.5238C6.66925 22.6786 7.09936 22.593 7.38536 22.307L6.67825 21.5999ZM6.67825 16.5912H7.67825C7.67825 16.0389 7.23054 15.5912 6.67825 15.5912V16.5912ZM11 11.9999C11 12.5522 11.4477 12.9999 12 12.9999C12.5523 12.9999 13 12.5522 13 11.9999H11ZM13 7.1999C13 6.64762 12.5523 6.1999 12 6.1999C11.4477 6.1999 11 6.64762 11 7.1999H13ZM9.59999 8.5999C9.04771 8.5999 8.59999 9.04762 8.59999 9.5999C8.59999 10.1522 9.04771 10.5999 9.59999 10.5999V8.5999ZM14.4 10.5999C14.9523 10.5999 15.4 10.1522 15.4 9.5999C15.4 9.04762 14.9523 8.5999 14.4 8.5999V10.5999ZM10.9798 15.8841L5.97115 20.8928L7.38536 22.307L12.3941 17.2983L10.9798 15.8841ZM7.67825 21.5999V16.5912H5.67825V21.5999H7.67825ZM6.67825 15.5912H4.79999V17.5912H6.67825V15.5912ZM3.39999 14.1912V4.7999H1.39999V14.1912H3.39999ZM4.79999 3.3999H19.2V1.3999H4.79999V3.3999ZM20.6 4.7999V14.1912H22.6V4.7999H20.6ZM19.2 15.5912H11.6869V17.5912H19.2V15.5912ZM20.6 14.1912C20.6 14.9644 19.9732 15.5912 19.2 15.5912V17.5912C21.0778 17.5912 22.6 16.069 22.6 14.1912H20.6ZM19.2 3.3999C19.9732 3.3999 20.6 4.0267 20.6 4.7999H22.6C22.6 2.92213 21.0778 1.3999 19.2 1.3999V3.3999ZM3.39999 4.7999C3.39999 4.0267 4.0268 3.3999 4.79999 3.3999V1.3999C2.92222 1.3999 1.39999 2.92214 1.39999 4.7999H3.39999ZM4.79999 15.5912C4.0268 15.5912 3.39999 14.9644 3.39999 14.1912H1.39999C1.39999 16.069 2.92223 17.5912 4.79999 17.5912V15.5912ZM13 11.9999V9.5999H11V11.9999H13ZM13 9.5999V7.1999H11V9.5999H13ZM9.59999 10.5999H12V8.5999H9.59999V10.5999ZM12 10.5999H14.4V8.5999H12V10.5999Z" fill="black"/>
</svg>
