<svg width="63" height="62" viewBox="0 0 63 62" fill="none" xmlns="http://www.w3.org/2000/svg">
<path d="M31.495 0.652021L31.4951 2.45129e-05H31.495L31.495 0.652021ZM4.54621 40.5428L4.54912 39.8908H4.54647L4.54621 40.5428ZM1.6409 38.2813L1.01312 38.4574L1.01409 38.4608L1.6409 38.2813ZM0.652675 30.8772L1.30467 30.8822V30.8772L0.652675 30.8772ZM3.69636 27.7071L3.69414 28.3591L3.69859 28.3591L3.69636 27.7071ZM6.73027 30.8772L6.07827 30.8752L6.07827 30.8773L6.73027 30.8772ZM7.51088 36.4432L6.88411 36.6228L6.88455 36.6243L7.51088 36.4432ZM5.47521 40.4086L5.66227 41.0332L5.67096 41.0305L5.47521 40.4086ZM58.4537 40.5428L58.4533 41.1948H58.454L58.4537 40.5428ZM61.359 38.2813L61.9859 38.4608L61.9868 38.4574L61.359 38.2813ZM62.3473 30.8772L61.6952 30.8752L61.6953 30.8822L62.3473 30.8772ZM59.3135 27.7071L59.3112 28.3591L59.3157 28.3591L59.3135 27.7071ZM56.2698 30.8772L55.6178 30.8772L55.6178 30.8788L56.2698 30.8772ZM55.4891 36.4432L54.8627 36.2619L54.8622 36.264L55.4891 36.4432ZM45.2017 43.0934L44.731 42.6423L44.7305 42.6428L45.2017 43.0934ZM43.6008 14.0865L44.0163 13.5841L44.0156 13.5835L43.6008 14.0865ZM20.585 13.9936L20.1742 13.4874L20.1726 13.4887L20.585 13.9936ZM15.9108 39.0351L16.5304 39.2381L16.6186 38.9689L16.4819 38.7207L15.9108 39.0351ZM12.5509 49.2892L13.1694 49.4955L13.1705 49.4922L12.5509 49.2892ZM12.9461 49.7125L13.1535 50.3308L13.1661 50.3263L12.9461 49.7125ZM22.7691 46.1913L23.1055 45.6328L22.8404 45.4731L22.5491 45.5776L22.7691 46.1913ZM31.8804 33.1284L31.2284 33.1279V33.1284H31.8804ZM36.95 24.1135L37.6021 24.1128L37.6019 24.104L36.95 24.1135ZM31.8804 18.8264L31.8895 18.1744H31.8804V18.8264ZM26.8207 24.1135H27.4727H26.8207ZM4.24761 27.6224C4.7949 20.4471 7.9088 13.7563 12.961 8.88097L12.0555 7.94263C6.76753 13.0455 3.51836 20.0375 2.9474 27.5232L4.24761 27.6224ZM12.961 8.88097C18.0124 4.0064 24.6303 1.30414 31.495 1.30402L31.495 2.45129e-05C24.2847 0.000151741 17.3444 2.83897 12.0555 7.94263L12.961 8.88097ZM31.4949 1.30402C38.3483 1.30503 44.956 3.99832 50.0053 8.85775L50.9095 7.9182C45.6229 2.83042 38.6934 0.00109238 31.4951 2.45129e-05L31.4949 1.30402ZM50.0053 8.85775C55.0554 13.718 58.1769 20.3901 58.7426 27.5519L60.0425 27.4493C59.4524 19.9776 56.1952 13.0052 50.9095 7.9182L50.0053 8.85775ZM56.9148 40.1782C55.6168 43.6153 54.2645 46.2543 52.2335 48.7055C50.1981 51.162 47.4545 53.4618 43.3317 56.1808L44.0496 57.2694C48.2269 54.5145 51.0875 52.1325 53.2376 49.5374C55.3923 46.937 56.807 44.1547 58.1347 40.6389L56.9148 40.1782ZM4.54647 39.8908C4.04139 39.8906 3.54654 39.7204 3.13551 39.4004L2.33456 40.4294C2.97031 40.9243 3.74576 41.1945 4.54595 41.1948L4.54647 39.8908ZM3.13551 39.4004C2.72403 39.0801 2.41776 38.6259 2.2677 38.1018L1.01409 38.4608C1.23819 39.2434 1.69926 39.9349 2.33456 40.4294L3.13551 39.4004ZM2.26867 38.1052C1.61089 35.7601 1.28603 33.3264 1.30465 30.8822L0.000697603 30.8723C-0.018857 33.4385 0.322192 35.9941 1.01313 38.4574L2.26867 38.1052ZM1.30467 30.8772C1.30467 30.5419 1.36801 30.2106 1.49045 29.9024L0.278606 29.4209C0.0948839 29.8834 0.000676139 30.3781 0.00067865 30.8772L1.30467 30.8772ZM1.49045 29.9024C1.61288 29.5943 1.79162 29.3162 2.01507 29.0835L1.07444 28.1804C0.732359 28.5367 0.462347 28.9585 0.278606 29.4209L1.49045 29.9024ZM2.01507 29.0835C2.23842 28.8509 2.50198 28.6682 2.78985 28.5445L2.2749 27.3464C1.82432 27.5401 1.41662 27.824 1.07444 28.1804L2.01507 29.0835ZM2.78985 28.5445C3.07764 28.4207 3.38482 28.358 3.69414 28.3591L3.69858 27.0551C3.20941 27.0534 2.72555 27.1527 2.2749 27.3464L2.78985 28.5445ZM3.69859 28.3591C4.00733 28.358 4.31389 28.4207 4.60092 28.5444L5.11687 27.3468C4.66655 27.1528 4.18293 27.0534 3.69413 27.0551L3.69859 28.3591ZM4.60092 28.5444C4.88807 28.6681 5.15096 28.8508 5.37353 29.0834L6.31563 28.1818C5.97425 27.8251 5.56707 27.5407 5.11687 27.3468L4.60092 28.5444ZM5.37353 29.0834C5.59614 29.316 5.77393 29.5938 5.89542 29.9017L7.1084 29.4231C6.92589 28.9606 6.65698 28.5385 6.31563 28.1818L5.37353 29.0834ZM5.89542 29.9017C6.01694 30.2097 6.07932 30.5406 6.07828 30.8752L7.38226 30.8793C7.38382 30.3804 7.29089 29.8856 7.1084 29.4231L5.89542 29.9017ZM6.07827 30.8773C6.07853 32.8229 6.34986 34.7583 6.88411 36.6228L8.13765 36.2636C7.63699 34.5163 7.3825 32.7017 7.38226 30.8771L6.07827 30.8773ZM6.88455 36.6243C6.97735 36.9452 7.00886 37.2827 6.97692 37.617L8.27501 37.741C8.32251 37.2436 8.27577 36.7412 8.13722 36.262L6.88455 36.6243ZM6.97692 37.617C6.94498 37.9514 6.85042 38.2749 6.69948 38.5689L7.85953 39.1645C8.08672 38.7219 8.22752 38.2382 8.27501 37.741L6.97692 37.617ZM6.69948 38.5689C6.54858 38.8628 6.34457 39.121 6.10054 39.3295L6.94768 40.3209C7.32282 40.0003 7.63232 39.607 7.85953 39.1645L6.69948 38.5689ZM6.10054 39.3295C5.85655 39.538 5.57739 39.6929 5.27945 39.7867L5.67096 41.0305C6.13889 40.8832 6.57249 40.6415 6.94768 40.3209L6.10054 39.3295ZM5.28816 39.784C5.04756 39.856 4.79874 39.8919 4.54912 39.8908L4.54331 41.1948C4.92202 41.1965 5.29884 41.142 5.66225 41.0332L5.28816 39.784ZM58.454 41.1948C59.2542 41.1945 60.0296 40.9243 60.6654 40.4294L59.8644 39.4004C59.4534 39.7204 58.9586 39.8906 58.4535 39.8908L58.454 41.1948ZM60.6654 40.4294C61.3007 39.9349 61.7617 39.2434 61.9858 38.4608L60.7322 38.1018C60.5822 38.6259 60.2759 39.0802 59.8644 39.4004L60.6654 40.4294ZM61.9868 38.4574C62.6777 35.9941 63.0188 33.4385 62.9992 30.8723L61.6953 30.8822C61.7139 33.3264 61.389 35.7601 60.7313 38.1052L61.9868 38.4574ZM62.9993 30.8793C63.0008 30.3805 62.908 29.8857 62.7255 29.4231L61.5125 29.9017C61.634 30.2096 61.6963 30.5405 61.6953 30.8752L62.9993 30.8793ZM62.7255 29.4231C62.543 28.9605 62.2739 28.5384 61.9326 28.1818L60.9905 29.0834C61.2132 29.3161 61.3911 29.5939 61.5125 29.9017L62.7255 29.4231ZM61.9326 28.1818C61.5913 27.8251 61.1842 27.5408 60.734 27.3468L60.218 28.5444C60.5051 28.668 60.7679 28.8507 60.9905 29.0834L61.9326 28.1818ZM60.734 27.3468C60.2837 27.1528 59.8 27.0534 59.3112 27.0551L59.3157 28.3591C59.6244 28.358 59.931 28.4207 60.218 28.5444L60.734 27.3468ZM59.3157 27.0551C58.8265 27.0534 58.3427 27.1527 57.892 27.3464L58.407 28.5445C58.6948 28.4207 59.0019 28.358 59.3112 28.3591L59.3157 27.0551ZM57.892 27.3464C57.4414 27.5401 57.0337 27.824 56.6916 28.1804L57.6322 29.0835C57.8555 28.8509 58.1191 28.6682 58.407 28.5445L57.892 27.3464ZM56.6916 28.1804C56.3495 28.5367 56.0795 28.9585 55.8957 29.4209L57.1076 29.9024C57.23 29.5943 57.4087 29.3162 57.6322 29.0835L56.6916 28.1804ZM55.8957 29.4209C55.712 29.8834 55.6178 30.3781 55.6178 30.8772L56.9218 30.8772C56.9218 30.5419 56.9851 30.2106 57.1076 29.9024L55.8957 29.4209ZM55.6178 30.8788C55.6223 32.7026 55.3677 34.5168 54.8628 36.2619L56.1154 36.6244C56.6548 34.76 56.9266 32.8227 56.9218 30.8756L55.6178 30.8788ZM54.8622 36.264C54.5861 37.23 54.6864 38.2711 55.144 39.1624L56.3041 38.5669C55.9987 37.9722 55.9302 37.2722 56.116 36.6223L54.8622 36.264ZM55.144 39.1624C55.602 40.0544 56.384 40.7296 57.3269 41.0298L57.7226 39.7873C57.1218 39.596 56.609 39.1609 56.3041 38.5669L55.144 39.1624ZM57.3409 41.0341C57.7026 41.1404 58.0769 41.1946 58.4533 41.1948L58.4542 39.8908C58.2024 39.8907 57.9515 39.8544 57.7086 39.783L57.3409 41.0341ZM45.6724 43.5445C47.5945 41.539 49.0869 39.1326 50.053 36.4847L48.828 36.0378C47.9228 38.5187 46.5259 40.7694 44.731 42.6423L45.6724 43.5445ZM50.053 36.4847C51.0191 33.8369 51.4376 31.0063 51.2815 28.1787L49.9795 28.2505C50.1259 30.9027 49.7332 33.5568 48.828 36.0378L50.053 36.4847ZM51.2815 28.1787C51.1255 25.351 50.3983 22.5888 49.1469 20.0737L47.9794 20.6546C49.1511 23.0095 49.8332 25.5983 49.9795 28.2505L51.2815 28.1787ZM49.1469 20.0737C47.8954 17.5585 46.1474 15.3464 44.0163 13.5841L43.1853 14.589C45.1733 16.2329 46.8077 18.2998 47.9794 20.6546L49.1469 20.0737ZM44.0156 13.5835C40.627 10.789 36.4358 9.25818 32.1109 9.24072L32.1056 10.5447C36.124 10.5609 40.0251 11.9829 43.186 14.5896L44.0156 13.5835ZM32.1109 9.24072C27.7859 9.22325 23.5835 10.7203 20.1742 13.4874L20.9959 14.4999C24.1759 11.9189 28.0872 10.5285 32.1056 10.5447L32.1109 9.24072ZM20.1726 13.4887C16.5163 16.4754 14.0196 20.7356 13.1334 25.483L14.4153 25.7222C15.2465 21.2691 17.5863 17.2851 20.9975 14.4986L20.1726 13.4887ZM13.1334 25.483C12.2473 30.2302 13.0295 35.1532 15.3396 39.3495L16.4819 38.7207C14.3189 34.7915 13.584 30.1756 14.4153 25.7222L13.1334 25.483ZM15.2912 38.8321L11.9313 49.0862L13.1705 49.4922L16.5304 39.2381L15.2912 38.8321ZM11.9324 49.0829C11.8763 49.2511 11.8661 49.4317 11.9031 49.6055L13.1785 49.334C13.1899 49.3878 13.1868 49.4434 13.1694 49.4955L11.9324 49.0829ZM11.9031 49.6055C11.9401 49.7795 12.0235 49.9418 12.1466 50.0736L13.0997 49.1837C13.1407 49.2276 13.167 49.2799 13.1785 49.334L11.9031 49.6055ZM12.1466 50.0736C12.2699 50.2057 12.4294 50.303 12.6094 50.3498L12.9371 49.0876C13.0029 49.1047 13.0586 49.1396 13.0997 49.1837L12.1466 50.0736ZM12.6094 50.3498C12.7899 50.3966 12.9786 50.3893 13.1535 50.3307L12.7387 49.0944C12.8016 49.0733 12.8707 49.0704 12.9371 49.0876L12.6094 50.3498ZM13.1661 50.3263L22.9891 46.8051L22.5491 45.5776L12.7261 49.0988L13.1661 50.3263ZM22.4327 46.7498C26.1032 48.9609 30.3724 49.8466 34.5776 49.2659L34.3992 47.9741C30.4928 48.5136 26.5236 47.6919 23.1055 45.6328L22.4327 46.7498ZM34.5776 49.2659C38.7826 48.6852 42.6819 46.6717 45.6729 43.544L44.7305 42.6428C41.938 45.5629 38.3059 47.4346 34.3992 47.9741L34.5776 49.2659ZM43.2946 57.984C43.2946 59.3564 42.2369 60.4196 40.9919 60.4196V61.7236C43.0105 61.7236 44.5986 60.022 44.5986 57.984H43.2946ZM40.9919 60.4196C39.7468 60.4196 38.6891 59.3564 38.6891 57.984H37.3851C37.3851 60.022 38.9732 61.7236 40.9919 61.7236V60.4196ZM38.6891 57.984C38.6891 56.6115 39.7468 55.5484 40.9919 55.5484V54.2444C38.9732 54.2444 37.3851 55.946 37.3851 57.984H38.6891ZM40.9919 55.5484C42.2369 55.5484 43.2946 56.6115 43.2946 57.984H44.5986C44.5986 55.946 43.0105 54.2444 40.9919 54.2444V55.5484ZM32.5324 35.1937V33.1284H31.2284V35.1937H32.5324ZM32.5324 33.1289C32.5331 32.3435 32.7351 31.5742 33.1154 30.9013L31.9802 30.2597C31.4881 31.1303 31.2292 32.1206 31.2284 33.1279L32.5324 33.1289ZM33.1154 30.9013C33.4956 30.2285 34.0047 29.7043 34.6906 29.3022L34.0311 28.1772C33.1446 28.6969 32.4723 29.3888 31.9802 30.2597L33.1154 30.9013ZM34.6906 29.3022C35.5792 28.7813 36.3152 28.0243 36.8256 27.1124L35.6877 26.4755C35.2879 27.1899 34.715 27.7763 34.0311 28.1772L34.6906 29.3022ZM36.8256 27.1124C37.3359 26.2006 37.6032 25.1653 37.602 24.1128L36.298 24.1142C36.299 24.9458 36.0876 25.761 35.6877 26.4755L36.8256 27.1124ZM37.6019 24.104C37.5791 22.5458 36.9761 21.0527 35.9126 19.9437L34.9714 20.8462C35.8011 21.7115 36.28 22.8866 36.2981 24.1231L37.6019 24.104ZM35.9126 19.9437C34.8483 18.8337 33.4057 18.1956 31.8895 18.1745L31.8713 19.4783C33.0298 19.4945 34.1425 19.9817 34.9714 20.8462L35.9126 19.9437ZM31.8804 18.1744C30.3561 18.1744 28.9004 18.8075 27.8317 19.9242L28.7738 20.8258C29.6028 19.9595 30.7209 19.4784 31.8804 19.4784V18.1744ZM27.8317 19.9242C26.7639 21.04 26.1687 22.5474 26.1687 24.1135H27.4727C27.4727 22.8752 27.9438 21.6931 28.7738 20.8258L27.8317 19.9242ZM26.1687 24.1135V25.2804H27.4727V24.1135H26.1687Z" fill="#093030"/>
<ellipse cx="31.4945" cy="38.6826" rx="1.97645" ry="2.06527" fill="#093030"/>
</svg>
