<svg width="35" height="35" viewBox="0 0 35 35" fill="none" xmlns="http://www.w3.org/2000/svg">
<circle cx="17.5" cy="17.5" r="17.25" stroke="#D7DCE2" stroke-width="0.5"/>
<g clip-path="url(#clip0_662_5158)">
<path d="M21.9226 17.032C21.5767 16.8675 21.2238 16.7259 20.8647 16.6072C22.0277 15.7342 22.7815 14.3441 22.7815 12.7812C22.7815 10.1449 20.6366 8 18.0002 8C15.3638 8 13.219 10.1449 13.219 12.7812C13.219 14.3458 13.9744 15.7373 15.1397 16.6102C14.072 16.9616 13.0703 17.5086 12.1935 18.2298C10.5857 19.5522 9.46784 21.3969 9.04586 23.4239C8.91361 24.059 9.07205 24.7113 9.4805 25.2136C9.88694 25.7134 10.4896 26 11.134 26H19.7932C20.1815 26 20.4963 25.6852 20.4963 25.2969C20.4963 24.9085 20.1815 24.5938 19.7932 24.5938H11.134C10.8338 24.5938 10.6527 24.4262 10.5715 24.3264C10.4313 24.1539 10.377 23.9294 10.4226 23.7104C11.1523 20.2055 14.2438 17.6453 17.8138 17.5589C17.8757 17.5613 17.9378 17.5625 18.0002 17.5625C18.0633 17.5625 18.126 17.5613 18.1885 17.5588C19.2825 17.5845 20.3347 17.8342 21.3189 18.302C21.6697 18.4687 22.0891 18.3196 22.2558 17.9688C22.4225 17.6181 22.2734 17.1987 21.9226 17.032ZM18.1717 16.1519C18.1147 16.1509 18.0575 16.1504 18.0002 16.1504C17.9435 16.1504 17.8867 16.1509 17.8301 16.152C16.0478 16.0631 14.6252 14.5852 14.6252 12.7812C14.6252 10.9203 16.1392 9.40625 18.0002 9.40625C19.8612 9.40625 21.3752 10.9203 21.3752 12.7812C21.3752 14.5847 19.9533 16.0623 18.1717 16.1519Z" fill="white"/>
<path d="M26.2969 21.957H24.3633V20.0234C24.3633 19.6351 24.0485 19.3203 23.6602 19.3203C23.2718 19.3203 22.957 19.6351 22.957 20.0234V21.957H21.0234C20.6351 21.957 20.3203 22.2718 20.3203 22.6602C20.3203 23.0485 20.6351 23.3633 21.0234 23.3633H22.957V25.2969C22.957 25.6852 23.2718 26 23.6602 26C24.0485 26 24.3633 25.6852 24.3633 25.2969V23.3633H26.2969C26.6852 23.3633 27 23.0485 27 22.6602C27 22.2718 26.6852 21.957 26.2969 21.957Z" fill="white"/>
</g>
<defs>
<clipPath id="clip0_662_5158">
<rect width="18" height="18" fill="white" transform="translate(9 8)"/>
</clipPath>
</defs>
</svg>
