<svg width="20" height="20" viewBox="0 0 20 20" fill="none" xmlns="http://www.w3.org/2000/svg">
<path d="M10 19.1666C9.68629 19.1648 9.37754 19.0882 9.0993 18.9433C8.82106 18.7984 8.58135 18.5893 8.4 18.3333L7.5 17.0083C7.45221 16.9397 7.38871 16.8834 7.31478 16.8443C7.24085 16.8051 7.15865 16.7842 7.075 16.7833H5.71667C4.47678 16.7833 3.28768 16.2908 2.41095 15.414C1.53422 14.5373 1.04167 13.3482 1.04167 12.1083V5.9333C1.04167 4.69341 1.53422 3.50431 2.41095 2.62758C3.28768 1.75084 4.47678 1.2583 5.71667 1.2583H14.2833C14.8973 1.2583 15.5052 1.37922 16.0724 1.61416C16.6396 1.8491 17.1549 2.19346 17.5891 2.62758C18.0232 3.06169 18.3675 3.57706 18.6025 4.14426C18.8374 4.71145 18.9583 5.31937 18.9583 5.9333V12.1083C18.9583 12.7222 18.8374 13.3301 18.6025 13.8973C18.3675 14.4645 18.0232 14.9799 17.5891 15.414C17.1549 15.8481 16.6396 16.1925 16.0724 16.4274C15.5052 16.6624 14.8973 16.7833 14.2833 16.7833H12.9583C12.8747 16.7842 12.7925 16.8051 12.7186 16.8443C12.6446 16.8834 12.5811 16.9397 12.5333 17.0083L11.6 18.3333C11.4187 18.5893 11.179 18.7984 10.9007 18.9433C10.6225 19.0882 10.3137 19.1648 10 19.1666ZM5.71667 2.49997C5.26619 2.49997 4.82014 2.58883 4.40405 2.76147C3.98797 2.93412 3.61003 3.18715 3.29188 3.50607C2.97373 3.825 2.72162 4.20355 2.54999 4.62005C2.37836 5.03655 2.29058 5.48282 2.29167 5.9333V12.1083C2.29167 13.0167 2.65252 13.8878 3.29483 14.5301C3.93714 15.1725 4.80831 15.5333 5.71667 15.5333H7.04167C7.32647 15.5341 7.6069 15.6034 7.85927 15.7354C8.11164 15.8674 8.32855 16.0582 8.49167 16.2916L9.41667 17.6083C9.4851 17.6981 9.57334 17.7709 9.67452 17.821C9.7757 17.8712 9.88709 17.8972 10 17.8972C10.1129 17.8972 10.2243 17.8712 10.3255 17.821C10.4267 17.7709 10.5149 17.6981 10.5833 17.6083L11.5083 16.2916C11.6715 16.0582 11.8884 15.8674 12.1407 15.7354C12.3931 15.6034 12.6735 15.5341 12.9583 15.5333H14.2833C15.1917 15.5333 16.0629 15.1725 16.7052 14.5301C17.3475 13.8878 17.7083 13.0167 17.7083 12.1083V5.9333C17.7094 5.48282 17.6217 5.03655 17.45 4.62005C17.2784 4.20355 17.0263 3.825 16.7081 3.50607C16.39 3.18715 16.012 2.93412 15.596 2.76147C15.1799 2.58883 14.7338 2.49997 14.2833 2.49997H5.71667ZM14.5917 7.39997C14.5895 7.23488 14.523 7.07716 14.4062 6.96041C14.2895 6.84367 14.1318 6.77713 13.9667 6.77497H6.03334C5.86758 6.77497 5.70861 6.84081 5.5914 6.95802C5.47419 7.07524 5.40834 7.23421 5.40834 7.39997C5.40834 7.56573 5.47419 7.7247 5.5914 7.84191C5.70861 7.95912 5.86758 8.02497 6.03334 8.02497H13.9667C14.1318 8.02281 14.2895 7.95627 14.4062 7.83952C14.523 7.72278 14.5895 7.56506 14.5917 7.39997ZM13.2667 11.5666C13.2667 11.4009 13.2008 11.2419 13.0836 11.1247C12.9664 11.0075 12.8074 10.9416 12.6417 10.9416H7.35834C7.19258 10.9416 7.03361 11.0075 6.9164 11.1247C6.79919 11.2419 6.73334 11.4009 6.73334 11.5666C6.73334 11.7324 6.79919 11.8914 6.9164 12.0086C7.03361 12.1258 7.19258 12.1916 7.35834 12.1916H12.6417C12.8074 12.1916 12.9664 12.1258 13.0836 12.0086C13.2008 11.8914 13.2667 11.7324 13.2667 11.5666Z" fill="#022150"/>
</svg>
