<svg width="20" height="20" viewBox="0 0 20 20" fill="none" xmlns="http://www.w3.org/2000/svg">
<path d="M6.9002 18.9583C6.20558 18.9518 5.53883 18.6842 5.03244 18.2086C4.52604 17.7331 4.21706 17.0845 4.16687 16.3917L3.55854 7.69167C3.55307 7.60959 3.56381 7.52724 3.59017 7.44932C3.61652 7.37139 3.65797 7.29943 3.71213 7.23752C3.7663 7.17561 3.83213 7.12498 3.90587 7.08852C3.9796 7.05206 4.0598 7.03047 4.14187 7.025C4.22395 7.01953 4.3063 7.03028 4.38422 7.05663C4.46214 7.08298 4.53411 7.12443 4.59602 7.1786C4.65792 7.23276 4.70855 7.29859 4.74502 7.37233C4.78148 7.44606 4.80307 7.52626 4.80854 7.60833L5.4002 16.3083C5.42975 16.6915 5.60363 17.0491 5.8867 17.309C6.16978 17.5688 6.54095 17.7116 6.92521 17.7083L13.2169 17.6333C13.5991 17.6296 13.9656 17.48 14.2413 17.2151C14.5169 16.9503 14.6811 16.5902 14.7002 16.2083L15.1919 7.60833C15.2047 7.44255 15.2813 7.28822 15.4057 7.17785C15.5301 7.06748 15.6924 7.00969 15.8585 7.01667C16.0229 7.02739 16.1764 7.10257 16.2856 7.22585C16.3949 7.34913 16.451 7.51054 16.4419 7.675L15.9502 16.2833C15.9083 16.9793 15.6052 17.6337 15.1015 18.1158C14.5978 18.5979 13.9307 18.872 13.2335 18.8833L6.94187 18.9583H6.9002ZM12.4835 10.7083C12.4814 10.5432 12.4148 10.3855 12.2981 10.2688C12.1813 10.152 12.0236 10.0855 11.8585 10.0833H8.14187C7.97611 10.0833 7.81714 10.1492 7.69993 10.2664C7.58272 10.3836 7.51687 10.5426 7.51687 10.7083C7.51687 10.8741 7.58272 11.0331 7.69993 11.1503C7.81714 11.2675 7.97611 11.3333 8.14187 11.3333H11.8585C11.942 11.3356 12.0251 11.321 12.1028 11.2906C12.1806 11.2602 12.2515 11.2145 12.3113 11.1563C12.3711 11.098 12.4186 11.0284 12.4511 10.9514C12.4835 10.8745 12.5002 10.7918 12.5002 10.7083H12.4835ZM11.8335 13.7917C11.8335 13.6259 11.7677 13.4669 11.6505 13.3497C11.5333 13.2325 11.3743 13.1667 11.2085 13.1667H8.79187C8.62611 13.1667 8.46714 13.2325 8.34993 13.3497C8.23272 13.4669 8.16687 13.6259 8.16687 13.7917C8.16687 13.9574 8.23272 14.1164 8.34993 14.2336C8.46714 14.3508 8.62611 14.4167 8.79187 14.4167H11.2085C11.3736 14.4145 11.5313 14.348 11.6481 14.2312C11.7648 14.1145 11.8314 13.9568 11.8335 13.7917ZM17.5002 5.43333C17.4799 5.58205 17.4061 5.71827 17.2926 5.81645C17.1791 5.91463 17.0336 5.96804 16.8835 5.96667H16.7919C12.2936 5.34846 7.73184 5.34846 3.23354 5.96667C3.15085 5.98095 3.06615 5.97866 2.98435 5.95992C2.90256 5.94119 2.8253 5.90639 2.75707 5.85754C2.68884 5.8087 2.63099 5.74678 2.5869 5.67538C2.5428 5.60399 2.51333 5.52455 2.5002 5.44167C2.47376 5.27813 2.51332 5.11078 2.6102 4.97639C2.70709 4.84201 2.85336 4.75159 3.01687 4.725C3.1252 4.725 4.2752 4.525 6.08354 4.38333L6.38354 2.81667C6.47875 2.31655 6.74574 1.86543 7.13833 1.54131C7.53092 1.21719 8.02444 1.04046 8.53354 1.04167H11.4752C11.9881 1.03922 12.4855 1.21743 12.8802 1.54504C13.2748 1.87264 13.5415 2.32874 13.6335 2.83333L13.9169 4.38333C14.9085 4.46667 15.9252 4.56667 16.9669 4.725C17.0485 4.73624 17.1271 4.76352 17.1982 4.80526C17.2692 4.847 17.3313 4.90238 17.3809 4.96822C17.4305 5.03405 17.4665 5.10904 17.487 5.18886C17.5075 5.26868 17.512 5.35177 17.5002 5.43333ZM9.63354 4.24167H12.6169L12.4002 3.05833C12.3612 2.8435 12.2481 2.64914 12.0807 2.50906C11.9132 2.36898 11.7019 2.29206 11.4835 2.29167H8.54187C8.32371 2.29135 8.11222 2.3668 7.94351 2.50511C7.7748 2.64342 7.65934 2.83602 7.61687 3.05L7.39187 4.24167H9.63354Z" fill="#022150"/>
</svg>
