<svg width="18" height="18" viewBox="0 0 18 18" fill="none" xmlns="http://www.w3.org/2000/svg">
<g clip-path="url(#clip0_662_4992)">
<path d="M12.9226 9.03196C12.5767 8.86753 12.2238 8.72589 11.8647 8.60723C13.0277 7.73423 13.7815 6.34412 13.7815 4.78125C13.7815 2.14488 11.6366 0 9.00023 0C6.36383 0 4.21898 2.14488 4.21898 4.78125C4.21898 6.34584 4.97442 7.73733 6.13967 8.61015C5.07205 8.96164 4.07027 9.50857 3.19347 10.2298C1.58571 11.5522 0.467844 13.3969 0.0458634 15.4239C-0.0863944 16.059 0.0720548 16.7113 0.4805 17.2136C0.886942 17.7134 1.48963 18 2.13397 18H10.7932C11.1815 18 11.4963 17.6852 11.4963 17.2969C11.4963 16.9085 11.1815 16.5938 10.7932 16.5938H2.13397C1.8338 16.5938 1.65271 16.4262 1.5715 16.3264C1.43127 16.1539 1.37698 15.9294 1.42258 15.7104C2.15225 12.2055 5.24375 9.64526 8.81383 9.55891C8.87567 9.56131 8.93779 9.5625 9.00023 9.5625C9.06327 9.5625 9.12602 9.56127 9.18846 9.55884C10.2825 9.58451 11.3347 9.83419 12.3189 10.302C12.6697 10.4687 13.0891 10.3196 13.2558 9.96884C13.4225 9.61812 13.2734 9.19867 12.9226 9.03196ZM9.17172 8.15193C9.11466 8.15091 9.0575 8.15038 9.00023 8.15038C8.94349 8.15038 8.88675 8.15094 8.83007 8.152C7.04783 8.06309 5.62523 6.58519 5.62523 4.78125C5.62523 2.92025 7.13923 1.40625 9.00023 1.40625C10.8612 1.40625 12.3752 2.92025 12.3752 4.78125C12.3752 6.58473 10.9533 8.06235 9.17172 8.15193Z" fill="white"/>
<path d="M17.2969 13.957H15.3633V12.0234C15.3633 11.6351 15.0485 11.3203 14.6602 11.3203C14.2718 11.3203 13.957 11.6351 13.957 12.0234V13.957H12.0234C11.6351 13.957 11.3203 14.2718 11.3203 14.6602C11.3203 15.0485 11.6351 15.3633 12.0234 15.3633H13.957V17.2969C13.957 17.6852 14.2718 18 14.6602 18C15.0485 18 15.3633 17.6852 15.3633 17.2969V15.3633H17.2969C17.6852 15.3633 18 15.0485 18 14.6602C18 14.2718 17.6852 13.957 17.2969 13.957Z" fill="white"/>
</g>
<defs>
<clipPath id="clip0_662_4992">
<rect width="18" height="18" fill="white"/>
</clipPath>
</defs>
</svg>
