<svg width="20" height="20" viewBox="0 0 20 20" fill="none" xmlns="http://www.w3.org/2000/svg">
<path d="M3.33301 13.3333L7.15467 9.51168C7.46722 9.19922 7.89107 9.0237 8.33301 9.0237C8.77495 9.0237 9.19879 9.19922 9.51134 9.51168L13.333 13.3333M11.6663 11.6667L12.988 10.345C13.3006 10.0326 13.7244 9.85703 14.1663 9.85703C14.6083 9.85703 15.0321 10.0326 15.3447 10.345L16.6663 11.6667M11.6663 6.66668H11.6747M4.99967 16.6667H14.9997C15.4417 16.6667 15.8656 16.4911 16.1782 16.1785C16.4907 15.866 16.6663 15.442 16.6663 15V5.00001C16.6663 4.55798 16.4907 4.13406 16.1782 3.8215C15.8656 3.50894 15.4417 3.33334 14.9997 3.33334H4.99967C4.55765 3.33334 4.13372 3.50894 3.82116 3.8215C3.5086 4.13406 3.33301 4.55798 3.33301 5.00001V15C3.33301 15.442 3.5086 15.866 3.82116 16.1785C4.13372 16.4911 4.55765 16.6667 4.99967 16.6667Z" stroke="white" stroke-width="1.4" stroke-linecap="round" stroke-linejoin="round"/>
</svg>
