<svg width="30" height="31" viewBox="0 0 30 31" fill="none" xmlns="http://www.w3.org/2000/svg">
<path d="M28.4987 19.089L27.9381 20.0595C27.9456 20.0638 27.9531 20.068 27.9606 20.0721L28.4987 19.089ZM24.7705 16.9355L23.6642 16.7569C23.59 17.2161 23.8072 17.6733 24.21 17.906L24.7705 16.9355ZM24.8982 15.4077L26.0189 15.4151C26.019 15.4101 26.019 15.405 26.0189 15.3999L24.8982 15.4077ZM24.7705 13.8841L24.21 12.9137C23.8072 13.1463 23.59 13.6037 23.6642 14.0629L24.7705 13.8841ZM28.4987 11.7306L29.0593 12.7011L29.0615 12.6998L28.4987 11.7306ZM28.7668 10.7348L29.7401 10.1792L29.7373 10.1743L28.7668 10.7348ZM25.9282 5.81921L26.8987 5.25875L26.8973 5.25638L25.9282 5.81921ZM24.9323 5.55109L24.3767 4.57776L24.3762 4.57803L24.9323 5.55109ZM21.2084 7.67902L20.5061 8.55241C20.8652 8.84113 21.3644 8.88067 21.7644 8.65207L21.2084 7.67902ZM18.557 6.15118H17.4363C17.4363 6.61443 17.7213 7.02994 18.1535 7.19673L18.557 6.15118ZM12.1476 1.12071L12.1476 2.24142H12.1476V1.12071ZM11.4156 1.8485L10.2949 1.84198V1.8485H11.4156ZM11.4156 6.15118L11.8202 7.19633C12.2518 7.02925 12.5364 6.61402 12.5364 6.15118H11.4156ZM8.76422 7.67902L8.20771 8.6518C8.60746 8.88049 9.10642 8.84134 9.46562 8.55311L8.76422 7.67902ZM5.04459 5.55109L5.6011 4.57831L5.60014 4.57776L5.04459 5.55109ZM4.0487 5.81921L3.07957 5.25638L3.07819 5.25875L4.0487 5.81921ZM1.21005 10.7348L0.239536 10.1743C0.234894 10.1823 0.230351 10.1904 0.22591 10.1986L1.21005 10.7348ZM1.50796 11.7306L2.06852 10.7602C2.05778 10.754 2.04694 10.7479 2.03599 10.7421L1.50796 11.7306ZM5.23611 13.8841L6.34197 14.066C6.41764 13.6058 6.20047 13.1469 5.79667 12.9137L5.23611 13.8841ZM5.10418 15.4077L3.98352 15.3968C3.98345 15.4039 3.98345 15.411 3.98351 15.4182L5.10418 15.4077ZM5.23611 16.9355L5.79667 17.906C6.20044 17.6728 6.41761 17.2139 6.34198 16.7538L5.23611 16.9355ZM1.50796 19.089L0.947399 18.1186L0.945133 18.1199L1.50796 19.089ZM1.23984 20.0849L0.266505 20.6405L0.26933 20.6453L1.23984 20.0849ZM4.0785 25.0004L3.10799 25.5609L3.10936 25.5633L4.0785 25.0004ZM5.07438 25.2686L5.62994 26.2419L5.63089 26.2413L5.07438 25.2686ZM8.79401 23.1406L9.49601 22.267C9.13679 21.9784 8.6375 21.939 8.2375 22.1679L8.79401 23.1406ZM11.4454 24.6642H12.5661C12.5661 24.2001 12.2801 23.784 11.8467 23.6178L11.4454 24.6642ZM17.8505 29.6989L17.8505 28.5782H17.8505V29.6989ZM18.5783 28.9669H17.4575L17.4576 28.9734L18.5783 28.9669ZM18.5783 24.6642L18.178 23.6174C17.7441 23.7833 17.4575 24.1997 17.4575 24.6642H18.5783ZM21.2297 23.1406L21.7857 22.1676C21.3854 21.9388 20.8859 21.9786 20.5268 22.2677L21.2297 23.1406ZM24.9536 25.2686L24.3975 26.2416L24.398 26.2419L24.9536 25.2686ZM25.9494 25.0004L26.9186 25.5633L26.9199 25.5609L25.9494 25.0004ZM28.7881 20.0849L29.7586 20.6454C29.7622 20.6391 29.7658 20.6328 29.7692 20.6265L28.7881 20.0849ZM29.0592 18.1186L25.3311 15.9651L24.21 17.906L27.9381 20.0595L29.0592 18.1186ZM25.8769 17.1142C25.9676 16.5523 26.0151 15.9843 26.0189 15.4151L23.7775 15.4002C23.7745 15.8547 23.7366 16.3082 23.6642 16.7569L25.8769 17.1142ZM26.0189 15.3999C26.015 14.8322 25.9675 14.2657 25.8769 13.7053L23.6642 14.0629C23.7365 14.5103 23.7744 14.9624 23.7776 15.4155L26.0189 15.3999ZM25.3311 14.8546L29.0592 12.7011L27.9381 10.7602L24.21 12.9137L25.3311 14.8546ZM29.0615 12.6998C29.4843 12.4542 29.793 12.0515 29.9201 11.5793L27.7557 10.9966C27.7824 10.8975 27.8472 10.813 27.9359 10.7615L29.0615 12.6998ZM29.9201 11.5793C30.0472 11.1072 29.9825 10.6039 29.7401 10.1792L27.7935 11.2903C27.7426 11.2012 27.7291 11.0956 27.7557 10.9966L29.9201 11.5793ZM29.7373 10.1743L26.8987 5.25875L24.9576 6.37966L27.7963 11.2952L29.7373 10.1743ZM26.8973 5.25638C26.6517 4.83345 26.2489 4.52493 25.7768 4.39784L25.1941 6.56219C25.0951 6.53555 25.0106 6.47084 24.959 6.38204L26.8973 5.25638ZM25.7768 4.39784C25.3048 4.27075 24.8015 4.33531 24.3767 4.57776L25.4878 6.52441C25.3986 6.57533 25.293 6.58883 25.1941 6.56219L25.7768 4.39784ZM24.3762 4.57803L20.6523 6.70597L21.7644 8.65207L25.4883 6.52414L24.3762 4.57803ZM21.9106 6.80563C21.0208 6.09016 20.0257 5.51672 18.9605 5.10563L18.1535 7.19673C19.0029 7.52456 19.7965 7.98186 20.5061 8.55241L21.9106 6.80563ZM19.6777 6.15118V1.8485H17.4363V6.15118H19.6777ZM19.6777 1.8485C19.6777 1.3583 19.483 0.888087 19.1363 0.541403L17.5514 2.12633C17.4776 2.05261 17.4363 1.95268 17.4363 1.8485H19.6777ZM19.1363 0.541403C18.7896 0.194749 18.3195 -3.48664e-06 17.8292 -3.48664e-06V2.24142C17.725 2.24142 17.6251 2.20002 17.5514 2.12633L19.1363 0.541403ZM17.8292 -3.48664e-06H12.1476V2.24142H17.8292V-3.48664e-06ZM12.1477 -3.48664e-06C11.6581 -1.17824e-05 11.1885 0.193717 10.8414 0.538836L12.4217 2.12838C12.3489 2.20078 12.2503 2.24142 12.1476 2.24142L12.1477 -3.48664e-06ZM10.8414 0.538836C10.4942 0.884041 10.2978 1.35259 10.2949 1.84198L12.5363 1.85501C12.5357 1.9576 12.4946 2.05589 12.4217 2.12838L10.8414 0.538836ZM10.2949 1.8485V6.15118H12.5364V1.8485H10.2949ZM11.0111 5.10603C9.94709 5.51787 8.9527 6.09086 8.06281 6.80493L9.46562 8.55311C10.1763 7.98285 10.9704 7.52525 11.8202 7.19633L11.0111 5.10603ZM9.32072 6.70624L5.6011 4.57831L4.48808 6.52386L8.20771 8.6518L9.32072 6.70624ZM5.60014 4.57776C5.17536 4.33531 4.67208 4.27075 4.20005 4.39784L4.78276 6.56219C4.68384 6.58883 4.57825 6.57533 4.48903 6.52441L5.60014 4.57776ZM4.20005 4.39784C3.728 4.52493 3.32519 4.83345 3.07957 5.25638L5.01784 6.38204C4.96626 6.47084 4.88172 6.53555 4.78276 6.56219L4.20005 4.39784ZM3.07819 5.25875L0.239536 10.1743L2.18055 11.2952L5.01921 6.37966L3.07819 5.25875ZM0.22591 10.1986C0.10892 10.4133 0.0355639 10.6491 0.0101455 10.8925L2.23944 11.1253C2.2341 11.1764 2.21871 11.2259 2.19418 11.2709L0.22591 10.1986ZM0.0101455 10.8925C-0.0152765 11.1358 0.00777399 11.3817 0.0778472 11.6159L2.22525 10.9736C2.23993 11.0226 2.24478 11.0742 2.23944 11.1253L0.0101455 10.8925ZM0.0778472 11.6159C0.147969 11.8503 0.263812 12.0685 0.418586 12.2577L2.15377 10.8389C2.1862 10.8786 2.21052 10.9243 2.22525 10.9736L0.0778472 11.6159ZM0.418586 12.2577C0.573394 12.4471 0.764163 12.6039 0.97993 12.7191L2.03599 10.7421C2.08128 10.7663 2.12131 10.7992 2.15377 10.8389L0.418586 12.2577ZM0.9474 12.7011L4.67555 14.8546L5.79667 12.9137L2.06852 10.7602L0.9474 12.7011ZM4.13025 13.7022C4.03811 14.2625 3.98905 14.829 3.98352 15.3968L6.22484 15.4186C6.22926 14.9654 6.26841 14.5132 6.34197 14.066L4.13025 13.7022ZM3.98351 15.4182C3.98884 15.9875 4.03789 16.5555 4.13023 17.1173L6.34198 16.7538C6.26826 16.3052 6.2291 15.8517 6.22484 15.3972L3.98351 15.4182ZM4.67555 15.9651L0.9474 18.1186L2.06852 20.0595L5.79667 17.906L4.67555 15.9651ZM0.945133 18.1199C0.522337 18.3654 0.213697 18.7682 0.0865657 19.2404L2.25092 19.8231C2.22424 19.9222 2.15946 20.0067 2.07079 20.0582L0.945133 18.1199ZM0.0865657 19.2404C-0.0405463 19.7125 0.0241139 20.2158 0.266518 20.6405L2.21316 19.5293C2.26403 19.6185 2.27758 19.724 2.25092 19.8231L0.0865657 19.2404ZM0.26933 20.6453L3.10799 25.5609L5.04901 24.44L2.21035 19.5244L0.26933 20.6453ZM3.10936 25.5633C3.35498 25.9862 3.7578 26.2947 4.22985 26.4218L4.81256 24.2575C4.91151 24.2841 4.99606 24.3488 5.04763 24.4376L3.10936 25.5633ZM4.22985 26.4218C4.70187 26.5489 5.20516 26.4843 5.62994 26.2419L4.51883 24.2952C4.60804 24.2443 4.71363 24.2308 4.81256 24.2575L4.22985 26.4218ZM5.63089 26.2413L9.35052 24.1134L8.2375 22.1679L4.51787 24.2958L5.63089 26.2413ZM8.09201 24.0142C8.98207 24.7295 9.97802 25.3018 11.0441 25.7106L11.8467 23.6178C10.9978 23.2922 10.2047 22.8365 9.49601 22.267L8.09201 24.0142ZM10.3247 24.6642V28.9669H12.5661V24.6642H10.3247ZM10.3247 28.9669C10.3247 29.2104 10.3727 29.4513 10.4657 29.6759L12.5366 28.8181C12.556 28.8651 12.5661 28.9157 12.5661 28.9669H10.3247ZM10.4657 29.6759C10.5588 29.9006 10.6952 30.1049 10.8674 30.277L12.4523 28.692C12.4884 28.7282 12.5171 28.7711 12.5366 28.8181L10.4657 29.6759ZM10.8674 30.277C11.0394 30.449 11.2437 30.5855 11.4684 30.6786L12.3262 28.6078C12.3733 28.6273 12.4162 28.6559 12.4523 28.692L10.8674 30.277ZM11.4684 30.6786C11.6932 30.7717 11.9341 30.8196 12.1774 30.8196V28.5782C12.2285 28.5782 12.279 28.5882 12.3262 28.6078L11.4684 30.6786ZM12.1774 30.8196H17.8505V28.5782H12.1774V30.8196ZM17.8505 30.8196C18.0941 30.8196 18.3354 30.7715 18.5604 30.6779L17.6996 28.6083C17.7475 28.5884 17.7988 28.5782 17.8505 28.5782L17.8505 30.8196ZM18.5604 30.6779C18.7854 30.5843 18.9896 30.4472 19.1614 30.2744L17.5719 28.6941C17.6084 28.6574 17.6518 28.6282 17.6996 28.6083L18.5604 30.6779ZM19.1614 30.2744C19.3331 30.1016 19.4691 29.8966 19.5614 29.671L17.4868 28.8224C17.5065 28.7744 17.5354 28.7308 17.5719 28.6941L19.1614 30.2744ZM19.5614 29.671C19.6537 29.4454 19.7004 29.2039 19.6989 28.9603L17.4576 28.9734C17.4573 28.9217 17.4672 28.8704 17.4868 28.8224L19.5614 29.671ZM19.699 28.9669V24.6642H17.4575V28.9669H19.699ZM18.9785 25.711C20.0458 25.3029 21.0426 24.7302 21.9326 24.0135L20.5268 22.2677C19.8192 22.8375 19.0266 23.2929 18.178 23.6174L18.9785 25.711ZM20.6736 24.1137L24.3975 26.2416L25.5096 24.2955L21.7857 22.1676L20.6736 24.1137ZM24.398 26.2419C24.8228 26.4843 25.326 26.5489 25.7981 26.4218L25.2154 24.2575C25.3143 24.2308 25.4199 24.2443 25.5091 24.2952L24.398 26.2419ZM25.7981 26.4218C26.2701 26.2947 26.6729 25.9862 26.9186 25.5633L24.9803 24.4376C25.0319 24.3488 25.1164 24.2841 25.2154 24.2575L25.7981 26.4218ZM26.9199 25.5609L29.7586 20.6454L27.8176 19.5244L24.9789 24.44L26.9199 25.5609ZM29.7692 20.6265C29.8871 20.413 29.9616 20.1784 29.9886 19.936L27.7609 19.6881C27.7666 19.6372 27.7822 19.588 27.8069 19.5433L29.7692 20.6265ZM29.9886 19.936C30.0156 19.6935 29.9944 19.4482 29.9264 19.2141L27.774 19.8396C27.7597 19.7906 27.7553 19.7391 27.7609 19.6881L29.9886 19.936ZM29.9264 19.2141C29.8583 18.9801 29.7448 18.7616 29.592 18.5713L27.8441 19.9745C27.812 19.9345 27.7882 19.8886 27.774 19.8396L29.9264 19.2141ZM29.592 18.5713C29.4393 18.381 29.2505 18.2229 29.0368 18.1059L27.9606 20.0721C27.9159 20.0477 27.8763 20.0145 27.8441 19.9745L29.592 18.5713ZM17.7512 15.4077C17.7512 16.9324 16.5152 18.1683 14.9905 18.1683V20.4098C17.7531 20.4098 19.9926 18.1703 19.9926 15.4077H17.7512ZM14.9905 18.1683C13.4659 18.1683 12.2299 16.9324 12.2299 15.4077H9.98848C9.98848 18.1703 12.228 20.4098 14.9905 20.4098V18.1683ZM12.2299 15.4077C12.2299 13.883 13.4659 12.647 14.9905 12.647V10.4056C12.228 10.4056 9.98848 12.6451 9.98848 15.4077H12.2299ZM14.9905 12.647C16.5152 12.647 17.7512 13.883 17.7512 15.4077H19.9926C19.9926 12.6451 17.7531 10.4056 14.9905 10.4056V12.647Z" fill="#F1FFF3"/>
</svg>
