<svg width="17" height="17" viewBox="0 0 17 17" fill="none" xmlns="http://www.w3.org/2000/svg">
<g clip-path="url(#clip0_669_8020)">
<path d="M14.4925 16.1147C14.0923 16.1096 13.7084 15.9556 13.4158 15.6826L11.3758 13.7488C10.1986 14.4456 8.84174 14.779 7.47565 14.7072C6.10957 14.6353 4.79516 14.1615 3.69749 13.3451C2.96746 12.8041 2.35147 12.1242 1.88492 11.3445C1.41837 10.5648 1.11043 9.70056 0.978801 8.8015C0.847167 7.90245 0.894427 6.98624 1.11787 6.1055C1.34131 5.22475 1.73652 4.39682 2.28083 3.66924C3.35026 2.22157 4.94114 1.24696 6.71661 0.951751C8.49208 0.656547 10.3127 1.06394 11.7931 2.08766C13.2734 3.11138 14.2972 4.67106 14.6477 6.43645C14.9982 8.20184 14.6478 10.0343 13.6708 11.5459L15.6187 13.3663C15.915 13.6649 16.0813 14.0684 16.0813 14.489C16.0813 14.9097 15.915 15.3132 15.6187 15.6117C15.4757 15.7685 15.3018 15.894 15.108 15.9805C14.9142 16.0671 14.7047 16.1127 14.4925 16.1147ZM11.4962 12.403L14.1667 14.8751C14.2638 14.9687 14.393 15.0219 14.5279 15.0238C14.6584 15.0205 14.7826 14.9672 14.875 14.8751C14.9621 14.7777 15.0103 14.6516 15.0103 14.5209C15.0103 14.3902 14.9621 14.2641 14.875 14.1667L12.2612 11.7159L12.5446 11.3334C13.4764 10.0851 13.8741 8.5177 13.6503 6.97612C13.4264 5.43453 12.5994 4.045 11.351 3.1132C10.1027 2.18141 8.53533 1.78368 6.99374 2.00751C5.45215 2.23135 4.06262 3.0584 3.13083 4.30674C2.66987 4.92227 2.33509 5.62281 2.14572 6.36813C1.95635 7.11344 1.91613 7.88883 2.02737 8.64973C2.13861 9.41064 2.39912 10.1421 2.79392 10.802C3.18872 11.4619 3.71004 12.0373 4.32791 12.4951C5.30785 13.2246 6.49093 13.6303 7.71234 13.6557C8.93374 13.6811 10.1327 13.3249 11.1421 12.6367L11.4962 12.403ZM7.79166 12.8067C7.12657 12.8067 6.46799 12.6757 5.85353 12.4212C5.23906 12.1667 4.68075 11.7937 4.21046 11.3234C3.74017 10.8531 3.36711 10.2948 3.1126 9.68029C2.85808 9.06583 2.72708 8.40725 2.72708 7.74216C2.72708 7.07707 2.85808 6.41849 3.1126 5.80403C3.36711 5.18957 3.74017 4.63125 4.21046 4.16096C4.68075 3.69067 5.23906 3.31762 5.85353 3.0631C6.46799 2.80858 7.12657 2.67758 7.79166 2.67758C8.45675 2.67758 9.11533 2.80858 9.72979 3.0631C10.3443 3.31762 10.9026 3.69067 11.3729 4.16096C11.8432 4.63125 12.2162 5.18957 12.4707 5.80403C12.7252 6.41849 12.8562 7.07707 12.8562 7.74216C12.8562 8.40725 12.7252 9.06583 12.4707 9.68029C12.2162 10.2948 11.8432 10.8531 11.3729 11.3234C10.9026 11.7937 10.3443 12.1667 9.72979 12.4212C9.11533 12.6757 8.45675 12.8067 7.79166 12.8067ZM7.79166 3.74008C6.73024 3.74008 5.7123 4.16172 4.96176 4.91226C4.21122 5.6628 3.78958 6.68074 3.78958 7.74216C3.78958 8.80358 4.21122 9.82153 4.96176 10.5721C5.7123 11.3226 6.73024 11.7442 7.79166 11.7442C8.85308 11.7442 9.87102 11.3226 10.6216 10.5721C11.3721 9.82153 11.7937 8.80358 11.7937 7.74216C11.7937 6.68074 11.3721 5.6628 10.6216 4.91226C9.87102 4.16172 8.85308 3.74008 7.79166 3.74008Z" fill="white"/>
</g>
<defs>
<clipPath id="clip0_669_8020">
<rect width="17" height="17" fill="white"/>
</clipPath>
</defs>
</svg>
