<svg width="18" height="21" viewBox="0 0 18 21" fill="none" xmlns="http://www.w3.org/2000/svg">
<path fill-rule="evenodd" clip-rule="evenodd" d="M8.64164 1.01307L9.22654 0L9.81144 1.01307L11.9538 4.72367L16.3769 4.70178L17.5467 4.69599L16.9668 5.71195L14.7583 9.58129L17.4151 14.183L18 15.1961H16.8302H11.5535L9.42842 18.9193L8.84854 19.9353L8.25864 18.9251L6.08099 15.1961H1.62288H0.453089L1.03799 14.183L3.25101 10.3499L0.589903 5.79299L0 4.78282L1.16978 4.77704L6.4837 4.75074L8.64164 1.01307ZM5.89712 5.76672L1.75968 5.7872L3.83424 9.33973L5.89712 5.76672ZM4.42247 10.347L7.07026 5.76092L11.3705 5.73964L13.5902 9.58418L10.9653 14.183H6.66255L4.42247 10.347ZM3.83924 11.3572L2.20778 14.183H5.48939L3.83924 11.3572ZM7.25415 15.1961L8.83851 17.9092L10.3871 15.1961H7.25415ZM12.1318 14.183H16.2453L14.1768 10.6002L12.1318 14.183ZM14.1717 8.5653L15.797 5.71773L12.537 5.73387L14.1717 8.5653ZM10.7873 4.72944L7.65684 4.74493L9.22654 2.02614L10.7873 4.72944Z" fill="black"/>
</svg>
