<svg width="20" height="20" viewBox="0 0 20 20" fill="none" xmlns="http://www.w3.org/2000/svg">
<path d="M9.99996 18.9587C8.22817 18.9587 6.49617 18.4333 5.02298 17.4489C3.54979 16.4646 2.40158 15.0655 1.72354 13.4285C1.04551 11.7916 0.868103 9.99039 1.21376 8.25265C1.55942 6.5149 2.41262 4.91868 3.66547 3.66583C4.91831 2.41299 6.51453 1.55979 8.25228 1.21413C9.99003 0.868469 11.7912 1.04587 13.4282 1.72391C15.0651 2.40194 16.4642 3.55016 17.4485 5.02335C18.4329 6.49654 18.9583 8.22854 18.9583 10.0003C18.9561 12.3756 18.0116 14.6529 16.332 16.3324C14.6525 18.0119 12.3752 18.9565 9.99996 18.9587ZM9.99996 2.292C8.4754 2.292 6.98507 2.74408 5.71744 3.59108C4.44981 4.43809 3.46182 5.64196 2.87839 7.05048C2.29497 8.45899 2.14232 10.0089 2.43974 11.5042C2.73717 12.9994 3.47132 14.3729 4.54935 15.4509C5.62738 16.529 7.00087 17.2631 8.49614 17.5606C9.99141 17.858 11.5413 17.7053 12.9498 17.1219C14.3583 16.5385 15.5622 15.5505 16.4092 14.2829C17.2562 13.0152 17.7083 11.5249 17.7083 10.0003C17.7061 7.95663 16.8933 5.99727 15.4481 4.55215C14.003 3.10704 12.0437 2.2942 9.99996 2.292Z" fill="#022150"/>
<path d="M9.99997 12.5004C9.83421 12.5004 9.67523 12.4346 9.55802 12.3174C9.44081 12.2001 9.37497 12.0412 9.37497 11.8754V11.1921C9.36719 10.7744 9.47718 10.3629 9.69235 10.0048C9.90752 9.64665 10.2192 9.35635 10.5916 9.16708C10.81 9.06144 10.996 8.89926 11.1305 8.69741C11.2649 8.49555 11.3429 8.26137 11.3562 8.0192C11.3696 7.77703 11.3179 7.5357 11.2064 7.32027C11.095 7.10485 10.9279 6.9232 10.7225 6.79418C10.5172 6.66516 10.281 6.59348 10.0385 6.5866C9.79609 6.57971 9.55623 6.63786 9.34386 6.75501C9.13149 6.87217 8.95436 7.04404 8.83087 7.25279C8.70739 7.46154 8.64204 7.69955 8.64163 7.94208C8.64163 8.10784 8.57578 8.26682 8.45857 8.38403C8.34136 8.50124 8.18239 8.56708 8.01663 8.56708C7.85087 8.56708 7.6919 8.50124 7.57469 8.38403C7.45748 8.26682 7.39163 8.10784 7.39163 7.94208C7.39302 7.56046 7.47788 7.18375 7.64024 6.83838C7.8026 6.49301 8.03855 6.18734 8.33153 5.94279C8.62451 5.69824 8.96744 5.52074 9.33627 5.42273C9.7051 5.32472 10.0909 5.30857 10.4666 5.37542C10.9912 5.4741 11.4732 5.73036 11.8484 6.11003C12.2236 6.48969 12.4742 6.97471 12.5666 7.50042C12.6718 8.06225 12.5882 8.64309 12.329 9.15251C12.0697 9.66193 11.6494 10.0714 11.1333 10.3171C10.9753 10.4031 10.8442 10.5311 10.7545 10.687C10.6648 10.8429 10.62 11.0206 10.625 11.2004V11.8838C10.6228 12.0481 10.556 12.2049 10.439 12.3203C10.322 12.4357 10.1643 12.5004 9.99997 12.5004Z" fill="#022150"/>
<path d="M9.99991 14.6592C10.3451 14.6592 10.6249 14.3794 10.6249 14.0342C10.6249 13.689 10.3451 13.4092 9.99991 13.4092C9.65473 13.4092 9.37491 13.689 9.37491 14.0342C9.37491 14.3794 9.65473 14.6592 9.99991 14.6592Z" fill="#022150"/>
</svg>
