<svg width="26" height="11" viewBox="0 0 26 11" fill="none" xmlns="http://www.w3.org/2000/svg">
<path d="M3.31583 0.32982C3.0421 -0.0346995 2.5247 -0.108299 2.16018 0.165431C1.79566 0.439162 1.72206 0.956565 1.99579 1.32108L3.31583 0.32982ZM22.8328 1.49848L22.2001 0.968328L22.1971 0.971978L22.8328 1.49848ZM24.0198 1.32379C24.295 0.960398 24.2235 0.442696 23.8601 0.167472C23.4967 -0.107753 22.979 -0.0362783 22.7038 0.327114L24.0198 1.32379ZM13.8324 6.54439C13.8324 6.08854 13.4629 5.719 13.007 5.719C12.5512 5.719 12.1816 6.08854 12.1816 6.54439H13.8324ZM12.1816 9.90481C12.1816 10.3607 12.5512 10.7302 13.007 10.7302C13.4629 10.7302 13.8324 10.3607 13.8324 9.90481H12.1816ZM19.3303 4.65856C19.1065 4.26141 18.6032 4.12085 18.206 4.34461C17.8088 4.56838 17.6683 5.07174 17.8921 5.46889L19.3303 4.65856ZM19.7225 8.71763C19.9462 9.11478 20.4496 9.25534 20.8468 9.03157C21.2439 8.80781 21.3845 8.30445 21.1607 7.9073L19.7225 8.71763ZM23.3921 0.894745C23.0586 0.583901 22.5364 0.602214 22.2255 0.935649C21.9147 1.26908 21.933 1.79137 22.2664 2.10222L23.3921 0.894745ZM24.6118 4.28866C24.9452 4.5995 25.4675 4.58119 25.7783 4.24775C26.0892 3.91432 26.0709 3.39203 25.7374 3.08118L24.6118 4.28866ZM8.11145 5.46889C8.33522 5.07174 8.19466 4.56838 7.7975 4.34461C7.40035 4.12085 6.897 4.2614 6.67323 4.65856L8.11145 5.46889ZM4.84281 7.9073C4.61904 8.30445 4.7596 8.80781 5.15675 9.03157C5.55391 9.25534 6.05726 9.11478 6.28103 8.71763L4.84281 7.9073ZM3.73356 2.10222C4.067 1.79137 4.08531 1.26908 3.77447 0.935649C3.46362 0.602214 2.94133 0.583901 2.6079 0.894745L3.73356 2.10222ZM0.262558 3.08118C-0.070877 3.39203 -0.0891902 3.91432 0.221654 4.24775C0.532498 4.58119 1.05479 4.5995 1.38822 4.28866L0.262558 3.08118ZM1.99579 1.32108C4.89834 5.18633 8.72475 7.24227 12.6434 7.36348C16.5632 7.48473 20.4527 5.66599 23.4684 2.02498L22.1971 0.971978C19.4606 4.27591 16.0372 5.81688 12.6944 5.71348C9.35045 5.61004 5.96451 3.857 3.31583 0.32982L1.99579 1.32108ZM23.4654 2.02862C23.6595 1.79698 23.843 1.55717 24.0198 1.32379L22.7038 0.327114C22.5279 0.559403 22.3658 0.770692 22.2001 0.968337L23.4654 2.02862ZM12.1816 6.54439V9.90481H13.8324V6.54439H12.1816ZM17.8921 5.46889L19.7225 8.71763L21.1607 7.9073L19.3303 4.65856L17.8921 5.46889ZM22.2664 2.10222L24.6118 4.28866L25.7374 3.08118L23.3921 0.894745L22.2664 2.10222ZM6.67323 4.65856L4.84281 7.9073L6.28103 8.71763L8.11145 5.46889L6.67323 4.65856ZM2.6079 0.894745L0.262558 3.08118L1.38822 4.28866L3.73356 2.10222L2.6079 0.894745Z" fill="#0E3E3E"/>
</svg>
