<svg width="21" height="21" viewBox="0 0 21 21" fill="none" xmlns="http://www.w3.org/2000/svg">
<path d="M10.1977 19.075C9.85376 19.0707 9.51435 18.9963 9.20018 18.8563C7.15268 17.92 0.45018 14.3763 0.56393 7.92755C0.562895 6.60687 0.999356 5.32304 1.80512 4.27665C2.61089 3.23026 3.74058 2.48025 5.01768 2.1438C5.87193 1.91565 6.76433 1.86785 7.63806 2.00343C8.5118 2.13901 9.34774 2.455 10.0927 2.9313C10.1057 2.9436 10.1229 2.95046 10.1408 2.95046C10.1587 2.95046 10.1759 2.9436 10.1889 2.9313C10.999 2.40985 11.9172 2.07976 12.8738 1.96605C13.8305 1.85234 14.8005 1.95801 15.7102 2.27505C16.8691 2.68803 17.8736 3.44617 18.5885 4.4474C19.3035 5.44862 19.6945 6.64485 19.7089 7.87505C19.5864 15.0938 13.0502 18.1388 11.0552 18.9088C10.7817 19.0155 10.4912 19.0718 10.1977 19.075ZM6.69768 3.2463C6.24623 3.24552 5.79647 3.30137 5.35893 3.41255C4.35392 3.67307 3.4643 4.2609 2.83051 5.08323C2.19673 5.90557 1.85488 6.91557 1.85893 7.9538C1.76268 13.5975 7.86143 16.8088 9.73393 17.6575C9.87165 17.7188 10.0207 17.7505 10.1714 17.7505C10.3222 17.7505 10.4712 17.7188 10.6089 17.6575C12.4202 16.975 18.3177 14.2363 18.4227 7.84005C18.402 6.88682 18.0934 5.96215 17.5374 5.18756C16.9814 4.41298 16.2042 3.8247 15.3077 3.50005C14.5866 3.25118 13.8187 3.16836 13.0611 3.25775C12.3036 3.34714 11.576 3.60644 10.9327 4.0163C10.7077 4.16349 10.4447 4.24188 10.1758 4.24188C9.90695 4.24188 9.64392 4.16349 9.41893 4.0163C8.60118 3.49683 7.64882 3.22907 6.68018 3.2463H6.69768Z" fill="#4B39EF"/>
</svg>
