<svg width="36" height="36" viewBox="0 0 36 36" fill="none" xmlns="http://www.w3.org/2000/svg">
<path d="M25.5 34.5H10.5C8.90922 34.4983 7.38408 33.8656 6.25923 32.7408C5.13438 31.6159 4.5017 30.0908 4.5 28.5V19.5C4.5017 17.9092 5.13438 16.3841 6.25923 15.2592C7.38408 14.1344 8.90922 13.5017 10.5 13.5H25.5C27.0908 13.5017 28.6159 14.1344 29.7408 15.2592C30.8656 16.3841 31.4983 17.9092 31.5 19.5V28.5C31.4983 30.0908 30.8656 31.6159 29.7408 32.7408C28.6159 33.8656 27.0908 34.4983 25.5 34.5ZM10.5 16.5C9.70463 16.5009 8.9421 16.8173 8.37968 17.3797C7.81727 17.9421 7.50091 18.7046 7.5 19.5V28.5C7.50091 29.2954 7.81727 30.0579 8.37968 30.6203C8.9421 31.1827 9.70463 31.4991 10.5 31.5H25.5C26.2954 31.4991 27.0579 31.1827 27.6203 30.6203C28.1827 30.0579 28.4991 29.2954 28.5 28.5V19.5C28.4991 18.7046 28.1827 17.9421 27.6203 17.3797C27.0579 16.8173 26.2954 16.5009 25.5 16.5H10.5Z" fill="#4B39EF"/>
<path d="M24.75 16.5H11.25C11.053 16.5001 10.8579 16.4613 10.6759 16.3859C10.4939 16.3106 10.3285 16.2001 10.1892 16.0608C10.0499 15.9215 9.93944 15.7561 9.86408 15.5741C9.78871 15.3921 9.74995 15.197 9.75 15V9.75C9.75 7.56196 10.6192 5.46354 12.1664 3.91637C13.7135 2.36919 15.812 1.5 18 1.5C20.188 1.5 22.2865 2.36919 23.8336 3.91637C25.3808 5.46354 26.25 7.56196 26.25 9.75V15C26.2501 15.197 26.2113 15.3921 26.1359 15.5741C26.0606 15.7561 25.9501 15.9215 25.8108 16.0608C25.6715 16.2001 25.5061 16.3106 25.3241 16.3859C25.1421 16.4613 24.947 16.5001 24.75 16.5ZM12.75 13.5H23.25V9.75C23.25 8.35761 22.6969 7.02226 21.7123 6.03769C20.7277 5.05312 19.3924 4.5 18 4.5C16.6076 4.5 15.2723 5.05312 14.2877 6.03769C13.3031 7.02226 12.75 8.35761 12.75 9.75V13.5Z" fill="#4B39EF"/>
<path d="M18 24.75C19.2426 24.75 20.25 23.7426 20.25 22.5C20.25 21.2574 19.2426 20.25 18 20.25C16.7574 20.25 15.75 21.2574 15.75 22.5C15.75 23.7426 16.7574 24.75 18 24.75Z" fill="#4B39EF"/>
</svg>
