<svg width="21" height="21" viewBox="0 0 21 21" fill="none" xmlns="http://www.w3.org/2000/svg">
<path d="M11.1094 19.0485C12.1157 18.66 14.2678 17.6979 16.186 15.9201C18.1069 14.1397 19.7966 11.5373 19.8587 7.87751L19.8587 7.87752L19.8587 7.87321C19.8439 6.61236 19.4431 5.38632 18.7104 4.36015C17.9776 3.33398 16.9481 2.55695 15.7603 2.13367L15.7593 2.13332C14.8281 1.8088 13.8351 1.70063 12.8559 1.81702C11.8896 1.93188 10.9616 2.26242 10.1405 2.78402C9.38626 2.30812 8.54233 1.99191 7.66082 1.85513C6.76659 1.71637 5.85326 1.76527 4.97897 1.99874C3.66991 2.34367 2.51197 3.11247 1.68603 4.18506C0.860323 5.25735 0.41293 6.57286 0.413685 7.9262C0.356291 11.2074 2.0338 13.7428 3.9684 15.5681C5.90281 17.3933 8.10703 18.5214 9.13756 18.9926L9.13888 18.9932C9.47168 19.1415 9.83123 19.2204 10.1956 19.225L10.1956 19.225L10.1991 19.225C10.5107 19.2215 10.8191 19.1618 11.1094 19.0485ZM11.1094 19.0485C11.1092 19.0485 11.1091 19.0486 11.1089 19.0487L11.0549 18.9087M11.1094 19.0485C11.1094 19.0485 11.1094 19.0485 11.1095 19.0485L11.0549 18.9087M11.0549 18.9087C10.7815 19.0154 10.491 19.0717 10.1974 19.075M11.0549 18.9087C13.0499 18.1387 19.5862 15.0937 19.7087 7.87497C19.6942 6.64478 19.3032 5.44854 18.5883 4.44732C17.8734 3.4461 16.8688 2.68796 15.7099 2.27497C14.8002 1.95794 13.8302 1.85227 12.8736 1.96597C11.9169 2.07968 10.9988 2.40978 10.1887 2.93122C10.1757 2.94353 10.1585 2.95039 10.1406 2.95039C10.1227 2.95039 10.1054 2.94353 10.0924 2.93122C9.3475 2.45492 8.51155 2.13893 7.63782 2.00335C6.76408 1.86777 5.87169 1.91558 5.01744 2.14372C3.74033 2.48017 2.61065 3.23018 1.80488 4.27657C0.999112 5.32296 0.56265 6.60679 0.563686 7.92747L10.1974 19.075M10.1974 19.075C9.85352 19.0706 9.5141 18.9962 9.19994 18.8562L10.1974 19.075ZM6.69744 3.39622V3.39595C7.63125 3.38224 8.54885 3.64159 9.33743 4.14231C9.58664 4.30511 9.87787 4.39181 10.1756 4.39181C10.4733 4.39181 10.7645 4.30509 11.0137 4.14227C11.6379 3.74481 12.3436 3.49335 13.0785 3.40664C13.8132 3.31994 14.558 3.40019 15.2574 3.64139C16.125 3.95582 16.8772 4.52526 17.4153 5.27495C17.9531 6.02418 18.2518 6.91842 18.2724 7.84038C18.2199 10.9857 16.7455 13.2319 15.0541 14.7808C13.3598 16.3323 11.4522 17.1793 10.5558 17.5171L10.5557 17.5169L10.5477 17.5204C10.4292 17.5732 10.3009 17.6004 10.1712 17.6004C10.0416 17.6004 9.91354 17.5732 9.79515 17.5206C8.86551 17.0992 6.88937 16.0922 5.15972 14.4936C3.42966 12.8946 1.96155 10.7188 2.0087 7.95628L2.00869 7.95313C2.00476 6.94824 2.33564 5.97066 2.94908 5.17472C3.56244 4.37888 4.42337 3.80996 5.39598 3.55776C5.81568 3.45115 6.24695 3.3969 6.67994 3.39622H6.69744Z" fill="#969AA8" stroke="#969AA8" stroke-width="0.3"/>
</svg>
