<svg width="20" height="20" viewBox="0 0 20 20" fill="none" xmlns="http://www.w3.org/2000/svg">
<path d="M10.0002 10.5583C9.05767 10.5583 8.13638 10.2784 7.35317 9.75404C6.56996 9.22969 5.96011 8.48457 5.60097 7.61315C5.24182 6.74174 5.14956 5.78329 5.33588 4.85937C5.5222 3.93544 5.9787 3.08766 6.64751 2.42354C7.31631 1.75943 8.16728 1.30889 9.09249 1.12907C10.0177 0.949249 10.9755 1.04825 11.8443 1.41351C12.7132 1.77878 13.454 2.39385 13.9729 3.18072C14.4917 3.9676 14.7651 4.89083 14.7585 5.83333C14.7497 7.08954 14.2445 8.29129 13.3531 9.17645C12.4617 10.0616 11.2564 10.5584 10.0002 10.5583ZM10.0002 2.29167C9.30774 2.2917 8.63077 2.49664 8.05458 2.88069C7.47838 3.26474 7.02872 3.81071 6.76223 4.44983C6.49574 5.08896 6.42434 5.79265 6.55703 6.47227C6.68972 7.1519 7.02056 7.77706 7.50788 8.26901C7.9952 8.76096 8.61721 9.0977 9.29555 9.23681C9.97389 9.37592 10.6782 9.31118 11.3198 9.05075C11.9615 8.79031 12.5117 8.34583 12.9011 7.77329C13.2906 7.20075 13.5019 6.52576 13.5085 5.83333C13.5118 5.37012 13.4236 4.91082 13.2488 4.48181C13.0741 4.0528 12.8163 3.66254 12.4903 3.33345C12.1643 3.00435 11.7765 2.74291 11.3492 2.56413C10.9219 2.38535 10.4634 2.29275 10.0002 2.29167ZM16.4169 18.9583H3.58353C3.33999 18.9608 3.09887 18.9098 2.87715 18.809C2.65543 18.7082 2.45849 18.5601 2.30019 18.375C2.16251 18.2152 2.06135 18.0272 2.00378 17.8243C1.94621 17.6214 1.93361 17.4083 1.96686 17.2C2.55019 13.7417 6.00853 11.1333 10.0002 11.1333C13.9919 11.1333 17.4502 13.7417 18.0335 17.2C18.0668 17.4083 18.0542 17.6214 17.9966 17.8243C17.939 18.0272 17.8379 18.2152 17.7002 18.375C17.5419 18.5601 17.345 18.7082 17.1232 18.809C16.9015 18.9098 16.6604 18.9608 16.4169 18.9583ZM10.0002 12.3833C6.60853 12.3833 3.68353 14.5417 3.20019 17.3833C3.1967 17.4118 3.19936 17.4406 3.20799 17.4679C3.21661 17.4952 3.23101 17.5204 3.25019 17.5417C3.29189 17.5884 3.34339 17.6253 3.40101 17.6498C3.45864 17.6743 3.52096 17.6857 3.58353 17.6833H16.4169C16.4794 17.6857 16.5417 17.6743 16.5994 17.6498C16.657 17.6253 16.7085 17.5884 16.7502 17.5417C16.7694 17.5204 16.7838 17.4952 16.7924 17.4679C16.801 17.4406 16.8037 17.4118 16.8002 17.3833C16.3169 14.5417 13.3919 12.3833 10.0002 12.3833Z" fill="#022150"/>
</svg>
