<svg width="20" height="20" viewBox="0 0 20 20" fill="none" xmlns="http://www.w3.org/2000/svg">
<path d="M9.99984 18.9583C8.22805 18.9583 6.49605 18.4329 5.02286 17.4486C3.54967 16.4642 2.40146 15.0651 1.72342 13.4282C1.04539 11.7913 0.867981 9.99006 1.21364 8.25232C1.5593 6.51457 2.4125 4.91835 3.66534 3.6655C4.91819 2.41266 6.51441 1.55946 8.25216 1.2138C9.9899 0.868141 11.7911 1.04555 13.428 1.72358C15.065 2.40162 16.4641 3.54983 17.4484 5.02302C18.4328 6.49621 18.9582 8.22821 18.9582 10C18.956 12.3752 18.0114 14.6525 16.3319 16.3321C14.6524 18.0116 12.3751 18.9561 9.99984 18.9583ZM9.99984 2.29167C8.47528 2.29167 6.98495 2.74375 5.71732 3.59076C4.44969 4.43776 3.4617 5.64164 2.87827 7.05015C2.29484 8.45866 2.14219 10.0086 2.43962 11.5038C2.73705 12.9991 3.4712 14.3726 4.54923 15.4506C5.62726 16.5286 7.00075 17.2628 8.49602 17.5602C9.99129 17.8577 11.5412 17.705 12.9497 17.1216C14.3582 16.5381 15.5621 15.5502 16.4091 14.2825C17.2561 13.0149 17.7082 11.5246 17.7082 10C17.706 7.9563 16.8931 5.99694 15.448 4.55182C14.0029 3.10671 12.0435 2.29387 9.99984 2.29167Z" fill="#022150"/>
<path d="M9.99984 11.1667C10.2209 11.1667 10.4328 11.0789 10.5891 10.9226C10.7454 10.7663 10.8332 10.5543 10.8332 10.3333V6.44999C10.8332 6.22897 10.7454 6.01701 10.5891 5.86073C10.4328 5.70445 10.2209 5.61665 9.99984 5.61665C9.77882 5.61665 9.56686 5.70445 9.41058 5.86073C9.2543 6.01701 9.1665 6.22897 9.1665 6.44999V10.3333C9.1665 10.5543 9.2543 10.7663 9.41058 10.9226C9.56686 11.0789 9.77882 11.1667 9.99984 11.1667Z" fill="#022150"/>
<path d="M9.99967 14.3833C10.575 14.3833 11.0413 13.917 11.0413 13.3417C11.0413 12.7664 10.575 12.3 9.99967 12.3C9.42438 12.3 8.95801 12.7664 8.95801 13.3417C8.95801 13.917 9.42438 14.3833 9.99967 14.3833Z" fill="#022150"/>
</svg>
