<svg width="40" height="44" viewBox="0 0 40 44" fill="none" xmlns="http://www.w3.org/2000/svg">
<mask id="path-1-outside-1_661_6909" maskUnits="userSpaceOnUse" x="-0.507279" y="-0.509393" width="40.7515" height="43.8078" fill="black">
<rect fill="white" x="-0.507279" y="-0.509393" width="40.7515" height="43.8078"/>
<path fill-rule="evenodd" clip-rule="evenodd" d="M15.6401 10.1229L20.5056 2.00928L25.3432 10.0767L15.6401 10.1229ZM14.4488 10.1286L20.0687 0.756816C20.2665 0.42692 20.7446 0.426919 20.9424 0.756815L26.5278 10.0711L37.9666 10.0166C38.3679 10.0146 38.6252 10.4388 38.4262 10.7744L32.7208 20.3986L39.4165 31.5645C39.6201 31.904 39.3755 32.3359 38.9796 32.3359H25.6441L20.1103 41.6705C19.9141 42.0014 19.4199 41.998 19.2175 41.6643L13.5596 32.3359H2.03148C1.63558 32.3359 1.39101 31.904 1.59461 31.5645L7.31041 22.0328L0.584889 10.9443C0.382472 10.6105 0.622201 10.1945 1.018 10.1926L14.4488 10.1286ZM7.90246 21.0454L1.92628 11.1924L13.845 11.1356L7.90246 21.0454ZM8.4998 22.0303L15.0363 11.1299L25.9437 11.078L31.5264 20.3878L25.0472 31.3171H14.1325L8.4998 22.0303ZM7.90775 23.0176L2.9309 31.3171H12.9416L7.90775 23.0176ZM14.7505 32.3359L19.6522 40.4175L24.4432 32.3359H14.7505ZM26.248 31.3171H38.0802L32.1302 21.3948L26.248 31.3171ZM32.1169 19.3916L37.0769 11.0249L27.1282 11.0723L32.1169 19.3916Z"/>
</mask>
<path fill-rule="evenodd" clip-rule="evenodd" d="M15.6401 10.1229L20.5056 2.00928L25.3432 10.0767L15.6401 10.1229ZM14.4488 10.1286L20.0687 0.756816C20.2665 0.42692 20.7446 0.426919 20.9424 0.756815L26.5278 10.0711L37.9666 10.0166C38.3679 10.0146 38.6252 10.4388 38.4262 10.7744L32.7208 20.3986L39.4165 31.5645C39.6201 31.904 39.3755 32.3359 38.9796 32.3359H25.6441L20.1103 41.6705C19.9141 42.0014 19.4199 41.998 19.2175 41.6643L13.5596 32.3359H2.03148C1.63558 32.3359 1.39101 31.904 1.59461 31.5645L7.31041 22.0328L0.584889 10.9443C0.382472 10.6105 0.622201 10.1945 1.018 10.1926L14.4488 10.1286ZM7.90246 21.0454L1.92628 11.1924L13.845 11.1356L7.90246 21.0454ZM8.4998 22.0303L15.0363 11.1299L25.9437 11.078L31.5264 20.3878L25.0472 31.3171H14.1325L8.4998 22.0303ZM7.90775 23.0176L2.9309 31.3171H12.9416L7.90775 23.0176ZM14.7505 32.3359L19.6522 40.4175L24.4432 32.3359H14.7505ZM26.248 31.3171H38.0802L32.1302 21.3948L26.248 31.3171ZM32.1169 19.3916L37.0769 11.0249L27.1282 11.0723L32.1169 19.3916Z" fill="white"/>
<path d="M20.5056 2.00928L20.9424 1.74731L20.5056 1.01879L20.0687 1.74731L20.5056 2.00928ZM15.6401 10.1229L15.2033 9.86095L14.7381 10.6366L15.6426 10.6323L15.6401 10.1229ZM25.3432 10.0767L25.3457 10.5861L26.2401 10.5818L25.7801 9.81472L25.3432 10.0767ZM20.0687 0.756816L19.6318 0.494845L19.6318 0.494846L20.0687 0.756816ZM14.4488 10.1286L14.4513 10.638L14.7381 10.6366L14.8857 10.3906L14.4488 10.1286ZM20.9424 0.756815L21.3793 0.494845L21.3793 0.494844L20.9424 0.756815ZM26.5278 10.0711L26.0909 10.333L26.2401 10.5818L26.5302 10.5804L26.5278 10.0711ZM37.9666 10.0166L37.9641 9.50717L37.9666 10.0166ZM38.4262 10.7744L38.8644 11.0342V11.0342L38.4262 10.7744ZM32.7208 20.3986L32.2826 20.1388L32.1277 20.4001L32.2839 20.6606L32.7208 20.3986ZM39.4165 31.5645L39.8534 31.3026L39.4165 31.5645ZM25.6441 32.3359V31.8265H25.3539L25.2059 32.0761L25.6441 32.3359ZM20.1103 41.6705L20.5485 41.9302L20.1103 41.6705ZM19.2175 41.6643L19.6531 41.4001H19.6531L19.2175 41.6643ZM13.5596 32.3359L13.9951 32.0717L13.8464 31.8265H13.5596V32.3359ZM1.59461 31.5645L2.03148 31.8265L2.03148 31.8265L1.59461 31.5645ZM7.31041 22.0328L7.74727 22.2947L7.90526 22.0313L7.74595 21.7686L7.31041 22.0328ZM0.584889 10.9443L1.02043 10.6801L1.02043 10.6801L0.584889 10.9443ZM1.018 10.1926L1.01557 9.6832H1.01557L1.018 10.1926ZM1.92628 11.1924L1.92385 10.683L1.02415 10.6873L1.49074 11.4566L1.92628 11.1924ZM7.90246 21.0454L7.46691 21.3096L7.90494 22.0318L8.33932 21.3074L7.90246 21.0454ZM13.845 11.1356L14.2818 11.3976L14.747 10.6219L13.8425 10.6262L13.845 11.1356ZM15.0363 11.1299L15.0339 10.6205L14.747 10.6219L14.5994 10.868L15.0363 11.1299ZM8.4998 22.0303L8.06293 21.7683L7.90494 22.0318L8.06426 22.2945L8.4998 22.0303ZM25.9437 11.078L26.3805 10.816L26.2313 10.5672L25.9412 10.5686L25.9437 11.078ZM31.5264 20.3878L31.9645 20.6475L32.1194 20.3863L31.9632 20.1258L31.5264 20.3878ZM25.0472 31.3171V31.8265H25.3374L25.4854 31.5769L25.0472 31.3171ZM14.1325 31.3171L13.697 31.5813L13.8457 31.8265H14.1325V31.3171ZM7.90775 23.0176L8.34329 22.7534L7.90526 22.0313L7.47088 22.7556L7.90775 23.0176ZM2.9309 31.3171L2.49403 31.0551L2.03148 31.8265H2.9309V31.3171ZM12.9416 31.3171V31.8265H13.8464L13.3772 31.0529L12.9416 31.3171ZM14.7505 32.3359V31.8265H13.8457L14.3149 32.6001L14.7505 32.3359ZM19.6522 40.4175L19.2167 40.6817L19.6572 41.408L20.0904 40.6773L19.6522 40.4175ZM24.4432 32.3359L24.8814 32.5957L25.3374 31.8265H24.4432V32.3359ZM26.248 31.3171L25.8098 31.0573L25.3539 31.8265H26.248V31.3171ZM38.0802 31.3171V31.8265H38.9796L38.5171 31.0551L38.0802 31.3171ZM32.1302 21.3948L32.5671 21.1328L32.1277 20.4001L31.692 21.135L32.1302 21.3948ZM32.1169 19.3916L31.68 19.6536L32.1194 20.3863L32.5551 19.6514L32.1169 19.3916ZM37.0769 11.0249L37.5151 11.2847L37.9736 10.5112L37.0745 10.5155L37.0769 11.0249ZM27.1282 11.0723L27.1258 10.5629L26.2313 10.5672L26.6913 11.3343L27.1282 11.0723ZM20.0687 1.74731L15.2033 9.86095L16.077 10.3849L20.9424 2.27126L20.0687 1.74731ZM25.7801 9.81472L20.9424 1.74731L20.0687 2.27126L24.9064 10.3387L25.7801 9.81472ZM25.3408 9.56731L15.6377 9.61354L15.6426 10.6323L25.3457 10.5861L25.3408 9.56731ZM19.6318 0.494846L14.012 9.86663L14.8857 10.3906L20.5056 1.01879L19.6318 0.494846ZM21.3793 0.494844C20.9836 -0.16495 20.0275 -0.164946 19.6318 0.494845L20.5056 1.01879L20.5056 1.01879L21.3793 0.494844ZM26.9646 9.80908L21.3793 0.494845L20.5056 1.01879L26.0909 10.333L26.9646 9.80908ZM37.9641 9.50717L26.5254 9.56166L26.5302 10.5804L37.969 10.5259L37.9641 9.50717ZM38.8644 11.0342C39.2826 10.3287 38.7266 9.50353 37.9641 9.50717L37.969 10.5259C37.9739 10.5259 37.9767 10.5265 37.9779 10.5268C37.9792 10.5272 37.9801 10.5276 37.9809 10.5281C37.9827 10.5291 37.9847 10.531 37.986 10.5331C37.9872 10.5352 37.9857 10.5339 37.9856 10.5283C37.9855 10.5253 37.9858 10.522 37.9867 10.5188C37.9875 10.5154 37.9884 10.514 37.988 10.5146L38.8644 11.0342ZM33.159 20.6584L38.8644 11.0342L37.988 10.5146L32.2826 20.1388L33.159 20.6584ZM39.8534 31.3026L33.1576 20.1366L32.2839 20.6606L38.9796 31.8265L39.8534 31.3026ZM38.9796 32.8453C39.7714 32.8453 40.2606 31.9816 39.8534 31.3026L38.9796 31.8265V32.8453ZM25.6441 32.8453H38.9796V31.8265H25.6441V32.8453ZM20.5485 41.9302L26.0822 32.5957L25.2059 32.0761L19.6721 41.4107L20.5485 41.9302ZM18.782 41.9284C19.1756 42.5775 20.1481 42.6056 20.5485 41.9302L19.6721 41.4107C19.6718 41.4113 19.6723 41.4103 19.6738 41.4089C19.6752 41.4076 19.6765 41.4067 19.6772 41.4063C19.6783 41.4058 19.6758 41.4073 19.6698 41.4073C19.6637 41.4072 19.6592 41.4056 19.657 41.4044C19.6562 41.404 19.6557 41.4036 19.6555 41.4034C19.6554 41.4033 19.6545 41.4025 19.6531 41.4001L18.782 41.9284ZM13.124 32.6001L18.782 41.9284L19.6531 41.4001L13.9951 32.0717L13.124 32.6001ZM2.03148 32.8453H13.5596V31.8265H2.03148V32.8453ZM1.15774 31.3026C0.750543 31.9816 1.23969 32.8453 2.03148 32.8453V31.8265L2.03148 31.8265L1.15774 31.3026ZM6.87354 21.7708L1.15774 31.3026L2.03148 31.8265L7.74727 22.2947L6.87354 21.7708ZM0.149347 11.2084L6.87486 22.2969L7.74595 21.7686L1.02043 10.6801L0.149347 11.2084ZM1.01557 9.6832C0.240876 9.6869 -0.26719 10.5217 0.149347 11.2084L1.02043 10.6801C1.01901 10.6777 1.01934 10.6777 1.01993 10.6798C1.02049 10.6818 1.02091 10.6845 1.0209 10.6874C1.02089 10.6933 1.01932 10.6968 1.01848 10.6983C1.01765 10.6997 1.01648 10.701 1.01482 10.702C1.01392 10.7025 1.01336 10.7027 1.01353 10.7026C1.01363 10.7026 1.01571 10.702 1.02043 10.702L1.01557 9.6832ZM14.4464 9.61921L1.01557 9.6832L1.02043 10.702L14.4513 10.638L14.4464 9.61921ZM1.49074 11.4566L7.46691 21.3096L8.338 20.7813L2.36182 10.9282L1.49074 11.4566ZM13.8425 10.6262L1.92385 10.683L1.9287 11.7018L13.8474 11.645L13.8425 10.6262ZM13.4081 10.8736L7.46559 20.7835L8.33932 21.3074L14.2818 11.3976L13.4081 10.8736ZM14.5994 10.868L8.06293 21.7683L8.93667 22.2923L15.4732 11.3919L14.5994 10.868ZM25.9412 10.5686L15.0339 10.6205L15.0387 11.6393L25.9461 11.5873L25.9412 10.5686ZM31.9632 20.1258L26.3805 10.816L25.5068 11.3399L31.0895 20.6497L31.9632 20.1258ZM25.4854 31.5769L31.9645 20.6475L31.0882 20.128L24.609 31.0573L25.4854 31.5769ZM14.1325 31.8265H25.0472V30.8077H14.1325V31.8265ZM8.06426 22.2945L13.697 31.5813L14.5681 31.0529L8.93534 21.7661L8.06426 22.2945ZM7.47088 22.7556L2.49403 31.0551L3.36776 31.5791L8.34462 23.2796L7.47088 22.7556ZM2.9309 31.8265H12.9416V30.8077H2.9309V31.8265ZM7.47221 23.2818L12.5061 31.5813L13.3772 31.0529L8.34329 22.7534L7.47221 23.2818ZM14.3149 32.6001L19.2167 40.6817L20.0878 40.1534L15.186 32.0717L14.3149 32.6001ZM20.0904 40.6773L24.8814 32.5957L24.005 32.0761L19.214 40.1578L20.0904 40.6773ZM14.7505 32.8453H24.4432V31.8265H14.7505V32.8453ZM26.248 31.8265H38.0802V30.8077H26.248V31.8265ZM38.5171 31.0551L32.5671 21.1328L31.6933 21.6567L37.6434 31.5791L38.5171 31.0551ZM26.6862 31.5769L32.5684 21.6545L31.692 21.135L25.8098 31.0573L26.6862 31.5769ZM32.5551 19.6514L37.5151 11.2847L36.6387 10.7652L31.6787 19.1318L32.5551 19.6514ZM37.0745 10.5155L27.1258 10.5629L27.1306 11.5817L37.0793 11.5343L37.0745 10.5155ZM32.5538 19.1296L27.5651 10.8103L26.6913 11.3343L31.68 19.6536L32.5538 19.1296Z" fill="white" mask="url(#path-1-outside-1_661_6909)"/>
</svg>
