<svg width="16" height="16" viewBox="0 0 16 16" fill="none" xmlns="http://www.w3.org/2000/svg">
<path d="M7.51641 7.51748C7.77021 7.2636 7.77013 6.85204 7.51625 6.59824C7.26236 6.34445 6.8508 6.34452 6.59701 6.5984L7.51641 7.51748ZM9.40241 9.40281C9.65621 9.14893 9.65613 8.73737 9.40225 8.48358C9.14836 8.22978 8.7368 8.22985 8.48301 8.48374L9.40241 9.40281ZM11.4654 11.6664C11.7698 11.476 11.8621 11.0749 11.6717 10.7706C11.4813 10.4663 11.0802 10.3739 10.7759 10.5643L11.4654 11.6664ZM8 12L8.00429 11.35H8V12ZM2 8.00002L1.44263 7.6656C1.31912 7.87144 1.31912 8.1286 1.44263 8.33444L2 8.00002ZM5.22227 5.4366C5.52746 5.24757 5.62162 4.84693 5.43258 4.54175C5.24355 4.23656 4.84291 4.1424 4.53773 4.33144L5.22227 5.4366ZM6.6577 3.48294C6.30585 3.55417 6.07836 3.89714 6.14959 4.24899C6.22082 4.60084 6.56379 4.82832 6.91564 4.7571L6.6577 3.48294ZM8 4.00002L7.99832 4.65002H8V4.00002ZM14 8.00002L14.5574 8.33444C14.6809 8.1286 14.6809 7.87144 14.5574 7.6656L14 8.00002ZM12.1023 9.46686C11.8557 9.72775 11.8673 10.1391 12.1282 10.3857C12.3891 10.6323 12.8005 10.6207 13.047 10.3598L12.1023 9.46686ZM2.45962 1.54038C2.20578 1.28654 1.79422 1.28654 1.54038 1.54038C1.28654 1.79422 1.28654 2.20578 1.54038 2.45962L2.45962 1.54038ZM13.5404 14.4596C13.7942 14.7135 14.2058 14.7135 14.4596 14.4596C14.7135 14.2058 14.7135 13.7942 14.4596 13.5404L13.5404 14.4596ZM6.59701 6.5984C6.22512 6.97042 6.01625 7.47494 6.01634 8.00096L7.31634 8.00073C7.31631 7.81949 7.38828 7.64566 7.51641 7.51748L6.59701 6.5984ZM6.01634 8.00096C6.01643 8.52698 6.22548 9.03142 6.5975 9.40331L7.51658 8.48391C7.3884 8.35578 7.31637 8.18197 7.31634 8.00073L6.01634 8.00096ZM6.5975 9.40331C6.96952 9.7752 7.47404 9.98407 8.00006 9.98398L7.99983 8.68398C7.81859 8.68401 7.64476 8.61204 7.51658 8.48391L6.5975 9.40331ZM8.00006 9.98398C8.52608 9.98388 9.03052 9.77483 9.40241 9.40281L8.48301 8.48374C8.35487 8.61192 8.18107 8.68395 7.99983 8.68398L8.00006 9.98398ZM10.7759 10.5643C9.94533 11.084 8.98401 11.3565 8.00429 11.35L7.99571 12.65C9.2222 12.6581 10.4257 12.3169 11.4654 11.6664L10.7759 10.5643ZM8 11.35C5.89611 11.35 4.07958 10.2026 2.55737 7.6656L1.44263 8.33444C3.12042 11.1308 5.30389 12.65 8 12.65V11.35ZM2.55737 8.33444C3.36786 6.98362 4.26116 6.03192 5.22227 5.4366L4.53773 4.33144C3.35484 5.06412 2.32813 6.18976 1.44263 7.6656L2.55737 8.33444ZM6.91564 4.7571C7.27199 4.68496 7.63474 4.64908 7.99832 4.65002L8.00168 3.35002C7.55035 3.34886 7.10006 3.39339 6.6577 3.48294L6.91564 4.7571ZM8 4.65002C10.1039 4.65002 11.9204 5.79743 13.4426 8.33444L14.5574 7.6656C12.8796 4.86927 10.6961 3.35002 8 3.35002V4.65002ZM13.4426 7.6656C13.0188 8.37192 12.5711 8.9709 12.1023 9.46686L13.047 10.3598C13.5903 9.78514 14.0932 9.10812 14.5574 8.33444L13.4426 7.6656ZM1.54038 2.45962L13.5404 14.4596L14.4596 13.5404L2.45962 1.54038L1.54038 2.45962Z" fill="#ACB5BB"/>
</svg>
