<svg width="130" height="148" viewBox="0 0 130 148" fill="none" xmlns="http://www.w3.org/2000/svg">
<path d="M125.42 73.5036C125.254 69.8162 124.559 66.2885 122.734 63.0559C120.881 59.8882 118.513 57.0511 115.728 54.6608C114.898 53.9171 114.118 53.0629 113.036 52.645L110.111 50.8381C108.163 49.758 105.971 49.1951 103.744 49.2033C103.492 49.2033 103.16 49.3447 103.025 49.0006C102.89 48.6564 103.185 48.5765 103.314 48.386C105.006 45.8681 106.356 43.1358 107.327 40.2613C107.941 38.4176 108.273 36.5062 108.728 34.6195C108.728 34.6195 109.115 26.9312 106.116 23.379C104.755 20.8741 102.761 18.7699 100.333 17.2762C98.9897 16.4616 97.5743 15.7724 96.1047 15.2174C93.8861 14.3263 91.6736 13.3737 89.2522 13.1954C86.5296 12.9926 83.8562 13.4843 81.189 13.9391C77.268 14.6151 73.5621 15.8504 70.5261 18.5975C69.9115 19.163 69.7456 19.1138 69.5858 18.2534C69.3981 16.9307 69.0471 15.6364 68.541 14.4C66.5191 9.83262 63.2573 5.92348 59.1257 3.11642C56.646 1.32432 53.7053 0.279394 50.6508 0.105024C48.7026 0.0435667 46.7544 -0.00562622 44.8062 0.00051952C39.3487 0.00051952 34.2723 1.56772 29.3865 3.79862C26.8667 4.94788 20.8808 7.76262 18.2135 10.5958C13.8124 15.2657 10.999 21.2065 10.1749 27.5704C9.41895 32.9479 9.91678 38.2332 12.3935 43.1805C14.016 46.4255 15.7368 49.6213 18.1521 52.3684C18.6253 52.9031 18.4532 53.1981 17.9984 53.5177C17.3285 53.9909 16.6525 54.4518 15.9703 54.9128C13.1148 56.8577 10.4408 59.0565 7.98087 61.4826C5.54102 63.8374 3.52996 66.5991 2.03791 69.6441C1.17474 71.4262 0.576383 73.3248 0.261785 75.2798C-0.151829 78.0269 -0.0748046 80.8255 0.489212 83.5457C0.98603 86.3128 2.00152 88.961 3.48219 91.3509C5.28289 94.1533 7.78419 96.2121 10.4945 98.0374C12.2267 99.2061 14.1509 100.061 16.1793 100.563C17.9492 100.994 17.9431 100.92 17.4084 102.647C16.7262 104.798 15.7798 106.881 15.5647 109.155C15.131 113.608 15.9573 118.092 17.9493 122.098C18.769 123.716 19.6779 125.288 20.6718 126.806C22.4004 129.6 24.4372 132.191 26.7438 134.531C29.2087 136.958 31.9075 139.136 34.8009 141.033C37.5032 142.829 40.4315 144.259 43.5094 145.286C46.2186 146.127 49.0142 146.659 51.843 146.872C55.3782 147.293 58.9523 147.268 62.4813 146.798C68.2295 145.886 73.8882 144.479 79.3944 142.594C82.0728 141.689 84.3736 139.918 85.9335 137.561C87.5436 135.201 88.5147 132.533 89.6209 129.934C90.4629 127.936 90.7394 125.773 91.4646 123.733C91.8948 122.467 92.405 119.019 92.9519 118.927C93.7274 118.796 94.4948 118.622 95.2504 118.404C98.1021 117.562 101.027 116.911 103.713 115.608C107.775 113.641 111.088 110.692 114.118 107.391C117.953 103.058 120.917 98.0243 122.845 92.5677C123.537 90.5649 124.067 88.5097 124.43 86.422C125.262 82.169 125.594 77.8336 125.42 73.5036Z" fill="#8ADEFF"/>
<path d="M85.497 59.7495C87.6235 60.3641 89.799 60.7513 91.9684 61.2921C93.849 61.7592 95.7113 62.3246 97.641 62.6503C100.062 63.062 101.734 64.7276 102.975 66.8171C103.518 67.6533 103.848 68.6098 103.936 69.603C104.024 70.5961 103.867 71.5957 103.479 72.5142C102.946 73.7079 102.074 74.7187 100.972 75.4212C100.751 75.5809 100.486 75.6731 100.357 75.9251C99.6261 75.7407 98.8886 75.6055 98.1511 75.458C90.6226 73.9769 83.1247 72.3421 75.5409 71.156C75.115 71.1041 74.7092 70.9454 74.3611 70.6946C74.013 70.4438 73.734 70.109 73.55 69.7214C73.3661 69.3338 73.283 68.906 73.3088 68.4777C73.3345 68.0495 73.4681 67.6347 73.6972 67.2719C74.4085 66.094 75.3745 65.0902 76.5243 64.3342C78.9892 62.6487 81.6596 61.2855 84.4707 60.278C84.8025 60.1613 85.2389 60.1183 85.497 59.7495Z" fill="#3BA3F5"/>
<path d="M93.1608 100.576C93.1608 100.576 93.2099 101.246 93.2037 102.014C93.2037 103.907 91.5014 105.855 89.6516 106.617C87.8017 107.379 86.0501 107.164 84.2248 106.863C81.3179 106.389 78.5646 105.382 75.7437 104.564C73.6173 103.95 71.4848 103.335 69.3768 102.659C69.0203 102.542 68.6761 102.389 68.3258 102.247C67.6682 101.553 66.9983 100.871 66.3592 100.158C65.7697 99.5251 65.3728 98.7376 65.215 97.8875C65.0571 97.0374 65.1449 96.1599 65.468 95.3579C65.8352 94.3582 66.3961 93.4408 67.1186 92.6583C67.841 91.8758 68.7107 91.2435 69.6779 90.7978C70.2968 90.4393 71.0021 90.2572 71.7171 90.2713C72.4322 90.2854 73.1298 90.4951 73.7341 90.8776C78.7183 93.6678 83.8622 96.1691 88.9939 98.6827C90.6779 99.5063 93.1608 100.576 93.1608 100.576Z" fill="#3BA3F5"/>
<path d="M96.9281 88.4932C97.5648 89.9301 97.8147 91.5084 97.6533 93.0717C97.2968 95.53 96.1599 97.3738 93.9105 98.437C93.6954 98.5415 93.4988 98.6767 93.296 98.7996C90.7885 97.6114 88.281 96.4294 85.7736 95.2535C81.7051 93.3545 77.6305 91.4677 73.562 89.5625C72.2288 88.9794 71.1645 87.915 70.5813 86.5818C70.308 85.9696 70.2281 85.2885 70.3522 84.6296C70.4763 83.9707 70.7985 83.3653 71.2758 82.8944C72.1731 81.8558 73.1195 81.2105 74.5576 81.8496C74.8465 81.9603 75.1421 82.0526 75.4426 82.1262L96.9281 88.4932Z" fill="#3BA3F5"/>
<path d="M96.9281 88.4928L75.418 82.1074C75.1175 82.0339 74.8219 81.9415 74.533 81.8308C73.1195 81.2163 72.1484 81.8308 71.2512 82.8756C70.7739 83.3465 70.4517 83.9519 70.3276 84.6108C70.2035 85.2697 70.2834 85.9508 70.5567 86.5631C71.1399 87.8962 72.2042 88.9606 73.5374 89.5437C77.6058 91.4489 81.6805 93.3357 85.749 95.2347C88.2646 96.4065 90.7721 97.5885 93.2714 98.7808C93.5787 99.0021 93.886 99.1987 94.181 99.4445C94.8386 100.004 94.1072 100.975 94.1072 100.975C94.1072 100.975 90.6594 99.4876 88.9755 98.664C83.8438 96.1504 78.6998 93.6491 73.7156 90.8589C73.1113 90.4764 72.4137 90.2667 71.6987 90.2526C70.9836 90.2385 70.2783 90.4206 69.6594 90.779C68.6922 91.2248 67.8225 91.857 67.1001 92.6396C66.3777 93.4221 65.8168 94.3395 65.4496 95.3392C65.1265 96.1412 65.0387 97.0187 65.1966 97.8688C65.3544 98.7189 65.7513 99.5064 66.3407 100.139C66.9553 100.852 67.6497 101.534 68.3073 102.229C67.1335 101.872 64.749 101.104 64.749 101.104H64.6814C61.5717 96.6666 64.2635 91.9283 68.0554 89.6113C68.5778 89.2917 69.4443 89.1504 69.5918 88.7325C69.7393 88.3146 69.137 87.6693 68.9219 87.0977C68.1107 84.9529 68.7007 82.9309 70.698 81.2593C71.2266 80.8106 71.4233 80.5587 70.9562 79.8949C69.6779 78.0512 69.8438 76.1645 71.0668 74.333C71.6484 73.4433 72.3953 72.6735 73.267 72.0652C73.6419 71.801 73.6665 71.6596 73.3346 71.3155C71.6937 69.6131 71.5523 68.0582 72.8184 66.0547C73.7287 64.7224 74.8841 63.5753 76.2231 62.6746C78.1999 61.3227 80.2913 60.1464 82.4733 59.1592L85.4601 59.7738C85.202 60.1425 84.7657 60.1855 84.3969 60.3269C81.5859 61.3344 78.9153 62.6975 76.4504 64.3831C75.3007 65.139 74.3347 66.1428 73.6234 67.3207C73.3943 67.6835 73.2608 68.0983 73.235 68.5266C73.2093 68.9548 73.2922 69.3826 73.4762 69.7702C73.6602 70.1578 73.9393 70.4926 74.2874 70.7434C74.6354 70.9943 75.0412 71.153 75.4671 71.2049C83.051 72.3664 90.5488 74.0012 98.0774 75.5069C98.8148 75.6544 99.5523 75.7896 100.284 75.9739C100.751 76.2259 101.199 76.5516 100.972 77.1478C100.677 77.9344 99.9703 77.7623 99.3311 77.707L98.2678 77.4858C97.6533 77.3199 97.0387 77.1294 96.3811 77.0003C89.5102 75.5991 82.627 74.247 75.8113 72.5692C75.6683 72.5171 75.5155 72.4967 75.3638 72.5094C75.212 72.5222 75.0649 72.5677 74.9325 72.6429C73.5217 73.4595 72.4362 74.7382 71.8596 76.2628C71.4417 77.4919 72.0317 79.1513 73.0887 79.6675C73.8744 80.0742 74.6977 80.4036 75.547 80.6509C79.9228 81.7755 84.2494 83.1092 88.5944 84.3383C91.0527 85.0266 93.5111 85.8563 96.0185 86.3664C96.5041 86.5262 96.9957 86.6737 97.4751 86.8519C97.9544 87.0301 98.4276 87.362 98.2801 87.9766C98.1326 88.5912 97.0326 88.4867 96.9281 88.4928Z" fill="#255FB7"/>
<path d="M96.1169 86.2869C93.5971 85.7768 91.1634 84.9471 88.6928 84.2588C84.3478 83.0297 80.0212 81.7268 75.6454 80.5714C74.7961 80.3241 73.9728 79.9947 73.1872 79.588C72.1362 79.0718 71.5462 77.4125 71.958 76.1833C72.5346 74.6587 73.6201 73.38 75.0309 72.5635C75.1633 72.4882 75.3104 72.4427 75.4622 72.43C75.6139 72.4172 75.7667 72.4376 75.9097 72.4897C82.7254 74.1675 89.6086 75.5196 96.4795 76.9208C97.0941 77.0499 97.7086 77.2404 98.3662 77.4063C98.2802 78.0578 98.692 78.5802 98.8764 79.1579C99.2891 80.4832 99.241 81.9091 98.7399 83.2036C98.2389 84.4981 97.3143 85.5849 96.1169 86.2869Z" fill="#3BA3F5"/>
<path d="M48.5428 111.147C48.6104 112.099 48.6841 113.046 48.7456 113.998C48.7456 114.207 48.7456 114.447 48.4444 114.361C47.9528 114.226 47.455 114.09 46.9695 113.931C46.4839 113.771 46.8281 113.562 46.9387 113.384C47.4058 112.634 47.879 111.884 48.3522 111.134L48.5428 111.147Z" fill="#D4FFFF"/>
<path d="M39.0414 31.7555C39.7876 33.477 40.4039 35.2519 40.8851 37.0654C41.8684 41.5088 40.6946 43.9548 35.4154 44.7046C33.0124 45.0487 31.2178 44.1945 29.9149 42.0803C27.92 38.9324 26.2715 35.5777 24.9983 32.075C24.4494 30.4975 24.2277 28.8246 24.3469 27.1585C24.3594 26.3727 24.5979 25.6071 25.0338 24.9532C25.4697 24.2994 26.0847 23.7848 26.8052 23.471C28.7762 22.4814 31.0591 22.3134 33.1537 23.004C34.9975 23.6185 35.9992 25.0443 36.8412 26.6299C37.6998 28.2819 38.4352 29.9951 39.0414 31.7555ZM30.3882 33.8266C30.425 33.8266 31.058 35.4184 31.4514 36.1743C32.0659 37.4034 32.6805 38.6326 33.9097 39.4192C34.1523 39.5989 34.4354 39.7163 34.7339 39.761C35.0325 39.8057 35.3375 39.7764 35.6222 39.6756C35.9068 39.5749 36.1623 39.4058 36.3663 39.1832C36.5703 38.9606 36.7164 38.6914 36.792 38.399C37.047 37.6309 37.047 36.801 36.792 36.0329C36.2905 34.388 35.6554 32.7868 34.893 31.2454C34.341 29.9806 33.5405 28.8395 32.5392 27.8898C32.3042 27.6553 32.0117 27.4867 31.691 27.401C31.3703 27.3152 31.0327 27.3153 30.7121 27.4012C30.3915 27.4871 30.099 27.6559 29.8642 27.8905C29.6294 28.1251 29.4604 28.4174 29.3741 28.7379C29.0976 29.5003 29.0976 30.3355 29.3741 31.0979C29.6568 32.0198 30.0317 32.917 30.3882 33.8266Z" fill="#255FB7"/>
<path d="M43.5647 13.1528C45.2794 12.489 46.9817 11.813 48.7025 11.1739C50.1652 10.6269 50.4848 10.7621 51.2039 12.1572C51.4067 12.5505 51.5726 12.9623 51.7385 13.3863C52.3531 14.892 52.1626 15.2853 50.62 15.8876C50.0054 16.1273 49.354 16.3117 48.7148 16.5022C47.2706 16.9693 47.2398 16.9816 47.8544 18.3091C48.9299 20.6321 50.0423 22.9368 51.1363 25.2476C51.4681 25.9482 51.8123 26.6488 52.1442 27.3556C52.6973 28.5171 52.6973 28.511 53.8158 28.0132C54.4304 27.7428 55.045 27.4846 55.6595 27.2326C55.7966 27.1629 55.9472 27.1235 56.1009 27.1172C56.2546 27.1109 56.4079 27.1378 56.5502 27.1962C56.6926 27.2545 56.8207 27.3429 56.9257 27.4552C57.0308 27.5676 57.1104 27.7013 57.1591 27.8472C57.2574 28.0439 57.3558 28.2467 57.4418 28.4618C58.671 31.1905 58.671 31.1659 55.9545 32.432C53.0285 33.7942 50.0169 34.9644 46.9387 35.935C45.3224 36.4451 44.9229 36.2485 44.2715 34.6629C44.0306 34.1028 43.8253 33.528 43.6569 32.9421C43.3742 31.8973 43.577 31.5162 44.6095 31.1967C45.3542 30.9776 46.0797 30.6981 46.7789 30.3608C46.9262 30.3177 47.0608 30.2397 47.1714 30.1333C47.282 30.027 47.3653 29.8956 47.4142 29.7501C47.463 29.6047 47.4761 29.4496 47.4522 29.2981C47.4282 29.1466 47.368 29.003 47.2767 28.8797C46.8588 27.9702 46.4716 27.036 46.0476 26.1387C45.1073 24.1229 44.2039 22.101 43.2021 20.1036C42.6367 18.9543 42.5875 18.9666 41.4137 19.3968C38.8939 20.3064 38.8939 20.3064 37.8061 17.8051C37.8061 17.7559 37.7631 17.7006 37.7386 17.6515C36.8781 15.734 36.8966 15.777 38.894 14.8674C40.3935 14.1975 42.0037 13.7673 43.5647 13.1528Z" fill="#255FB7"/>
<path d="M48.7886 130.137C48.469 130.032 48.174 129.909 47.836 129.829C47.6851 129.803 47.5409 129.748 47.4119 129.665C47.2828 129.583 47.1715 129.476 47.0845 129.35C46.9974 129.224 46.9365 129.082 46.9051 128.932C46.8738 128.782 46.8727 128.628 46.9019 128.477C46.9633 127.199 46.9695 125.921 47.0924 124.655C47.1846 123.708 46.8158 123.425 45.937 122.983C45.0274 122.651 44.0011 121.95 43.0976 122.264C42.1942 122.577 42.0836 123.886 41.6596 124.759C40.4304 127.322 40.4304 127.334 37.6464 126.541L37.4866 126.504C35.397 125.89 35.2741 125.613 36.4295 123.849C39.1644 119.664 41.4506 115.209 44.1424 110.999C44.9475 109.739 45.851 108.54 46.6438 107.268C46.8168 106.952 47.0833 106.698 47.4068 106.539C47.7303 106.381 48.0949 106.326 48.4506 106.383C49.5876 106.475 50.5463 107.084 51.5849 107.459C52.0274 107.619 51.9598 108.073 51.9537 108.473C51.8676 113.297 51.7939 118.128 51.7017 122.952C51.6648 124.728 51.5727 126.504 51.4989 128.274C51.5013 128.608 51.4787 128.94 51.4313 129.27C51.1793 130.542 50.8167 130.733 49.5875 130.382C49.3233 130.309 49.059 130.21 48.7948 130.124L48.7886 130.137ZM47.6639 113.666C46.4417 115.048 45.4348 116.606 44.6771 118.288C45.4463 118.766 46.3185 119.055 47.2215 119.13C47.3812 117.636 47.541 116.223 47.6824 114.828C47.7131 114.428 47.6701 114.047 47.6639 113.666Z" fill="#255FB7"/>
<path d="M33.1107 104.656C34.5857 103.335 36.1836 101.866 37.5787 100.514C38.1932 99.8997 38.5435 99.8259 39.576 100.133C40.3135 100.397 40.8666 100.631 41.5058 100.889C42.5076 101.289 42.6182 101.59 41.8069 102.333C40.0672 104.02 38.2328 105.606 36.3126 107.084C35.1811 107.871 34.2248 108.884 33.504 110.059C32.9878 110.913 31.0457 117.347 30.3758 119.548C30.0071 120.734 29.9764 120.777 28.8025 120.488C25.5944 119.769 26.0062 119.455 26.7437 117.077C27.3583 115.203 29.2696 109.653 29.3372 108.706C29.4096 107.723 29.297 106.735 29.0053 105.793C28.2145 103.077 27.6735 100.293 27.389 97.4782C27.2231 96.0955 27.4443 96.0094 28.6182 96.3904C32.0045 97.6688 31.4452 97.048 32.0659 100.281C32.3279 101.759 32.6768 103.22 33.1107 104.656Z" fill="#255FB7"/>
<path d="M65.0071 115.098C66.482 113.777 68.0799 112.308 69.475 110.956C70.0896 110.341 70.4399 110.267 71.4724 110.575C72.2099 110.839 72.763 111.072 73.4083 111.331C74.4039 111.73 74.5145 112.031 73.7033 112.775C71.9636 114.461 70.1292 116.048 68.209 117.525C67.0789 118.314 66.1229 119.326 65.4004 120.5C64.8842 121.354 62.9421 127.789 62.2722 129.995C61.9035 131.175 61.8728 131.224 60.699 130.929C57.4909 130.21 57.9026 129.897 58.6462 127.518C59.2301 125.644 61.1721 120.1 61.2397 119.148C61.3099 118.164 61.1953 117.176 60.9017 116.235C60.1109 113.518 59.5699 110.735 59.2854 107.92C59.1256 106.537 59.3469 106.451 60.5146 106.832C63.9009 108.11 63.3477 107.489 63.9685 110.722C64.2261 112.2 64.5729 113.662 65.0071 115.098Z" fill="#255FB7"/>
<path d="M77.3232 129.234L76.9913 129.098C75.3012 128.41 75.2028 128.336 75.7621 126.64C76.9913 122.823 78.0545 118.939 79.087 115.061C79.5663 113.279 79.849 113.181 81.6067 113.74C81.9447 113.845 82.2766 113.967 82.6085 114.097C82.7666 114.131 82.9154 114.199 83.0445 114.296C83.1736 114.394 83.2799 114.518 83.356 114.661C83.4321 114.804 83.4761 114.961 83.485 115.123C83.4938 115.284 83.4674 115.446 83.4075 115.596C83.0264 117.083 82.7499 118.595 82.2767 120.064C81.3946 122.573 80.6397 125.124 80.015 127.709C79.5541 129.879 79.4066 129.971 77.3232 129.234Z" fill="#255FB7"/>
<path d="M78.4726 134.617C78.3789 134.929 78.2227 135.219 78.0136 135.469C77.8045 135.72 77.5468 135.925 77.256 136.073C76.9653 136.22 76.6475 136.307 76.3221 136.329C75.9967 136.35 75.6704 136.305 75.3629 136.196C74.0292 135.772 73.2241 134.5 73.5683 133.351C73.9555 132.042 75.4489 131.095 76.5736 131.446C77.9625 131.87 78.8659 133.375 78.4726 134.617Z" fill="#255FB7"/>
<path d="M76.9482 53.37C80.9614 49.1724 83.5918 44.2927 84.3231 38.4727C84.6184 36.285 84.2524 34.059 83.2722 32.0811C82.4364 30.4217 80.943 29.6228 79.259 28.959C78.2156 28.5677 77.0701 28.5426 76.0105 28.8876C74.9508 29.2326 74.0398 29.9274 73.4267 30.8581C72.4434 32.4191 71.792 34.1522 70.9684 35.7747C68.5532 40.3533 65.3942 43.9916 60.1089 45.3805C57.3031 46.0289 54.6228 47.1334 52.1747 48.65C50.191 49.83 48.508 51.4541 47.2582 53.3945C46.849 54.1263 46.2944 54.7666 45.6285 55.276C44.9627 55.7854 44.1996 56.1532 43.3863 56.3568C41.9336 56.7515 40.4451 57.0006 38.9429 57.1004C36.4562 57.3414 33.9472 57.1921 31.5066 56.6579C29.9763 56.2769 29.4662 56.4367 28.6304 57.8133C27.8678 59.2286 27.2501 60.7173 26.7867 62.2567C25.4715 65.8643 24.3284 69.5332 23.1423 73.1777L20.727 84.24C20.6289 84.699 20.6906 85.1778 20.9018 85.597C21.1131 86.0161 21.4612 86.3505 21.8885 86.5447L31.8446 91.0065C32.9447 91.283 33.9342 91.8423 34.9974 92.2356C36.5707 92.7887 38.1932 93.2128 39.8034 93.6799C42.7963 94.5526 45.7955 95.4191 48.8069 96.2365C53.3486 97.4657 57.8657 98.787 62.3275 100.348C63.1387 100.631 64.7858 101.122 64.7858 101.122C64.7858 101.122 60.1396 95.3515 68.1598 89.6298C68.6576 89.2734 69.5487 89.1689 69.6962 88.751C69.8437 88.3331 69.2415 87.6878 69.0264 87.1162C68.2151 84.9714 68.8051 82.9494 70.8025 81.2778C71.331 80.8291 71.5277 80.5772 71.0606 79.9134C69.5058 77.6702 70.0834 75.3717 72.0992 73.1531C72.5053 72.7317 72.9497 72.349 73.4267 72.01C73.7525 71.7765 73.7525 71.629 73.4267 71.3032C71.7858 69.6009 71.6445 68.046 72.9105 66.0425C73.8209 64.7101 74.9763 63.563 76.3152 62.6623C78.2921 61.3104 80.3835 60.1342 82.5655 59.147C80.3868 58.7222 78.2391 58.1514 76.137 57.4384C74.9079 56.9959 74.5883 55.9081 75.4732 54.9002C75.8912 54.3779 76.4258 53.8923 76.9482 53.37Z" fill="#3BA3F5"/>
<path d="M101.961 31.3132C100.874 31.0858 99.7859 30.8646 98.7043 30.631C98.0897 30.4897 98.0897 30.4835 98.0897 31.1534C98.188 32.3826 98.2495 33.6486 98.2372 34.8962C98.2491 35.2689 98.1886 35.6404 98.0589 35.9901C98.0245 36.1008 97.9678 36.2034 97.8924 36.2915C97.817 36.3796 97.7244 36.4515 97.6203 36.5026C97.5162 36.5538 97.4028 36.5833 97.287 36.5892C97.1711 36.5951 97.0554 36.5774 96.9466 36.5371C96.4743 36.399 96.0749 36.0813 95.8342 35.6521C95.2196 34.6749 94.605 33.6978 93.9905 32.7083C93.591 32.0446 93.591 32.0384 93.1055 32.6099C92.3475 33.5152 91.5434 34.3809 90.6964 35.2035C90.4278 35.4474 90.1468 35.6771 89.8544 35.8918C89.7396 35.9922 89.5949 36.052 89.4428 36.062C89.2906 36.072 89.1394 36.0316 89.0124 35.9471C88.8766 35.8548 88.7736 35.7217 88.7183 35.5671C88.6631 35.4124 88.6585 35.2442 88.7051 35.0867C88.8525 34.5256 89.0981 33.9951 89.4304 33.5195C90.0711 32.4728 90.7988 31.4818 91.6059 30.5573C91.9071 30.207 91.8948 30.0288 91.4707 29.8014C89.8913 28.9594 88.6129 27.6811 87.0827 26.7285C86.9702 26.6481 86.8671 26.5553 86.7754 26.4519C86.6203 26.3258 86.5114 26.1518 86.4658 25.9572C86.4202 25.7626 86.4405 25.5583 86.5234 25.3764C86.6165 25.2013 86.7618 25.0593 86.939 24.9702C87.1162 24.881 87.3167 24.849 87.5128 24.8786C87.8818 24.9068 88.2454 24.9833 88.5945 25.106C89.9281 25.5055 91.2617 25.8927 92.5831 26.3352C93.0194 26.4765 93.1362 26.4027 93.1239 25.9295C93.1239 24.8171 93.1239 23.7109 93.1608 22.5985C93.1608 22.1683 93.2223 21.7381 93.7201 21.5906C94.2179 21.4431 94.4883 21.7812 94.7402 22.1376C95.424 23.1288 96.0203 24.1775 96.5225 25.2719C96.7192 25.696 96.879 25.8128 97.3215 25.5301C98.2802 24.9155 99.2451 24.3009 100.173 23.6863C100.646 23.502 101.126 23.336 101.593 23.1394C101.75 23.0609 101.931 23.042 102.101 23.086C102.272 23.13 102.421 23.2341 102.521 23.3791C102.624 23.507 102.68 23.6664 102.68 23.8308C102.68 23.9952 102.624 24.1546 102.521 24.2825C102.265 24.6679 101.955 25.0137 101.599 25.3088C101.415 25.4809 100.155 27.0481 99.6691 27.6258C99.4848 27.8409 99.6691 27.9638 99.8412 28.0437L101.82 28.8611C102.195 29.0884 102.582 29.3097 102.945 29.5432C103.307 29.7768 103.676 30.1025 103.559 30.6126C103.443 31.1227 102.945 31.2272 102.472 31.2886C102.33 31.3317 102.146 31.3132 101.961 31.3132Z" fill="#D4FFFF"/>
<path d="M121.997 48.5334C121.425 50.2542 120.86 51.9811 120.282 53.7019C120.067 54.3165 120.282 54.5869 120.958 54.5931C122.531 54.5931 124.098 54.7099 125.666 54.7283C126.649 54.7507 127.603 55.0652 128.407 55.6317C129.814 56.5659 129.777 57.9056 128.29 58.7476C126.557 59.7248 124.602 59.7678 122.716 59.903C120.644 60.0444 120.657 59.9891 121.566 61.8266C121.96 62.6133 122.31 63.4307 122.648 64.2419C122.986 65.0531 122.949 65.9258 122.083 66.4421C121.216 66.9583 120.491 66.6633 119.876 65.9381C119.428 65.4157 118.942 64.9241 118.506 64.3955C117.983 63.781 117.639 63.5413 117.277 64.5492C116.886 65.5599 116.309 66.4877 115.574 67.2841C115.015 67.8986 114.345 68.3411 113.503 68.0707C113.097 67.9493 112.745 67.6918 112.507 67.3415C112.268 66.9911 112.158 66.5693 112.194 66.1471C112.167 64.5758 112.345 63.0078 112.723 61.4825C113.024 60.1796 112.95 60.112 111.666 60.2963C110.111 60.5176 108.593 60.8433 106.989 60.493C105.907 60.2595 105.041 59.8047 104.789 58.6493C104.512 57.371 105.403 56.7318 106.313 56.2586C107.164 55.8791 108.041 55.5587 108.937 55.2999C109.638 55.0663 109.638 54.7713 109.097 54.3227C108.009 53.4808 107.027 52.511 106.171 51.4342C105.391 50.3832 105.274 49.3754 105.932 48.7608C106.798 47.9434 107.677 48.1462 108.599 48.7608C110.226 49.7709 111.762 50.9204 113.19 52.1963C114.056 53.0136 114.419 52.6756 114.923 51.8644C116.041 49.9667 117.017 47.9884 117.842 45.946C118.217 45.4974 118.567 45.0242 118.985 44.6124C119.245 44.2771 119.607 44.0357 120.016 43.9248C120.425 43.8138 120.86 43.8395 121.253 43.9978C121.64 44.1699 121.961 44.4617 122.169 44.8303C122.377 45.1988 122.461 45.6244 122.408 46.0444C122.318 46.8811 122.18 47.7121 121.997 48.5334Z" fill="#3BA3F5"/>
<path d="M114.695 39.9236C114.903 39.9723 115.098 40.0651 115.266 40.1957C115.435 40.3263 115.574 40.4916 115.673 40.6805C115.772 40.8694 115.829 41.0773 115.841 41.2903C115.852 41.5033 115.818 41.7162 115.74 41.9148C115.562 42.3444 115.228 42.6908 114.805 42.8846C114.382 43.0783 113.902 43.1051 113.46 42.9596C113.055 42.8125 112.724 42.5106 112.541 42.12C112.357 41.7294 112.337 41.282 112.483 40.8761C112.803 39.9051 113.626 39.5794 114.695 39.9236Z" fill="#8ADEFF"/>
<path d="M93.4005 48.5887C93.7039 48.6874 93.9843 48.8462 94.225 49.0555C94.4658 49.2648 94.6619 49.5205 94.8018 49.8072C94.9417 50.0939 95.0225 50.4058 95.0394 50.7244C95.0563 51.0429 95.0089 51.3616 94.9001 51.6615C94.6727 52.3145 94.1957 52.8508 93.5735 53.1526C92.9514 53.4544 92.2351 53.4973 91.5814 53.2717C91.2802 53.1503 91.0061 52.9704 90.7748 52.7424C90.5435 52.5144 90.3598 52.2428 90.234 51.9434C90.1083 51.644 90.0432 51.3226 90.0424 50.9978C90.0416 50.6731 90.1051 50.3514 90.2293 50.0513C90.3322 49.7405 90.4979 49.4541 90.7161 49.21C90.9342 48.9658 91.2002 48.769 91.4976 48.6319C91.7949 48.4948 92.1172 48.4202 92.4445 48.4127C92.7719 48.4053 93.0973 48.4652 93.4005 48.5887Z" fill="#3BA3F5"/>
<path d="M109.773 76.4966C109.354 76.3922 108.977 76.1638 108.691 75.8414C108.405 75.5189 108.223 75.1175 108.169 74.6898C108.103 74.3161 108.151 73.9312 108.308 73.5857C108.465 73.2402 108.723 72.9502 109.048 72.7538C109.362 72.5106 109.747 72.3756 110.145 72.3689C110.542 72.3623 110.931 72.4844 111.254 72.717C111.746 73.055 112.385 73.2209 112.655 73.854C112.784 74.1525 112.838 74.4782 112.812 74.8025C112.785 75.1267 112.679 75.4394 112.503 75.7129C112.327 75.9863 112.086 76.2121 111.801 76.3703C111.517 76.5284 111.198 76.614 110.873 76.6195C110.504 76.6027 110.136 76.5616 109.773 76.4966Z" fill="#D4FFFF"/>
<path d="M10.3899 72.7229C10.2104 73.202 9.85987 73.5976 9.40597 73.8337C8.95207 74.0697 8.42687 74.1294 7.93158 74.0012C7.40762 73.7882 6.98029 73.3899 6.73097 72.8822C6.48165 72.3745 6.42774 71.7928 6.57951 71.2479C6.91752 70.2277 7.93773 69.5947 8.77969 69.8836C9.34899 70.0779 9.8273 70.4741 10.124 70.9974C10.4208 71.5207 10.5154 72.1346 10.3899 72.7229Z" fill="#3BA3F5"/>
<path d="M23.1055 73.1841C23.3062 73.3135 23.4972 73.4573 23.6771 73.6143C24.1872 74.1305 24.4945 73.9523 24.9062 73.4237C26.3812 71.4325 28.2618 69.8223 30.0318 68.1077C30.2238 67.8596 30.4923 67.6818 30.7956 67.6018C31.099 67.5218 31.4202 67.5441 31.7096 67.6652C31.9637 67.8179 32.1612 68.0493 32.2721 68.3243C32.383 68.5993 32.4013 68.903 32.3242 69.1893C32.1053 70.5093 31.691 71.7894 31.095 72.9874C30.6853 73.9584 30.2571 74.9254 29.8105 75.8882C29.577 76.3983 29.7245 76.638 30.2407 76.9022C31.4866 77.4726 32.7724 77.9512 34.088 78.3342C34.7702 78.5739 35.4216 78.8566 35.4523 79.6678C35.4477 80.0134 35.3332 80.3485 35.1255 80.6247C34.9178 80.9009 34.6276 81.1039 34.2969 81.2042C33.2521 81.6898 32.1029 81.7328 31.0151 82.0278C29.9273 82.3228 29.9212 82.3105 30.21 83.4106C30.6402 85.0269 31.0581 86.6555 31.5068 88.2718C31.7261 89.1685 31.8274 90.09 31.8079 91.0129C31.3347 92.0085 31.0397 92.1682 30.0625 91.7688C28.3417 91.062 26.8729 89.9251 25.2566 89.0216C24.1503 88.4071 24.1688 88.407 23.4989 89.4641L21.1082 93.2929C20.9054 93.6064 20.6964 93.9075 20.4936 94.2209C20.0081 94.8355 19.4488 95.4501 18.5946 95.069C17.7403 94.688 17.7587 93.9812 17.8632 93.2253C18.2256 90.4578 18.8197 87.7257 19.6393 85.0576C19.9589 84.0374 19.9159 83.9821 18.8588 83.8285C17.1172 83.7107 15.3919 83.4183 13.7087 82.9558C13.3066 82.8629 12.9253 82.6962 12.584 82.4641C12.4091 82.3422 12.269 82.1769 12.1773 81.9845C12.0856 81.792 12.0455 81.579 12.061 81.3664C12.0765 81.1538 12.147 80.9489 12.2656 80.7717C12.3843 80.5946 12.547 80.4514 12.7377 80.3561C13.9068 79.7773 15.1787 79.4348 16.4804 79.3482C17.1626 79.2745 17.8448 79.2007 18.527 79.1823C19.2091 79.1639 19.4795 78.9242 19.246 78.1682C18.6929 76.3675 18.1951 74.5546 17.7219 72.7293C17.5314 72.0102 17.1073 71.1867 17.9923 70.5967C18.8773 70.0067 19.5533 70.566 20.1925 71.0945C21.1068 71.8669 22.0809 72.5655 23.1055 73.1841Z" fill="#D4FFFF"/>
</svg>
