<svg width="20" height="20" viewBox="0 0 20 20" fill="none" xmlns="http://www.w3.org/2000/svg">
<path d="M3.3335 13.3333L7.15516 9.51168C7.46771 9.19922 7.89156 9.0237 8.3335 9.0237C8.77544 9.0237 9.19928 9.19922 9.51183 9.51168L13.3335 13.3333M11.6668 11.6667L12.9885 10.345C13.301 10.0326 13.7249 9.85703 14.1668 9.85703C14.6088 9.85703 15.0326 10.0326 15.3452 10.345L16.6668 11.6667M11.6668 6.66668H11.6752M5.00016 16.6667H15.0002C15.4422 16.6667 15.8661 16.4911 16.1787 16.1785C16.4912 15.866 16.6668 15.442 16.6668 15V5.00001C16.6668 4.55798 16.4912 4.13406 16.1787 3.8215C15.8661 3.50894 15.4422 3.33334 15.0002 3.33334H5.00016C4.55814 3.33334 4.13421 3.50894 3.82165 3.8215C3.50909 4.13406 3.3335 4.55798 3.3335 5.00001V15C3.3335 15.442 3.50909 15.866 3.82165 16.1785C4.13421 16.4911 4.55814 16.6667 5.00016 16.6667Z" stroke="white" stroke-width="1.4" stroke-linecap="round" stroke-linejoin="round"/>
</svg>
