<svg width="130" height="116" viewBox="0 0 130 116" fill="none" xmlns="http://www.w3.org/2000/svg">
<path d="M125.946 78.3202C125.31 73.2974 123.019 68.6295 119.435 65.0532C117.747 63.3603 115.908 61.8301 114.095 60.2782C113.292 59.5945 113.309 59.5782 114.03 58.8565C114.712 58.2025 115.361 57.5143 115.973 56.7946C118.637 53.423 120.473 49.4738 121.334 45.264C121.334 45.264 119.549 22.8105 107.497 21.0904C106.705 20.8571 105.924 20.5803 105.115 20.423C104.465 20.2929 103.856 20.0058 103.341 19.5869C102.827 19.168 102.422 18.6299 102.163 18.0192C100.04 13.8162 97.0865 10.0874 93.4813 7.05832C88.6999 2.99087 82.743 0.559055 76.4811 0.118227C71.8786 -0.271116 67.2456 0.303657 62.8777 1.80579C59.7871 2.89955 56.8294 4.33746 54.0602 6.09245C53.5162 6.50477 52.8333 6.68961 52.1556 6.60794C49.7975 6.21034 47.3944 6.15369 45.0202 6.43973C41.3847 6.87382 37.8739 7.73115 34.6724 9.55435C31.471 11.3775 29.0347 13.9712 27.9657 17.6556C27.4231 19.4897 27.3797 21.378 27.2495 23.25C27.2629 23.3852 27.2493 23.5217 27.2095 23.6517C27.1698 23.7816 27.1045 23.9023 27.0177 24.0068C26.9309 24.1113 26.8242 24.1975 26.7037 24.2604C26.5833 24.3233 26.4516 24.3617 26.3162 24.3732C24.0602 24.8514 21.895 25.6867 19.9024 26.8476C15.6266 29.4087 11.8174 32.5016 9.16943 36.7992C8.01054 38.594 7.30615 40.6441 7.11707 42.7722C6.92799 44.9003 7.25991 47.0424 8.0842 49.0135C9.37563 52.3614 11.7414 54.8954 14.5251 57.0713L14.3135 76.8009C14.3135 76.8009 13.3042 82.9542 13.7274 86.0905C14.0374 88.9651 15.3427 91.6408 17.4173 93.6546C20.7949 96.9017 25.2202 98.8373 29.8975 99.1133C30.4401 99.1513 30.7059 99.2924 30.8036 99.9055C30.9997 101.253 31.445 102.552 32.1167 103.736C34.6453 108.077 38.4545 110.915 43.1156 112.587C46.9329 113.888 51.0102 114.238 54.9935 113.607C56.5812 113.458 58.1446 113.115 59.6491 112.587C62.0204 111.631 63.925 109.987 65.759 108.278C66.3016 107.768 66.7032 107.79 67.1807 108.235C67.8915 108.902 68.5806 109.591 69.2806 110.264C73.9308 114.735 79.5577 116.2 85.825 115.549C89.7378 115.138 93.5504 114.055 97.0951 112.348C99.4338 111.225 101.555 109.803 103.01 107.578C103.954 106.046 104.685 104.392 105.18 102.662C105.232 102.375 105.391 102.119 105.624 101.944C105.858 101.77 106.149 101.691 106.439 101.723C109.276 101.689 112.08 101.108 114.698 100.014C120.037 97.8436 123.656 94.1104 125.311 88.5594C126.275 85.2349 126.492 81.7383 125.946 78.3202Z" fill="#FFE159"/>
<path d="M11.8554 57.256C12.3383 56.4258 12.5824 55.4762 13.1305 54.6731C13.6301 53.8462 14.2689 53.1118 15.0188 52.5026C16.511 51.4174 18.1551 51.8732 18.8551 53.5879C19.2922 54.8801 19.4961 56.2397 19.4574 57.6032C19.5768 60.962 19.6039 64.3208 19.4574 67.6742C19.4115 70.0939 19.1003 72.5012 18.5295 74.853C18.4316 75.231 18.2876 75.5954 18.1009 75.9383C18.0081 76.1433 17.8696 76.3244 17.6961 76.4677C17.5226 76.611 17.3186 76.7127 17.0997 76.7651C16.8808 76.8174 16.6529 76.819 16.4333 76.7698C16.2137 76.7205 16.0083 76.6217 15.8327 76.4809C14.8754 75.7982 13.9851 75.026 13.1739 74.1748C12.7263 73.6935 12.2278 73.2623 11.6871 72.8888C11.0662 72.1539 10.3876 71.4699 9.65773 70.8431C6.58338 68.044 3.72301 65.0186 1.10064 61.7923C0.604603 61.2233 0.251249 60.5444 0.0697227 59.8117C-0.0111839 59.5002 -0.0218337 59.1746 0.0385912 58.8585C0.099016 58.5424 0.228969 58.2437 0.419059 57.984C0.60915 57.7243 0.854612 57.5102 1.13767 57.357C1.42073 57.2039 1.73428 57.1156 2.05565 57.0986C2.94801 57.0595 3.83962 57.1922 4.68197 57.4893C6.56722 58.0706 8.40489 58.7962 10.1787 59.6598C10.9166 60.007 10.9818 59.9908 11.1934 59.2203C11.4455 58.5765 11.6664 57.921 11.8554 57.256Z" fill="#3BA3F5"/>
<path d="M121.35 45.8067C118.928 42.9199 116.692 39.8823 114.654 36.7124C113.437 34.9405 112.372 33.0691 111.469 31.118C111.205 30.4932 110.99 29.8493 110.823 29.1917C110.183 26.6848 110.671 25.274 112.885 24.0965C115.94 23.3043 118.1 24.5035 120.417 27.7592C120.959 28.4863 120.911 28.5189 121.502 27.8189C122.446 26.646 123.512 25.5765 124.682 24.6283C125.241 24.1889 125.873 23.8509 126.548 23.6299C128.507 23.033 129.907 24.0152 129.994 26.0608C130.039 27.9807 129.831 29.8981 129.375 31.7637C128.428 35.9058 127.197 39.9778 125.691 43.9509C125.338 44.9059 124.948 45.8772 123.89 46.3601C122.832 46.8431 122.517 46.8431 121.605 46.0183C121.54 45.9423 121.442 45.8772 121.35 45.8067Z" fill="#3BA3F5"/>
<path d="M105.234 8.65346C105.18 7.32679 105.24 5.99789 105.413 4.6815C105.458 4.41851 105.521 4.15916 105.603 3.90556C106.027 2.72265 107.096 2.42964 108.051 3.25984C108.955 4.15825 109.641 5.25144 110.058 6.45587C110.438 7.34576 110.416 7.36203 111.268 6.8574C111.936 6.41791 112.668 6.08645 113.439 5.87526C113.775 5.75493 114.139 5.73444 114.486 5.81628C114.834 5.89812 115.15 6.07878 115.398 6.33647C115.94 6.95506 115.723 7.60077 115.398 8.23563C113.869 11.4773 111.631 14.3334 108.848 16.592C108.192 17.1346 107.448 17.6772 106.515 17.2485C105.582 16.8198 105.625 15.9354 105.549 15.1052C105.328 12.9619 105.223 10.8081 105.234 8.65346Z" fill="#3BA3F5"/>
<path d="M2.54962 79.5521C2.54962 77.7832 3.38524 76.4809 4.77977 76.1282C7.27581 75.5042 8.67035 77.4251 8.52927 79.5684C8.48975 80.0092 8.36633 80.4383 8.1657 80.8327C7.43859 82.352 6.20685 83.0032 4.64412 82.6125C3.29843 82.2869 2.54962 81.1963 2.54962 79.5521Z" fill="#8ADEFF"/>
<path d="M17.7429 15.6374C19.1971 15.6374 19.9894 16.2126 20.3312 17.4172C20.4942 18.0491 20.4498 18.7166 20.2046 19.3214C19.9593 19.9261 19.5263 20.4361 18.9692 20.776C17.5476 21.6713 15.9577 21.4651 15.2089 20.2768C15.0268 20.01 14.9049 19.7069 14.8515 19.3884C14.7981 19.0698 14.8145 18.7435 14.8996 18.4319C15.1553 17.584 15.5964 16.8037 16.191 16.1475C16.3877 15.9413 16.6323 15.7868 16.903 15.6979C17.1738 15.6089 17.4622 15.5881 17.7429 15.6374Z" fill="#8ADEFF"/>
<path d="M114.057 108.251C114.095 109.619 113.325 110.471 112.039 110.487C110.644 110.487 109.326 109.402 109.293 108.159C109.293 106.786 110.346 105.837 112.093 105.723C113.243 105.641 114.019 106.672 114.057 108.251Z" fill="#8ADEFF"/>
<path d="M86.27 73.3772C86.1196 73.8697 85.8492 74.3172 85.4832 74.6795C84.4739 75.8298 83.4592 76.9802 82.412 78.0979C80.9578 79.6498 79.4547 81.1475 78.0167 82.7156C76.4214 84.4574 74.799 86.1775 73.0681 87.7782C71.6501 89.0172 70.3041 90.3361 69.0365 91.7285C65.9001 95.0167 62.6119 98.1639 59.4647 101.447C58.8352 102.103 52.8502 108.24 52.1827 108.864C51.8789 109.147 51.5424 109.51 51.0975 109.13C50.6526 108.75 50.9238 108.392 51.2169 108.045C51.8734 107.291 57.9128 101.089 58.5911 100.351C59.8554 98.9887 61.1468 97.6376 62.4328 96.3136C68.5209 89.9541 71.8309 86.8612 77.9679 80.5777C80.3663 78.1088 82.7755 75.6345 84.9623 72.9811C85.0593 72.8318 85.2025 72.7182 85.3699 72.6575C85.5373 72.5968 85.7199 72.5923 85.8901 72.6446C86.2699 72.7098 86.2917 73.0136 86.27 73.3772Z" fill="#FFFAB8"/>
<path d="M115.311 87.4255C115.371 87.9355 115.224 88.3588 114.687 88.4293C114.15 88.4998 113.976 88.12 113.835 87.6317C113.378 86.3225 112.787 85.0642 112.071 83.8768C110.699 81.2668 109.217 78.7165 107.872 76.1011C105.487 71.2982 102.855 66.6219 99.9874 62.0907C99.7508 61.7849 99.5942 61.4249 99.5316 61.0434C99.499 60.745 99.4828 60.4465 99.8355 60.2946C100.188 60.1427 100.378 60.3814 100.541 60.6365C101.968 63.1488 103.753 65.4332 105.175 67.9509C108.398 73.6701 111.523 79.4472 114.551 85.2821C114.949 85.9368 115.208 86.6664 115.311 87.4255Z" fill="#FFFAB8"/>
<path d="M81.2291 8.32265C81.1965 8.66449 80.8818 8.90328 80.5562 9.09862C79.6012 9.67922 78.6517 10.2761 77.6641 10.8024C74.8316 12.3055 71.9666 13.7651 69.1341 15.2682C67.1807 16.2991 65.2544 17.3844 63.3173 18.4425C63.1111 18.551 62.8994 18.6541 62.6824 18.7518C62.3622 18.8983 62.0313 18.9579 61.8305 18.5998C61.7821 18.5246 61.7506 18.4398 61.7382 18.3513C61.7258 18.2627 61.7328 18.1726 61.7586 18.0869C61.7843 18.0013 61.8283 17.9223 61.8876 17.8553C61.9469 17.7884 62.02 17.7351 62.1018 17.6991C63.2304 17.0045 64.3374 16.2829 65.4714 15.5992C68.9822 13.483 72.6665 11.6977 76.3238 9.83114C77.6306 9.20137 78.8989 8.49472 80.1221 7.71492C80.2308 7.61466 80.3697 7.55335 80.517 7.54058C80.6643 7.52781 80.8117 7.56431 80.936 7.64437C81.0428 7.71929 81.1267 7.82234 81.1785 7.94208C81.2302 8.06182 81.2477 8.19355 81.2291 8.32265Z" fill="#FFFAB8"/>
<path d="M38.9049 67.5115C38.9049 67.9944 38.7964 68.244 38.4383 68.2983C38.247 68.3429 38.046 68.3111 37.8778 68.2098C37.7096 68.1085 37.5875 67.9455 37.5375 67.7556C37.0654 66.4154 36.4523 65.1511 35.8391 63.8705C34.8045 61.6566 33.7772 59.4391 32.7571 57.218C31.7587 55.0204 30.7873 52.8065 29.8106 50.5981C29.734 50.4062 29.667 50.2106 29.6099 50.0121C29.5231 49.7299 29.6967 49.5617 29.8975 49.4314C29.9463 49.3969 30.0015 49.3725 30.06 49.3598C30.1184 49.3471 30.1788 49.3462 30.2375 49.3574C30.2963 49.3685 30.3522 49.3914 30.4019 49.4247C30.4517 49.4579 30.4942 49.5008 30.5269 49.5508C30.6749 49.7343 30.8006 49.9346 30.9013 50.1477C33.495 55.5739 36.2515 60.9729 38.5739 66.5564C38.7096 66.92 38.8181 67.2836 38.9049 67.5115Z" fill="#FFFAB8"/>
<path d="M44.0163 33.0823C44.0406 33.2856 43.9893 33.4908 43.8722 33.6589C43.7552 33.8269 43.5806 33.9462 43.3814 33.9939C42.9528 34.097 42.7303 33.8094 42.6109 33.4513C41.1404 29.0724 39.2901 24.8345 37.7273 20.499C37.3855 19.5603 36.984 18.6433 36.7181 17.6774C36.5933 17.2216 36.5662 16.8472 37.0762 16.6573C37.5863 16.4674 37.8305 16.8852 37.9878 17.2487C38.5305 18.4642 38.9971 19.6959 39.5017 20.9223C40.9776 24.4818 42.383 28.0685 43.6419 31.7095C43.7884 32.1707 43.8969 32.6591 44.0163 33.0823Z" fill="#FFFAB8"/>
<path d="M89.8404 108.891C87.7887 108.694 85.763 108.285 83.7956 107.67C83.1445 107.491 82.5042 107.274 81.8694 107.041C81.1151 106.759 80.7841 106.292 80.974 105.842C81.2562 105.207 81.8368 105.299 82.3522 105.391C84.5227 105.853 86.6606 106.346 88.8148 106.818C89.3455 106.974 89.8912 107.072 90.4427 107.112C90.5685 107.094 90.6967 107.106 90.8171 107.146C90.9374 107.187 91.0464 107.256 91.1352 107.347C91.224 107.438 91.2901 107.548 91.3282 107.67C91.3662 107.791 91.3752 107.919 91.3543 108.045C91.362 108.164 91.343 108.284 91.2985 108.395C91.2541 108.506 91.1855 108.606 91.0976 108.687C91.0097 108.768 90.9048 108.828 90.7906 108.864C90.6763 108.899 90.5556 108.908 90.4373 108.891H89.8404Z" fill="#FFFAB8"/>
<path d="M110.623 47.9287C110.779 47.923 110.934 47.9564 111.074 48.0257C111.214 48.0951 111.334 48.1984 111.424 48.3261C111.514 48.4538 111.571 48.602 111.589 48.7571C111.607 48.9123 111.587 49.0696 111.529 49.2147C111.375 49.6325 111.087 49.9874 110.709 50.224C109.801 50.8206 108.859 51.3641 107.888 51.8518C106.944 52.3944 105.929 52.8014 105.007 53.3874C104.572 53.6587 104.09 53.7347 103.748 53.2463C103.683 53.1553 103.638 53.0522 103.614 52.9432C103.59 52.8343 103.588 52.7215 103.608 52.6118C103.628 52.502 103.67 52.3975 103.731 52.3042C103.793 52.211 103.872 52.131 103.965 52.0689C104.77 51.3326 105.67 50.7067 106.64 50.2077C107.459 49.7519 108.306 49.3232 109.136 48.8837C109.463 48.7457 109.748 48.5228 109.961 48.238C110.032 48.1305 110.131 48.0447 110.248 47.9901C110.365 47.9355 110.495 47.9143 110.623 47.9287Z" fill="#FFFAB8"/>
<path d="M18.5024 37.6673C18.7763 37.7484 19.0431 37.8518 19.3001 37.9766C20.738 38.7797 22.2085 39.5285 23.5922 40.4401C23.8857 40.638 24.1568 40.8672 24.4007 41.1238C24.6394 41.3679 24.8293 41.623 24.5634 41.9702C24.2976 42.3175 23.9503 42.5997 23.4782 42.3338C21.617 41.2052 19.6799 40.2013 17.9164 38.9045C17.7809 38.8107 17.681 38.6741 17.6327 38.5165C17.5845 38.359 17.5907 38.1898 17.6505 38.0363C17.7807 37.6836 18.0738 37.6402 18.5024 37.6673Z" fill="#FFFAB8"/>
<path d="M35.9476 23.576C37.3584 23.576 38.7692 23.576 40.18 23.576C41.3792 23.576 41.5746 23.7767 41.6994 24.9759C41.7373 25.3123 41.7428 25.6596 41.7482 26.0015C41.7482 27.2441 41.5257 27.4774 40.2506 27.4828C39.7405 27.4828 39.225 27.4394 38.715 27.4069C37.5483 27.3417 37.5212 27.3417 37.5971 28.4921C37.7219 30.4509 37.8793 32.4152 38.0258 34.3741C38.0692 34.9709 38.1181 35.5678 38.1669 36.1647C38.2429 37.1523 38.2429 37.1468 39.1816 37.1034C39.6917 37.0763 40.2071 37.06 40.7172 37.0546C40.8356 37.0418 40.9554 37.0549 41.0683 37.0931C41.1811 37.1313 41.2842 37.1937 41.3704 37.2758C41.4567 37.3579 41.524 37.4578 41.5677 37.5686C41.6114 37.6795 41.6304 37.7985 41.6234 37.9174C41.6234 38.0856 41.6234 38.2592 41.6613 38.4274C41.7699 40.7227 41.7699 40.701 39.4909 40.8638C37.0138 41.0265 34.5287 41.0265 32.0516 40.8638C30.7493 40.7824 30.5214 40.5273 30.4943 39.2359C30.4672 38.766 30.4672 38.295 30.4943 37.8251C30.5811 37.0003 30.8307 36.7833 31.6609 36.843C32.2569 36.8891 32.8556 36.8891 33.4515 36.843C34.0701 36.7887 34.2546 36.474 34.2167 35.9151C34.1678 35.15 34.1461 34.3795 34.0919 33.609C33.9779 31.9052 33.8694 30.1959 33.7229 28.4921C33.6415 27.51 33.6089 27.5099 32.6376 27.4882C30.5811 27.4448 30.5811 27.4448 30.4671 25.3503V25.2201C30.3749 23.5922 30.3804 23.6411 32.0625 23.538C33.3865 23.4349 34.6671 23.5651 35.9476 23.576Z" fill="#F7760C"/>
<path d="M72.4061 34.2054C72.4634 35.6033 72.4162 37.0035 72.265 38.3944C71.7549 41.7532 70.2791 43.1369 66.4048 42.2416C65.597 42.1018 64.856 41.7045 64.2927 41.1089C63.7293 40.5133 63.3739 39.7514 63.2793 38.937C62.7431 36.2108 62.503 33.4345 62.563 30.6567C62.6071 29.413 62.9024 28.1911 63.4312 27.0646C63.6546 26.5227 64.0292 26.0566 64.5103 25.7218C64.9914 25.3869 65.5585 25.1976 66.1443 25.1763C67.781 25.0153 69.4147 25.5111 70.686 26.5545C71.8255 27.4661 72.1185 28.725 72.3138 30.0707C72.4465 31.4447 72.4773 32.8268 72.4061 34.2054ZM65.8296 33.3155C65.8621 33.3155 65.8675 34.6069 65.9381 35.2364C66.052 36.2511 66.1117 37.2929 66.7737 38.1557C66.8921 38.3485 67.0567 38.5088 67.2525 38.6221C67.4484 38.7354 67.6694 38.7982 67.8956 38.8047C68.1218 38.8111 68.3461 38.7611 68.5481 38.6592C68.7501 38.5572 68.9236 38.4066 69.0527 38.2208C69.428 37.7576 69.6482 37.1881 69.6821 36.5929C69.7744 35.3117 69.7636 34.0252 69.6496 32.7458C69.6034 31.7189 69.3525 30.7116 68.9117 29.7831C68.8115 29.5564 68.6533 29.36 68.4532 29.2138C68.253 29.0677 68.0179 28.9768 67.7714 28.9504C67.525 28.924 67.2759 28.963 67.0493 29.0634C66.8227 29.1639 66.6266 29.3222 66.4807 29.5226C66.0812 29.9727 65.8527 30.5489 65.835 31.1505C65.8024 31.8613 65.8296 32.5884 65.8296 33.3155Z" fill="#F7760C"/>
<path d="M89.1133 33.2991C89.1133 30.7705 89.0807 28.4155 88.9776 26.066C88.9234 24.7746 89.1512 24.563 90.4373 24.563C92.5372 24.563 94.6317 24.563 96.7316 24.6009C97.0734 24.6092 97.4135 24.6529 97.7463 24.7312C97.9124 24.7688 98.0617 24.8597 98.1714 24.99C98.2811 25.1202 98.3453 25.2828 98.3541 25.4529C98.7556 28.0303 98.5223 28.3179 95.9666 28.3179C94.979 28.3179 93.9914 28.3179 93.0093 28.3179C92.4178 28.3179 92.1357 28.4915 92.2171 29.1372C92.2921 29.7749 92.332 30.4161 92.3364 31.0581C92.3364 31.6007 92.6023 31.8015 93.134 31.7906C93.8177 31.7906 94.5015 31.7906 95.1852 31.7906C95.2902 31.7734 95.3977 31.7791 95.5004 31.8074C95.603 31.8356 95.6984 31.8857 95.7798 31.9543C95.8613 32.0229 95.9269 32.1082 95.9723 32.2045C96.0176 32.3009 96.0416 32.4059 96.0425 32.5123C96.4821 35.0626 96.3409 34.813 94.3007 34.813C92.4666 34.813 92.4667 34.813 92.5589 36.6199C92.6511 38.4268 92.6512 38.4377 94.4689 38.3129C95.3697 38.2532 96.265 38.1881 97.182 38.1392C98.099 38.0904 98.2238 38.2695 98.3432 39.1214C98.7231 41.7151 98.5982 41.8725 95.9991 41.9376C94.3278 41.981 92.662 42.0027 90.9907 42.0352C89.7156 42.0352 89.5636 41.9539 89.4931 40.7059C89.3357 38.1718 89.2272 35.6486 89.1133 33.2991Z" fill="#F7760C"/>
<path d="M80.1926 31.4601C80.5942 29.4416 80.9469 27.7052 81.2779 25.958C81.4913 24.8257 81.6722 23.688 81.8205 22.5449C81.891 22.0403 82.0755 21.7581 82.6236 21.7853C83.3941 21.8233 84.1646 21.8395 84.9351 21.8666C85.4777 21.8666 85.6514 22.1163 85.5212 22.6914C84.9026 25.4045 84.322 28.1176 83.7305 30.8307C83.2693 32.9578 82.8352 35.0956 82.3414 37.2173C82.0593 38.4327 82.0213 38.4273 80.8058 38.449C80.2957 38.449 79.7803 38.4165 79.2702 38.449C79.1236 38.4788 78.9722 38.4768 78.8264 38.4431C78.6806 38.4095 78.5437 38.345 78.425 38.254C78.3062 38.163 78.2083 38.0476 78.1379 37.9156C78.0675 37.7835 78.0262 37.6379 78.0167 37.4886C77.6369 35.7793 77.2408 34.0701 76.8067 32.3717C76.0036 29.2245 75.1789 26.0828 74.3541 22.941C74.0611 21.8232 74.0665 21.7744 75.2385 21.7853C77.8214 21.7853 77.5989 21.3837 78.2121 24.124C78.695 26.2944 79.2973 28.4378 79.8399 30.5919C79.9402 30.8881 80.058 31.178 80.1926 31.4601Z" fill="#F7760C"/>
<path d="M50.2999 21.8013C50.2999 21.2587 50.5387 20.9277 51.1572 20.9711C51.7139 21.0036 52.2719 21.0036 52.8285 20.9711C53.4905 20.9711 53.7238 21.2369 53.7347 21.8935C53.7998 25.312 53.8975 28.7359 53.9843 32.1544V32.5397C53.9843 33.766 54.0223 33.7986 55.3028 33.8203C56.3881 33.8203 57.5276 33.8203 58.64 33.8203C58.9004 33.8203 59.1555 33.8203 59.4105 33.8203C59.5071 33.8193 59.6029 33.8383 59.6918 33.8762C59.7807 33.914 59.8608 33.9699 59.9271 34.0402C59.9933 34.1106 60.0444 34.1939 60.0768 34.2849C60.1093 34.3759 60.1226 34.4727 60.1159 34.5691C60.143 35.4698 60.1919 36.3651 60.2244 37.2822C60.2244 37.9604 59.7903 38.031 59.2748 37.9767C57.438 37.8383 55.5933 37.8383 53.7564 37.9767C53.0347 38.0093 52.3076 38.0744 51.5859 38.0907C50.7232 38.0907 50.7015 38.0906 50.7015 37.2659C50.6906 34.7536 50.2999 22.4416 50.2999 21.8013Z" fill="#F7760C"/>
<path d="M57.5764 64.5486C57.5276 65.3517 57.3377 65.5145 56.5563 65.5525C55.9594 65.5525 55.3625 65.5525 54.7657 65.5525C54.658 65.5653 54.549 65.5537 54.4465 65.5186C54.3439 65.4835 54.2506 65.4257 54.1735 65.3496C54.0963 65.2735 54.0373 65.181 54.0008 65.079C53.9643 64.9769 53.9512 64.868 53.9626 64.7602C53.9626 64.4618 53.9626 64.1634 53.9626 63.8595L54.0114 50.3809C54.0033 50.2942 54.0033 50.207 54.0114 50.1204C54.1091 49.5778 53.8161 48.7259 54.3641 48.4546C55.2548 48.1244 56.232 48.111 57.1315 48.4166C57.5113 48.5088 57.533 48.9592 57.571 49.2848C57.6687 50.2181 57.7392 51.1568 57.8097 52.0956C57.8423 52.5188 57.8097 52.9529 57.864 53.3761C57.9182 53.7994 57.6795 54.4614 58.1787 54.635C58.7232 54.7154 59.2786 54.6765 59.8066 54.521C60.2027 54.4559 60.1484 54.0815 60.1484 53.7939C60.1484 53.0234 60.1484 52.2529 60.1213 51.4824C60.0942 50.7119 60.0887 50.0227 60.1213 49.3119C60.1701 48.3623 60.3329 48.2267 61.3042 48.2267C63.4747 48.2267 63.6049 48.3027 63.6971 50.4297C63.8816 54.9172 63.9902 59.41 64.3483 63.892C64.3727 64.19 64.3727 64.4894 64.3483 64.7874C64.3498 64.9063 64.3273 65.0242 64.2821 65.1343C64.237 65.2443 64.1701 65.3441 64.0855 65.4277C64.0009 65.5112 63.9003 65.5769 63.7898 65.6207C63.6792 65.6645 63.561 65.6856 63.4421 65.6827C63.2282 65.6879 63.0142 65.6771 62.8018 65.6501C60.9949 65.5579 60.9949 65.5579 60.7941 63.7564C60.6494 62.483 60.5066 61.2169 60.3655 59.9581C60.2515 58.8728 60.2515 58.8728 59.2477 58.9163C57.2508 59.0139 57.5168 58.9705 57.5168 60.7231C57.533 61.1735 57.6253 63.7401 57.5764 64.5486Z" fill="#F7760C"/>
<path d="M72.3573 51.6129C73.665 51.6129 74.9781 51.6129 76.2858 51.6129C77.3711 51.6129 77.5718 51.7974 77.6912 52.9043C77.722 53.2217 77.7365 53.5405 77.7346 53.8593C77.7346 55.0097 77.5284 55.2267 76.3509 55.2321C75.8734 55.2321 75.3959 55.1887 74.9238 55.1616C73.8386 55.1019 73.8386 55.1019 73.8874 56.1437C74.0014 57.9669 74.1479 59.7847 74.2835 61.6025L74.4137 63.2629C74.4843 64.1799 74.4844 64.1745 75.358 64.1311C75.83 64.1311 76.3075 64.0931 76.7796 64.0877C76.8893 64.0757 77.0002 64.0877 77.1047 64.1229C77.2092 64.1582 77.3049 64.2157 77.3849 64.2916C77.4649 64.3676 77.5275 64.46 77.5682 64.5625C77.609 64.665 77.6268 64.7752 77.6206 64.8853C77.6206 65.0427 77.6478 65.2 77.6532 65.3574C77.7563 67.4845 77.7563 67.4682 75.6455 67.6147C73.3491 67.7666 71.0452 67.7666 68.7489 67.6147C67.5388 67.5441 67.3272 67.3054 67.3 66.0845C67.2729 65.649 67.2729 65.2123 67.3 64.7768C67.3814 64.0117 67.6148 63.8055 68.3853 63.8598C68.936 63.9059 69.4896 63.9059 70.0403 63.8598C70.6155 63.8055 70.7891 63.5179 70.7565 62.997C70.7077 62.2862 70.686 61.5699 70.6372 60.8591C70.5286 59.2801 70.431 57.6956 70.2953 56.1166C70.2193 55.205 70.1922 55.205 69.2915 55.1888C67.3815 55.1454 67.3814 55.1453 67.2946 53.2028V53.0834C67.2132 51.5858 67.2133 51.6183 68.776 51.5261C69.9861 51.4718 71.1689 51.6129 72.3573 51.6129Z" fill="#F7760C"/>
<path d="M85.3421 65.3952C81.8911 65.2433 80.8872 64.31 80.3446 60.5117C80.1818 59.4264 80.4315 59.1605 81.5818 59.0574C81.8839 59.0169 82.1892 59.006 82.4934 59.0249C83.6329 59.1659 83.9965 59.2799 83.953 60.3977C83.959 60.66 83.9973 60.9206 84.067 61.1736C84.2949 62.1883 84.729 62.4054 85.646 61.9713C86.1719 61.7048 86.6107 61.2935 86.9106 60.7859C87.2106 60.2783 87.3592 59.6955 87.339 59.1063C87.1979 57.7986 86.5196 57.1149 85.0546 56.8164C84.6717 56.7308 84.2839 56.6691 83.8934 56.6319C80.5888 56.3443 79.8074 54.0165 81.0012 51.2872C82.2763 48.3787 85.4669 47.619 88.0824 48.688C88.7678 49.0347 89.3161 49.6027 89.6381 50.3001C89.9602 50.9974 90.0372 51.7831 89.8567 52.5297C89.819 52.7222 89.7156 52.8957 89.5642 53.0204C89.4127 53.1451 89.2227 53.2133 89.0265 53.2134C87.7134 53.3274 87.3119 53.0886 86.8126 51.8081C86.5196 51.0538 86.1886 50.8639 85.4072 51.0538C85.0681 51.1314 84.7438 51.2633 84.4468 51.4445C84.1677 51.5754 83.9382 51.793 83.7926 52.0647C83.6469 52.3365 83.5928 52.648 83.6383 52.953C83.7631 53.615 84.3654 53.6258 84.8646 53.7343C85.3638 53.8429 85.7219 53.8646 86.1506 53.9568C87.1993 54.1175 88.1568 54.6454 88.8525 55.4464C89.5482 56.2474 89.9367 57.2695 89.9489 58.3303C90.0356 59.6809 89.8944 61.0365 89.5312 62.3403C88.88 64.6355 87.7405 65.4657 85.3421 65.3952Z" fill="#F7760C"/>
<path d="M43.6745 61.2389C43.6094 59.3289 43.6257 57.4406 43.4737 55.5197C43.3706 54.288 43.3489 54.2445 42.166 54.212C41.4118 54.212 40.6575 54.212 39.9033 54.212C39.3606 54.212 39.0731 53.9841 39.0622 53.436C39.0622 53.3492 39.0622 53.2624 39.0622 53.1702C38.9537 50.9454 38.9537 50.9997 41.1404 50.9997C43.8535 51.0322 46.5666 50.9671 49.2797 50.9997C49.7735 50.9997 50.4626 50.7501 50.6851 51.4067C51.0026 52.1971 51.0026 53.0797 50.6851 53.8701C50.5386 54.2011 50.175 54.1631 49.8603 54.1794C49.1115 54.1794 48.3573 54.2663 47.603 54.2663C46.9465 54.2663 46.7619 54.5864 46.8162 55.1941C46.9139 56.4313 46.9194 57.6793 47.0767 58.9056C47.4131 61.6187 47.2666 64.3318 47.2828 67.0178C47.2828 68.1898 47.1689 68.2766 45.9535 68.282C43.5171 68.282 43.783 68.4068 43.6907 66.155C43.6093 64.5217 43.6745 62.8776 43.6745 61.2389Z" fill="#F7760C"/>
<path d="M83.8174 89.4873C83.5786 89.9865 83.991 94.322 83.7197 94.4631C82.9329 94.8537 82.0592 94.7127 81.2128 94.615C81.0746 94.5986 80.9481 94.5298 80.8592 94.4228C80.7703 94.3157 80.7259 94.1786 80.7353 94.0398C80.7353 93.6871 80.7353 93.3344 80.7353 92.9872C80.7353 89.0912 80.748 85.1934 80.7733 81.2938C80.7733 80.9031 80.7733 80.5124 80.7733 80.1271C80.7082 78.9062 80.7353 78.8737 81.9128 78.8574C82.1027 78.8574 82.298 78.8574 82.4933 78.8574C83.8336 78.9225 83.9367 79.0365 83.9096 80.3767C83.9096 80.8814 83.6057 83.7193 83.7739 83.779C83.9421 83.8387 86.3622 81.0658 86.8886 80.2194C88.1095 78.8465 88.3157 78.9876 88.9885 78.9822L90.4536 79.0528C91.2078 79.1179 91.3434 79.4272 90.8605 80.0078C89.9652 81.093 89.0427 82.1403 88.1474 83.1984C87.3606 84.11 86.5738 85.0324 85.7599 85.9114C85.6782 85.9799 85.6116 86.0643 85.564 86.1597C85.5164 86.255 85.4889 86.3591 85.4833 86.4655C85.4777 86.5719 85.4941 86.6783 85.5314 86.7781C85.5687 86.8779 85.6262 86.9689 85.7002 87.0455C86.5901 88.2772 87.4692 89.5198 88.3482 90.757C89.0713 91.6765 89.6833 92.6783 90.1714 93.7414C90.421 94.3654 90.3342 94.4956 89.683 94.5065C89.2656 94.4821 88.8471 94.4821 88.4296 94.5065C88.0809 94.5605 87.724 94.4998 87.4128 94.3334C87.1016 94.1671 86.8528 93.904 86.704 93.584C86.1126 92.7267 84.0941 89.3136 83.8174 89.4873Z" fill="#F7760C"/>
<path d="M66.3559 94.6859C66.1225 94.6859 65.8893 94.6859 65.6559 94.6859C65.5495 94.7019 65.441 94.6964 65.3367 94.6696C65.2325 94.6428 65.1347 94.5954 65.0491 94.5301C64.9636 94.4648 64.8921 94.383 64.8388 94.2895C64.7855 94.196 64.7515 94.0928 64.7389 93.9859C64.5055 93.1232 64.2289 92.2713 64.0335 91.3976C63.887 90.7465 63.5831 90.6488 62.894 90.5349C62.2157 90.5349 61.38 90.2744 60.8483 90.6759C60.3165 91.0775 60.5282 91.9782 60.436 92.6565C60.1701 94.6316 60.1863 94.6371 58.1461 94.7185H58.0321C56.5074 94.7673 56.3609 94.6045 56.7461 93.1774C57.6577 89.7915 58.2112 86.3241 59.0848 82.9328C59.3452 81.9127 59.6871 80.9197 59.9367 79.8996C59.983 79.6503 60.1054 79.4214 60.2871 79.2446C60.4688 79.0677 60.7009 78.9515 60.9514 78.912C61.7236 78.8197 62.5046 78.8307 63.2738 78.9446C63.6048 78.9446 63.6591 79.2755 63.7405 79.5414C64.7335 82.7971 65.7427 86.0094 66.7303 89.2489C67.0939 90.4426 67.4194 91.6418 67.7613 92.841C67.8333 93.0628 67.8894 93.2895 67.9295 93.5193C68.038 94.42 67.859 94.6045 66.9419 94.6642H66.3559V94.6859ZM62.0149 83.9475C61.5019 85.1355 61.1708 86.394 61.0328 87.6807C61.6497 87.8299 62.2933 87.8299 62.9103 87.6807C62.6932 86.6497 62.4924 85.6676 62.2754 84.6963C62.2012 84.4425 62.1143 84.1926 62.0149 83.9475Z" fill="#F7760C"/>
<path d="M37.7003 94.6859C37.467 94.6859 37.2337 94.6859 37.0003 94.6859C36.8937 94.7012 36.7851 94.6951 36.6809 94.6681C36.5766 94.6411 36.4787 94.5937 36.3929 94.5286C36.3071 94.4635 36.2351 94.382 36.181 94.2889C36.1269 94.1957 36.0919 94.0928 36.0779 93.986C35.8446 93.1232 35.5678 92.2713 35.3725 91.3977C35.2314 90.7465 34.9276 90.6488 34.2384 90.5349C33.5602 90.5349 32.7245 90.2744 32.1873 90.676C31.6501 91.0775 31.8672 91.9783 31.7804 92.6565C31.5091 94.6317 31.5254 94.6371 29.4905 94.7185H29.3712C27.8464 94.7673 27.7053 94.6045 28.0905 93.1774C29.0021 89.7915 29.5502 86.3242 30.4238 82.9328C30.6897 81.9127 31.0315 80.9197 31.2811 79.8996C31.3263 79.6507 31.4478 79.422 31.6286 79.2451C31.8094 79.0682 32.0407 78.9518 32.2905 78.912C33.0644 78.8197 33.8472 78.8306 34.6182 78.9446C34.9438 78.9446 34.9981 79.2756 35.0795 79.5415C36.0779 82.7972 37.0872 86.0095 38.0747 89.2489C38.4383 90.4426 38.7638 91.6418 39.1003 92.841C39.1765 93.062 39.2346 93.2888 39.2739 93.5193C39.3825 94.42 39.2034 94.6045 38.2809 94.6642H37.7003V94.6859ZM33.3594 83.9475C32.8481 85.1358 32.5188 86.3943 32.3827 87.6807C32.9996 87.8299 33.6432 87.8299 34.2601 87.6807C34.0431 86.6497 33.8423 85.6676 33.6198 84.6963C33.5487 84.4408 33.4599 84.1907 33.354 83.9475H33.3594Z" fill="#F7760C"/>
<path d="M93.6224 84.2404C93.6495 81.9397 93.5898 79.7963 93.503 77.653C93.4542 76.4864 93.655 76.291 94.827 76.291C96.737 76.291 98.6253 76.291 100.562 76.3236C100.871 76.3309 101.179 76.3709 101.479 76.443C101.628 76.4799 101.761 76.5636 101.859 76.6818C101.957 76.8 102.014 76.9464 102.022 77.0995C102.386 79.4436 102.174 79.7095 99.8516 79.7095C98.9509 79.7095 98.0555 79.7095 97.1385 79.7095C96.5959 79.7095 96.3409 79.8669 96.4169 80.4529C96.4827 81.0331 96.5189 81.6162 96.5253 82.2001C96.5253 82.7102 96.7696 82.8838 97.2525 82.8675C97.8711 82.8675 98.4951 82.8675 99.1191 82.8675C99.215 82.8528 99.313 82.8588 99.4065 82.8852C99.4999 82.9115 99.5866 82.9577 99.6607 83.0204C99.7348 83.0832 99.7945 83.1611 99.8359 83.2489C99.8773 83.3368 99.8993 83.4325 99.9005 83.5295C100.302 85.8519 100.166 85.624 98.3106 85.6186C96.6447 85.6186 96.6448 85.6186 96.7262 87.2465C96.8076 88.8743 96.813 88.8743 98.468 88.7875C99.2873 88.7332 100.096 88.6735 100.921 88.6301C101.745 88.5867 101.865 88.7495 102.006 89.5255C102.348 91.8804 102.234 92.0269 99.8679 92.0866C98.3486 92.13 96.8292 92.1463 95.3099 92.1789C94.1487 92.1789 94.0076 92.1029 93.9479 90.9634C93.8231 88.679 93.7092 86.3783 93.6224 84.2404Z" fill="#F7760C"/>
<path d="M46.2194 77.056C46.2194 76.5406 46.4311 76.2638 47.0008 76.3018C47.5068 76.3316 48.0141 76.3316 48.5201 76.3018C49.1224 76.3018 49.334 76.546 49.3449 77.1374C49.4046 80.252 49.4914 83.3667 49.5674 86.4813C49.5674 86.6007 49.5674 86.7146 49.5674 86.834C49.5674 87.9463 49.5999 87.9789 50.7666 87.9952C51.7813 87.9952 52.7905 87.9952 53.8052 87.9952C54.0385 87.9952 54.2719 87.9952 54.5052 87.9952C54.5935 87.9933 54.6813 88.0101 54.7627 88.0444C54.8442 88.0787 54.9174 88.1297 54.9778 88.1942C55.0382 88.2587 55.0844 88.3352 55.1133 88.4187C55.1421 88.5022 55.1532 88.5909 55.1455 88.6789C55.1455 89.4982 55.2214 90.3068 55.2486 91.1315C55.2486 91.7501 54.8525 91.8152 54.3804 91.7664C52.7098 91.6389 51.0318 91.6389 49.3612 91.7664C48.6992 91.7989 48.0372 91.8586 47.3752 91.8695C46.5938 91.8695 46.5721 91.8695 46.5721 91.1207C46.5667 88.8525 46.2194 77.6583 46.2194 77.056Z" fill="#F7760C"/>
<path d="M71.6085 85.7377C71.5488 83.9634 71.5651 82.189 71.4186 80.4147C71.3263 79.2697 71.3046 79.2318 70.2031 79.1992C69.5031 79.1992 68.7977 79.1992 68.0977 79.1992C67.5551 79.1992 67.3272 78.9876 67.3163 78.4775C67.3163 78.3961 67.3163 78.3147 67.3163 78.2333C67.2187 76.1605 67.2187 76.2039 69.2535 76.2311C71.7713 76.2636 74.289 76.2311 76.8067 76.2311C77.2625 76.2311 77.892 75.9978 78.1144 76.6109C78.4077 77.3479 78.4077 78.1692 78.1144 78.9062C77.9734 79.21 77.6369 79.1775 77.3439 79.1883C76.6439 79.2209 75.9439 79.2697 75.244 79.2751C74.6308 79.2751 74.4626 79.5682 74.506 80.1325C74.6037 81.2828 74.6092 82.4495 74.7502 83.589C75.065 86.1013 74.9293 88.6245 74.9456 91.1368C74.9456 92.222 74.837 92.3088 73.7084 92.3197C71.4402 92.3197 71.7061 92.4336 71.603 90.3337C71.5488 88.7981 71.6085 87.2679 71.6085 85.7377Z" fill="#F7760C"/>
</svg>
