<svg width="19" height="19" viewBox="0 0 19 19" fill="none" xmlns="http://www.w3.org/2000/svg">
<path d="M5.54166 3.95837V3.20837V3.95837ZM13.4583 3.95837V3.20837V3.95837ZM3.95833 13.4584H3.20833H3.95833ZM4.70833 5.54171C4.70833 5.32069 4.79613 5.10873 4.95241 4.95245L3.89175 3.89179C3.45416 4.32938 3.20833 4.92287 3.20833 5.54171H4.70833ZM4.95241 4.95245C5.10869 4.79617 5.32065 4.70837 5.54166 4.70837V3.20837C4.92282 3.20837 4.32933 3.45421 3.89175 3.89179L4.95241 4.95245ZM5.54166 4.70837H13.4583V3.20837H5.54166V4.70837ZM13.4583 4.70837C13.6793 4.70837 13.8913 4.79617 14.0476 4.95245L15.1082 3.89179C14.6707 3.45421 14.0772 3.20837 13.4583 3.20837V4.70837ZM14.0476 4.95245C14.2039 5.10873 14.2917 5.32069 14.2917 5.54171H15.7917C15.7917 4.92287 15.5458 4.32938 15.1082 3.89179L14.0476 4.95245ZM14.2917 5.54171V13.4584H15.7917V5.54171H14.2917ZM14.2917 13.4584C14.2917 13.6794 14.2039 13.8913 14.0476 14.0476L15.1082 15.1083C15.5458 14.6707 15.7917 14.0772 15.7917 13.4584H14.2917ZM14.0476 14.0476C13.8913 14.2039 13.6793 14.2917 13.4583 14.2917V15.7917C14.0772 15.7917 14.6707 15.5459 15.1082 15.1083L14.0476 14.0476ZM13.4583 14.2917H5.54166V15.7917H13.4583V14.2917ZM5.54166 14.2917C5.32065 14.2917 5.10869 14.2039 4.95241 14.0476L3.89175 15.1083C4.32933 15.5459 4.92282 15.7917 5.54166 15.7917V14.2917ZM4.95241 14.0476C4.79613 13.8913 4.70833 13.6794 4.70833 13.4584H3.20833C3.20833 14.0772 3.45416 14.6707 3.89175 15.1083L4.95241 14.0476ZM4.70833 13.4584V5.54171H3.20833V13.4584H4.70833Z" fill="#6C7278"/>
</svg>
