<svg width="20" height="20" viewBox="0 0 20 20" fill="none" xmlns="http://www.w3.org/2000/svg">
<path d="M6.66667 18.7333C6.44023 18.7352 6.21687 18.6807 6.01666 18.5749C5.78137 18.4573 5.58347 18.2766 5.44512 18.0528C5.30677 17.8291 5.23343 17.5713 5.23333 17.3083V15.7083C4.1102 15.6527 3.05138 15.1676 2.27586 14.3533C1.50034 13.539 1.06743 12.4578 1.06667 11.3333V5.64993C1.06883 4.49239 1.52791 3.38251 2.34408 2.56166C3.16025 1.74081 4.26748 1.27539 5.425 1.2666H14.5917C15.7535 1.2688 16.8672 1.73133 17.6887 2.55288C18.5103 3.37444 18.9728 4.48808 18.975 5.64993V11.3333C18.9728 12.4951 18.5103 13.6088 17.6887 14.4303C16.8672 15.2519 15.7535 15.7144 14.5917 15.7166H11.3333C11.2982 15.7045 11.2601 15.7045 11.225 15.7166L7.5 18.4666C7.25606 18.6387 6.96519 18.7318 6.66667 18.7333ZM5.425 2.49993C5.01212 2.49993 4.60331 2.58152 4.22206 2.74003C3.84082 2.89854 3.49466 3.13083 3.20348 3.42355C2.91231 3.71628 2.68186 4.06366 2.52538 4.44574C2.36889 4.82782 2.28947 5.23706 2.29167 5.64993V11.3333C2.29387 12.1636 2.62469 12.9593 3.21183 13.5464C3.79897 14.1336 4.59466 14.4644 5.425 14.4666C5.5607 14.4666 5.69507 14.4933 5.82044 14.5453C5.94581 14.5972 6.05972 14.6733 6.15568 14.7693C6.25163 14.8652 6.32774 14.9791 6.37967 15.1045C6.4316 15.2299 6.45833 15.3642 6.45833 15.4999V17.3083C6.45722 17.3416 6.46616 17.3746 6.48399 17.4028C6.50182 17.431 6.52772 17.4533 6.55833 17.4666C6.58459 17.4869 6.61683 17.4979 6.65 17.4979C6.68317 17.4979 6.71541 17.4869 6.74167 17.4666L10.4917 14.7499C10.7351 14.5769 11.0263 14.4837 11.325 14.4833H14.5667C15.397 14.4811 16.1927 14.1502 16.7798 13.5631C17.367 12.976 17.6978 12.1803 17.7 11.3499V5.64993C17.7022 5.23776 17.623 4.8292 17.4671 4.44767C17.3111 4.06613 17.0814 3.71912 16.7911 3.4265C16.5008 3.13389 16.1557 2.90142 15.7754 2.74243C15.3951 2.58343 14.9872 2.50103 14.575 2.49993H5.425ZM10 5.09993C9.49167 5.09993 9.00416 5.30187 8.64471 5.66131C8.28527 6.02076 8.08333 6.50827 8.08333 7.0166C8.08333 7.18236 8.14918 7.34133 8.26639 7.45854C8.3836 7.57575 8.54257 7.6416 8.70833 7.6416C8.87409 7.6416 9.03306 7.57575 9.15027 7.45854C9.26748 7.34133 9.33333 7.18236 9.33333 7.0166C9.33333 6.83979 9.40357 6.67022 9.52859 6.5452C9.65362 6.42017 9.82319 6.34993 10 6.34993C10.1768 6.34993 10.3464 6.42017 10.4714 6.5452C10.5964 6.67022 10.6667 6.83979 10.6667 7.0166C10.6665 7.13216 10.6355 7.24558 10.5769 7.34518C10.5183 7.44479 10.4342 7.52697 10.3333 7.58327C10.0322 7.77542 9.78569 8.04208 9.61779 8.35742C9.4499 8.67277 9.36627 9.02612 9.375 9.38327V9.6166C9.375 9.78236 9.44085 9.94133 9.55806 10.0585C9.67527 10.1758 9.83424 10.2416 10 10.2416C10.1658 10.2416 10.3247 10.1758 10.4419 10.0585C10.5592 9.94133 10.625 9.78236 10.625 9.6166V9.38327C10.6178 9.24482 10.6453 9.10677 10.705 8.98163C10.7647 8.85649 10.8546 8.74821 10.9667 8.6666C11.3278 8.45315 11.609 8.12709 11.767 7.73847C11.925 7.34984 11.9511 6.92011 11.8414 6.5152C11.7316 6.11029 11.4921 5.75257 11.1595 5.49692C10.8268 5.24127 10.4195 5.10181 10 5.09993ZM10 10.8333C9.87639 10.8333 9.75555 10.8699 9.65277 10.9386C9.54999 11.0073 9.46988 11.1049 9.42257 11.2191C9.37527 11.3333 9.36289 11.459 9.38701 11.5802C9.41112 11.7014 9.47065 11.8128 9.55806 11.9002C9.64547 11.9876 9.75683 12.0471 9.87807 12.0713C9.99931 12.0954 10.125 12.083 10.2392 12.0357C10.3534 11.9884 10.451 11.9083 10.5197 11.8055C10.5883 11.7027 10.625 11.5819 10.625 11.4583C10.6228 11.2932 10.5563 11.1355 10.4396 11.0187C10.3228 10.902 10.1651 10.8354 10 10.8333Z" fill="#022150"/>
</svg>
