<svg width="24" height="24" viewBox="0 0 24 24" fill="none" xmlns="http://www.w3.org/2000/svg">
<path d="M9.99994 18C11.7749 17.9996 13.4987 17.4054 14.8969 16.312L19.2929 20.708L20.7069 19.294L16.3109 14.898C17.4049 13.4997 17.9995 11.7754 17.9999 10C17.9999 5.589 14.4109 2 9.99994 2C5.58894 2 1.99994 5.589 1.99994 10C1.99994 14.411 5.58894 18 9.99994 18ZM9.99994 4C13.3089 4 15.9999 6.691 15.9999 10C15.9999 13.309 13.3089 16 9.99994 16C6.69094 16 3.99994 13.309 3.99994 10C3.99994 6.691 6.69094 4 9.99994 4Z" fill="#2F80ED"/>
</svg>
