<svg width="17" height="17" viewBox="0 0 17 17" fill="none" xmlns="http://www.w3.org/2000/svg">
<path d="M11.9142 16.1146H2.12499C1.79737 16.1109 1.48422 15.9791 1.25254 15.7475C1.02087 15.5158 0.889088 15.2026 0.885406 14.875V5.08584C0.887279 3.97239 1.33042 2.90509 2.11775 2.11776C2.90507 1.33044 3.97238 0.887295 5.08582 0.885422H11.9142C13.0276 0.887295 14.0949 1.33044 14.8822 2.11776C15.6696 2.90509 16.1127 3.97239 16.1146 5.08584V11.9142C16.1127 13.0276 15.6696 14.0949 14.8822 14.8822C14.0949 15.6696 13.0276 16.1127 11.9142 16.1146ZM5.08582 1.94792C4.25417 1.94979 3.45712 2.28099 2.86905 2.86906C2.28098 3.45713 1.94978 4.25419 1.94791 5.08584V14.875C1.94791 14.9257 1.96806 14.9744 2.00392 15.0102C2.03979 15.0461 2.08843 15.0663 2.13916 15.0663H11.9142C12.7458 15.0644 13.5429 14.7332 14.1309 14.1451C14.719 13.557 15.0502 12.76 15.0521 11.9283V5.08584C15.0502 4.25419 14.719 3.45713 14.1309 2.86906C13.5429 2.28099 12.7458 1.94979 11.9142 1.94792H5.08582ZM12.4029 6.72917C12.4011 6.58885 12.3445 6.45478 12.2453 6.35555C12.146 6.25632 12.012 6.19976 11.8717 6.19792H5.12832C4.98743 6.19792 4.8523 6.25389 4.75267 6.35352C4.65304 6.45315 4.59707 6.58828 4.59707 6.72917C4.59707 6.87007 4.65304 7.00519 4.75267 7.10482C4.8523 7.20445 4.98743 7.26042 5.12832 7.26042H11.8717C12.012 7.25859 12.146 7.20203 12.2453 7.10279C12.3445 7.00356 12.4011 6.8695 12.4029 6.72917ZM10.1575 10.2708C10.1557 10.1305 10.0991 9.99645 9.99986 9.89722C9.90063 9.79798 9.76657 9.74142 9.62624 9.73959H5.12832C4.98743 9.73959 4.8523 9.79556 4.75267 9.89519C4.65304 9.99482 4.59707 10.1299 4.59707 10.2708C4.59707 10.4117 4.65304 10.5469 4.75267 10.6465C4.8523 10.7461 4.98743 10.8021 5.12832 10.8021H9.62624C9.76657 10.8003 9.90063 10.7437 9.99986 10.6445C10.0991 10.5452 10.1557 10.4112 10.1575 10.2708Z" fill="#022150"/>
</svg>
