<svg width="28" height="28" viewBox="0 0 28 28" fill="none" xmlns="http://www.w3.org/2000/svg">
<path d="M5.671 5.1084L25.337 14.0047C25.5355 14.0946 25.7031 14.2357 25.8204 14.4118C25.9377 14.5879 26 14.7918 26 15C26 15.2082 25.9377 15.4121 25.8204 15.5882C25.7031 15.7643 25.5355 15.9054 25.337 15.9953L5.671 24.8916C5.46931 24.983 5.24408 25.0177 5.02215 24.9915C4.80021 24.9653 4.59092 24.8793 4.41919 24.7438C4.24747 24.6082 4.12056 24.4289 4.05356 24.2271C3.98657 24.0253 3.98233 23.8095 4.04134 23.6054L6.00887 16.7836C6.03296 16.7 6.08253 16.6249 6.15141 16.5678C6.22029 16.5107 6.30543 16.474 6.39622 16.4623L15.9259 15.2379C15.9656 15.2326 16.0032 15.2177 16.0351 15.1947C16.067 15.1717 16.0921 15.1412 16.1079 15.1064L16.1247 15.0508C16.132 15.0015 16.1216 14.9513 16.095 14.9083C16.0684 14.8654 16.0272 14.8322 15.9781 14.8142L15.9268 14.8009L6.40649 13.5775C6.31587 13.5656 6.23093 13.5288 6.16223 13.4717C6.09353 13.4146 6.0441 13.3396 6.02007 13.2561L4.04134 6.39456C3.98233 6.19052 3.98657 5.97475 4.05356 5.77293C4.12056 5.57111 4.24747 5.39176 4.41919 5.25623C4.59092 5.1207 4.80021 5.03471 5.02215 5.0085C5.24408 4.98229 5.46931 5.01697 5.671 5.1084Z" fill="#1236F3"/>
</svg>
