<svg width="21" height="30" viewBox="0 0 21 30" fill="none" xmlns="http://www.w3.org/2000/svg">
<path d="M14.3229 19.1964C13.8226 19.7358 13.8544 20.5787 14.3938 21.079C14.9333 21.5792 15.7762 21.5475 16.2764 21.008L14.3229 19.1964ZM19.2961 15.7927L20.2729 16.6985C20.2913 16.6787 20.3091 16.6583 20.3262 16.6374L19.2961 15.7927ZM19.5665 15.0367H20.8987H19.5665ZM19.2961 14.2807L20.3262 13.436C20.3091 13.4151 20.2913 13.3947 20.2729 13.3749L19.2961 14.2807ZM16.2764 9.06536C15.7762 8.5259 14.9333 8.49413 14.3938 8.99441C13.8544 9.49468 13.8226 10.3376 14.3229 10.877L16.2764 9.06536ZM19.5559 16.3522C20.2917 16.3522 20.8881 15.7558 20.8881 15.02C20.8881 14.2843 20.2917 13.6879 19.5559 13.6879V16.3522ZM7.74642 13.6879C7.01069 13.6879 6.41427 14.2843 6.41427 15.02C6.41427 15.7558 7.01069 16.3522 7.74642 16.3522V13.6879ZM16.7518 26.0436C16.7518 25.3079 16.1554 24.7114 15.4197 24.7114C14.6839 24.7114 14.0875 25.3079 14.0875 26.0436H16.7518ZM1.33207 3.79666H2.66422H1.33207ZM3.79652 1.33219V2.66434V1.33219ZM12.9551 1.33219V4.2629e-05V1.33219ZM14.0875 3.88325C14.0875 4.61898 14.6839 5.2154 15.4197 5.2154C16.1554 5.2154 16.7518 4.61898 16.7518 3.88325H14.0875ZM16.2764 21.008L20.2729 16.6985L18.3193 14.8869L14.3229 19.1964L16.2764 21.008ZM20.3262 16.6374C20.6961 16.1863 20.8987 15.6207 20.8987 15.0367H18.2344C18.2344 15.004 18.2457 14.9727 18.266 14.948L20.3262 16.6374ZM20.8987 15.0367C20.8987 14.4526 20.6961 13.8871 20.3262 13.436L18.266 15.1254C18.2457 15.1007 18.2344 15.0694 18.2344 15.0367H20.8987ZM20.2729 13.3749L16.2764 9.06536L14.3229 10.877L18.3193 15.1865L20.2729 13.3749ZM19.5559 13.6879H7.74642V16.3522H19.5559V13.6879ZM14.0875 26.0436V26.2034H16.7518V26.0436H14.0875ZM14.0875 26.2034C14.0875 26.5037 13.9682 26.7917 13.7558 27.0041L15.6398 28.8881C16.3518 28.1761 16.7518 27.2104 16.7518 26.2034H14.0875ZM13.7558 27.0041C13.5435 27.2164 13.2554 27.3358 12.9551 27.3358V30.0001C13.9619 30.0001 14.9277 29.6001 15.6398 28.8881L13.7558 27.0041ZM12.9551 27.3358H3.79652V30.0001H12.9551V27.3358ZM3.79652 27.3358C3.49621 27.3358 3.20825 27.2165 2.99589 27.0041L1.11195 28.8881C1.82395 29.6001 2.78958 30.0001 3.79652 30.0001V27.3358ZM2.99589 27.0041C2.78352 26.7917 2.66422 26.5037 2.66422 26.2034H-8.10313e-05C-8.10313e-05 27.2104 0.399964 28.1761 1.11195 28.8881L2.99589 27.0041ZM2.66422 26.2034V3.79666H-8.10313e-05V26.2034H2.66422ZM2.66422 3.79666C2.66422 3.49639 2.78351 3.20838 2.99589 2.996L1.11195 1.11205C0.399973 1.82403 -8.10313e-05 2.78969 -8.10313e-05 3.79666H2.66422ZM2.99589 2.996C3.20827 2.78362 3.49624 2.66434 3.79652 2.66434V4.2629e-05C2.78955 4.2629e-05 1.82393 0.400072 1.11195 1.11205L2.99589 2.996ZM3.79652 2.66434H12.9551V4.2629e-05H3.79652V2.66434ZM12.9551 2.66434C13.2554 2.66434 13.5435 2.78368 13.7558 2.996L15.6398 1.11205C14.9277 0.400007 13.9619 4.2629e-05 12.9551 4.2629e-05V2.66434ZM13.7558 2.996C13.9682 3.20838 14.0875 3.49639 14.0875 3.79666H16.7518C16.7518 2.78969 16.3518 1.82403 15.6398 1.11205L13.7558 2.996ZM14.0875 3.79666V3.88325H16.7518V3.79666H14.0875Z" fill="#F1FFF3"/>
</svg>
