<svg width="24" height="22" viewBox="0 0 24 22" fill="none" xmlns="http://www.w3.org/2000/svg">
<path fill-rule="evenodd" clip-rule="evenodd" d="M3.50083 12.4741V12.2759C3.53295 11.6897 3.7406 11.1218 4.10236 10.6306C4.7045 10.0406 5.1167 9.31751 5.29571 8.53731C5.29571 7.93431 5.29571 7.32269 5.35393 6.71969C5.65469 3.81666 8.82728 1.80952 11.9611 1.80952H12.0387C15.1725 1.80952 18.345 3.81666 18.6555 6.71969C18.7137 7.32269 18.6555 7.93431 18.704 8.53731C18.8854 9.31932 19.2972 10.0446 19.8974 10.6392C20.2618 11.126 20.4698 11.6919 20.4989 12.2759V12.4654C20.5206 13.253 20.2208 14.0209 19.6548 14.6276C18.907 15.337 17.8921 15.7784 16.8024 15.8681C13.607 16.1782 10.383 16.1782 7.18762 15.8681C6.09914 15.7745 5.08576 15.3338 4.33521 14.6276C3.778 14.0205 3.48224 13.2571 3.50083 12.4741Z" stroke="#BDBDBD" stroke-width="1.5" stroke-linecap="round" stroke-linejoin="round"/>
<path d="M9.55493 18.8659C10.0542 19.4329 10.7874 19.7998 11.5922 19.8855C12.3971 19.9712 13.2072 19.7686 13.8433 19.3224C14.0389 19.1905 14.2149 19.0371 14.3672 18.8659" stroke="#BDBDBD" stroke-width="1.5" stroke-linecap="round" stroke-linejoin="round"/>
</svg>
