<svg width="18" height="18" viewBox="0 0 18 18" fill="none" xmlns="http://www.w3.org/2000/svg">
<circle cx="8.99999" cy="8.99999" r="8.99999" fill="#EEEEEE"/>
<path d="M10.125 0.0696292C9.76219 0.0243869 9.39267 0.000741547 9.01777 1.67719e-05L8.98224 1.67735e-05C8.60734 0.000741582 8.23782 0.024387 7.87501 0.0696293L7.87501 7.87501L0.0696431 7.87501C0.0236878 8.24355 1.48487e-05 8.61901 1.48654e-05 8.99999C1.4882e-05 9.38099 0.0236894 9.75646 0.0696475 10.125L7.87501 10.125L7.87501 17.9304C8.24355 17.9763 8.61902 18 9.00001 18C9.381 18 9.75646 17.9763 10.125 17.9304L10.125 10.125L17.9304 10.125C17.9763 9.75646 18 9.38099 18 8.99999C18 8.619 17.9763 8.24355 17.9304 7.87501L10.125 7.87501L10.125 0.0696292Z" fill="#D80027"/>
</svg>
