<svg width="15" height="14" viewBox="0 0 15 14" fill="none" xmlns="http://www.w3.org/2000/svg">
<path d="M8.084 7.99906L13.1498 8.02031C13.4223 8.01844 13.6828 7.9084 13.8742 7.71441C14.0655 7.52042 14.1719 7.25836 14.17 6.9859C14.1682 6.71343 14.0581 6.45288 13.8641 6.26154C13.6701 6.07021 13.4081 5.96378 13.1356 5.96566L8.084 6.00108L8.06983 0.99905C8.06905 0.734344 7.96354 0.480705 7.77637 0.293528C7.58919 0.106352 7.33555 0.000848981 7.07085 6.14641e-05C6.93857 -0.000480854 6.8075 0.0251716 6.6852 0.0755395C6.56289 0.125907 6.45176 0.199994 6.35823 0.293525C6.2647 0.387055 6.19062 0.498179 6.14025 0.620487C6.08988 0.742794 6.06423 0.873864 6.06477 1.00614L6.08603 6.00108L1.02023 5.97983C0.747765 5.98171 0.487207 6.09174 0.295874 6.28573C0.104541 6.47972 -0.00189277 6.74178 -1.38845e-05 7.01424C0.00186499 7.28671 0.111903 7.54726 0.305893 7.7386C0.499883 7.92993 0.761936 8.03636 1.0344 8.03448L6.08603 7.99906L6.1002 13.0011C6.10098 13.2658 6.20649 13.5194 6.39366 13.7066C6.58084 13.8938 6.83448 13.9993 7.09919 14.0001C7.23146 14.0006 7.36253 13.975 7.48483 13.9246C7.60714 13.8742 7.71827 13.8001 7.8118 13.7066C7.90533 13.6131 7.97941 13.502 8.02978 13.3797C8.08015 13.2573 8.1058 13.1263 8.10526 12.994L8.084 7.99906Z" fill="#4B39EF"/>
</svg>
