<svg width="150" height="166" viewBox="0 0 150 166" fill="none" xmlns="http://www.w3.org/2000/svg">
<path d="M119.209 56.2911C123.539 55.4799 127.715 53.9953 131.586 51.8914C134.412 50.4493 136.905 48.4333 138.907 45.9722C142.416 41.46 144.369 35.9327 144.474 30.2176C144.52 27.6408 144.142 25.074 143.355 22.62C142.393 19.1564 140.36 16.086 137.546 13.8483C133.015 10.3465 127.697 9.0135 122.11 8.69578C120.099 8.58534 118.084 8.62689 116.08 8.8201C113.317 9.05954 110.554 9.4325 107.791 9.93901C105.58 10.4089 103.409 11.0533 101.299 11.866C100.627 12.1022 99.9067 12.1698 99.2022 12.0626C98.4976 11.9554 97.8302 11.6768 97.2585 11.2513C94.7787 9.60754 92.2101 8.10183 89.5643 6.74112C85.0102 4.56066 80.2098 2.93734 75.267 1.90631C69.7724 0.676304 64.1621 0.0372333 58.5317 0C55.6555 0.00270719 52.7835 0.219725 49.9395 0.649248C46.3538 1.13962 42.8147 1.92508 39.3582 2.9976C33.411 4.96834 27.8154 7.87337 22.7817 11.6036C19.0469 14.1709 15.8627 17.4584 13.4159 21.2732C10.4874 26.0321 10.0592 31.15 10.3838 36.6963C10.591 40.1497 14.0583 53.0241 21.9045 54.1638C21.9045 54.1638 12.4697 69.7042 28.0792 79.5811C29.6816 80.5895 28.7699 82.109 27.2573 83.1519C14.7628 91.8062 11.7859 104.853 11.5994 106.594C11.5994 106.594 5.33488 123.17 22.2153 138.946C25.3001 141.915 28.8663 144.339 32.7621 146.115C35.9728 147.598 39.4184 148.507 42.9428 148.802C47.4207 149.04 51.8843 148.117 55.9002 146.122C58.5386 144.879 61.0388 143.359 63.6013 141.978C65.1968 141.121 65.2866 141.163 66.0187 142.834C66.6541 144.278 67.2551 145.742 67.9388 147.165C70.6118 152.69 74.901 156.655 80.2262 159.556C87.3472 163.431 95.0691 165.15 103.081 165.696C105.642 165.929 108.217 165.961 110.782 165.793C113.276 165.586 115.817 165.62 118.242 164.985C136.559 160.191 143.839 147.717 144.115 137.841C144.274 136.773 144.294 135.688 144.177 134.615C144.025 131.946 143.319 129.337 142.105 126.955C140.494 123.81 138.466 120.897 136.075 118.294C133.596 115.468 130.817 112.921 127.787 110.697C126.33 109.647 124.845 108.625 123.297 107.72C123.007 107.547 122.904 107.423 122.959 107.264L127.628 102.429C131.262 97.9712 133.906 92.7916 135.385 87.2339C135.92 85.0716 136.187 82.8516 136.179 80.624C136.213 79.297 136.123 77.9697 135.909 76.6595C135.221 73.6543 134.199 70.7354 132.863 67.9568C132.746 67.6946 132.595 67.4485 132.415 67.2247C130.522 64.6346 125.715 60.4905 125.715 60.4905L125.024 59.8965C123.121 58.7263 121.152 57.6677 119.126 56.7262C119.001 56.6986 119.029 56.3256 119.209 56.2911ZM39.1371 86.1841C39.501 85.9284 39.8818 85.6976 40.2768 85.4934L37.7765 87.3375C38.2116 86.9162 38.6606 86.5363 39.1371 86.1841Z" fill="#FFE159"/>
<path d="M103.192 106.4H103.185L103.178 106.407L103.192 106.4Z" fill="#FFFAB8"/>
<path d="M24.6189 59.8135C24.8123 59.5925 25.0886 59.6823 25.3096 59.6201L25.503 59.703C25.2274 59.8326 24.9179 59.8713 24.6189 59.8135Z" fill="#FFFAB8"/>
<path d="M89.3433 28.2559C89.0946 28.2559 88.915 28.2144 88.7285 28.1799C87.8445 28.028 87.8237 28.0003 88.0379 27.1024C88.2036 26.4117 88.3763 25.7211 88.5766 25.0304C88.6319 24.837 88.5766 24.5123 88.8391 24.4916C89.1015 24.4709 89.0532 24.8162 89.1015 24.9889C89.3571 25.8453 89.5436 26.7226 89.7922 27.5721C90.0063 28.1661 89.8475 28.3457 89.3433 28.2559Z" fill="#FFFAB8"/>
<path d="M67.5935 26.3912C67.5314 27.3926 67.2896 27.5999 66.3158 27.6482C65.5629 27.6827 64.817 27.6827 64.0641 27.6482C63.929 27.6631 63.7922 27.6477 63.6637 27.6033C63.5352 27.5588 63.4181 27.4865 63.3209 27.3913C63.2238 27.2962 63.149 27.1806 63.1019 27.053C63.0549 26.9255 63.0367 26.7891 63.0488 26.6536C63.0488 26.2806 63.0488 25.9008 63.0488 25.5278C63.0488 19.878 63.0672 14.2304 63.1041 8.5852C63.0971 8.4794 63.0971 8.3733 63.1041 8.26751C63.2353 7.57682 62.8623 6.50625 63.553 6.19544C64.6639 5.7825 65.8829 5.76299 67.0065 6.14017C67.4761 6.25759 67.5037 6.83087 67.5521 7.23147C67.6764 8.40564 67.7662 9.58671 67.856 10.7609C67.8974 11.2996 67.856 11.8453 67.925 12.3771C67.9941 12.9089 67.6833 13.7585 68.3187 13.9588C69.0118 14.0611 69.7188 14.0116 70.3908 13.8137C70.8881 13.7308 70.819 13.2612 70.819 12.8951C70.819 11.9282 70.819 10.9612 70.819 9.99423C70.819 9.02726 70.7776 8.1639 70.819 7.23147C70.8812 6.03658 71.0884 5.8501 72.3109 5.8501C75.0737 5.8501 75.198 5.94679 75.3085 8.61285C75.5434 14.2558 75.6815 19.8987 76.1235 25.5278C76.1545 25.9024 76.1545 26.279 76.1235 26.6536C76.1244 26.8029 76.0955 26.9509 76.0384 27.0888C75.9813 27.2267 75.8972 27.3518 75.791 27.4567C75.6848 27.5616 75.5587 27.6442 75.4201 27.6996C75.2815 27.7551 75.1331 27.7822 74.9839 27.7794C74.7163 27.7792 74.4489 27.7654 74.1827 27.738C71.9103 27.6206 71.9103 27.6206 71.6548 25.362C71.4752 23.7596 71.2979 22.148 71.1229 20.5272C70.971 19.1458 70.971 19.1458 69.7416 19.2149C67.2275 19.3392 67.5659 19.2909 67.5728 21.4873C67.5452 22.1296 67.6626 25.362 67.5935 26.3912Z" fill="#F7760C"/>
<path d="M104.248 21.9085C106.023 21.9085 107.792 21.9085 109.567 21.9085C111.072 21.9085 111.314 22.1572 111.473 23.6629C111.521 24.0842 111.528 24.5193 111.535 24.9475C111.535 26.5085 111.252 26.8055 109.656 26.8124C109.014 26.8124 108.365 26.7502 107.722 26.7157C106.258 26.6328 106.224 26.6329 106.341 28.0488C106.5 30.5145 106.7 32.9803 106.887 35.4391C106.942 36.192 107.004 36.9448 107.059 37.6908C107.156 38.934 107.156 38.9271 108.337 38.8649C108.98 38.8304 109.629 38.8166 110.271 38.8097C110.419 38.7933 110.569 38.8095 110.71 38.857C110.851 38.9046 110.98 38.9824 111.088 39.085C111.196 39.1877 111.28 39.3126 111.335 39.4512C111.389 39.5897 111.413 39.7385 111.404 39.8871C111.404 40.1012 111.404 40.3154 111.452 40.5295C111.59 43.4165 111.59 43.389 108.689 43.5893C105.58 43.7965 102.461 43.7965 99.3513 43.5893C97.7144 43.4926 97.4243 43.1748 97.3898 41.5172C97.3552 40.926 97.3552 40.3333 97.3898 39.7421C97.5003 38.7061 97.8111 38.4298 98.854 38.5058C99.6033 38.5679 100.356 38.5679 101.106 38.5058C101.886 38.4367 102.114 38.043 102.066 37.3454C102.011 36.3784 101.976 35.4115 101.914 34.4445C101.769 32.3034 101.631 30.1553 101.444 28.0142C101.341 26.7848 101.306 26.7848 100.063 26.7572C97.4727 26.7019 97.4726 26.7019 97.3621 24.0704V23.9046C97.2447 21.8809 97.2516 21.9223 99.3651 21.798C101.03 21.7289 102.639 21.8947 104.248 21.9085Z" fill="#F7760C"/>
<path d="M127.829 26.5294C126.779 27.9107 125.984 28.9882 125.156 30.0449C124.327 31.1017 123.933 31.1017 122.952 30.2453C122.262 29.6582 121.688 29.0089 120.935 28.2768C120.321 29.9275 119.823 36.1437 119.768 37.7185C119.781 37.8888 119.756 38.0598 119.694 38.2189C119.632 38.3781 119.535 38.5213 119.411 38.638C119.286 38.7547 119.137 38.8419 118.974 38.8932C118.811 38.9444 118.639 38.9584 118.47 38.9341H118.304C115.009 38.9341 115.445 39.0999 115.804 36.3095C116.55 30.5146 117.185 24.7128 117.641 18.8834C117.689 18.1927 117.42 17.1498 118.442 16.8804C119.464 16.6111 119.596 17.7162 119.948 18.324C120.97 20.0645 121.902 21.8603 122.904 23.6215C123.109 24.1722 123.503 24.6322 124.016 24.92C124.573 24.3105 125.022 23.6096 125.342 22.848C126.254 21.1696 127.165 19.4912 128.105 17.8267C128.291 17.4951 128.505 17.1014 128.968 17.136C129.535 17.136 129.659 17.6333 129.825 18.0477C130.122 18.8972 130.398 19.7537 130.612 20.624C131.993 26.1495 133.306 31.7648 134.473 37.3732C134.715 38.5128 134.708 38.5128 133.492 38.6647C130.729 39.0101 130.729 39.017 130.101 36.3786C129.348 33.1876 128.637 30.0173 127.829 26.5294Z" fill="#F7760C"/>
<path d="M91.7261 35.8606C91.4015 35.8606 91.0769 35.8606 90.7592 35.8606C90.6125 35.883 90.4627 35.8757 90.3188 35.8393C90.1749 35.8029 90.0398 35.738 89.9213 35.6486C89.8029 35.5591 89.7036 35.4468 89.6292 35.3184C89.5548 35.1899 89.5069 35.0478 89.4883 34.9005C89.1637 33.7057 88.7977 32.5315 88.5145 31.3297C88.3211 30.4318 87.8998 30.2936 86.9535 30.1348C86.0142 30.1348 84.8815 29.7756 84.1217 30.3282C83.362 30.8807 83.6796 32.124 83.5553 33.0909C83.1893 35.8537 83.21 35.8537 80.3989 35.9366H80.2401C78.168 35.9987 77.9331 35.7777 78.465 33.8092C79.722 29.1402 80.4818 24.3537 81.6905 19.6709C82.0497 18.2895 82.5262 16.9081 82.8715 15.4853C82.9278 15.1393 83.0915 14.8197 83.3394 14.5718C83.5873 14.3239 83.9069 14.1602 84.2529 14.1039C85.3235 13.8415 86.3941 14.1039 87.4577 14.1454C87.9136 14.1454 87.9826 14.6012 88.1 14.9673C89.4814 19.4361 90.8628 23.891 92.2441 28.3597C92.7414 30.0035 93.1904 31.6681 93.6255 33.3189C93.7304 33.6224 93.8091 33.9343 93.8604 34.2513C94.0124 35.4945 93.7637 35.7777 92.479 35.833H91.6778L91.7261 35.8606ZM85.731 21.0453C85.0139 22.6836 84.5482 24.4206 84.3496 26.1979C85.2033 26.4016 86.0929 26.4016 86.9466 26.1979C86.6427 24.775 86.3664 23.4351 86.0625 22.0537C85.9693 21.7121 85.8587 21.3756 85.731 21.0453Z" fill="#F7760C"/>
<path d="M49.2972 19.6018C49.2863 21.3827 49.5758 23.1526 50.1536 24.8372C50.3292 25.4598 50.6171 26.045 51.0032 26.5639C52.1497 28.0144 53.7659 27.8555 54.6017 26.2117C54.6984 26.0252 54.7674 25.818 54.8572 25.6246C55.0644 25.1688 54.8572 24.409 55.5479 24.3192C56.4451 24.1331 57.375 24.1806 58.2485 24.4573C58.6353 24.6093 58.6836 25.0375 58.6905 25.4243C58.7941 29.1333 55.7413 32.9873 51.5695 32.7732C50.7857 32.7626 50.0172 32.5545 49.3351 32.1682C48.653 31.7819 48.0794 31.2298 47.6672 30.563C46.9877 29.4662 46.469 28.2776 46.1269 27.0336C45.1581 23.8296 44.9757 20.4393 45.5951 17.1499C45.8095 15.9149 46.28 14.7385 46.9765 13.6964C47.5657 12.7543 48.4254 12.0118 49.4431 11.5658C50.4609 11.1197 51.5894 10.9909 52.6815 11.1961C54.7536 11.4724 56.4872 12.1769 57.6683 14.0348C58.0965 14.7557 58.371 15.5574 58.4744 16.3894C58.5778 17.2215 58.5079 18.0659 58.2692 18.8697C58.0827 19.7123 57.5785 19.9334 56.5149 19.8919C55.4512 19.8505 55.0782 19.6294 54.8572 18.7453C54.7605 18.3793 54.7329 18.0063 54.6431 17.6403C54.5354 17.2003 54.326 16.7918 54.0316 16.4475C53.7372 16.1033 53.3661 15.8329 52.9482 15.6582C52.5303 15.4836 52.0773 15.4094 51.6255 15.4417C51.1737 15.4741 50.7358 15.612 50.347 15.8444C49.8786 16.2777 49.5778 16.8622 49.4975 17.4952C49.3445 18.1865 49.2772 18.894 49.2972 19.6018Z" fill="#F7760C"/>
<path d="M20.1156 16.9913C20.1156 16.3006 20.4126 15.8931 21.2 15.9483C21.8901 15.989 22.582 15.989 23.272 15.9483C24.1009 15.9483 24.3978 16.2868 24.4117 17.1087C24.4945 21.4048 24.612 25.7008 24.7225 29.9969C24.7225 30.1627 24.7225 30.3215 24.7225 30.4804C24.7225 32.0206 24.7777 32.0621 26.3801 32.0897C27.7615 32.0897 29.1429 32.0897 30.5726 32.1242C30.8972 32.1242 31.2218 32.1242 31.5396 32.1242C31.6614 32.1229 31.7822 32.147 31.8942 32.1949C32.0062 32.2428 32.107 32.3135 32.1902 32.4025C32.2733 32.4915 32.337 32.5969 32.3772 32.7119C32.4175 32.8269 32.4333 32.949 32.4237 33.0705C32.4651 34.1963 32.5273 35.3221 32.5618 36.448C32.5618 37.3044 32.023 37.3942 31.3669 37.3251C29.0679 37.1501 26.759 37.1501 24.46 37.3251C23.5483 37.3666 22.6366 37.4495 21.6973 37.4633C20.6129 37.4633 20.5922 37.4633 20.5853 36.4341C20.6267 33.2984 20.1225 17.7994 20.1156 16.9913Z" fill="#F7760C"/>
<path d="M39.1994 15.7824C39.5171 16.3971 37.818 18.7247 36.8855 19.8712C36.5216 20.4202 35.9659 20.8136 35.3272 20.9746C34.6886 21.1355 34.0128 21.0524 33.4321 20.7415C33.3453 20.7063 33.2665 20.6537 33.2006 20.5871C33.1347 20.5205 33.0831 20.4411 33.0489 20.3539C33.0146 20.2667 32.9985 20.1734 33.0014 20.0797C33.0044 19.986 33.0264 19.894 33.0661 19.8091C33.5772 18.5152 34.0929 17.2236 34.6132 15.9343C34.6852 15.7602 34.8134 15.6153 34.9774 15.5227C35.1414 15.4301 35.3318 15.395 35.518 15.4232C36.0706 15.4301 38.9162 15.2022 39.1994 15.7824Z" fill="#F7760C"/>
<path d="M73.5819 61.7197H73.575V61.7266L73.5819 61.7197Z" fill="#8ADEFF"/>
<path d="M100.015 63.5919L100.021 63.585L100.015 63.5919Z" fill="#8ADEFF"/>
<path d="M43.5714 127.232C40.491 127.08 37.4313 126.748 34.3715 126.361C31.4637 125.988 28.6112 125.305 25.6965 124.98C24.7325 124.781 23.7565 124.645 22.7748 124.573C22.4555 124.558 22.1367 124.612 21.8401 124.731C21.5434 124.851 21.2757 125.032 21.055 125.263C19.2178 127.149 17.3323 128.986 15.4674 130.844C14.4058 129.435 13.5414 127.887 12.898 126.244C10.0593 120.028 9.81754 113.577 11.4199 107.008C11.4721 106.861 11.5344 106.718 11.6064 106.58C12.7739 105.947 13.8833 105.212 14.9217 104.384C17.8641 102.312 20.9583 100.516 24.0733 98.7408C24.6269 98.4652 25.1367 98.109 25.586 97.6841C28.3983 94.8532 31.4511 92.2719 34.71 89.9691C36.2778 88.8087 37.5625 87.3237 39.1372 86.1634C39.9287 85.6189 40.7652 85.1429 41.6375 84.7406C41.7881 84.6613 41.9529 84.6125 42.1224 84.5971C42.2919 84.5817 42.4628 84.5999 42.6252 84.6508C42.3144 85.4451 43.0051 85.5279 43.4333 85.7282C47.5775 87.6806 51.7676 89.5432 56.0038 91.3159C56.5015 91.4921 56.956 91.7723 57.3369 92.1378C59.2087 94.1201 61.1149 96.0678 62.9729 98.0639C64.148 99.3899 65.0369 100.944 65.5837 102.629C65.7032 102.934 65.7538 103.262 65.7319 103.589C65.71 103.916 65.6162 104.234 65.4572 104.52C65.2981 104.806 65.0778 105.054 64.812 105.246C64.5461 105.437 64.2412 105.567 63.9191 105.627C63.1637 105.816 62.3697 105.783 61.633 105.53C58.9518 104.702 56.4999 103.262 54.4705 101.324C53.9419 100.794 53.2889 100.404 52.5711 100.191C51.2243 99.8252 49.9258 99.3141 48.5858 98.9273C48.1357 98.7896 47.673 98.6971 47.2045 98.651C46.272 98.5751 45.9543 98.8306 45.8231 99.7561C45.6834 100.894 45.4851 102.023 45.2291 103.14C43.6474 109.785 40.7327 115.656 35.3937 120.118C35.0175 120.443 34.6708 120.801 34.3577 121.188C34.1367 121.437 33.8604 121.755 34.2403 122.065C34.6202 122.376 34.8204 122.024 35.0276 121.817C36.5472 120.318 38.4396 119.22 39.7727 117.514C40.0282 117.182 40.1871 117.272 40.3598 117.604C41.5286 119.653 42.9511 121.546 44.5937 123.24L43.5714 127.232Z" fill="#FFAF19"/>
<path d="M54.1666 89.3406C55.0369 89.7481 55.8934 90.1763 56.7705 90.5562C57.6084 90.8902 58.3766 91.3774 59.036 91.9928C59.0917 92.0788 59.1657 92.1514 59.2529 92.2052C59.3401 92.259 59.4381 92.2927 59.5399 92.3039C59.6418 92.3152 59.7448 92.3036 59.8416 92.2701C59.9384 92.2366 60.0266 92.182 60.0997 92.1103C61.7545 91.7609 63.3837 91.2994 64.9759 90.7289C65.4197 90.5763 65.8887 90.5106 66.3573 90.5355C66.9113 90.6791 67.4538 90.8638 67.9804 91.088C65.9083 91.7027 63.8363 92.3244 61.7642 92.9184C60.3828 93.3051 60.3828 93.2913 61.405 94.2997C62.7864 95.6811 64.2092 97.0141 65.0933 98.7961C65.7624 100.048 66.3641 101.334 66.896 102.65C67.0044 103.073 67.0852 103.502 67.1378 103.935C66.0603 107.16 63.3873 107.388 61.2807 106.698C58.571 105.861 56.1072 104.375 54.1045 102.367C53.8696 102.125 53.6762 101.807 53.3378 101.711C51.4039 101.186 49.47 101.02 47.6534 102.07C47.0828 102.426 46.6766 102.994 46.5238 103.649C46.371 104.304 46.4842 104.993 46.8384 105.565C47.4648 106.57 48.3627 107.377 49.4285 107.892C52.727 109.319 56.2182 110.25 59.7888 110.655C60.9837 110.828 62.1993 110.89 63.2423 111.65L63.408 112.534C60.0237 111.968 56.5979 111.608 53.3033 110.552C51.9723 110.145 50.6155 109.829 49.242 109.605C48.0906 109.335 46.881 109.477 45.8231 110.006C43.8616 111.035 43.5784 112.955 45.2567 114.426C46.2971 115.259 47.4954 115.872 48.7793 116.229C52.882 117.61 57.0675 118.867 60.4726 121.699C60.6466 122.16 60.7468 122.644 60.7696 123.136C58.6285 121.34 56.0936 120.27 53.5519 119.22C50.6925 118.039 47.8192 116.892 45.0426 115.518C44.5529 115.251 44.0106 115.096 43.4541 115.062C43.1522 115.017 42.8439 115.053 42.5607 115.167C42.2775 115.281 42.0296 115.468 41.8426 115.709C41.6556 115.95 41.5361 116.237 41.4964 116.539C41.4568 116.842 41.4983 117.15 41.6168 117.431C41.7333 117.849 41.9252 118.242 42.1832 118.591C42.7219 119.282 43.2399 120.042 43.8063 120.739C45.8977 123.149 48.2101 125.357 50.7132 127.335C51.0378 127.612 51.4039 127.826 51.5835 128.268C50.9395 128.295 50.3008 128.142 49.7393 127.826L44.6697 123.226C43.0271 121.533 41.6046 119.639 40.4358 117.59C40.2631 117.258 40.1042 117.168 39.8487 117.5C38.5157 119.206 36.6232 120.304 35.1037 121.803C34.8965 122.01 34.6409 122.328 34.3163 122.052C33.9916 121.775 34.2127 121.423 34.4337 121.174C34.7468 120.788 35.0935 120.429 35.4697 120.104C40.8087 115.642 43.7234 109.744 45.3051 103.127C45.5611 102.01 45.7594 100.88 45.8991 99.7424C46.0234 98.8168 46.3412 98.5613 47.2805 98.6373C47.749 98.6833 48.2117 98.7759 48.6619 98.9135C50.0018 99.3003 51.3003 99.8114 52.6471 100.177C53.3649 100.39 54.0179 100.78 54.5465 101.31C56.5658 103.252 59.0081 104.699 61.6813 105.537C62.4181 105.789 63.2121 105.823 63.9675 105.634C64.2896 105.574 64.5944 105.444 64.8603 105.252C65.1262 105.061 65.3465 104.813 65.5055 104.527C65.6646 104.241 65.7583 103.923 65.7802 103.596C65.8021 103.269 65.7515 102.941 65.632 102.636C65.0852 100.951 64.1964 99.3968 63.0213 98.0709C61.1633 96.0748 59.257 94.1271 57.3852 92.1448C57.0043 91.7792 56.5499 91.499 56.0522 91.3229C51.8252 89.5501 47.635 87.6875 43.4817 85.7352C43.0535 85.5349 42.3628 85.452 42.6736 84.6577C43.3083 84.6685 43.9374 84.7781 44.5384 84.9824C45.4018 85.3899 46.2513 85.8112 47.1216 86.2048C49.4285 87.2823 51.7561 88.4082 54.1666 89.3406Z" fill="#F7760C"/>
<path d="M54.1665 89.3405C51.756 88.4081 49.4284 87.2685 47.0732 86.2186C46.2029 85.8249 45.3534 85.4036 44.49 84.9961C45.494 85.113 46.4841 85.3282 47.4462 85.6385C49.8014 86.2048 52.1428 86.8264 54.4843 87.4342C54.3465 88.064 54.2405 88.7002 54.1665 89.3405Z" fill="#FFAF19"/>
<path d="M60.4586 121.706C57.0052 118.874 52.8611 117.617 48.7653 116.236C47.4814 115.879 46.2831 115.266 45.2428 114.433C43.5644 112.962 43.8614 111.042 45.8092 110.013C46.867 109.484 48.0766 109.342 49.228 109.612C50.6015 109.836 51.9583 110.152 53.2893 110.558C56.5839 111.615 60.0097 111.974 63.394 112.541C64.2021 114.93 64.6235 117.327 63.2352 119.648C62.5454 120.605 61.5751 121.324 60.4586 121.706Z" fill="#FFAF19"/>
<path d="M51.5627 128.282C51.4108 127.839 51.0171 127.625 50.6925 127.349C48.1894 125.371 45.877 123.162 43.7856 120.753C43.2193 120.062 42.7012 119.316 42.1625 118.605C41.9045 118.256 41.7125 117.863 41.5961 117.445C41.4785 117.165 41.4372 116.858 41.4764 116.557C41.5155 116.256 41.6337 115.971 41.819 115.73C42.0042 115.489 42.2499 115.302 42.531 115.187C42.8122 115.072 43.1187 115.034 43.4195 115.076C43.9761 115.109 44.5184 115.265 45.0081 115.531C47.7709 116.913 50.6579 118.052 53.5174 119.234C56.0591 120.283 58.594 121.354 60.7351 123.15C61.4258 125.222 60.1618 126.949 58.3798 127.612C56.1809 128.317 53.8569 128.545 51.5627 128.282Z" fill="#FFAF19"/>
<path d="M63.2284 111.663C62.2061 110.904 60.9905 110.841 59.7749 110.669C56.2043 110.263 52.7131 109.332 49.4146 107.906C48.3479 107.388 47.4498 106.579 46.8245 105.572C46.4703 105 46.3571 104.311 46.5099 103.656C46.6627 103.001 47.0689 102.433 47.6395 102.077C49.456 101.048 51.39 101.193 53.3239 101.718C53.6624 101.814 53.8557 102.132 54.0906 102.374C56.0844 104.388 58.541 105.885 61.2461 106.732C63.3182 107.423 66.0256 107.195 67.1031 103.969C67.5935 107.554 67.1031 109.495 64.589 111.132C64.1901 111.425 63.7208 111.609 63.2284 111.663Z" fill="#FFAF19"/>
<path d="M66.9029 102.692C66.371 101.376 65.7693 100.089 65.1002 98.8375C64.2161 97.0555 62.7656 95.7363 61.4119 94.3411C60.4035 93.2982 60.4104 93.312 61.7711 92.9597C63.8431 92.3657 65.9152 91.7441 67.9873 91.1294C70.2872 91.4402 71.641 93.2015 71.3509 95.612C71.1672 97.0067 70.7013 98.3495 69.9817 99.5583C69.2621 100.767 68.3038 101.817 67.1653 102.643C67.0755 102.664 66.965 102.664 66.9029 102.692Z" fill="#FFAF19"/>
<path d="M66.3365 90.5422C65.8679 90.5173 65.3989 90.583 64.9551 90.7356C63.3629 91.306 61.7337 91.7676 60.0789 92.1169L60.9215 89.0986L66.3365 90.5422Z" fill="#FFAF19"/>
<path d="M131.862 158.913C130.98 158.032 129.986 157.271 128.906 156.648C126.059 154.614 123.344 152.402 120.776 150.024C120.604 149.894 120.443 149.751 120.293 149.596C119.395 148.505 118.29 148.36 116.888 148.387C112.868 148.477 108.855 148.788 104.835 148.636C103.64 148.489 102.434 148.438 101.23 148.484C100.766 146.647 100.402 144.786 100.139 142.91C101.318 141.812 102.402 140.615 103.378 139.332C103.744 138.794 103.937 138.835 104.255 139.332C105.36 141.149 107.073 142.461 108.358 144.126C108.51 144.333 108.724 144.506 108.993 144.347C109.263 144.188 109.214 143.856 109.083 143.608C108.728 142.99 108.296 142.419 107.798 141.909C106.434 140.461 105.272 138.834 104.345 137.074C101.727 132.078 100.373 126.517 100.401 120.877C100.401 119.724 100.132 119.454 99.0197 119.42C98.7703 119.41 98.5205 119.423 98.2738 119.461C96.7198 119.724 95.1657 119.972 93.6186 120.283C92.919 120.427 92.259 120.722 91.6846 121.147C89.5104 122.757 87.0006 123.854 84.3426 124.358C83.5263 124.559 82.6689 124.516 81.8769 124.234C81.5543 124.14 81.2573 123.973 81.0082 123.748C80.7591 123.522 80.5644 123.243 80.4388 122.931C80.3131 122.619 80.2598 122.283 80.2828 121.948C80.3058 121.612 80.4045 121.286 80.5715 120.995C81.3032 119.45 82.3419 118.07 83.6243 116.94C85.7654 115.151 87.948 113.425 90.1098 111.67C90.4526 111.404 90.8482 111.213 91.2702 111.111C92.7 110.71 94.1366 110.317 95.5594 109.895C98.6122 108.974 101.663 108.053 104.711 107.133C105.174 106.994 105.733 106.932 105.643 106.214C105.84 106.18 106.042 106.188 106.236 106.24C106.429 106.291 106.608 106.383 106.762 106.511C108.24 107.411 109.534 108.583 110.575 109.964C111.838 111.531 113.207 113.011 114.671 114.392C116.755 116.375 118.67 118.528 120.396 120.829C120.941 121.586 121.629 122.228 122.42 122.721C123.575 123.548 124.678 124.445 125.722 125.408C127.135 126.507 128.661 127.454 130.273 128.233C132.408 129.317 134.107 131.037 136.02 132.446C138.61 134.346 141.435 136.155 144.129 137.896C143.969 141.253 143.13 144.542 141.663 147.565C139.691 151.616 136.79 155.142 133.195 157.857C132.774 158.313 131.862 158.913 131.862 158.913Z" fill="#FFAF19"/>
<path d="M103.192 106.401C101.347 107.174 99.3997 107.644 97.4934 108.238C96.8042 108.502 96.0887 108.692 95.3592 108.804L95.2556 107.181L102.556 106.387C102.768 106.374 102.981 106.379 103.192 106.401Z" fill="#FFAF19"/>
<path d="M81.4074 131.148C85.3132 131.185 89.2159 130.917 93.08 130.347C94.0263 130.202 94.9932 130.195 95.9533 130.098C97.1913 129.977 98.4282 130.339 99.4067 131.106C99.727 131.313 99.9939 131.592 100.186 131.922C100.377 132.251 100.489 132.621 100.51 133.001C100.532 133.382 100.463 133.762 100.31 134.111C100.156 134.46 99.9226 134.767 99.6277 135.009C98.6489 135.846 97.4504 136.386 96.1743 136.563C92.9962 137.102 89.8579 137.854 86.7809 138.814C85.4776 139.305 84.2279 139.928 83.0512 140.672C82.7266 140.438 82.402 140.203 82.0842 139.982C80.0743 138.448 79.7428 136.397 80.3092 134.097C80.4654 133.048 80.8395 132.044 81.4074 131.148Z" fill="#FFAF19"/>
<path d="M82.6506 141.771C82.7335 141.943 82.8509 141.992 83.0166 141.881C86.0833 139.809 89.7025 139.346 93.1283 138.324C95.0553 137.751 97.0169 137.267 98.9163 136.604C99.5998 136.304 100.35 136.19 101.092 136.273C101.371 136.304 101.638 136.404 101.869 136.563C102.101 136.721 102.29 136.935 102.419 137.184C102.549 137.433 102.615 137.71 102.613 137.991C102.61 138.271 102.538 138.547 102.404 138.794C102.199 139.245 101.919 139.658 101.575 140.016C99.1947 142.549 96.4836 144.749 93.5151 146.557C92.6437 147.027 91.8321 147.599 91.0977 148.263C88.7701 148.146 86.4701 147.883 84.398 146.716C82.3259 145.549 81.8632 143.884 82.6506 141.771Z" fill="#FFAF19"/>
<path d="M78.8174 122.397C78.8657 122.508 78.9279 122.618 78.9693 122.729C79.7567 125.036 81.3936 126.099 83.8041 125.747C86.2089 125.416 88.5135 124.568 90.5591 123.261C90.8423 123.074 91.1185 122.874 91.3948 122.673C92.0855 122.176 92.7071 121.582 93.6948 121.617C95.1591 121.672 96.6164 121.727 97.908 122.521C98.2878 122.722 98.6119 123.013 98.851 123.37C99.0902 123.727 99.2369 124.137 99.278 124.565C99.3191 124.992 99.2533 125.423 99.0865 125.819C98.9197 126.214 98.6571 126.562 98.3224 126.831C96.5611 128.53 94.3026 128.973 92.0233 129.263C89.2647 129.698 86.4711 129.871 83.6798 129.781C82.9351 129.761 82.2054 129.992 81.6078 130.437C80.3162 129.636 79.0661 128.786 78.5895 127.225C78.0758 125.642 78.1568 123.925 78.8174 122.397Z" fill="#FFAF19"/>
<path d="M79.9776 109.536C82.174 110.317 84.2184 111.422 86.394 112.244C86.8223 112.409 86.6979 112.617 86.394 112.831C86.0901 113.045 85.9244 113.245 85.7033 113.418C82.951 115.345 80.7279 117.934 79.2385 120.946C76.8073 119.151 75.2188 114.813 75.9233 112.112C76.0581 111.443 76.3886 110.828 76.873 110.346C77.3575 109.864 77.974 109.536 78.6445 109.405L79.5425 109.198C79.5758 109.289 79.6343 109.37 79.7113 109.43C79.7882 109.49 79.8806 109.526 79.9776 109.536Z" fill="#FFAF19"/>
<path d="M88.3142 111.346C88.0241 111.781 87.6718 111.567 87.3403 111.415C85.7655 110.724 84.1908 110.034 82.6229 109.301C82.2407 109.109 81.8262 108.99 81.4004 108.949L86.4148 108.259L87.6925 108.093C88.0724 109.15 87.9896 110.282 88.3142 111.346Z" fill="#FFAF19"/>
<path d="M109.125 143.642C108.771 143.021 108.339 142.448 107.84 141.936C106.473 140.49 105.311 138.863 104.387 137.101C101.768 132.108 100.409 126.55 100.429 120.912C100.429 119.758 100.16 119.489 99.0475 119.454C98.8006 119.441 98.5531 119.453 98.3084 119.489C96.7475 119.751 95.1865 120.007 93.6394 120.311C92.9372 120.457 92.2751 120.754 91.6986 121.181C89.5182 122.789 87.0043 123.887 84.3427 124.393C83.5257 124.591 82.6683 124.546 81.877 124.261C81.5538 124.168 81.256 124.002 81.0062 123.777C80.7563 123.551 80.5609 123.272 80.4345 122.96C80.3082 122.648 80.2542 122.312 80.2768 121.976C80.2993 121.64 80.3978 121.314 80.5647 121.022C81.2966 119.476 82.3379 118.096 83.6244 116.968C85.7655 115.186 87.955 113.459 90.1238 111.698C90.467 111.433 90.8626 111.245 91.2842 111.145C92.7208 110.738 94.1574 110.351 95.5803 109.93C98.6423 109.009 101.7 108.088 104.753 107.167C105.215 107.022 105.782 106.96 105.685 106.248C105.181 106.034 103.475 106.082 103.205 106.393C101.361 107.167 99.4135 107.636 97.5141 108.23C96.8249 108.495 96.1095 108.685 95.3799 108.797C94.9655 108.935 94.5511 109.059 94.1505 109.204C92.2027 109.895 90.1031 110.171 88.3349 111.339C88.0379 111.774 87.6857 111.56 87.3541 111.408C85.7794 110.717 84.2046 110.026 82.6368 109.294C82.2546 109.102 81.84 108.983 81.4142 108.942C81.2347 108.942 79.9707 108.894 79.5632 109.191C79.5965 109.282 79.6551 109.363 79.732 109.422C79.809 109.482 79.9013 109.519 79.9983 109.529C82.1947 110.309 84.2391 111.415 86.4148 112.236C86.843 112.402 86.7187 112.609 86.4148 112.824C86.1109 113.038 85.9451 113.238 85.7241 113.411C82.9718 115.338 80.7487 117.927 79.2593 120.939C79.2109 121.443 78.8311 121.858 78.838 122.376C78.8863 122.486 78.9485 122.597 78.9899 122.707C79.7773 125.014 81.4142 126.078 83.8247 125.726C86.2295 125.394 88.5341 124.546 90.5797 123.239C90.8629 123.053 91.1391 122.852 91.4154 122.652C92.1061 122.155 92.7277 121.561 93.7153 121.595C95.1796 121.651 96.637 121.706 97.9286 122.5C98.3084 122.7 98.6325 122.992 98.8716 123.349C99.1108 123.705 99.2575 124.116 99.2986 124.543C99.3397 124.971 99.2739 125.402 99.107 125.797C98.9402 126.193 98.6777 126.541 98.343 126.81C96.5818 128.509 94.3232 128.951 92.0439 129.241C89.2853 129.676 86.4916 129.85 83.7004 129.759C82.9556 129.739 82.2259 129.971 81.6283 130.415C81.5447 130.515 81.4825 130.631 81.4457 130.756C81.4088 130.88 81.3981 131.011 81.4142 131.141C85.32 131.178 89.2228 130.91 93.0869 130.339C94.0331 130.194 95 130.187 95.9601 130.091C97.1981 129.97 98.435 130.331 99.4135 131.099C99.7338 131.306 100.001 131.585 100.192 131.914C100.384 132.244 100.495 132.614 100.517 132.994C100.539 133.375 100.47 133.755 100.317 134.104C100.163 134.452 99.9295 134.76 99.6346 135.002C98.6558 135.839 97.4572 136.379 96.1811 136.556C93.003 137.094 89.8648 137.847 86.7878 138.807C85.4845 139.298 84.2347 139.92 83.0581 140.665C82.9476 141.052 82.616 141.356 82.616 141.763C82.6989 141.936 82.8163 141.984 82.9821 141.874C86.0488 139.802 89.668 139.339 93.0938 138.317C95.0208 137.744 96.9824 137.26 98.8818 136.597C99.5653 136.297 100.316 136.183 101.057 136.265C101.336 136.297 101.603 136.397 101.835 136.555C102.066 136.714 102.255 136.928 102.385 137.177C102.514 137.426 102.581 137.703 102.578 137.983C102.576 138.264 102.504 138.54 102.37 138.787C102.164 139.238 101.884 139.651 101.541 140.009C99.1602 142.542 96.449 144.742 93.4805 146.55C92.6091 147.019 91.7975 147.592 91.0631 148.256C91.7321 148.421 92.438 148.34 93.0523 148.028C93.6657 147.477 94.3512 147.012 95.0899 146.647C96.8442 145.507 98.4673 144.188 100.125 142.91C101.306 141.814 102.393 140.619 103.371 139.339C103.744 138.8 103.903 138.862 104.221 139.374C105.353 141.176 107.059 142.53 108.365 144.208C108.396 144.268 108.44 144.32 108.492 144.362C108.545 144.403 108.606 144.433 108.671 144.45C108.736 144.467 108.803 144.47 108.87 144.46C108.936 144.449 108.999 144.425 109.056 144.388C109.359 144.188 109.263 143.891 109.125 143.642ZM80.0259 109.273C80.0063 109.288 79.9899 109.307 79.9776 109.329C79.9899 109.307 80.0063 109.288 80.0259 109.273Z" fill="#F7760C"/>
<path d="M102.425 67.7009C102.321 65.912 102.114 64.1301 101.941 62.3412C101.875 61.7907 101.694 61.2604 101.41 60.7844C101.125 60.3085 100.744 59.8976 100.291 59.5784C99.5632 58.9965 98.7501 58.5306 97.8802 58.1971C95.3812 57.2672 92.7416 56.772 90.0755 56.7328C87.7842 56.6589 85.4909 56.793 83.2239 57.1334C82.5332 57.2232 82.4088 57.092 82.6091 56.4427C83.1962 54.5502 83.811 52.6647 84.2737 50.7376C84.4135 50.168 84.3822 49.5698 84.1839 49.0178C83.6001 47.4415 82.5854 46.0606 81.2554 45.0325C78.7274 43.0194 75.8563 41.4798 72.7807 40.4878C69.3691 39.247 65.7906 38.5253 62.1648 38.3467C59.7474 38.2362 57.3299 38.3467 55.1059 39.5347C53.393 40.474 52.0738 41.7863 51.9564 43.9275C51.9098 44.5144 51.8151 45.0965 51.6732 45.668C50.5819 50.6824 49.3871 55.683 48.5651 60.7526C47.7916 65.4976 47.5153 70.2289 48.648 74.9601C49.4492 78.3099 50.6303 81.5216 53.4828 83.6351C54.954 84.7333 55.1819 85.7693 54.5879 87.275C54.5645 87.3345 54.5368 87.3922 54.505 87.4477C54.3673 88.0774 54.2613 88.7136 54.1873 89.354C55.0576 89.7615 55.914 90.1897 56.7912 90.5696C57.6291 90.9036 58.3973 91.3908 59.0567 92.0062C59.1124 92.0922 59.1865 92.1647 59.2736 92.2185C59.3608 92.2723 59.4589 92.3061 59.5607 92.3173C59.6625 92.3286 59.7655 92.317 59.8623 92.2835C59.9591 92.25 60.0472 92.1954 60.1203 92.1236L60.963 89.1053C60.963 88.5735 61.2185 88.0831 61.2807 87.5651C61.3428 87.0471 61.6744 86.757 62.2338 86.6189C63.1914 86.3773 64.1183 86.0273 64.9966 85.5759C67.1557 84.478 69.1505 83.0831 70.9227 81.4318C71.123 81.2591 71.268 80.8862 71.572 80.9967C71.8759 81.1072 71.7723 81.4871 71.8344 81.7426C72.014 82.4955 72.1383 83.2552 72.2972 84.015C73.3332 89.0708 74.9287 93.8918 78.0091 98.1188C80.1503 101.047 82.7335 103.375 86.3389 104.335C86.5667 104.381 86.7731 104.501 86.9265 104.675C87.0799 104.85 87.1719 105.07 87.1884 105.302C87.3611 106.241 87.5199 107.188 87.6857 108.127C88.0725 109.177 87.9896 110.309 88.3073 111.373C90.0824 110.206 92.1821 109.937 94.1298 109.239C94.5304 109.094 94.9448 108.97 95.3592 108.831L95.2557 107.208C95.1106 106.2 94.9794 105.185 94.8136 104.176C94.7668 103.97 94.7802 103.755 94.8525 103.557C94.9248 103.358 95.0528 103.185 95.2211 103.057C98.2532 100.368 100.495 96.9031 101.707 93.0354C102.574 90.0582 103.002 86.9706 102.978 83.8699C103.081 78.4549 102.743 73.0745 102.425 67.7009Z" fill="#3BA3F5"/>
<path d="M93.0869 148.035C93.702 147.486 94.3871 147.022 95.1244 146.654C96.8788 145.514 98.5019 144.195 100.16 142.917C100.429 144.795 100.796 146.658 101.258 148.498C101.32 149.016 101.389 149.541 101.437 150.059C101.486 150.577 101.762 150.749 102.301 150.749C103.447 150.601 104.608 150.601 105.754 150.749C106.219 150.801 106.68 150.882 107.135 150.991C107.591 151.129 108.165 151.247 108.227 151.854C108.289 152.462 107.799 152.663 107.412 152.891C106.52 153.4 105.569 153.796 104.58 154.072C101.2 154.971 97.7542 155.604 94.2749 155.964C92.5576 156.22 90.812 156.22 89.0947 155.964C88.8187 155.926 88.5461 155.866 88.2797 155.785C87.5268 155.522 87.4026 155.052 87.9068 154.458C88.324 153.952 88.8813 153.579 89.5091 153.388C90.4899 153.091 91.4638 152.773 92.4445 152.49C93.3148 152.234 93.5358 151.972 93.5427 151.039C93.5496 150.107 93.1491 149.023 93.0869 148.035Z" fill="#3BA3F5"/>
<path d="M44.6489 123.24L49.7185 127.84C49.4699 128.827 49.242 129.822 48.9588 130.803C48.8345 131.224 48.9588 131.397 49.3387 131.556C50.499 131.991 51.6387 132.474 52.7921 132.937C52.9944 133.009 53.1907 133.097 53.3792 133.199C53.7936 133.462 54.3462 133.662 54.1873 134.298C54.1223 134.57 53.9758 134.817 53.7673 135.005C53.5588 135.192 53.2982 135.312 53.0201 135.348C52.281 135.43 51.535 135.43 50.796 135.348C46.6469 135.17 42.5536 134.323 38.6745 132.84C38.0571 132.632 37.4696 132.344 36.927 131.984C36.7332 131.867 36.577 131.697 36.4769 131.494C36.3769 131.291 36.3373 131.064 36.3627 130.839C36.3882 130.614 36.4777 130.402 36.6206 130.226C36.7635 130.051 36.9537 129.92 37.1688 129.85C37.5382 129.687 37.9394 129.609 38.3429 129.622C39.6738 129.603 41.0034 129.709 42.3144 129.939C42.8255 130.029 43.0465 129.939 43.1294 129.401C43.2468 128.669 43.4264 127.95 43.5783 127.225L44.6489 123.24Z" fill="#3BA3F5"/>
<path d="M85.9712 68.9078C93.2745 68.1827 98.964 65.2685 98.6791 62.3988C98.3942 59.5291 92.2427 57.7906 84.9394 58.5157C77.6361 59.2408 71.9465 62.155 72.2315 65.0247C72.5164 67.8944 78.6678 69.6329 85.9712 68.9078Z" fill="#FFFAB8"/>
<path d="M81.2414 50.573C82.0647 47.8092 77.0303 43.87 69.9966 41.7745C62.9629 39.679 56.5935 40.2207 55.7701 42.9845C54.9467 45.7483 59.9811 49.6875 67.0148 51.783C74.0485 53.8785 80.418 53.3367 81.2414 50.573Z" fill="#FFFAB8"/>
<path d="M1.12184 39.6802C2.43361 39.8315 3.73148 40.0855 5.0035 40.44C14.3347 42.6018 23.5692 45.1781 32.8797 47.4504C35.4007 48.0651 37.9079 48.7282 40.422 49.3775C40.719 49.4534 41.016 49.5501 41.313 49.633C41.4198 49.6565 41.5205 49.7021 41.6085 49.767C41.6966 49.8319 41.77 49.9145 41.8241 50.0096C41.8781 50.1047 41.9116 50.2101 41.9223 50.3189C41.933 50.4277 41.9207 50.5376 41.8863 50.6414C41.7965 51.1594 41.3889 51.2492 40.9676 51.1801C39.7244 50.9591 38.4742 50.7657 37.2517 50.4411C34.489 49.709 31.7262 49.1288 28.9635 48.445C26.9674 47.9546 24.9575 47.485 22.9545 46.9946C16.2686 45.3507 9.52059 43.9763 2.87617 42.1598C2.18548 41.9664 1.46026 41.7315 0.762668 41.4691C0.639218 41.447 0.521537 41.4001 0.416776 41.3311C0.312014 41.2622 0.222372 41.1727 0.153257 41.068C0.084142 40.9634 0.037012 40.8458 0.0147316 40.7224C-0.00754886 40.599 -0.00453426 40.4724 0.0236265 40.3502C0.182485 39.7355 0.686706 39.6802 1.12184 39.6802Z" fill="#FFAF19"/>
<path d="M10.3907 87.9866C10.2336 88.0058 10.0742 87.978 9.93286 87.9067C9.79149 87.8354 9.67445 87.7238 9.59645 87.586C9.52653 87.4282 9.51821 87.2499 9.57318 87.0863C9.62815 86.9226 9.74242 86.7855 9.89344 86.7019C10.522 86.2599 11.1643 85.8247 11.8274 85.4241L36.3191 70.5951C36.7117 70.3433 37.1175 70.1128 37.5347 69.9044C37.9975 69.6903 38.5224 69.5452 38.8402 70.1116C39.1579 70.678 38.8402 71.0509 38.3843 71.3548C37.9285 71.6587 37.5555 71.8867 37.1342 72.1422C29.288 76.977 21.5661 81.9776 13.5955 86.5914C12.8972 87.0499 12.1515 87.432 11.3715 87.731C11.0538 87.8623 10.7222 87.8968 10.3907 87.9866Z" fill="#FFAF19"/>
<path d="M148.66 49.7017C149.046 49.7017 149.295 49.7707 149.412 50.0746C149.462 50.2018 149.462 50.3428 149.414 50.4703C149.365 50.5978 149.271 50.7029 149.15 50.7653C148.931 50.8949 148.7 51.0014 148.459 51.083C140.828 53.9518 133.364 57.247 126.102 60.953C120.811 63.6466 115.32 65.8845 109.843 68.143C109.671 68.2149 109.493 68.2704 109.311 68.3088C109.206 68.3375 109.094 68.3307 108.993 68.2895C108.892 68.2483 108.807 68.175 108.752 68.0809C108.684 67.9745 108.662 67.8458 108.689 67.7229C108.716 67.5999 108.791 67.4927 108.897 67.4247C109.221 67.1875 109.565 66.9795 109.926 66.8031C113.538 65.0557 117.226 63.474 120.901 61.8509C125.867 59.6545 130.757 57.2716 135.716 55.0614C139.75 53.2656 143.846 51.6079 147.914 49.9019C148.159 49.8224 148.408 49.7555 148.66 49.7017Z" fill="#FFAF19"/>
<path d="M106.161 89.4305C106.42 89.444 106.665 89.5493 106.852 89.7275C110.216 92.5317 114.008 94.6935 117.627 97.1248C124.043 101.442 130.246 106.048 136.462 110.648C136.638 110.773 136.799 110.919 136.939 111.084C137.037 111.185 137.093 111.322 137.093 111.463C137.093 111.605 137.037 111.741 136.939 111.843C136.861 111.961 136.74 112.044 136.602 112.074C136.463 112.104 136.319 112.078 136.2 112.002C135.875 111.809 135.571 111.602 135.267 111.387L121.053 101.262C118.207 99.2244 115.196 97.4494 112.226 95.6191C110.096 94.2972 108.091 92.7828 106.237 91.095C105.948 90.8975 105.71 90.6319 105.547 90.3215C105.491 90.2232 105.464 90.1112 105.469 89.9983C105.474 89.8853 105.51 89.776 105.574 89.683C105.639 89.5899 105.728 89.5169 105.832 89.4722C105.936 89.4276 106.05 89.4131 106.161 89.4305Z" fill="#FFAF19"/>
<path d="M35.9187 58.688C36.1348 58.671 36.3519 58.671 36.568 58.688C36.7485 58.6964 36.9193 58.7719 37.047 58.8997C37.1748 59.0274 37.2503 59.1982 37.2587 59.3787C37.2764 59.4721 37.2746 59.5681 37.2535 59.6608C37.2324 59.7535 37.1924 59.8408 37.136 59.9173C37.0796 59.9938 37.008 60.0578 36.9257 60.1054C36.8434 60.153 36.7522 60.183 36.6578 60.1937C35.9671 60.325 35.1935 60.4147 34.4614 60.4976C30.6557 60.9259 26.8638 61.4093 23.0443 61.7409C20.5302 61.955 17.9885 61.9343 15.4467 62.0241C14.756 62.0241 14.0654 62.1208 13.4161 62.1553C12.9879 62.1553 12.5942 62.0793 12.4699 61.5958C12.3455 61.1123 12.6633 60.8568 13.0501 60.6634C13.7092 60.3938 14.4105 60.2418 15.1221 60.2144C16.0381 60.0951 16.9611 60.0374 17.8849 60.0417C22.8716 60.1315 27.8031 59.4823 32.7485 58.9712L35.9187 58.688Z" fill="#FFAF19"/>
<path d="M108.22 79.8506C108.399 79.8506 108.572 79.8506 108.745 79.8506C111.307 80.0578 113.835 80.4998 116.377 80.8037C117.876 80.9833 119.381 81.1421 120.88 81.301C121.005 81.301 121.129 81.301 121.246 81.301C121.785 81.3977 122.234 81.6394 122.172 82.2472C122.11 82.855 121.675 83.007 121.15 82.9379C120.383 82.8896 119.616 82.8274 118.85 82.7307L107.66 81.2803C107.509 81.2803 107.35 81.2803 107.198 81.225C106.797 81.1352 106.383 81.004 106.376 80.5343C106.369 80.0647 106.783 79.8989 107.191 79.8436C107.315 79.8334 107.44 79.8334 107.564 79.8436L108.22 79.8506Z" fill="#FFAF19"/>
<path d="M135.972 76.7215C135.523 76.3831 135.371 76.7767 135.205 77.053C134.632 77.9785 134.079 78.911 133.513 79.8158C133.285 80.1818 133.078 80.6308 132.525 80.5064C131.973 80.3821 132.062 79.9263 132.007 79.5257C131.862 78.4174 131.835 77.2969 131.924 76.1828C131.973 75.5681 131.731 75.4161 131.172 75.4921C130.412 75.6371 129.645 75.7684 128.878 75.8789C128.471 75.9341 128.05 75.8788 127.87 75.4161C127.69 74.9533 128.008 74.7254 128.284 74.4629C129.154 73.7132 130.101 73.058 131.109 72.5083C132.249 71.8176 132.256 71.8176 131.178 71.0095C130.553 70.5497 129.979 70.0241 129.465 69.4417C129.25 69.1802 129.053 68.9031 128.878 68.6128C128.767 68.4604 128.707 68.2766 128.707 68.0879C128.707 67.8992 128.767 67.7154 128.878 67.563C128.999 67.4186 129.163 67.3175 129.347 67.2751C129.53 67.2327 129.722 67.2513 129.894 67.3282C130.937 67.6182 131.966 67.9291 133.016 68.2399C134.839 69.1723 134.818 69.1585 135.937 67.487C136.676 66.375 137.471 65.3044 138.258 64.2338C138.534 63.8609 138.831 63.4188 139.384 63.5984C139.936 63.778 139.923 64.3858 139.874 64.8624C139.736 66.2852 139.57 67.7011 139.398 69.1101C139.266 70.0978 139.253 70.1116 140.268 70.2359C141.128 70.347 141.98 70.5178 142.817 70.747C143.355 70.8921 143.991 70.9888 144.011 71.7071C144.032 72.4254 143.431 72.5981 142.92 72.8122C141.946 73.2197 140.959 73.5927 139.992 74.014C139.025 74.4353 139.08 74.456 139.674 75.2365C140.011 75.6417 140.296 76.0872 140.523 76.5626C140.717 77.0323 140.883 77.5089 140.441 77.944C140.267 78.1029 140.047 78.2015 139.813 78.2251C139.579 78.2488 139.344 78.1962 139.142 78.0753C138.085 77.647 137.035 77.1773 135.972 76.7215Z" fill="#3BA3F5"/>
<path d="M24.6397 65.9605C25.0903 66.0558 25.5353 66.1757 25.9727 66.3196C26.5115 66.513 26.9949 66.8307 27.0088 67.48C27.0226 68.1292 26.5391 68.4401 26.0142 68.668C25.0817 69.0755 24.0526 69.1791 23.134 69.6349C22.2706 69.8629 21.4073 70.1184 20.5301 70.3256C20.0328 70.443 19.9706 70.6917 20.1019 71.1338C20.4196 72.2043 20.7304 73.2749 21.0067 74.3593C21.1994 75.0133 21.3312 75.6838 21.4004 76.3622C21.4271 76.6093 21.3866 76.8591 21.2832 77.0851C21.1799 77.3111 21.0175 77.505 20.8131 77.6464C20.6087 77.7879 20.37 77.8716 20.122 77.8887C19.8741 77.9058 19.6261 77.8556 19.4043 77.7436C19.0152 77.5505 18.6661 77.2857 18.3752 76.9631C16.8349 75.4712 15.343 73.9379 13.9271 72.3356C13.4644 71.8175 13.1052 71.8106 12.6286 72.2734C11.7089 73.0584 10.8327 73.8931 10.004 74.7737C9.8681 74.9429 9.71539 75.098 9.54819 75.2364C9.35393 75.4212 9.10107 75.532 8.83355 75.5497C8.56604 75.5674 8.3008 75.4907 8.08393 75.3331C7.88696 75.2016 7.7451 75.0024 7.68526 74.7732C7.62542 74.5441 7.65175 74.3009 7.75929 74.0899C8.36019 72.3632 8.94728 70.6364 9.58271 68.9166C10.2181 67.1968 10.1974 67.3004 8.58121 67.1208C6.965 66.9412 5.32807 66.6581 3.70495 66.4301C3.11679 66.3511 2.54667 66.1712 2.01967 65.8983C1.52238 65.629 1.04581 65.2767 1.12179 64.6137C1.19776 63.9506 1.72269 63.6881 2.28905 63.5707C3.61978 63.299 4.95972 63.055 6.30886 62.8386C7.69024 62.6245 9.00945 62.4104 10.3632 62.2722C10.9019 62.2239 11.0539 61.9821 11.0539 61.5263C11.0539 60.4971 11.0884 59.4542 11.1368 58.4527C11.1989 57.0299 11.2473 55.6002 11.3854 54.1843C11.5028 52.9894 11.7929 52.8029 12.9809 52.6924C13.428 52.9679 13.8023 53.3469 14.0722 53.7975C14.7629 55.6209 16.0337 57.1266 16.8971 58.8533C16.9154 58.9133 16.9484 58.9679 16.993 59.0121C17.0376 59.0563 17.0925 59.0887 17.1527 59.1065C17.2129 59.1243 17.2766 59.1269 17.3381 59.114C17.3995 59.1012 17.4568 59.0733 17.5049 59.0329C18.3199 58.4872 19.3145 58.2593 20.088 57.6515C20.8547 57.3269 21.6145 56.9953 22.3811 56.6776C22.7959 56.4748 23.2465 56.3551 23.7073 56.3254C23.9389 56.2923 24.1752 56.3241 24.3898 56.4173C24.6044 56.5105 24.789 56.6614 24.9229 56.8533C25.0568 57.0452 25.1348 57.2705 25.1482 57.5041C25.1616 57.7377 25.1099 57.9705 24.9989 58.1764C24.6881 58.8671 24.3082 59.5578 23.9145 60.2071C23.1271 61.1671 20.6613 65.2974 21.4694 65.4632C22.0496 65.5254 24.1631 65.85 24.6397 65.9605Z" fill="#3BA3F5"/>
<path d="M122.206 100.025L121.792 100.716C121.036 100.67 120.313 100.392 119.72 99.9216C119.632 99.8466 119.529 99.7926 119.418 99.7639C119.306 99.7351 119.189 99.7323 119.077 99.7556C118.964 99.779 118.858 99.8279 118.767 99.8986C118.676 99.9692 118.603 100.06 118.553 100.163C117.979 100.971 117.351 101.745 116.736 102.519C116.501 102.816 116.239 103.119 115.804 102.988C115.368 102.857 115.279 102.422 115.279 102.001C115.257 101.103 115.301 100.205 115.41 99.3138C115.541 98.3468 115.52 98.3399 114.519 98.3675C113.87 98.3675 113.214 98.4228 112.564 98.4159C112.274 98.4159 111.874 98.485 111.763 98.112C111.653 97.739 111.881 97.5042 112.081 97.2832C112.578 96.7306 113.11 96.2126 113.621 95.6669C113.736 95.5257 113.84 95.3756 113.932 95.218C114.069 95.183 114.194 95.1131 114.296 95.015C114.398 94.9169 114.472 94.7941 114.512 94.6585C114.436 93.436 113.683 92.476 113.255 91.3916C113.11 91.0186 112.834 90.6525 113.138 90.2658C113.441 89.879 113.925 90.0171 114.346 90.0931C115.224 90.2895 116.071 90.6007 116.867 91.0186C117.876 91.5021 117.876 91.5021 118.387 90.549C118.837 89.6654 119.347 88.8139 119.913 88.0003C120.155 87.6688 120.417 87.3096 120.887 87.427C121.357 87.5445 121.488 88.0487 121.481 88.4631C121.481 89.6372 121.44 90.8183 121.364 91.9925C121.322 92.6072 121.488 92.8282 122.137 92.6832C122.596 92.6216 123.06 92.6216 123.519 92.6832C123.947 92.7177 124.416 92.7868 124.534 93.3255C124.651 93.8642 124.327 94.0715 123.988 94.3063C123.173 94.8727 122.365 95.4528 121.529 95.9847C121.06 96.2817 120.915 96.558 121.17 97.1105C121.632 98.0365 121.98 99.0152 122.206 100.025Z" fill="#3BA3F5"/>
</svg>
