<svg width="18" height="18" viewBox="0 0 18 18" fill="none" xmlns="http://www.w3.org/2000/svg">
<path d="M16.8758 9.17493C16.8758 8.52743 16.8222 8.05493 16.7062 7.56494H9.16151V10.4874H13.59C13.5008 11.2137 13.0187 12.3074 11.9472 13.0424L11.9322 13.1402L14.3177 14.9513L14.4829 14.9674C16.0008 13.5937 16.8758 11.5724 16.8758 9.17493Z" fill="#4285F4"/>
<path d="M9.161 16.875C11.3306 16.875 13.152 16.175 14.4824 14.9675L11.9467 13.0424C11.2681 13.5062 10.3574 13.8299 9.161 13.8299C7.03602 13.8299 5.23247 12.4562 4.58956 10.5574L4.49532 10.5653L2.01488 12.4465L1.98244 12.5349C3.30385 15.1074 6.01813 16.875 9.161 16.875Z" fill="#34A853"/>
<path d="M4.59003 10.5575C4.42039 10.0675 4.32221 9.54245 4.32221 8.99997C4.32221 8.45744 4.42039 7.93246 4.5811 7.44247L4.57661 7.33811L2.06507 5.42664L1.9829 5.46494C1.43828 6.53245 1.12578 7.73123 1.12578 8.99997C1.12578 10.2687 1.43828 11.4674 1.9829 12.5349L4.59003 10.5575Z" fill="#FBBC05"/>
<path d="M9.16104 4.16998C10.6699 4.16998 11.6878 4.80873 12.2682 5.34251L14.536 3.1725C13.1432 1.90375 11.3307 1.125 9.16104 1.125C6.01815 1.125 3.30385 2.89249 1.98244 5.46497L4.58065 7.44249C5.23249 5.54375 7.03605 4.16998 9.16104 4.16998Z" fill="#EB4335"/>
</svg>
