<svg width="34" height="32" viewBox="0 0 34 32" fill="none" xmlns="http://www.w3.org/2000/svg">
<path d="M30.3716 20.6956C29.0221 24.1153 27.5273 26.0286 23.2615 28.7209L30.3716 20.6956Z" fill="#F1FFF3"/>
<path d="M2.6553 14.3823C2.94267 10.7768 4.57784 7.41182 7.23506 4.95792C9.89227 2.50401 13.3765 1.14132 16.9934 1.14126C20.6044 1.14177 24.0832 2.49992 26.7393 4.9462C29.3954 7.39247 31.0346 10.748 31.3315 14.3468M30.3716 20.6956C29.0221 24.1153 27.5273 26.0286 23.2615 28.7209M30.3716 20.6956C29.9749 20.5747 29.6422 20.3016 29.4461 19.9362C29.2501 19.5707 29.2067 19.1425 29.3253 18.7452C29.5937 17.8575 29.729 16.9349 29.7266 16.0076C29.7266 15.8024 29.7671 15.5992 29.8458 15.4097C29.9244 15.2202 30.0398 15.0481 30.1851 14.9032C30.3304 14.7584 30.5029 14.6436 30.6927 14.5656C30.8824 14.4875 31.0857 14.4477 31.2909 14.4483C31.4959 14.4477 31.6989 14.4875 31.8884 14.5656C32.0779 14.6438 32.25 14.7586 32.3949 14.9035C32.5399 15.0485 32.6547 15.2206 32.7328 15.4101C32.811 15.5996 32.8508 15.8026 32.8502 16.0076C32.86 17.2398 32.6888 18.4668 32.3422 19.6493C32.2461 19.9706 32.0489 20.2524 31.7799 20.4528C31.5109 20.6532 31.1845 20.7615 30.849 20.7616C30.6876 20.7615 30.527 20.7393 30.3716 20.6956ZM17.1915 18.1306V17.1148C17.1919 16.674 17.3103 16.2412 17.5345 15.8616C17.7587 15.482 18.0623 15.1829 18.4664 14.9562C18.8704 14.7295 19.2068 14.3992 19.4407 13.9992C19.6746 13.5992 19.7976 13.1442 19.7971 12.6808C19.7865 11.9935 19.5085 11.3374 19.022 10.8518C18.5355 10.3663 17.8788 10.0895 17.1915 10.0804C16.5018 10.0804 15.8404 10.3543 15.3527 10.842C14.865 11.3297 14.591 11.9911 14.591 12.6808V13.2548M3.1429 20.7616C2.80747 20.7615 2.48103 20.6532 2.21203 20.4528C1.94303 20.2524 1.74584 19.9706 1.64969 19.6493C1.3031 18.4668 1.13197 17.2398 1.14178 16.0076C1.14178 15.8024 1.18227 15.5992 1.26095 15.4097C1.33963 15.2202 1.45494 15.0481 1.60027 14.9032C1.7456 14.7584 1.9181 14.6436 2.10787 14.5656C2.29763 14.4875 2.50091 14.4477 2.70611 14.4483C2.91106 14.4477 3.11412 14.4875 3.3036 14.5656C3.49308 14.6438 3.66528 14.7586 3.8102 14.9035C3.95513 15.0485 4.06992 15.2206 4.14804 15.4101C4.22616 15.5996 4.26608 15.8026 4.26541 16.0076C4.26553 16.9347 4.40066 17.857 4.66661 18.7452C4.72606 18.9419 4.74617 19.1485 4.72576 19.353C4.70534 19.5576 4.64486 19.7561 4.54769 19.9372C4.45052 20.1183 4.31856 20.2785 4.15945 20.4086C4.00033 20.5388 3.81717 20.6363 3.62036 20.6956C3.46514 20.7401 3.30436 20.7623 3.1429 20.7616ZM24.0381 22.0161C24.9933 21.0623 25.7357 19.917 26.2166 18.6557C26.6975 17.3944 26.906 16.0456 26.8283 14.6979C26.7505 13.3503 26.3884 12.0344 25.7657 10.8367C25.143 9.63904 24.2738 8.58673 23.2153 7.74904C21.5322 6.42077 19.4527 5.69459 17.3086 5.6863C15.1645 5.67802 13.0795 6.38812 11.3862 7.70335C9.56997 9.12314 8.3271 11.1506 7.88577 13.4132C7.44443 15.6759 7.83429 18.0218 8.98379 20.02L7.25696 25.0635C7.24702 25.0921 7.2452 25.1228 7.25176 25.1523C7.25832 25.1818 7.273 25.2089 7.2941 25.2305C7.3152 25.2521 7.3419 25.2675 7.37123 25.2748C7.40056 25.2821 7.4313 25.281 7.46008 25.2717L12.5087 23.5398C14.3303 24.59 16.4474 25.0099 18.5319 24.7344C20.6164 24.4589 22.5518 23.5034 24.0381 22.0161ZM23.393 29.3401C23.393 30.1788 22.7131 30.8587 21.8744 30.8587C21.0357 30.8587 20.3558 30.1788 20.3558 29.3401C20.3558 28.5013 21.0357 27.8214 21.8744 27.8214C22.7131 27.8214 23.393 28.5013 23.393 29.3401Z" stroke="#4B39EF" stroke-width="2.22242" stroke-miterlimit="10"/>
<circle cx="16.9937" cy="19.8465" r="1.01581" fill="#F1FFF3"/>
</svg>
