<svg width="16" height="15" viewBox="0 0 16 15" fill="none" xmlns="http://www.w3.org/2000/svg">
<path d="M12.272 2.595C12.0821 2.595 11.8965 2.64778 11.7387 2.74668C11.5808 2.84557 11.4577 2.98613 11.3851 3.15058C11.3124 3.31504 11.2934 3.496 11.3304 3.67058C11.3675 3.84516 11.4589 4.00553 11.5932 4.1314C11.7274 4.25726 11.8985 4.34298 12.0847 4.37771C12.2709 4.41243 12.464 4.39461 12.6394 4.32649C12.8148 4.25837 12.9647 4.14302 13.0702 3.99501C13.1757 3.84701 13.232 3.673 13.232 3.495C13.232 3.2563 13.1309 3.02739 12.9508 2.8586C12.7708 2.68982 12.5266 2.595 12.272 2.595ZM15.952 4.41C15.9364 3.78772 15.8121 3.17205 15.584 2.5875C15.3806 2.08735 15.064 1.63446 14.656 1.26C14.2599 0.875569 13.7756 0.580632 13.24 0.3975C12.6181 0.177121 11.9607 0.0579075 11.296 0.045C10.448 -4.19095e-08 10.176 0 8 0C5.824 0 5.552 -4.19095e-08 4.704 0.045C4.03932 0.0579075 3.38187 0.177121 2.76 0.3975C2.22534 0.582486 1.74155 0.87717 1.344 1.26C0.933941 1.63138 0.619341 2.08533 0.424 2.5875C0.188929 3.17051 0.061768 3.78686 0.048 4.41C-4.47035e-08 5.205 0 5.46 0 7.5C0 9.54 -4.47035e-08 9.795 0.048 10.59C0.061768 11.2131 0.188929 11.8295 0.424 12.4125C0.619341 12.9147 0.933941 13.3686 1.344 13.74C1.74155 14.1228 2.22534 14.4175 2.76 14.6025C3.38187 14.8229 4.03932 14.9421 4.704 14.955C5.552 15 5.824 15 8 15C10.176 15 10.448 15 11.296 14.955C11.9607 14.9421 12.6181 14.8229 13.24 14.6025C13.7756 14.4194 14.2599 14.1244 14.656 13.74C15.0658 13.3669 15.3827 12.9136 15.584 12.4125C15.8121 11.8279 15.9364 11.2123 15.952 10.59C15.952 9.795 16 9.54 16 7.5C16 5.46 16 5.205 15.952 4.41ZM14.512 10.5C14.5062 10.9761 14.4142 11.4478 14.24 11.895C14.1123 12.2214 13.9071 12.5163 13.64 12.7575C13.3805 13.0054 13.0666 13.1973 12.72 13.32C12.243 13.4833 11.7398 13.5695 11.232 13.575C10.432 13.6125 10.136 13.62 8.032 13.62C5.928 13.62 5.632 13.62 4.832 13.575C4.30471 13.5843 3.77968 13.5081 3.28 13.35C2.94863 13.2211 2.64908 13.0296 2.4 12.7875C2.13447 12.5466 1.93187 12.2514 1.808 11.925C1.61269 11.4714 1.50435 10.989 1.488 10.5C1.488 9.75 1.44 9.4725 1.44 7.5C1.44 5.5275 1.44 5.25 1.488 4.5C1.49159 4.01329 1.58636 3.53096 1.768 3.075C1.90884 2.75843 2.12501 2.47624 2.4 2.25C2.64305 1.99213 2.94343 1.78732 3.28 1.65C3.76764 1.48503 4.2816 1.39881 4.8 1.395C5.6 1.395 5.896 1.35 8 1.35C10.104 1.35 10.4 1.35 11.2 1.395C11.7078 1.40046 12.211 1.48668 12.688 1.65C13.0515 1.77649 13.3778 1.98214 13.64 2.25C13.9022 2.48038 14.107 2.76205 14.24 3.075C14.4178 3.5317 14.5098 4.01383 14.512 4.5C14.552 5.25 14.56 5.5275 14.56 7.5C14.56 9.4725 14.552 9.75 14.512 10.5ZM8 3.6525C7.18865 3.65398 6.39597 3.88089 5.72212 4.30456C5.04828 4.72823 4.5235 5.32965 4.21411 6.03281C3.90471 6.73598 3.82458 7.50935 3.98384 8.2552C4.14309 9.00104 4.53459 9.6859 5.10886 10.2232C5.68313 10.7606 6.41441 11.1263 7.21029 11.2741C8.00617 11.422 8.83093 11.3453 9.58037 11.0539C10.3298 10.7625 10.9703 10.2693 11.4209 9.63678C11.8715 9.00422 12.112 8.26064 12.112 7.5C12.1131 6.99383 12.0074 6.49246 11.801 6.02472C11.5946 5.55698 11.2916 5.13211 10.9095 4.77454C10.5273 4.41697 10.0736 4.13376 9.57424 3.9412C9.07492 3.74864 8.53991 3.65052 8 3.6525ZM8 9.9975C7.47311 9.9975 6.95805 9.85102 6.51996 9.5766C6.08187 9.30217 5.74042 8.91211 5.53878 8.45575C5.33715 7.99939 5.2844 7.49723 5.38719 7.01276C5.48998 6.52829 5.7437 6.08328 6.11627 5.734C6.48883 5.38472 6.96351 5.14686 7.48028 5.05049C7.99705 4.95412 8.53269 5.00358 9.01947 5.19261C9.50625 5.38164 9.92231 5.70175 10.215 6.11246C10.5078 6.52318 10.664 7.00604 10.664 7.5C10.664 7.82798 10.5951 8.15274 10.4612 8.45575C10.3273 8.75876 10.1311 9.03409 9.88373 9.266C9.63636 9.49791 9.34268 9.68188 9.01947 9.80739C8.69626 9.9329 8.34984 9.9975 8 9.9975Z" fill="#8F90A7"/>
</svg>
