<svg width="24" height="24" viewBox="0 0 24 24" fill="none" xmlns="http://www.w3.org/2000/svg">
<path d="M14.4101 19.0001C14.2777 18.9995 14.1469 18.9727 14.025 18.9212C13.9031 18.8697 13.7927 18.7945 13.7001 18.7001L7.78005 12.7501C7.5938 12.5627 7.48926 12.3092 7.48926 12.0451C7.48926 11.7809 7.5938 11.5274 7.78005 11.3401L13.7001 5.41006C13.8884 5.22175 14.1437 5.11597 14.4101 5.11597C14.6764 5.11597 14.9317 5.22175 15.1201 5.41006C15.3084 5.59836 15.4141 5.85376 15.4141 6.12006C15.4141 6.38636 15.3084 6.64175 15.1201 6.83006L9.90005 12.0001L15.1201 17.2201C15.2888 17.3537 15.41 17.5382 15.4655 17.7462C15.521 17.9542 15.5079 18.1746 15.4281 18.3745C15.3484 18.5745 15.2062 18.7434 15.0228 18.8561C14.8394 18.9688 14.6245 19.0193 14.4101 19.0001Z" fill="#4B39EF"/>
</svg>
