<svg width="24" height="24" viewBox="0 0 24 24" fill="none" xmlns="http://www.w3.org/2000/svg">
<path d="M9.59001 4.99994C9.72232 5.00049 9.8532 5.02729 9.97507 5.07879C10.0969 5.13028 10.2074 5.20545 10.3 5.29994L16.22 11.2499C16.4063 11.4373 16.5108 11.6908 16.5108 11.9549C16.5108 12.2191 16.4063 12.4726 16.22 12.6599L10.3 18.5899C10.1117 18.7782 9.85631 18.884 9.59001 18.884C9.32371 18.884 9.06831 18.7782 8.88001 18.5899C8.69171 18.4016 8.58592 18.1462 8.58592 17.8799C8.58592 17.6136 8.69171 17.3582 8.88001 17.1699L14.1 11.9999L8.88001 6.77994C8.71124 6.6463 8.59009 6.46177 8.53459 6.25377C8.47909 6.04577 8.49219 5.82542 8.57195 5.62546C8.65171 5.42551 8.79386 5.25663 8.97728 5.14393C9.1607 5.03123 9.37559 4.98073 9.59001 4.99994Z" fill="#4B39EF"/>
</svg>
