<svg width="20" height="20" viewBox="0 0 20 20" fill="none" xmlns="http://www.w3.org/2000/svg">
<path d="M2.5 7.5C2.5 7.05797 2.67559 6.63405 2.98816 6.32149C3.30072 6.00893 3.72464 5.83333 4.16667 5.83333H4.94167C5.21599 5.83337 5.48608 5.7657 5.72797 5.63633C5.96987 5.50695 6.17609 5.31986 6.32833 5.09167L7.005 4.075C7.15725 3.84681 7.36347 3.65972 7.60536 3.53034C7.84726 3.40096 8.11735 3.33329 8.39167 3.33333H11.6083C11.8827 3.33329 12.1527 3.40096 12.3946 3.53034C12.6365 3.65972 12.8428 3.84681 12.995 4.075L13.6717 5.09167C13.8239 5.31986 14.0301 5.50695 14.272 5.63633C14.5139 5.7657 14.784 5.83337 15.0583 5.83333H15.8333C16.2754 5.83333 16.6993 6.00893 17.0118 6.32149C17.3244 6.63405 17.5 7.05797 17.5 7.5V15C17.5 15.442 17.3244 15.866 17.0118 16.1785C16.6993 16.4911 16.2754 16.6667 15.8333 16.6667H4.16667C3.72464 16.6667 3.30072 16.4911 2.98816 16.1785C2.67559 15.866 2.5 15.442 2.5 15V7.5Z" stroke="#4B39EF" stroke-width="1.4" stroke-linecap="round" stroke-linejoin="round"/>
<path d="M12.5 10.8333C12.5 11.4964 12.2366 12.1323 11.7678 12.6011C11.2989 13.0699 10.663 13.3333 10 13.3333C9.33696 13.3333 8.70107 13.0699 8.23223 12.6011C7.76339 12.1323 7.5 11.4964 7.5 10.8333C7.5 10.1703 7.76339 9.53441 8.23223 9.06556C8.70107 8.59672 9.33696 8.33333 10 8.33333C10.663 8.33333 11.2989 8.59672 11.7678 9.06556C12.2366 9.53441 12.5 10.1703 12.5 10.8333V10.8333Z" stroke="#4B39EF" stroke-width="2" stroke-linecap="round" stroke-linejoin="round"/>
</svg>
