<svg width="20" height="20" viewBox="0 0 20 20" fill="none" xmlns="http://www.w3.org/2000/svg">
<path d="M9.20834 18.8666C7.22247 18.8567 5.30988 18.1154 3.8361 16.7844C2.36233 15.4533 1.43072 13.6258 1.21934 11.6512C1.00796 9.67662 1.53163 7.69336 2.69026 6.0805C3.84889 4.46764 5.56123 3.33828 7.50001 2.90828C7.66129 2.87353 7.82978 2.90397 7.96872 2.99295C8.10766 3.08193 8.20578 3.22224 8.24167 3.38328C8.26645 3.46837 8.27259 3.5578 8.25968 3.64547C8.24677 3.73315 8.21512 3.81701 8.16688 3.89135C8.11864 3.96569 8.05494 4.02876 7.98013 4.07626C7.90531 4.12376 7.82114 4.15458 7.73334 4.16662C6.53455 4.43175 5.42948 5.01534 4.53458 5.8559C3.63968 6.69645 2.98809 7.76285 2.64847 8.9427C2.30886 10.1225 2.2938 11.3722 2.60488 12.5599C2.91596 13.7475 3.54166 14.8293 4.41605 15.6912C5.29043 16.5531 6.38112 17.1632 7.57317 17.4571C8.76522 17.751 10.0145 17.718 11.1893 17.3614C12.3642 17.0048 13.4211 16.338 14.2486 15.431C15.0762 14.5241 15.6438 13.4108 15.8917 12.2083C15.9248 12.0458 16.0211 11.9032 16.1595 11.8118C16.2978 11.7204 16.4667 11.6876 16.6292 11.7208C16.7916 11.7539 16.9342 11.8503 17.0257 11.9886C17.1171 12.1269 17.1498 12.2958 17.1167 12.4583C16.7284 14.2689 15.7321 15.8921 14.2934 17.058C12.8546 18.2238 11.0601 18.8621 9.20834 18.8666ZM16.9167 9.74995H13.175C12.3992 9.74995 11.6553 9.44178 11.1067 8.89324C10.5582 8.34469 10.25 7.60071 10.25 6.82495V3.08328C10.2495 2.79231 10.3144 2.50494 10.4399 2.24242C10.5654 1.9799 10.7482 1.74894 10.975 1.56662C11.1953 1.38583 11.4538 1.25739 11.7309 1.19099C12.0081 1.12459 12.2967 1.12195 12.575 1.18328C14.1094 1.50465 15.5168 2.26614 16.6253 3.37463C17.7338 4.48313 18.4953 5.8906 18.8167 7.42495C18.878 7.70327 18.8754 7.99187 18.809 8.26902C18.7426 8.54617 18.6141 8.80464 18.4333 9.02495C18.251 9.25171 18.0201 9.4346 17.7575 9.56009C17.495 9.68558 17.2076 9.75047 16.9167 9.74995ZM12.175 2.38328C12.0234 2.38627 11.877 2.43897 11.7583 2.53328C11.6785 2.60117 11.6141 2.68539 11.5695 2.78027C11.525 2.87514 11.5013 2.97847 11.5 3.08328V6.82495C11.5 7.26698 11.6756 7.6909 11.9882 8.00346C12.3007 8.31602 12.7246 8.49162 13.1667 8.49162H16.9167C17.0264 8.49629 17.1358 8.47626 17.2368 8.43299C17.3377 8.38972 17.4277 8.32432 17.5 8.24162C17.5629 8.16466 17.6076 8.07445 17.6307 7.97775C17.6538 7.88105 17.6547 7.78038 17.6333 7.68328C17.351 6.3892 16.703 5.2034 15.7665 4.26683C14.8299 3.33025 13.6441 2.68229 12.35 2.39995L12.175 2.38328Z" fill="#022150"/>
</svg>
