<svg width="35" height="35" viewBox="0 0 35 35" fill="none" xmlns="http://www.w3.org/2000/svg">
<circle cx="17.5" cy="17.5" r="17.25" stroke="white" stroke-width="0.5"/>
<path d="M22.75 16.625H18.375V12.25C18.375 12.0179 18.2828 11.7954 18.1187 11.6313C17.9546 11.4672 17.7321 11.375 17.5 11.375C17.2679 11.375 17.0454 11.4672 16.8813 11.6313C16.7172 11.7954 16.625 12.0179 16.625 12.25V16.625H12.25C12.0179 16.625 11.7954 16.7172 11.6313 16.8813C11.4672 17.0454 11.375 17.2679 11.375 17.5C11.375 17.7321 11.4672 17.9546 11.6313 18.1187C11.7954 18.2828 12.0179 18.375 12.25 18.375H16.625V22.75C16.625 22.9821 16.7172 23.2046 16.8813 23.3687C17.0454 23.5328 17.2679 23.625 17.5 23.625C17.7321 23.625 17.9546 23.5328 18.1187 23.3687C18.2828 23.2046 18.375 22.9821 18.375 22.75V18.375H22.75C22.9821 18.375 23.2046 18.2828 23.3687 18.1187C23.5328 17.9546 23.625 17.7321 23.625 17.5C23.625 17.2679 23.5328 17.0454 23.3687 16.8813C23.2046 16.7172 22.9821 16.625 22.75 16.625Z" fill="white"/>
</svg>
