<svg width="26" height="24" viewBox="0 0 26 24" fill="none" xmlns="http://www.w3.org/2000/svg">
<path d="M3.28685 7.0087C3.01551 6.64737 2.50263 6.57441 2.1413 6.84575C1.77997 7.11709 1.70701 7.62997 1.97835 7.9913L3.28685 7.0087ZM22.6332 8.16714L22.0061 7.64163L22.0031 7.64524L22.6332 8.16714ZM23.8098 7.99398C24.0826 7.63377 24.0118 7.12059 23.6516 6.84777C23.2913 6.57495 22.7782 6.6458 22.5054 7.00602L23.8098 7.99398ZM13.7115 13.169C13.7115 12.7171 13.3452 12.3508 12.8934 12.3508C12.4415 12.3508 12.0752 12.7171 12.0752 13.169H13.7115ZM12.0752 16.5C12.0752 16.9519 12.4415 17.3182 12.8934 17.3182C13.3452 17.3182 13.7115 16.9519 13.7115 16.5H12.0752ZM19.1613 11.2996C18.9395 10.9059 18.4405 10.7666 18.0469 10.9884C17.6532 11.2102 17.5139 11.7092 17.7357 12.1028L19.1613 11.2996ZM19.5501 15.3232C19.7719 15.7169 20.2709 15.8562 20.6645 15.6344C21.0582 15.4126 21.1975 14.9136 20.9757 14.5199L19.5501 15.3232ZM23.1876 7.56869C22.8571 7.26056 22.3394 7.27871 22.0312 7.60923C21.7231 7.93975 21.7413 8.45748 22.0718 8.76561L23.1876 7.56869ZM24.3966 10.9329C24.7271 11.2411 25.2449 11.2229 25.553 10.8924C25.8611 10.5619 25.843 10.0441 25.5125 9.73601L24.3966 10.9329ZM8.04055 12.1028C8.26236 11.7092 8.12303 11.2102 7.72935 10.9884C7.33566 10.7666 6.83671 10.9059 6.6149 11.2996L8.04055 12.1028ZM4.80048 14.5199C4.57866 14.9136 4.71799 15.4126 5.11168 15.6344C5.50536 15.8562 6.00431 15.7169 6.22613 15.3232L4.80048 14.5199ZM3.70093 8.76561C4.03145 8.45748 4.0496 7.93975 3.74147 7.60923C3.43335 7.27871 2.91562 7.26056 2.5851 7.56869L3.70093 8.76561ZM0.260263 9.73601C-0.0702574 10.0441 -0.0884106 10.5619 0.219717 10.8924C0.527844 11.2229 1.04557 11.2411 1.37609 10.9329L0.260263 9.73601ZM1.97835 7.9913C4.85552 11.8228 8.64849 13.8607 12.5329 13.9809C16.4184 14.1011 20.2739 12.2982 23.2633 8.68904L22.0031 7.64524C19.2905 10.9203 15.897 12.4478 12.5835 12.3453C9.26872 12.2428 5.91238 10.505 3.28685 7.0087L1.97835 7.9913ZM23.2603 8.69265C23.4527 8.46304 23.6346 8.22532 23.8098 7.99398L22.5054 7.00602C22.331 7.23628 22.1703 7.44572 22.0061 7.64164L23.2603 8.69265ZM12.0752 13.169V16.5H13.7115V13.169H12.0752ZM17.7357 12.1028L19.5501 15.3232L20.9757 14.5199L19.1613 11.2996L17.7357 12.1028ZM22.0718 8.76561L24.3966 10.9329L25.5125 9.73601L23.1876 7.56869L22.0718 8.76561ZM6.6149 11.2996L4.80048 14.5199L6.22613 15.3232L8.04055 12.1028L6.6149 11.2996ZM2.5851 7.56869L0.260263 9.73601L1.37609 10.9329L3.70093 8.76561L2.5851 7.56869Z" fill="#0E3E3E"/>
</svg>
