<svg width="144" height="10" viewBox="0 0 144 10" fill="none" xmlns="http://www.w3.org/2000/svg">
<path opacity="0.45" d="M4.77313 9.5462C2.12139 9.5462 5.23859e-07 7.42481 5.23859e-07 4.77307C5.23859e-07 2.12134 2.12139 -5.31642e-05 4.77313 -5.31642e-05C7.42487 -5.31642e-05 9.54626 2.12134 9.54626 4.77307C9.54626 7.42481 7.42487 9.5462 4.77313 9.5462ZM23.9808 9.5462C21.3291 9.5462 19.2077 7.42481 19.2077 4.77307C19.2077 2.12134 21.3291 -5.31642e-05 23.9808 -5.31642e-05C26.6325 -5.31642e-05 28.7539 2.12134 28.7539 4.77307C28.7539 7.42481 26.6325 9.5462 23.9808 9.5462ZM43.1885 9.5462C40.5367 9.5462 38.4154 7.42481 38.4154 4.77307C38.4154 2.12134 40.5367 -5.31642e-05 43.1885 -5.31642e-05C45.8402 -5.31642e-05 47.9616 2.12134 47.9616 4.77307C47.9616 7.42481 45.8402 9.5462 43.1885 9.5462ZM62.3962 9.5462C59.7444 9.5462 57.623 7.42481 57.623 4.77307C57.623 2.12134 59.7444 -5.31642e-05 62.3962 -5.31642e-05C65.0479 -5.31642e-05 67.1693 2.12134 67.1693 4.77307C67.1693 7.42481 65.0479 9.5462 62.3962 9.5462ZM81.6038 9.5462C78.9521 9.5462 76.8307 7.42481 76.8307 4.77307C76.8307 2.12134 78.9521 -5.31642e-05 81.6038 -5.31642e-05C84.2556 -5.31642e-05 86.377 2.12134 86.377 4.77307C86.377 7.42481 84.2556 9.5462 81.6038 9.5462ZM100.812 9.5462C98.1598 9.5462 96.0384 7.42481 96.0384 4.77307C96.0384 2.12134 98.1598 -5.31642e-05 100.812 -5.31642e-05C103.463 -5.31642e-05 105.585 2.12134 105.585 4.77307C105.585 7.42481 103.463 9.5462 100.812 9.5462ZM120.019 9.5462C117.367 9.5462 115.246 7.42481 115.246 4.77307C115.246 2.12134 117.367 -5.31642e-05 120.019 -5.31642e-05C122.671 -5.31642e-05 124.792 2.12134 124.792 4.77307C124.792 7.42481 122.671 9.5462 120.019 9.5462ZM139.227 9.5462C136.575 9.5462 134.454 7.42481 134.454 4.77307C134.454 2.12134 136.575 -5.31642e-05 139.227 -5.31642e-05C141.879 -5.31642e-05 144 2.12134 144 4.77307C144 7.42481 141.879 9.5462 139.227 9.5462Z" fill="#0E3E3E"/>
</svg>
