<svg width="7" height="9" viewBox="0 0 7 9" fill="none" xmlns="http://www.w3.org/2000/svg">
<path fill-rule="evenodd" clip-rule="evenodd" d="M2.8059 1.05065C2.92537 1.33065 3.21295 1.51807 3.54217 1.51807H5.63855C5.74699 1.51807 5.85542 1.44578 5.85542 1.33735C5.85542 1.22892 5.74699 1.15663 5.63855 1.15663H3.68675C3.4729 1.15663 3.25905 0.998469 3.16216 0.799123C3.27505 0.723337 3.38969 0.649971 3.50603 0.5791C3.50637 0.687097 3.57858 0.759036 3.68675 0.759036H5.63855C5.96386 0.759036 6.21687 1.01205 6.21687 1.33735C6.21687 1.66265 5.96386 1.91566 5.63855 1.91566V3.90361C5.63855 3.9759 5.56627 4.04819 5.49398 4.04819H3.9759C3.90361 4.04819 3.83133 3.9759 3.83133 3.90361C3.83133 3.54217 4.12048 3.25301 4.48193 3.25301H4.80723V2.92771H2.74699V3.93976C2.74699 4.04819 2.6747 4.12048 2.56627 4.12048H1.08434C0.975904 4.12048 0.903614 4.04819 0.903614 3.93976C0.903614 3.57831 1.19277 3.28916 1.59036 3.28916H1.87952V2.96386C1.77672 2.96397 1.67498 2.94321 1.58045 2.90282C1.48592 2.86244 1.40058 2.80327 1.3296 2.72892C1.28125 2.67825 1.24024 2.62126 1.20765 2.55962C1.67849 1.99579 2.21518 1.48886 2.8059 1.05065ZM3.88299 0.361446C4.12271 0.230466 4.36887 0.109786 4.62086 0H5.63855V0.361446H3.88299ZM1.36397 5.05072C1.51988 4.89481 1.73133 4.80723 1.95181 4.80723C2.16596 4.81655 2.36824 4.90823 2.51641 5.06314C2.66458 5.21804 2.74719 5.42419 2.74699 5.63855C2.74699 6.07229 3.10843 6.39759 3.54217 6.39759H5.63855C5.74699 6.39759 5.85542 6.3253 5.85542 6.21687C5.85542 6.10843 5.74699 6.03614 5.63855 6.03614H3.68675C3.39759 6.03614 3.10843 5.74699 3.10843 5.45783C3.10843 5.13253 3.39759 4.87952 3.68675 4.87952H5.63855V5.24096H3.68675C3.57831 5.24096 3.50602 5.3494 3.50602 5.45783C3.50602 5.56627 3.57831 5.63855 3.68675 5.63855H5.63855C5.96386 5.63855 6.21687 5.89157 6.21687 6.21687C6.21687 6.54217 5.96386 6.79518 5.63855 6.79518V8.78313C5.63855 8.85542 5.56627 8.92771 5.49398 8.92771H3.9759C3.90361 8.92771 3.83133 8.85542 3.83133 8.78313C3.83133 8.42169 4.12048 8.13253 4.48193 8.13253H4.80723V7.80723H2.74699V8.81928C2.74699 8.92771 2.6747 9 2.56627 9H1.08434C0.975904 9 0.903614 8.92771 0.903614 8.81928C0.903614 8.45783 1.19277 8.16867 1.59036 8.16867H1.87952V7.84337C1.77672 7.84349 1.67498 7.82273 1.58045 7.78234C1.48592 7.74196 1.40058 7.68279 1.3296 7.60843C1.25863 7.53408 1.20349 7.44608 1.16755 7.34978C1.1316 7.25347 1.11559 7.15087 1.12048 7.04819H0.144578C0.0722892 7.04819 0 6.9759 0 6.90361V5.38554C0 5.31325 0.0722892 5.24096 0.144578 5.24096C0.506024 5.24096 0.795181 5.53012 0.795181 5.89157V6.21687H1.12048V5.63855C1.12048 5.41807 1.20807 5.20662 1.36397 5.05072Z" fill="#FFDA44"/>
</svg>
