<svg width="17" height="17" viewBox="0 0 17 17" fill="none" xmlns="http://www.w3.org/2000/svg">
<path d="M8.25499 15.4417C7.97658 15.4382 7.70181 15.3779 7.44749 15.2646C5.78999 14.5067 0.364153 11.638 0.456236 6.41753C0.455398 5.34841 0.808724 4.30913 1.46101 3.46205C2.1133 2.61497 3.02781 2.00782 4.06165 1.73545C4.75319 1.55076 5.4756 1.51206 6.18291 1.62182C6.89022 1.73157 7.56694 1.98738 8.16999 2.37295C8.18051 2.38291 8.19445 2.38847 8.20894 2.38847C8.22344 2.38847 8.23738 2.38291 8.2479 2.37295C8.90367 1.95083 9.64696 1.68361 10.4214 1.59156C11.1958 1.49951 11.981 1.58506 12.7175 1.8417C13.6556 2.17602 14.4688 2.78976 15.0476 3.60027C15.6263 4.41078 15.9429 5.37916 15.9546 6.37503C15.8554 12.2188 10.5642 14.6838 8.94915 15.3071C8.72778 15.3935 8.4926 15.4391 8.25499 15.4417ZM5.42165 2.62795C5.0562 2.62732 4.6921 2.67254 4.3379 2.76253C3.52432 2.97343 2.80415 3.44929 2.29109 4.11499C1.77802 4.7807 1.50129 5.59832 1.50457 6.43878C1.42665 11.0075 6.36374 13.6071 7.87957 14.2942C7.99105 14.3438 8.11171 14.3694 8.23374 14.3694C8.35576 14.3694 8.47642 14.3438 8.5879 14.2942C10.0542 13.7417 14.8283 11.5246 14.9133 6.3467C14.8966 5.57504 14.6467 4.8265 14.1967 4.19945C13.7466 3.57241 13.1174 3.09618 12.3917 2.83337C11.8079 2.63191 11.1863 2.56486 10.573 2.63722C9.95977 2.70959 9.37078 2.91949 8.84999 3.25128C8.66785 3.37044 8.45493 3.4339 8.23728 3.4339C8.01963 3.4339 7.8067 3.37044 7.62457 3.25128C6.96258 2.83076 6.19163 2.61401 5.40749 2.62795H5.42165Z" fill="#022150"/>
</svg>
