<svg width="30" height="30" viewBox="0 0 30 30" fill="none" xmlns="http://www.w3.org/2000/svg">
<path d="M12.2115 3.85997L12.1463 4.14727L11.8635 4.22953C11.0692 4.46051 10.3115 4.77684 9.60089 5.16778L9.34261 5.30987L9.09324 5.15267L7.09833 3.89513C7.09833 3.89513 7.09833 3.89512 7.09833 3.89512C6.56041 3.55605 5.85942 3.6345 5.40978 4.08412C5.40978 4.08412 5.40978 4.08412 5.40977 4.08413L4.08258 5.41135L4.08257 5.41135C3.63295 5.86097 3.55448 6.56196 3.89357 7.09987L3.89358 7.09987L5.15159 9.09551L5.30875 9.34482L5.16674 9.60307C4.77613 10.3134 4.46009 11.0709 4.22934 11.8649L4.14711 12.1478L3.85976 12.213L1.56033 12.7343L1.44978 12.2467L1.56033 12.7343C0.940202 12.8749 0.5 13.426 0.5 14.0619V15.9389C0.5 16.5747 0.940199 17.1259 1.56034 17.2665L3.86002 17.7879L4.14734 17.853L4.22959 18.1359C4.46049 18.9301 4.77672 19.6878 5.16753 20.3983L5.30957 20.6566L5.1524 20.9059L3.89461 22.9013L3.89458 22.9013C3.55556 23.439 3.63394 24.14 4.0836 24.5898L4.08364 24.5898M12.2115 3.85997L4.08364 24.5898M12.2115 3.85997L12.7328 1.56035C12.8734 0.940194 13.4246 0.5 14.0604 0.5H15.9374C16.5733 0.5 17.1244 0.940198 17.265 1.56034L17.7862 3.85914L17.8513 4.14652L18.1343 4.22874C18.9292 4.45967 19.6876 4.77611 20.3988 5.16728L20.6571 5.30933L20.9064 5.15214L22.9011 3.89469L22.6344 3.47171M12.2115 3.85997L20.6398 4.72917M4.08364 24.5898L5.41081 25.917M4.08364 24.5898L5.41081 25.917M5.41081 25.917C5.41081 25.917 5.41082 25.917 5.41083 25.917C5.86045 26.3665 6.56147 26.445 7.09938 26.106L9.09478 24.8482L9.3441 24.691L9.60234 24.833C10.3125 25.2235 11.0697 25.5396 11.8634 25.7703L12.1463 25.8525L12.2115 26.1399L12.7328 28.4396C12.7328 28.4396 12.7328 28.4396 12.7328 28.4396C12.8734 29.0597 13.4246 29.5 14.0604 29.5H15.9374C16.5732 29.5 17.1244 29.0597 17.265 28.4396L17.7526 28.5501L17.265 28.4396L17.7862 26.1407L17.8513 25.8533L18.1343 25.7711C18.9287 25.5404 19.6866 25.2242 20.3974 24.8334L20.6556 24.6915L20.9049 24.8486L22.9002 26.1064L22.9002 26.1064C23.4379 26.4454 24.1389 26.367 24.5887 25.9174L24.5888 25.9174M5.41081 25.917L24.9423 26.271L24.5888 25.9174M24.5888 25.9174L25.9159 24.5903L24.5888 25.9174ZM22.6344 3.47171L22.9011 3.89468C23.4391 3.55557 24.14 3.63409 24.5896 4.08366L24.5896 4.08368L25.9168 5.41089L25.9168 5.41092C26.3666 5.86056 26.445 6.5615 26.1058 7.09937L26.1058 7.09946L24.8484 9.09435L24.6912 9.34369L24.8333 9.60193C25.2242 10.3127 25.5404 11.0706 25.7711 11.865L25.8533 12.148L26.1408 12.2131L28.4396 12.7343C29.0597 12.8749 29.5 13.4261 29.5 14.0619V15.9389C29.5 16.5747 29.0597 17.1259 28.4396 17.2665L26.1405 17.7877L25.8532 17.8529L25.771 18.1358C25.54 18.9304 25.2236 19.6885 24.8324 20.3993L24.6903 20.6576L24.8475 20.907L26.1049 22.9017L26.1049 22.9017C26.4439 23.4394 26.3655 24.1404 25.9159 24.5902L26.2511 18.2753L28.5501 17.7541C29.398 17.5619 30 16.8083 30 15.9389V14.0619C30 13.1925 29.398 12.4389 28.5501 12.2467L26.2513 11.7255C26.0102 10.8954 25.6798 10.1035 25.2714 9.36096L26.5288 7.36607C26.9925 6.63059 26.8852 5.67212 26.2704 5.05733L24.9431 3.73013C24.3285 3.11537 23.37 3.00807 22.6344 3.47171ZM22.6344 3.47171L20.6398 4.72917M20.6398 4.72917C19.8968 4.32054 19.1044 3.9899 18.2738 3.74859L17.7526 1.4498C17.5604 0.60188 16.8068 0 15.9374 0H14.0604C13.191 0 12.4374 0.60188 12.2452 1.4498L20.6398 4.72917ZM14.0604 1.36132H13.6611L13.5728 1.75077L12.8665 4.86613C11.5891 5.13382 10.3983 5.63686 9.34179 6.32753L6.63903 4.62376L6.30122 4.41081L6.01885 4.69318L4.69162 6.02039L4.40924 6.30276L4.6222 6.64058L6.3263 9.34386C5.63611 10.4003 5.13347 11.5908 4.86608 12.868L1.75076 13.5743L1.36131 13.6626V14.0619V15.9389V16.3382L1.75076 16.4265L4.86626 17.1328C5.13381 18.4102 5.6367 19.6009 6.32719 20.6575L4.62323 23.3604L4.41026 23.6982L4.69264 23.9806L6.01987 25.3078L6.30224 25.5902L6.64006 25.3772L9.34322 23.6732C10.3994 24.3634 11.5896 24.8662 12.8665 25.1337L13.5728 28.2492L13.6611 28.6387H14.0604H15.9374H16.3367L16.425 28.2492L17.1312 25.1345C18.4088 24.8671 19.5997 24.3643 20.6564 23.6739L23.3593 25.3777L23.6971 25.5906L23.9795 25.3083L25.3067 23.9813L25.5891 23.6989L25.3762 23.3611L23.6726 20.6584C24.3635 19.6017 24.8666 18.4105 25.1342 17.1327L28.2492 16.4265L28.6387 16.3382V15.9389V14.0619V13.6626L28.2492 13.5743L25.1345 12.8682C24.8671 11.5905 24.3641 10.3995 23.6735 9.34277L25.3773 6.64013L25.5902 6.30231L25.3078 6.01993L23.9806 4.69272L23.6982 4.41035L23.3604 4.62331L20.658 6.32696C19.6008 5.63607 18.4094 5.13299 17.1312 4.86553L16.425 1.75077L16.3367 1.36132H15.9374H14.0604ZM15.0001 18.8389C17.1204 18.8389 18.8393 17.12 18.8393 14.9997C18.8393 12.8793 17.1204 11.1604 15.0001 11.1604C12.8797 11.1604 11.1608 12.8793 11.1608 14.9997C11.1608 17.12 12.8797 18.8389 15.0001 18.8389ZM19.8101 14.9997C19.8101 17.6562 17.6566 19.8097 15.0001 19.8097C12.3436 19.8097 10.19 17.6562 10.19 14.9997C10.19 12.3432 12.3436 10.1896 15.0001 10.1896C17.6566 10.1896 19.8101 12.3432 19.8101 14.9997Z" fill="#4B39EF" stroke="#4B39EF"/>
</svg>
