<svg width="24" height="24" viewBox="0 0 24 24" fill="none" xmlns="http://www.w3.org/2000/svg">
<path d="M12.0547 14.7144C13.4443 14.7144 14.5708 13.5879 14.5708 12.1983C14.5708 10.8086 13.4443 9.68213 12.0547 9.68213C10.6651 9.68213 9.53857 10.8086 9.53857 12.1983C9.53857 13.5879 10.6651 14.7144 12.0547 14.7144Z" fill="#C3C9CB"/>
<path d="M21.6694 10.8506C20.5543 9.35024 19.1047 8.13057 17.4357 7.28854C15.7667 6.4465 13.9244 6.0053 12.055 6C8.22903 6 4.72519 7.76935 2.44065 10.8506C2.15434 11.2418 2 11.714 2 12.1987C2 12.6835 2.15434 13.1556 2.44065 13.5468C4.72519 16.6297 8.22903 18.3974 12.055 18.3974C13.9244 18.3921 15.7667 17.9509 17.4357 17.1089C19.1047 16.2669 20.5543 15.0472 21.6694 13.5468C21.9557 13.1556 22.11 12.6835 22.11 12.1987C22.11 11.714 21.9557 11.2418 21.6694 10.8506ZM12.055 16.0145C11.3 16.0146 10.562 15.7908 9.9342 15.3714C9.30644 14.952 8.81718 14.3558 8.5283 13.6582C8.23943 12.9607 8.16393 12.1932 8.31134 11.4527C8.45876 10.7123 8.82247 10.0322 9.35647 9.49846C9.89048 8.96475 10.5708 8.60141 11.3113 8.4544C12.0518 8.30738 12.8193 8.38331 13.5167 8.67256C14.2141 8.96181 14.81 9.4514 15.2291 10.0794C15.6482 10.7074 15.8716 11.4456 15.8711 12.2005C15.8694 13.2119 15.4668 14.1814 14.7514 14.8964C14.0361 15.6113 13.0664 16.0134 12.055 16.0145Z" fill="#C3C9CB"/>
</svg>
