<svg width="20" height="20" viewBox="0 0 20 20" fill="none" xmlns="http://www.w3.org/2000/svg">
<path d="M5.16441 17.4452L12.7132 10.3405L16.2656 13.8929M5.16441 17.4452H14.0454C15.5168 17.4452 16.7096 16.2524 16.7096 14.781V10.3405M5.16441 17.4452C3.69296 17.4452 2.50012 16.2524 2.50012 14.781V5.90001C2.50012 4.42856 3.69296 3.23572 5.16441 3.23572H10.937M15.8215 7.52382L15.8215 5.01191M15.8215 5.01191L15.8215 2.5M15.8215 5.01191L13.3096 5.01191M15.8215 5.01191L18.3335 5.01191M7.82869 7.23215C7.82869 7.96787 7.23227 8.56429 6.49655 8.56429C5.76083 8.56429 5.16441 7.96787 5.16441 7.23215C5.16441 6.49643 5.76083 5.90001 6.49655 5.90001C7.23227 5.90001 7.82869 6.49643 7.82869 7.23215Z" stroke="white" stroke-width="2" stroke-linecap="round" stroke-linejoin="round"/>
</svg>
