<svg width="20" height="20" viewBox="0 0 20 20" fill="none" xmlns="http://www.w3.org/2000/svg">
<path d="M9.99984 18.9583C8.22805 18.9583 6.49605 18.4329 5.02286 17.4486C3.54967 16.4642 2.40146 15.0651 1.72342 13.4282C1.04539 11.7913 0.867981 9.99006 1.21364 8.25232C1.5593 6.51457 2.4125 4.91835 3.66534 3.6655C4.91819 2.41266 6.51441 1.55946 8.25216 1.2138C9.9899 0.868141 11.7911 1.04555 13.428 1.72358C15.065 2.40162 16.4641 3.54983 17.4484 5.02302C18.4328 6.49621 18.9582 8.22821 18.9582 10C18.956 12.3752 18.0114 14.6525 16.3319 16.3321C14.6524 18.0116 12.3751 18.9561 9.99984 18.9583ZM9.99984 2.29167C8.47528 2.29167 6.98495 2.74375 5.71732 3.59076C4.44969 4.43776 3.4617 5.64164 2.87827 7.05015C2.29484 8.45866 2.14219 10.0086 2.43962 11.5038C2.73705 12.9991 3.4712 14.3726 4.54923 15.4506C5.62726 16.5286 7.00075 17.2628 8.49602 17.5602C9.99129 17.8577 11.5412 17.705 12.9497 17.1216C14.3582 16.5381 15.5621 15.5502 16.4091 14.2825C17.2561 13.0149 17.7082 11.5246 17.7082 10C17.706 7.9563 16.8931 5.99694 15.448 4.55182C14.0029 3.10671 12.0435 2.29387 9.99984 2.29167ZM9.42484 15.05H9.38317C8.9595 15.0541 8.54612 14.9195 8.20608 14.6667C7.86604 14.4139 7.61802 14.0569 7.49984 13.65L5.93317 8.40834C5.83336 8.05677 5.83014 7.68481 5.92385 7.33157C6.01757 6.97833 6.20475 6.65688 6.46572 6.40103C6.72668 6.14518 7.05178 5.9644 7.4068 5.8777C7.76183 5.79099 8.13366 5.80158 8.48318 5.90834L13.6248 7.5C14.0202 7.62335 14.3663 7.86887 14.6134 8.20128C14.8604 8.53368 14.9957 8.93586 14.9998 9.35C15.0118 9.76357 14.8913 10.1701 14.6559 10.5104C14.4206 10.8507 14.0827 11.1069 13.6915 11.2417L12.2332 11.7667C12.1362 11.8015 12.0483 11.8578 11.9761 11.9314C11.904 12.005 11.8494 12.094 11.8165 12.1917L11.2832 13.725C11.1541 14.1145 10.9045 14.4528 10.5704 14.691C10.2363 14.9292 9.83511 15.0549 9.42484 15.05ZM7.86651 7.03333C7.74418 7.03429 7.62378 7.06388 7.51494 7.11973C7.40611 7.17559 7.31187 7.25616 7.23977 7.35499C7.16768 7.45381 7.11973 7.56815 7.09977 7.68885C7.07981 7.80954 7.0884 7.93323 7.12484 8.05L8.72484 13.2833C8.7667 13.4323 8.85616 13.5634 8.97955 13.6567C9.10294 13.75 9.25348 13.8003 9.40817 13.8C9.56202 13.8089 9.71445 13.7662 9.84126 13.6787C9.96808 13.5911 10.062 13.4637 10.1082 13.3167L10.6332 11.7833C10.7288 11.5102 10.8838 11.2617 11.087 11.0557C11.2901 10.8496 11.5364 10.6912 11.8082 10.5917L13.2748 10.0667C13.4189 10.0194 13.5434 9.92606 13.6292 9.80109C13.715 9.67612 13.7574 9.52641 13.7498 9.375C13.7521 9.22105 13.7035 9.07067 13.6116 8.94713C13.5197 8.8236 13.3896 8.73381 13.2415 8.69167L8.10817 7.075C8.03034 7.04838 7.94876 7.03431 7.86651 7.03333Z" fill="#022150"/>
</svg>
