<svg width="24" height="24" viewBox="0 0 24 24" fill="none" xmlns="http://www.w3.org/2000/svg">
<path d="M5 12L4.29289 11.2929C3.90237 11.6834 3.90237 12.3166 4.29289 12.7071L5 12ZM19 13C19.5523 13 20 12.5523 20 12C20 11.4477 19.5523 11 19 11V13ZM8.29289 16.7071C8.68342 17.0976 9.31658 17.0976 9.70711 16.7071C10.0976 16.3166 10.0976 15.6834 9.70711 15.2929L8.29289 16.7071ZM9.70711 8.70711C10.0976 8.31658 10.0976 7.68342 9.70711 7.29289C9.31658 6.90237 8.68342 6.90237 8.29289 7.29289L9.70711 8.70711ZM5 13H19V11H5V13ZM4.29289 12.7071L8.29289 16.7071L9.70711 15.2929L5.70711 11.2929L4.29289 12.7071ZM5.70711 12.7071L9.70711 8.70711L8.29289 7.29289L4.29289 11.2929L5.70711 12.7071Z" fill="#1A1C1E"/>
</svg>
