<svg width="16" height="16" viewBox="0 0 16 16" fill="none" xmlns="http://www.w3.org/2000/svg">
<path d="M5.64331 7.52871C6.39864 6.77338 7.71597 6.77338 8.47131 7.52871L8.94264 8.00004L9.88531 7.05738L9.41397 6.58604C8.78531 5.95671 7.94798 5.60938 7.05731 5.60938C6.16664 5.60938 5.32931 5.95671 4.70064 6.58604L3.28597 8.00004C2.66217 8.62585 2.31189 9.47343 2.31189 10.357C2.31189 11.2407 2.66217 12.0882 3.28597 12.714C3.59522 13.0237 3.96262 13.2693 4.36705 13.4365C4.77149 13.6038 5.20498 13.6895 5.64264 13.6887C6.08042 13.6896 6.51405 13.604 6.91861 13.4367C7.32317 13.2694 7.69067 13.0238 7.99997 12.714L8.47131 12.2427L7.52864 11.3L7.05731 11.7714C6.68162 12.1454 6.17309 12.3554 5.64297 12.3554C5.11286 12.3554 4.60433 12.1454 4.22864 11.7714C3.85431 11.3959 3.64411 10.8873 3.64411 10.357C3.64411 9.82682 3.85431 9.31822 4.22864 8.94271L5.64331 7.52871Z" fill="#4F5E7B"/>
<path d="M7.99996 3.28591L7.52862 3.75725L8.47129 4.69991L8.94262 4.22858C9.31831 3.85457 9.82684 3.6446 10.357 3.6446C10.8871 3.6446 11.3956 3.85457 11.7713 4.22858C12.1456 4.6041 12.3558 5.11269 12.3558 5.64291C12.3558 6.17314 12.1456 6.68173 11.7713 7.05725L10.3566 8.47125C9.60129 9.22658 8.28396 9.22658 7.52862 8.47125L7.05729 7.99991L6.11462 8.94258L6.58596 9.41391C7.21462 10.0432 8.05196 10.3906 8.94262 10.3906C9.83329 10.3906 10.6706 10.0432 11.2993 9.41391L12.714 7.99991C13.3378 7.3741 13.688 6.52653 13.688 5.64291C13.688 4.7593 13.3378 3.91172 12.714 3.28591C12.0883 2.66178 11.2407 2.31128 10.357 2.31128C9.47324 2.31128 8.6256 2.66178 7.99996 3.28591Z" fill="#4F5E7B"/>
</svg>
