<svg width="24" height="24" viewBox="0 0 24 24" fill="none" xmlns="http://www.w3.org/2000/svg">
<path d="M17.0102 6.91003L15.2303 5.56472C14.9384 5.34351 14.6039 5.18192 14.2467 5.08958C13.8895 4.99723 13.517 4.97601 13.1512 5.02719C12.7855 5.07836 12.434 5.20088 12.1178 5.38745C11.8015 5.57402 11.5269 5.82083 11.3103 6.11319L6.40489 12.5914C6.07725 13.0278 5.89257 13.5509 5.87515 14.0919V16.6997C5.87101 17.0582 5.95324 17.4127 6.1152 17.7345C6.27715 18.0563 6.5143 18.3363 6.80749 18.5521C7.19852 18.8395 7.67425 18.9956 8.16361 18.9971C8.37692 19.0075 8.5907 18.9901 8.7993 18.9453L11.2891 18.2313C11.8347 18.0712 12.3112 17.7403 12.6452 17.2896L17.5506 10.8114C18.0031 10.2221 18.2002 9.48256 18.0991 8.75255C17.998 8.02253 17.6068 7.36068 17.0102 6.91003ZM13.3868 6.56853H13.5457C13.8059 6.57002 14.0586 6.65349 14.2662 6.80654L16.0355 8.1415C16.2966 8.34353 16.467 8.6369 16.5105 8.95948C16.554 9.28206 16.4672 9.60851 16.2686 9.8697L15.7177 10.6044C14.8509 10.6653 13.9914 10.4134 13.302 9.89646C12.6127 9.37957 12.1415 8.63361 11.9777 7.8L12.5604 7.03421C12.6568 6.90404 12.7802 6.79525 12.9226 6.71499C13.065 6.63472 13.2232 6.58481 13.3868 6.56853ZM11.3738 16.3375C11.2407 16.5187 11.0511 16.653 10.8335 16.7204L8.32254 17.4552C8.22273 17.4881 8.116 17.496 8.01227 17.4779C7.90854 17.4598 7.81118 17.4164 7.72923 17.3517C7.63503 17.2837 7.55892 17.1947 7.5073 17.0921C7.45567 16.9894 7.43005 16.8761 7.43258 16.7618V14.154C7.46106 13.9132 7.5689 13.688 7.73983 13.5124L10.9183 9.30053C11.2518 10.0293 11.7668 10.6649 12.4164 11.1493C13.066 11.6338 13.8294 11.9516 14.637 12.0739L11.3738 16.3375Z" fill="#EFEFEF"/>
</svg>
