<svg width="20" height="20" viewBox="0 0 20 20" fill="none" xmlns="http://www.w3.org/2000/svg">
<path d="M7.275 10.8332C7.13528 10.8348 6.99916 10.8778 6.88377 10.9566C6.76839 11.0354 6.6789 11.1466 6.62656 11.2762C6.57423 11.4058 6.56138 11.5479 6.58965 11.6848C6.61791 11.8216 6.68602 11.947 6.78541 12.0453C6.88479 12.1435 7.01101 12.2101 7.14819 12.2368C7.28536 12.2635 7.42735 12.249 7.5563 12.1951C7.68524 12.1413 7.79538 12.0505 7.87285 11.9342C7.95032 11.8179 7.99166 11.6813 7.99167 11.5415C7.99168 11.4478 7.97308 11.355 7.93697 11.2685C7.90085 11.182 7.84793 11.1036 7.78127 11.0377C7.71461 10.9718 7.63554 10.9198 7.54863 10.8847C7.46173 10.8496 7.36872 10.8321 7.275 10.8332ZM9.95 10.8332C9.81028 10.8348 9.67416 10.8778 9.55877 10.9566C9.44339 11.0354 9.3539 11.1466 9.30156 11.2762C9.24923 11.4058 9.23638 11.5479 9.26465 11.6848C9.29291 11.8216 9.36102 11.947 9.46041 12.0453C9.55979 12.1435 9.68602 12.2101 9.82319 12.2368C9.96036 12.2635 10.1023 12.249 10.2313 12.1951C10.3602 12.1413 10.4704 12.0505 10.5479 11.9342C10.6253 11.8179 10.6667 11.6813 10.6667 11.5415C10.6667 11.4478 10.6481 11.355 10.612 11.2685C10.5758 11.182 10.5229 11.1036 10.4563 11.0377C10.3896 10.9718 10.3105 10.9198 10.2236 10.8847C10.1367 10.8496 10.0437 10.8321 9.95 10.8332ZM7.26667 13.4999C7.12694 13.5015 6.99082 13.5445 6.87544 13.6233C6.76006 13.7021 6.67057 13.8133 6.61823 13.9429C6.56589 14.0724 6.55305 14.2146 6.58131 14.3514C6.60958 14.4883 6.67769 14.6137 6.77708 14.7119C6.87646 14.8102 7.00268 14.8768 7.13985 14.9035C7.27702 14.9301 7.41902 14.9156 7.54796 14.8618C7.67691 14.8079 7.78705 14.7172 7.86452 14.6009C7.94199 14.4846 7.98333 14.3479 7.98334 14.2082C7.98789 14.1117 7.97266 14.0153 7.93858 13.9249C7.9045 13.8345 7.8523 13.7521 7.78517 13.6826C7.71805 13.6131 7.63742 13.5581 7.54825 13.521C7.45909 13.4838 7.36326 13.4653 7.26667 13.4665V13.4999ZM14.6167 2.8582V1.61654C14.5997 1.4749 14.5313 1.34441 14.4246 1.24974C14.3179 1.15508 14.1802 1.1028 14.0375 1.1028C13.8948 1.1028 13.7571 1.15508 13.6504 1.24974C13.5437 1.34441 13.4754 1.4749 13.4583 1.61654V2.67487H13.1917H10.7417V1.61654C10.7417 1.46183 10.6802 1.31345 10.5708 1.20406C10.4614 1.09466 10.313 1.0332 10.1583 1.0332C10.0036 1.0332 9.85526 1.09466 9.74586 1.20406C9.63646 1.31345 9.575 1.46183 9.575 1.61654V2.6582H6.80834H6.54167V1.61654C6.52465 1.4749 6.45632 1.34441 6.3496 1.24974C6.24287 1.15508 6.10516 1.1028 5.96251 1.1028C5.81985 1.1028 5.68214 1.15508 5.57541 1.24974C5.46869 1.34441 5.40036 1.4749 5.38334 1.61654V2.8582C4.31304 3.16693 3.37195 3.81489 2.70167 4.70459C2.03139 5.59429 1.66817 6.67761 1.66667 7.79154V13.8249C1.67109 15.1893 2.21677 16.4962 3.1839 17.4586C4.15104 18.4211 5.46058 18.9604 6.825 18.9582H13.2083C14.567 18.9516 15.868 18.4084 16.8279 17.4469C17.7879 16.4854 18.329 15.1835 18.3333 13.8249V7.79154C18.3318 6.67761 17.9686 5.59429 17.2983 4.70459C16.6281 3.81489 15.687 3.16693 14.6167 2.8582ZM5.38334 4.0832V4.7582C5.40036 4.89984 5.46869 5.03033 5.57541 5.125C5.68214 5.21966 5.81985 5.27194 5.96251 5.27194C6.10516 5.27194 6.24287 5.21966 6.3496 5.125C6.45632 5.03033 6.52465 4.89984 6.54167 4.7582V3.84154C6.63334 3.84154 6.71667 3.84154 6.80834 3.84154H9.575V4.7582C9.575 4.91291 9.63646 5.06129 9.74586 5.17068C9.85526 5.28008 10.0036 5.34154 10.1583 5.34154C10.313 5.34154 10.4614 5.28008 10.5708 5.17068C10.6802 5.06129 10.7417 4.91291 10.7417 4.7582V3.81654H13.1917C13.2833 3.81654 13.3667 3.81654 13.4583 3.81654V4.7332C13.4754 4.87484 13.5437 5.00533 13.6504 5.1C13.7571 5.19466 13.8948 5.24694 14.0375 5.24694C14.1802 5.24694 14.3179 5.19466 14.4246 5.1C14.5313 5.00533 14.5997 4.87484 14.6167 4.7332V4.0832C15.2716 4.33794 15.8476 4.76105 16.2866 5.30977C16.7256 5.85849 17.0119 6.51336 17.1167 7.2082H2.86667C2.97295 6.51152 3.26179 5.85539 3.70382 5.30651C4.14585 4.75763 4.72533 4.33556 5.38334 4.0832ZM17.1917 13.8249C17.1873 14.8821 16.7636 15.8944 16.0137 16.6396C15.2638 17.3848 14.2489 17.8021 13.1917 17.7999H6.80834C5.75112 17.8021 4.7362 17.3848 3.9863 16.6396C3.23639 15.8944 2.81275 14.8821 2.80834 13.8249V8.3332H17.1917V13.8249Z" fill="#022150"/>
</svg>
