<svg width="14" height="14" viewBox="0 0 14 14" fill="none" xmlns="http://www.w3.org/2000/svg">
<path d="M12.4998 6.41675H9.58317V3.50008C9.58317 3.34537 9.52171 3.197 9.41232 3.0876C9.30292 2.97821 9.15455 2.91675 8.99984 2.91675C8.84513 2.91675 8.69675 2.97821 8.58736 3.0876C8.47796 3.197 8.4165 3.34537 8.4165 3.50008V6.41675H5.49984C5.34513 6.41675 5.19675 6.47821 5.08736 6.5876C4.97796 6.697 4.9165 6.84537 4.9165 7.00008C4.9165 7.15479 4.97796 7.30316 5.08736 7.41256C5.19675 7.52196 5.34513 7.58342 5.49984 7.58342H8.4165V10.5001C8.4165 10.6548 8.47796 10.8032 8.58736 10.9126C8.69675 11.022 8.84513 11.0834 8.99984 11.0834C9.15455 11.0834 9.30292 11.022 9.41232 10.9126C9.52171 10.8032 9.58317 10.6548 9.58317 10.5001V7.58342H12.4998C12.6545 7.58342 12.8029 7.52196 12.9123 7.41256C13.0217 7.30316 13.0832 7.15479 13.0832 7.00008C13.0832 6.84537 13.0217 6.697 12.9123 6.5876C12.8029 6.47821 12.6545 6.41675 12.4998 6.41675Z" fill="black"/>
</svg>
