<svg width="20" height="20" viewBox="0 0 20 20" fill="none" xmlns="http://www.w3.org/2000/svg">
<path d="M14.9997 16.6667H4.99967C4.55765 16.6667 4.13372 16.4911 3.82116 16.1785C3.5086 15.866 3.33301 15.442 3.33301 15V5.00001C3.33301 4.55798 3.5086 4.13406 3.82116 3.8215C4.13372 3.50894 4.55765 3.33334 4.99967 3.33334H14.9997C15.4417 3.33334 15.8656 3.50894 16.1782 3.8215C16.4907 4.13406 16.6663 4.55798 16.6663 5.00001V15C16.6663 15.442 16.4907 15.866 16.1782 16.1785C15.8656 16.4911 15.4417 16.6667 14.9997 16.6667Z" stroke="white" stroke-width="1.4" stroke-linecap="round" stroke-linejoin="round"/>
<path d="M7.32944 10.1564H7.22944V10.2564V10.8431V10.9431H7.32944H8.17703C8.14597 11.1945 8.03749 11.3842 7.87586 11.5161C7.69058 11.6672 7.42546 11.7504 7.10203 11.7504C6.66213 11.7504 6.36047 11.5969 6.16655 11.359C5.97005 11.118 5.87443 10.7782 5.87443 10.3909C5.87443 10.0322 5.9694 9.70119 6.16494 9.4619C6.35804 9.22559 6.65722 9.06865 7.08974 9.06865C7.35177 9.06865 7.58437 9.12691 7.77304 9.24512C7.96073 9.36272 8.11071 9.54316 8.2035 9.79837L8.23844 9.89448L8.33374 9.8574L9.02519 9.5884L9.12447 9.54978L9.07966 9.45313C8.71147 8.65916 7.98555 8.23334 7.09588 8.23334C6.35402 8.23334 5.80151 8.48721 5.43541 8.89426C5.07089 9.29954 4.9 9.84675 4.9 10.4195C4.9 10.9942 5.07421 11.5401 5.44116 11.9434C5.80957 12.3484 6.36343 12.6 7.10203 12.6C7.60144 12.6 8.03603 12.424 8.31615 12.1281L8.35491 12.4546L8.36538 12.5428H8.45421H9.07191H9.17191V12.4428V10.2564V10.1564H9.07191H7.32944ZM9.92151 12.4428V12.5428H10.0215H10.8021H10.9021V12.4428V8.39916V8.29916H10.8021H10.0215H9.92151V8.39916V12.4428ZM11.8207 12.4428V12.5428H11.9207H12.7013H12.8013V12.4428V10.8544H14.7296H14.8296V10.7544V10.0876V9.98758H14.7296H12.8013V9.16594H15H15.1V9.06594V8.39916V8.29916H15H11.9207H11.8207V8.39916V12.4428Z" fill="white" stroke="white" stroke-width="0.2"/>
</svg>
