<svg width="29" height="27" viewBox="0 0 29 27" fill="none" xmlns="http://www.w3.org/2000/svg">
<path fill-rule="evenodd" clip-rule="evenodd" d="M14.0488 0C21.8077 0 28.0976 6.04416 28.0976 13.5C28.0976 20.9558 21.8077 27 14.0488 27C6.28985 27 0 20.9558 0 13.5C0 6.04416 6.28985 0 14.0488 0ZM14.0488 1.57275C20.9037 1.5735 26.46 6.91384 26.4595 13.5009C26.459 20.088 20.9018 25.4275 14.047 25.4273C7.19213 25.427 1.63533 20.0871 1.63533 13.5C1.63542 10.3365 2.94334 7.3026 5.27134 5.06579C7.59935 2.82897 10.7567 1.57249 14.0488 1.57275ZM9.60439 7.6444C9.17016 7.63943 8.75199 7.80199 8.4435 8.0957C8.13501 8.38941 7.96198 8.78973 7.96314 9.20702C7.96314 10.0781 8.69795 10.7842 9.60439 10.7842C10.5108 10.7842 11.2456 10.0781 11.2456 9.20702C11.2468 8.78973 11.0738 8.38941 10.7653 8.0957C10.4568 7.80199 10.0386 7.63943 9.60439 7.6444ZM23.4113 15.8253C22.6632 19.71 18.7615 22.9533 14.0471 22.9533C9.37022 22.9533 5.49135 19.7572 4.69935 15.9165C4.53884 14.958 5.35578 14.7318 6.1253 14.9107C8.69959 15.626 11.3693 15.9739 14.0488 15.9435C16.7223 15.9732 19.3859 15.6264 21.9548 14.9141C22.7029 14.7318 23.504 14.9377 23.4113 15.8253ZM20.8716 16.3653C20.7985 16.3923 20.7244 16.4125 20.6496 16.4362C20.6419 16.4395 20.8892 16.3619 20.8818 16.3653C18.6604 16.9529 16.3642 17.2381 14.0604 17.2124C11.3111 17.2124 8.85216 16.9188 7.15999 16.3349C5.93318 15.9839 6.1685 17.371 7.03074 17.7963C9.23659 18.7613 11.6365 19.2475 14.06 19.2205C16.9429 19.2205 19.5117 18.5759 21.2084 17.7423C22.0113 17.2462 22.1701 15.9164 20.8716 16.3653ZM18.5023 7.6444C18.0681 7.63943 17.6498 7.80198 17.3413 8.09568C17.0328 8.38938 16.8596 8.78969 16.8607 9.20702C16.8521 9.77604 17.163 10.3054 17.6744 10.5924C18.1858 10.8793 18.8184 10.8793 19.3299 10.5924C19.8413 10.3054 20.1522 9.77604 20.1436 9.20702C20.1446 8.78975 19.9716 8.38949 19.6631 8.0958C19.3546 7.80211 18.9365 7.63952 18.5023 7.6444Z" fill="#50555C"/>
</svg>
