<svg width="20" height="20" viewBox="0 0 20 20" fill="none" xmlns="http://www.w3.org/2000/svg">
<path fill-rule="evenodd" clip-rule="evenodd" d="M14.6982 5.92491V5.92491C14.3873 5.92491 14.1057 5.74575 13.9732 5.46575C13.734 4.95908 13.4298 4.31158 13.2498 3.95908C12.984 3.43491 12.5532 3.12991 11.9565 3.12575C11.9465 3.12491 8.05317 3.12491 8.04317 3.12575C7.4465 3.12991 7.0165 3.43491 6.74984 3.95908C6.57067 4.31158 6.2665 4.95908 6.02734 5.46575C5.89484 5.74575 5.61234 5.92491 5.30234 5.92491V5.92491C3.639 5.92491 2.2915 7.27241 2.2915 8.93491V13.8816C2.2915 15.5432 3.639 16.8916 5.30234 16.8916H14.6982C16.3607 16.8916 17.7082 15.5432 17.7082 13.8816V8.93491C17.7082 7.27241 16.3607 5.92491 14.6982 5.92491Z" stroke="#ECEDEE" stroke-width="1.5" stroke-linecap="round" stroke-linejoin="round"/>
<path fill-rule="evenodd" clip-rule="evenodd" d="M7.35116 11.1121C7.35033 12.5729 8.54283 13.7679 10.0012 13.7671C11.457 13.7654 12.6462 12.5754 12.6487 11.118C12.6512 9.65462 11.4628 8.46212 10.0028 8.46045C8.53449 8.45878 7.33949 9.67128 7.35116 11.1121Z" stroke="#ECEDEE" stroke-width="1.5" stroke-linecap="round" stroke-linejoin="round"/>
<path d="M14.0855 9.16257C14.0049 9.15431 13.9254 9.1333 13.8364 9.09745C13.7373 9.05344 13.6515 8.99746 13.5686 8.91321C13.4196 8.75475 13.3334 8.54752 13.3334 8.33374C13.3334 8.22018 13.3566 8.10763 13.4019 8.00567C13.4474 7.90238 13.5012 7.81524 13.5985 7.72046C13.6725 7.65599 13.7484 7.60411 13.852 7.55844C14.1595 7.43663 14.5251 7.50941 14.7537 7.73784C14.8221 7.80532 14.8798 7.88675 14.9118 7.95543L14.9308 8.00412C14.9768 8.10763 15 8.22018 15 8.33374C15 8.55185 14.9149 8.75357 14.7568 8.92147C14.6202 9.059 14.4408 9.14358 14.2494 9.16258L14.1667 9.16667L14.0855 9.16257Z" fill="#ECEDEE"/>
</svg>
