<svg width="43" height="43" viewBox="0 0 43 43" fill="none" xmlns="http://www.w3.org/2000/svg">
<g filter="url(#filter0_d_0_351)">
<path fill-rule="evenodd" clip-rule="evenodd" d="M0 7.36C0 4.78376 0 3.49564 0.50137 2.51164C0.942388 1.6461 1.6461 0.942388 2.51164 0.50137C3.49564 0 4.78376 0 7.36 0H34.64C37.2162 0 38.5044 0 39.4884 0.50137C40.3539 0.942388 41.0576 1.6461 41.4986 2.51164C42 3.49564 42 4.78376 42 7.36V34.64C42 37.2162 42 38.5044 41.4986 39.4884C41.0576 40.3539 40.3539 41.0576 39.4884 41.4986C38.5044 42 37.2162 42 34.64 42H7.36C4.78376 42 3.49564 42 2.51164 41.4986C1.6461 41.0576 0.942388 40.3539 0.50137 39.4884C0 38.5044 0 37.2162 0 34.64V7.36Z" fill="#AAADB7"/>
</g>
<path fill-rule="evenodd" clip-rule="evenodd" d="M12.7502 16.7782C12.7347 16.7919 12.7042 16.8202 12.6706 16.852C12.6462 16.8751 12.6268 16.8937 12.5864 16.9324L10.3562 19.0756C10.2978 19.1344 10.2572 19.1738 10.1629 19.2644C10.1104 19.315 10.0717 19.3538 9.98865 19.4386C9.83417 19.5823 9.67127 19.7538 9.51861 19.9348C9.37468 20.0811 9.25967 20.2516 9.17936 20.4377C9.01399 20.9219 9.01399 21.3924 9.16129 21.8294L9.18102 21.8804C9.26199 22.0646 9.37631 22.2335 9.51859 22.3792C9.67138 22.5589 9.83426 22.7305 10.0065 22.8932C10.0717 22.9605 10.1104 22.9993 10.1629 23.0498L10.3562 23.2355L12.3896 25.1926C12.4847 25.284 12.5314 25.3284 12.5855 25.378C12.6431 25.4364 12.7037 25.4943 12.7644 25.5493C12.7753 25.5586 15.3669 28.0474 15.3669 28.0474C15.447 28.1243 15.5115 28.1847 15.6568 28.3195C15.6722 28.334 15.6956 28.3569 15.7028 28.3641C15.7402 28.4019 15.7618 28.4237 15.7763 28.4376C16.0785 28.7284 16.426 28.9728 16.8061 29.162C17.1956 29.3483 17.6009 29.4765 18.0189 29.5471C18.4138 29.6092 18.805 29.6424 19.1972 29.6479C19.2646 29.6492 19.3207 29.6498 19.4457 29.651C19.5663 29.6522 19.6194 29.6528 19.6848 29.6541L27.4072 29.6542C27.4868 29.6528 27.5407 29.6522 27.6626 29.651C27.7887 29.6498 27.8454 29.6492 27.9179 29.6478C28.3116 29.6411 28.7056 29.6068 29.0954 29.5452C29.5227 29.4757 29.9337 29.3453 30.3174 29.1579C30.704 28.9692 31.0569 28.7225 31.3628 28.427C31.667 28.1335 31.9224 27.7962 32.1196 27.4273C32.3143 27.0529 32.4481 26.6597 32.52 26.2542C32.5854 25.8751 32.6201 25.4947 32.6243 25.1134C32.6277 25.0349 32.6293 24.9599 32.6315 24.7939C32.6326 24.7151 32.6331 24.6803 32.634 24.6375L32.6341 17.6481C32.6331 17.5937 32.6326 17.5591 32.6315 17.4817L32.6304 17.4012C32.6288 17.2997 32.6269 17.2236 32.6238 17.1478C32.6195 16.7889 32.5861 16.4133 32.5244 16.0416C32.4491 15.6299 32.3158 15.2405 32.1267 14.8753C31.928 14.5023 31.6742 14.1676 31.3713 13.8765C31.0693 13.5841 30.7186 13.3384 30.3343 13.1503C29.9524 12.9665 29.549 12.8381 29.1327 12.7672C28.7335 12.7061 28.3417 12.6741 27.949 12.6695C27.8191 12.6643 27.7041 12.6632 27.4498 12.6632C27.3664 12.6618 27.269 12.6609 27.1594 12.6604C27.077 12.6601 27.0114 12.66 26.8636 12.66H20.2841C19.989 12.66 19.8554 12.6606 19.6869 12.6633C19.4435 12.6632 19.3285 12.6643 19.1804 12.67C18.8071 12.6738 18.4159 12.7059 18.0287 12.7655C17.6009 12.8378 17.1956 12.9659 16.8156 13.1476C16.426 13.3414 16.0785 13.5858 15.776 13.8769C15.7618 13.8905 15.7402 13.9124 15.7042 13.9487C15.6956 13.9574 15.6568 13.9948 15.6568 13.9948C15.5115 14.1295 15.447 14.1899 15.3669 14.2669L15.0329 14.5879L12.8111 16.7259C12.7917 16.7408 12.7708 16.7584 12.7502 16.7782ZM26.8636 13.9189C27.0096 13.9189 27.0739 13.9189 27.1539 13.9193C27.2584 13.9197 27.3505 13.9205 27.4389 13.9219C27.6867 13.922 27.79 13.923 27.9149 13.9278C28.2622 13.9321 28.5906 13.9589 28.9157 14.0086C29.196 14.0564 29.4788 14.1464 29.7437 14.2739C30.0001 14.3994 30.2375 14.5658 30.4433 14.765C30.6515 14.965 30.8243 15.1931 30.9573 15.4426C31.0869 15.693 31.1807 15.9671 31.2325 16.2498C31.2824 16.551 31.3104 16.8655 31.3143 17.1806C31.3174 17.2614 31.3191 17.3281 31.3205 17.4199L31.3216 17.4983C31.3227 17.5786 31.3233 17.6151 31.3242 17.6607L31.3241 24.6252C31.3233 24.6593 31.3227 24.6959 31.3216 24.7775C31.3195 24.9325 31.3181 25.0002 31.3148 25.082C31.3108 25.4169 31.282 25.7329 31.2281 26.0455C31.1783 26.3262 31.0848 26.6011 30.951 26.8585C30.8189 27.1054 30.6435 27.3371 30.4343 27.5389C30.2263 27.7399 29.9866 27.9075 29.724 28.0356C29.4582 28.1654 29.1736 28.2557 28.8798 28.3035C28.5555 28.3548 28.2249 28.3836 27.8934 28.3892C27.8254 28.3905 27.7716 28.3911 27.6496 28.3923C27.5235 28.3935 27.4668 28.3942 27.3944 28.3955L19.6979 28.3954C19.6398 28.3942 19.5838 28.3935 19.4588 28.3923C19.3382 28.3911 19.285 28.3905 19.2197 28.3892C18.8884 28.3846 18.5615 28.3569 18.238 28.3061C17.9517 28.2576 17.6665 28.1674 17.3991 28.0396C17.1481 27.9146 16.9101 27.7472 16.7029 27.5478L16.6517 27.4963C16.6009 27.4451 16.5789 27.4233 16.5536 27.4018C16.4231 27.2806 16.3637 27.225 16.2932 27.1573L13.6962 24.6616C13.6724 24.6409 13.6581 24.6284 13.6482 24.6199C13.6013 24.5765 13.5629 24.5393 13.5266 24.5022C13.4516 24.4324 13.4105 24.3934 13.3163 24.3029L11.2829 22.3458L11.0893 22.1597C11.0491 22.1211 11.0167 22.0886 10.9426 22.0129C10.7813 21.8599 10.6459 21.7167 10.5193 21.5666L10.4797 21.5237C10.4467 21.4911 10.4193 21.4538 10.3985 21.413C10.3481 21.2452 10.3483 21.0671 10.399 20.8993C10.4187 20.8602 10.4449 20.8245 10.4767 20.7935L10.5214 20.7453C10.6459 20.5961 10.7798 20.4544 10.9225 20.321C11.0167 20.2257 11.0491 20.1932 11.0893 20.1545C11.1915 20.0563 11.2372 20.0118 11.2942 19.9542L13.3163 18.0114L13.5128 17.8226C13.5519 17.785 13.5687 17.7689 13.5899 17.7488L13.6332 17.7114L13.6332 17.7114C13.6647 17.6843 13.6821 17.6693 13.6994 17.6526L15.9595 15.4777L16.2932 15.157C16.3637 15.0893 16.4231 15.0336 16.5536 14.9125C16.5789 14.8909 16.6009 14.8691 16.65 14.8197L16.7026 14.7668C16.9101 14.5671 17.1481 14.3997 17.4085 14.2701C17.6665 14.1468 17.9517 14.0566 18.2459 14.0069C18.5596 13.9587 18.8865 13.9318 19.2141 13.9283C19.3576 13.923 19.461 13.922 19.6979 13.922C19.8675 13.9194 19.9962 13.9189 20.2841 13.9189H26.8636ZM20.6588 24.4883C20.6058 24.5383 20.5424 24.5792 20.471 24.6075C20.2505 24.6951 19.9969 24.6461 19.8287 24.4836C19.5998 24.2626 19.5998 23.9053 19.8287 23.6843C19.8621 23.652 19.8989 23.6242 19.9381 23.6011L22.4815 21.1544L19.8288 18.608L19.8366 18.6004C19.7846 18.5494 19.7422 18.4886 19.7128 18.42C19.6217 18.208 19.6726 17.9642 19.8416 17.8024C20.0715 17.5823 20.4431 17.5823 20.6729 17.8024C20.7058 17.8338 20.7341 17.8683 20.7578 17.905L23.312 20.3555L25.8877 17.8777C25.9068 17.8513 25.9286 17.826 25.9529 17.8023C26.1206 17.6404 26.3732 17.5916 26.5928 17.6788C26.8124 17.766 26.9557 17.9719 26.9557 18.2004C26.9557 18.3526 26.8921 18.4948 26.7847 18.5985L26.7913 18.6049L24.1429 21.1526L26.7297 23.6344C26.7521 23.6503 26.7736 23.668 26.7941 23.6874C26.9624 23.8486 27.0131 24.0915 26.9225 24.3026C26.8318 24.5138 26.6176 24.6516 26.38 24.6516C26.2217 24.6516 26.0737 24.5904 25.9658 24.487L25.9596 24.493L23.3122 21.9517L20.6671 24.4962L20.6588 24.4883Z" fill="black"/>
<defs>
<filter id="filter0_d_0_351" x="0" y="0" width="42" height="43" filterUnits="userSpaceOnUse" color-interpolation-filters="sRGB">
<feFlood flood-opacity="0" result="BackgroundImageFix"/>
<feColorMatrix in="SourceAlpha" type="matrix" values="0 0 0 0 0 0 0 0 0 0 0 0 0 0 0 0 0 0 127 0" result="hardAlpha"/>
<feOffset dy="1"/>
<feColorMatrix type="matrix" values="0 0 0 0 0.537255 0 0 0 0 0.541176 0 0 0 0 0.552941 0 0 0 1 0"/>
<feBlend mode="normal" in2="BackgroundImageFix" result="effect1_dropShadow_0_351"/>
<feBlend mode="normal" in="SourceGraphic" in2="effect1_dropShadow_0_351" result="shape"/>
</filter>
</defs>
</svg>
