<svg width="130" height="141" viewBox="0 0 130 141" fill="none" xmlns="http://www.w3.org/2000/svg">
<path d="M128.127 67.4357C127.281 65.3726 126.124 63.4515 124.696 61.7391L120.012 57.5765L123.297 52.3073C125.268 49.6481 126.664 46.6074 127.395 43.379C128.029 40.1434 128.149 36.8281 127.752 33.555C127.319 29.6734 126.294 26.0142 124.028 22.7824C121.493 19.1584 118.63 15.8506 114.889 13.4151C112.604 11.8882 110.218 10.5189 107.747 9.31681C103.957 7.51295 99.8616 6.43848 95.6744 6.14948C88.0908 6.10638 80.5141 6.61906 73.0053 7.68339C69.8116 8.14458 66.673 8.92923 63.6379 10.0252C60.0554 11.3394 56.5642 12.8904 53.1874 14.6679C47.9183 17.4723 42.9184 20.6982 38.908 25.2355C36.9584 27.4369 34.6634 29.2752 32.6319 31.3946C32.3274 31.7049 27.6906 31.3478 18.1124 35.405C14.5996 36.9799 11.6723 39.3803 8.96163 42.0383C5.89485 45.0749 3.40872 48.6463 1.62577 52.5766C0.377427 55.1482 -0.167967 58.0044 0.045015 60.8551C0.260622 63.0487 0.730193 65.2099 1.44428 67.2952C2.20624 69.7776 3.30966 72.1421 4.72285 74.3207C6.72766 77.35 9.66142 79.6469 13.0833 80.8662C15.3783 81.721 17.8138 81.7971 20.2142 81.9786C22.4331 82.1484 24.6637 82.1659 26.8885 82.2772C27.2163 82.2772 27.755 82.1191 27.6906 82.8216C27.5324 85.2541 27.597 87.6958 27.8838 90.1165C27.8838 90.1165 29.3298 103.705 39.353 109.437C43.1702 111.621 47.3211 112.721 51.7823 111.55C52.2273 111.427 52.4205 111.55 52.5727 112.019C52.9002 113.032 53.2813 114.026 53.7144 114.999C55.7852 119.433 58.515 123.529 61.8113 127.147C65.3609 131.251 69.7019 134.596 74.5744 136.983C78.2921 138.739 82.1444 140.103 86.2836 140.443C89.0865 140.735 91.9188 140.37 94.5562 139.377C98.0457 137.906 101.02 135.432 103.104 132.27C105.51 128.821 106.242 124.817 106.476 120.713C106.552 118.123 106.423 115.531 106.09 112.961C106.018 111.589 105.78 110.231 105.381 108.916C105.118 108.166 105.141 108.114 105.967 108.114C107.376 108.15 108.78 107.924 110.106 107.446C112.985 106.243 115.661 104.602 118.039 102.581C121.622 99.6947 124.005 95.8891 126.066 91.8787C128.127 87.8345 129.305 83.3981 129.52 78.8639C129.731 74.9706 129.772 71.1007 128.127 67.4357Z" fill="#FFE159"/>
<path d="M39.1832 69.5552C39.185 69.0643 39.3013 68.5806 39.5229 68.1426C39.7445 67.7045 40.0652 67.3242 40.4595 67.0319C41.2947 66.4123 42.2466 65.9682 43.258 65.7263C46.4742 64.6803 49.6981 63.6655 52.9299 62.6819C54.4228 62.2311 55.9977 62.1784 57.5257 61.8447C61.4542 60.9665 65.4529 60.4454 69.4165 59.7546C72.4902 59.2218 75.517 58.4607 78.5673 57.8108C79.0181 57.7113 79.9197 57.5767 79.9197 57.5767C79.9197 57.5767 77.9701 61.2241 78.5731 63.3844C79.2142 65.6197 80.7096 67.5126 82.7357 68.6536C83.1631 68.9112 83.2861 69.0341 82.9641 69.5142C81.4068 71.8092 81.5765 73.8057 83.5144 75.7904C83.9535 76.2353 83.9711 76.4988 83.573 76.9613C83.076 77.5051 82.7405 78.1766 82.604 78.9005C82.4675 79.6245 82.5354 80.3721 82.8002 81.0595C83.2131 82.2172 83.9191 83.248 84.8493 84.0512C85.2064 84.3733 85.2533 84.5372 84.82 84.8358C84.4349 85.0899 84.1121 85.4278 83.8759 85.8242C83.6396 86.2206 83.4961 86.6652 83.4559 87.1249C83.4055 88.1426 83.6959 89.148 84.2814 89.982C85.2248 91.3779 86.3965 92.605 87.7473 93.6119C89.0354 94.6481 90.4756 95.4619 91.8456 96.3752C90.9732 96.5157 87.238 97.0778 86.2544 97.2769C84.8376 97.5579 84.498 98.477 85.3528 99.6597C86.2076 100.842 87.0506 101.82 87.8 102.973C89.512 105.473 90.6845 108.303 91.2425 111.281C91.7285 114.132 91.9334 116.989 90.5458 119.7C90.2371 120.415 89.7726 121.052 89.1861 121.565C88.5996 122.077 87.906 122.452 87.156 122.662C86.2368 122.914 85.3996 123.248 84.3985 123.037C82.3435 122.61 81.2428 121.281 80.6105 119.343C79.8268 116.743 78.7173 114.252 77.3085 111.931C75.7566 109.52 73.4698 107.672 70.7865 106.662C69.0145 105.992 67.3044 105.17 65.6754 104.203C63.3687 102.768 61.3312 100.995 60.1311 98.4887C59.7884 97.7088 59.284 97.0106 58.6511 96.4403C58.0183 95.87 57.2715 95.4407 56.4602 95.1809C53.7211 94.3185 50.8716 93.8571 48.0003 93.8109C47.2099 93.7699 46.4547 94.1388 45.6584 94.1095C45.3358 94.1225 45.0167 94.0385 44.7423 93.8684C44.4678 93.6983 44.2506 93.4499 44.1187 93.1552C43.7211 92.3665 43.4128 91.5358 43.1995 90.6787C42.6784 88.4364 39.2945 71.9614 39.1832 69.5552Z" fill="#FFAF19"/>
<path d="M108.754 83.1611C109.45 83.4369 110.078 83.8598 110.596 84.4009C111.113 84.942 111.508 85.5885 111.753 86.2962C111.997 87.0039 112.086 87.7562 112.013 88.5014C111.94 89.2466 111.707 89.9673 111.33 90.6141C109.931 93.0847 107.876 94.6655 104.89 94.7475C104.161 94.7807 103.437 94.8727 102.723 95.0226C100.065 95.5554 97.3665 95.7896 94.6851 96.135C93.5142 95.4793 92.3432 94.847 91.1723 94.1737C89.3448 93.1834 87.6722 91.9309 86.2076 90.456C85.4908 89.784 84.962 88.9364 84.6737 87.9971C84.5846 87.6737 84.5682 87.3346 84.6257 87.0041C84.6832 86.6737 84.8131 86.36 85.0062 86.0858C85.1993 85.8115 85.4508 85.5834 85.7425 85.4178C86.0343 85.2523 86.359 85.1534 86.6935 85.1283C87.5717 85.0171 88.4499 85.058 89.3398 84.9995C94.609 84.6482 99.8781 84.092 105.147 83.5885C106.336 83.4305 107.577 83.5885 108.754 83.1611Z" fill="#FFAF19"/>
<path d="M83.128 56.833C86.7286 55.9782 90.3877 55.4395 94.0117 54.6901C96.0066 54.2315 98.0583 54.0698 100.101 54.2101C102.805 54.4677 105.457 56.4465 105.317 59.608C105.284 59.8503 105.308 60.0968 105.387 60.3282L97.8582 63.1852C94.0878 64.6196 90.3057 66.0188 86.5998 67.6054C86.2455 67.7795 85.8573 67.8735 85.4627 67.8806C85.068 67.8876 84.6767 67.8077 84.3164 67.6464C82.7368 66.9485 81.4391 65.7375 80.6339 64.2098C79.463 62.0494 79.7967 59.9359 81.6057 58.2498C82.1092 57.7755 82.765 57.4653 83.128 56.833Z" fill="#FFAF19"/>
<path d="M104.972 62.1958C105.682 62.5152 106.321 62.975 106.849 63.5475C107.377 64.12 107.784 64.7933 108.045 65.5271C108.383 66.3929 108.528 67.3222 108.468 68.2497C108.408 69.1773 108.146 70.0804 107.7 70.8958C107.542 71.1827 107.255 71.4168 107.296 71.7915C107.024 71.7867 106.752 71.8024 106.482 71.8384L99.6265 73.1205L86.1959 75.6556C85.9035 75.7523 85.5851 75.7335 85.306 75.6029C84.8422 75.3583 84.44 75.0116 84.1296 74.589C83.8192 74.1664 83.6087 73.6789 83.514 73.1631C83.4193 72.6474 83.4429 72.1169 83.5829 71.6116C83.723 71.1063 83.9758 70.6393 84.3225 70.2459C84.9287 69.5087 85.7271 68.9535 86.6292 68.6417C92.7824 66.5985 98.8536 64.3971 104.972 62.1958Z" fill="#FFAF19"/>
<path d="M104.972 62.1959C98.877 64.3972 92.7824 66.5985 86.6291 68.6359C85.727 68.9477 84.9287 69.5029 84.3224 70.2401C83.9758 70.6335 83.7229 71.1005 83.5829 71.6058C83.4428 72.1111 83.4193 72.6416 83.514 73.1573C83.6087 73.6731 83.8191 74.1606 84.1295 74.5832C84.4399 75.0058 84.8422 75.3525 85.306 75.5971C85.585 75.7277 85.9034 75.7465 86.1959 75.6498L99.6264 73.1147L106.465 71.8384C106.734 71.8024 107.006 71.7868 107.278 71.7916C107.624 71.9321 107.952 72.096 107.917 72.5468C107.881 72.9976 107.513 73.1733 107.132 73.3021C106.91 73.3782 106.675 73.4426 106.447 73.507C102.536 74.2037 98.6194 74.8594 94.7378 75.603C91.8573 76.1533 88.9242 76.4285 86.0905 77.213C85.7144 77.293 85.3604 77.4547 85.0537 77.6867C84.747 77.9187 84.495 78.2153 84.3157 78.5555C84.1364 78.8957 84.0341 79.2712 84.016 79.6554C83.9979 80.0395 84.0646 80.4229 84.2112 80.7784C84.6165 81.8725 85.2958 82.8441 86.1842 83.6004C86.3349 83.7511 86.5213 83.8612 86.726 83.9206C86.9307 83.9799 87.1471 83.9866 87.3551 83.9399C88.2567 83.776 89.1701 83.6706 90.0834 83.5711L107.747 81.6742C109.023 81.8264 109.199 82.0899 108.754 83.173C107.583 83.6004 106.336 83.4657 105.124 83.5828C99.8548 84.0863 94.5856 84.6425 89.3164 84.9938C88.4382 85.0523 87.56 84.9938 86.6701 85.1226C86.3356 85.1477 86.0109 85.2466 85.7191 85.4121C85.4274 85.5777 85.176 85.8058 84.9829 86.08C84.7897 86.3543 84.6598 86.6679 84.6023 86.9984C84.5448 87.3289 84.5612 87.668 84.6503 87.9913C84.9386 88.9306 85.4674 89.7783 86.1842 90.4503C87.6458 91.9309 89.3165 93.1894 91.1431 94.1855C92.314 94.8588 93.4849 95.4911 94.6558 96.1468C93.7191 96.3018 92.7717 96.384 91.8222 96.3927C90.4522 95.4794 89.012 94.6363 87.724 93.6293C86.3731 92.6225 85.2015 91.3953 84.258 89.9995C83.6726 89.1655 83.3821 88.1601 83.4325 87.1424C83.4727 86.6827 83.6163 86.2381 83.8525 85.8417C84.0887 85.4453 84.4115 85.1074 84.7966 84.8533C85.2299 84.5547 85.183 84.3908 84.8259 84.0688C83.8957 83.2655 83.1897 82.2347 82.7768 81.077C82.512 80.3896 82.4441 79.642 82.5806 78.9181C82.7171 78.1941 83.0527 77.5226 83.5496 76.9788C83.9477 76.5163 83.9302 76.2528 83.4911 75.8079C81.5532 73.8231 81.3834 71.8267 82.9407 69.5317C83.2627 69.0516 83.1398 68.9462 82.7124 68.6711C80.6863 67.53 79.1909 65.6371 78.5498 63.4019C78.2415 62.4012 78.2037 61.3366 78.4402 60.3165C78.6768 59.2964 79.1791 58.3571 79.8963 57.5941C80.9443 57.2546 82.0333 57.0906 83.1047 56.8506C82.7417 57.4829 82.086 57.7932 81.5825 58.2674C79.7734 59.9536 79.4104 62.0671 80.6106 64.2274C81.4158 65.7552 82.7135 66.9662 84.2932 67.6641C84.6534 67.8254 85.0448 67.9053 85.4394 67.8982C85.834 67.8911 86.2222 67.7972 86.5765 67.6231C90.2824 66.0365 94.0645 64.6373 97.8349 63.2029L105.364 60.3458C105.54 60.3056 105.718 60.2743 105.897 60.2521C106.047 60.2285 106.201 60.2584 106.331 60.3365C106.462 60.4145 106.561 60.536 106.611 60.6795C106.667 60.8373 106.667 61.0092 106.613 61.1675C106.559 61.3258 106.453 61.4613 106.312 61.5519C105.944 61.8856 105.37 61.8563 104.972 62.1959Z" fill="#F7760C"/>
<path d="M107.747 81.674L90.0717 83.5709C89.1584 83.6705 88.2451 83.7758 87.3435 83.9398C87.1355 83.9864 86.9191 83.9798 86.7144 83.9204C86.5097 83.861 86.3233 83.7509 86.1726 83.6002C85.2842 82.844 84.6048 81.8723 84.1995 80.7783C84.0529 80.4227 83.9863 80.0393 84.0044 79.6552C84.0224 79.271 84.1247 78.8955 84.3041 78.5553C84.4834 78.2151 84.7353 77.9185 85.042 77.6865C85.3487 77.4545 85.7027 77.2928 86.0789 77.2128C88.9008 76.4049 91.8281 76.1531 94.7554 75.6028C98.6605 74.8593 102.577 74.2035 106.465 73.5068C107.363 74.2418 108.052 75.2012 108.461 76.2878C108.935 77.8451 108.572 79.2971 107.969 80.7256C107.841 81.03 107.595 81.2993 107.747 81.674Z" fill="#FFAF19"/>
<path d="M94.451 3.88966C95.0206 4.74005 95.4033 5.70159 95.5738 6.71081C95.7444 7.72002 95.6989 8.75394 95.4404 9.74428C95.1148 10.9056 94.4935 11.9627 93.6372 12.8121C92.8658 13.6001 91.9335 14.2125 90.904 14.6076C89.8744 15.0026 88.7719 15.171 87.6713 15.1012C85.2651 14.99 82.6597 12.654 81.9689 10.1424C81.6734 9.12089 81.5043 8.067 81.4654 7.00432C81.4615 6.74945 81.493 6.49525 81.5591 6.24905C81.8181 5.13173 82.2571 4.06399 82.8588 3.08758C83.4549 2.1253 84.2911 1.33472 85.2854 0.793577C86.2796 0.252438 87.3975 -0.0206389 88.5292 0.00121598C89.661 0.0230709 90.7675 0.339097 91.7401 0.918216C92.7127 1.49734 93.5178 2.31962 94.0763 3.3042C94.17 3.4974 94.3222 3.6906 94.451 3.88966Z" fill="#FFAF19"/>
<path d="M124.708 61.7685C123.607 62.8787 122.228 63.6716 120.715 64.0635C116.845 64.93 113.982 62.7169 113.841 58.7475C113.767 57.1609 114.255 55.599 115.219 54.3364C116.183 53.0739 117.561 52.1917 119.111 51.8449C120.205 51.6845 121.322 51.841 122.331 52.2957C122.553 52.3835 122.752 52.5533 123.016 52.5065C123.487 52.9371 123.992 53.3288 124.526 53.6774C125.226 54.2337 125.745 54.9854 126.017 55.8369C126.289 56.6885 126.302 57.6016 126.054 58.4606C125.745 59.6151 125.293 60.7264 124.708 61.7685Z" fill="#FFAF19"/>
<path d="M48.217 107.318C49.2349 106.985 50.3138 106.884 51.3759 107.019C52.438 107.155 53.4567 107.525 54.3584 108.102C54.6906 108.321 55.0022 108.57 55.2893 108.846C58.1523 111.586 57.8946 115.198 54.657 117.51C53.3757 118.445 51.8063 118.898 50.224 118.791C48.6418 118.684 47.1477 118.023 46.0039 116.925C45.2662 116.103 44.7787 115.087 44.5988 113.998C44.5042 113.137 44.4826 112.269 44.5344 111.404C44.613 110.514 44.9528 109.667 45.511 108.969C46.0693 108.271 46.8212 107.754 47.6725 107.482C47.8423 107.435 48.0296 107.376 48.217 107.318Z" fill="#FFAF19"/>
<path d="M110.235 113.699C110.156 113.386 110.14 113.061 110.19 112.742C110.24 112.423 110.354 112.117 110.526 111.844C110.697 111.57 110.922 111.334 111.187 111.15C111.452 110.966 111.751 110.837 112.067 110.772C112.349 110.701 112.643 110.689 112.929 110.738C113.216 110.787 113.489 110.895 113.732 111.055C113.974 111.216 114.18 111.425 114.337 111.669C114.494 111.914 114.599 112.188 114.644 112.476C114.73 112.782 114.753 113.102 114.712 113.418C114.67 113.733 114.565 114.037 114.402 114.31C114.24 114.584 114.023 114.821 113.765 115.008C113.508 115.195 113.215 115.327 112.905 115.397C112.618 115.465 112.32 115.475 112.029 115.426C111.738 115.377 111.46 115.27 111.211 115.112C110.963 114.954 110.748 114.747 110.58 114.504C110.412 114.262 110.295 113.988 110.235 113.699Z" fill="#FFE159"/>
<path d="M19.6347 89.689C19.5552 89.3765 19.5397 89.0512 19.5893 88.7327C19.6389 88.4141 19.7524 88.1089 19.9231 87.8354C20.0938 87.5619 20.318 87.3257 20.5824 87.1412C20.8467 86.9567 21.1457 86.8276 21.4613 86.7617C21.7431 86.6906 22.0367 86.6791 22.3232 86.7279C22.6097 86.7767 22.8829 86.8847 23.1253 87.045C23.3678 87.2053 23.5741 87.4145 23.7311 87.659C23.8881 87.9036 23.9925 88.1782 24.0374 88.4654C24.1197 88.768 24.1403 89.0841 24.0981 89.3949C24.0559 89.7056 23.9518 90.0048 23.7918 90.2745C23.6318 90.5443 23.4192 90.7791 23.1668 90.9652C22.9143 91.1512 22.627 91.2846 22.322 91.3575C22.0358 91.4285 21.7383 91.4415 21.447 91.3956C21.1558 91.3498 20.8767 91.246 20.6262 91.0904C20.3757 90.9349 20.1589 90.7308 19.9886 90.4901C19.8183 90.2494 19.698 89.977 19.6347 89.689Z" fill="#FFE159"/>
<path d="M40.4655 76.6978C41.2424 76.8499 41.9834 77.1479 42.6492 77.5759C43.2559 77.9336 43.7411 78.4654 44.0417 79.1022C44.3424 79.739 44.4447 80.4515 44.3354 81.1473C44.1539 82.6753 43.2113 83.4891 41.8296 83.9633C40.2371 84.4961 38.1997 83.7818 37.6084 82.365C37.1916 81.4879 37.1042 80.4901 37.3622 79.5539C37.6201 78.6177 38.2063 77.8055 39.0135 77.2656C39.4537 76.9792 39.9478 76.786 40.4655 76.6978Z" fill="#FFFAB8"/>
<path d="M30.8638 71.4055C31.3898 71.3646 31.9142 71.5025 32.3519 71.7968C32.7897 72.0912 33.1153 72.5247 33.2759 73.0272C33.3032 73.501 33.1652 73.9695 32.8854 74.3528C32.6057 74.7361 32.2015 75.0105 31.742 75.129C31.2506 75.242 30.7346 75.1631 30.2994 74.9085C29.8641 74.6539 29.5425 74.2428 29.4002 73.759C29.3412 73.5083 29.3323 73.2485 29.3739 72.9944C29.4156 72.7403 29.507 72.4969 29.643 72.2782C29.779 72.0595 29.9569 71.8698 30.1664 71.72C30.3759 71.5703 30.6129 71.4634 30.8638 71.4055Z" fill="#FFFAB8"/>
<path d="M105.692 13.6375C105.758 13.8736 105.776 14.1205 105.744 14.3636C105.713 14.6068 105.634 14.8412 105.51 15.053C105.387 15.2648 105.222 15.4497 105.026 15.5967C104.83 15.7438 104.606 15.85 104.369 15.9091C103.344 16.1023 102.571 15.4407 102.425 14.2464C102.425 14.182 102.425 14.1235 102.396 14.0649C102.284 12.976 102.823 12.0919 103.689 11.9572C104.445 11.8343 105.504 12.7242 105.692 13.6375Z" fill="#FFFAB8"/>
<path d="M31.1682 51.6342C31.6311 53.4102 31.9598 55.2185 32.1518 57.0438C32.4387 61.4875 30.934 63.6713 25.7117 63.6069C23.3347 63.6069 21.7305 62.4828 20.7879 60.2463C19.3379 56.9034 18.2544 53.4132 17.5562 49.8368C17.2662 48.2341 17.302 46.5894 17.6616 45.0009C17.7968 44.2481 18.1441 43.5496 18.6626 42.9875C19.1812 42.4254 19.8495 42.023 20.5889 41.8277C21.6052 41.4983 22.6765 41.3727 23.7414 41.4581C24.8064 41.5435 25.844 41.8382 26.7948 42.3253C28.5043 43.1801 29.2421 44.7257 29.8217 46.3825C30.3979 48.0979 30.8479 49.8532 31.1682 51.6342ZM22.4917 52.3367C22.5326 52.3367 22.9015 53.976 23.1708 54.7664C23.5982 56.031 23.9612 57.3483 25.0501 58.2791C25.2524 58.498 25.507 58.6619 25.79 58.7552C26.0731 58.8486 26.3752 58.8684 26.668 58.8127C26.9608 58.7571 27.2346 58.6279 27.4637 58.4372C27.6928 58.2466 27.8696 58.0008 27.9774 57.723C28.3365 57.0172 28.4577 56.2141 28.3229 55.4338C28.0865 53.7684 27.7124 52.1254 27.2046 50.5218C26.8668 49.2176 26.2695 47.995 25.4482 46.9271C25.2557 46.6653 24.9978 46.4587 24.7004 46.3279C24.403 46.1971 24.0765 46.1466 23.7535 46.1816C23.4304 46.2166 23.1222 46.3357 22.8597 46.5272C22.5972 46.7186 22.3895 46.9756 22.2575 47.2725C21.8753 47.9663 21.745 48.771 21.8886 49.5499C22.0584 50.4808 22.2867 51.4058 22.4917 52.3367Z" fill="#F7760C"/>
<path d="M38.024 35.1768C39.7804 34.7904 41.5368 34.3923 43.2932 34.0059C44.7861 33.7015 45.0496 33.8771 45.5589 35.3349C45.6934 35.7479 45.8048 36.1682 45.8926 36.5936C46.2439 38.1334 46.0215 38.4905 44.4407 38.8418C43.8026 38.9823 43.1527 39.0643 42.5087 39.1638C41.0392 39.4039 41.0099 39.4097 41.4022 40.7855C42.093 43.1918 42.819 45.5863 43.5332 47.9867C43.7499 48.7186 43.9723 49.4445 44.1948 50.1764C44.552 51.3824 44.5519 51.3473 45.7053 51.0604C46.3376 50.8906 46.9699 50.7326 47.608 50.5862C47.7515 50.5384 47.9037 50.5225 48.054 50.5394C48.2043 50.5564 48.3491 50.6059 48.4783 50.6845C48.6076 50.763 48.7182 50.8687 48.8024 50.9943C48.8867 51.1199 48.9426 51.2623 48.9663 51.4117C49.0249 51.6224 49.0893 51.8274 49.1478 52.0381C49.9089 54.8601 49.8972 54.8366 47.1104 55.6504C44.0794 56.5334 40.9931 57.2141 37.8718 57.6878C36.2325 57.9396 35.8754 57.6878 35.4831 56.0544C35.3265 55.4772 35.2072 54.8905 35.126 54.298C35.0089 53.2442 35.2607 52.9046 36.2969 52.7582C37.05 52.6543 37.7938 52.4918 38.5217 52.2723C39.2769 52.0381 39.4175 51.599 39.2243 50.914C38.9549 49.9715 38.7149 49.023 38.4397 48.0804C37.8543 45.9903 37.2395 43.9002 36.5955 41.8159C36.2267 40.645 36.1916 40.645 34.9796 40.8675C32.4036 41.371 32.4036 41.371 31.7245 38.7891L31.6894 38.631C31.139 36.6463 31.1507 36.6873 33.2174 36.1077C34.804 35.692 36.4257 35.5047 38.024 35.1768Z" fill="#F7760C"/>
<path d="M64.9671 41.055C64.8969 38.3502 64.8969 36.0083 64.8149 33.6665C64.7739 32.1501 64.6979 30.6279 64.5808 29.1116C64.5281 28.4442 64.692 28.0285 65.4062 27.9114C66.4074 27.7475 67.4027 27.5484 68.3979 27.3669C69.1181 27.2381 69.3991 27.484 69.3874 28.2627C69.3523 31.9218 69.3874 35.581 69.3874 39.2401C69.3874 42.1147 69.4225 44.9835 69.3874 47.8581C69.3874 49.4974 69.3171 49.5032 67.7598 49.8662C67.0982 50.0243 66.425 50.118 65.7809 50.317C64.8501 50.6098 64.2997 50.2819 63.9016 49.4271C62.9239 47.337 61.9403 45.2469 60.904 43.1803C58.9896 39.3572 57.04 35.5693 55.1021 31.7286C54.4113 30.3762 54.4112 30.3118 55.9159 29.9722C59.253 29.2755 58.8432 28.8013 60.4005 32.1501C61.6359 34.8081 62.9883 37.4193 64.2939 40.0246C64.3992 40.2939 64.5866 40.5047 64.9671 41.055Z" fill="#F7760C"/>
<path d="M76.9223 41.9037C76.2783 38.8008 75.5757 35.932 74.8264 33.0749C74.4165 31.5176 74.6331 31.1956 76.2139 30.8502C78.7841 30.2647 81.3543 29.7495 83.9361 29.2168C84.3542 29.1331 84.7803 29.0958 85.2066 29.1055C85.4217 29.106 85.6306 29.1774 85.801 29.3086C85.9714 29.4399 86.0938 29.6237 86.1492 29.8315C87.3201 32.8759 87.121 33.2916 83.983 33.9766C82.7769 34.24 81.5767 34.5152 80.3589 34.7435C79.6271 34.884 79.3344 35.1884 79.6096 35.9554C79.8696 36.7238 80.0885 37.5055 80.2653 38.2973C80.4234 38.9764 80.7922 39.1403 81.4362 38.9823C82.2676 38.7715 83.1223 38.6369 83.9595 38.4378C84.0841 38.39 84.2174 38.3695 84.3505 38.3777C84.4836 38.3859 84.6134 38.4226 84.7311 38.4853C84.8488 38.5481 84.9516 38.6353 85.0327 38.7413C85.1137 38.8472 85.171 38.9694 85.2007 39.0994C86.4185 42.1028 86.1726 41.8393 83.6785 42.3779C81.4304 42.8639 81.4362 42.8639 82.0275 45.0594C82.6188 47.2549 82.613 47.2607 84.8202 46.6225C85.9033 46.3064 86.9864 45.9902 88.0695 45.6916C89.1526 45.3931 89.3751 45.5746 89.7556 46.5874C90.9266 49.6611 90.8036 49.8836 87.6363 50.6857C85.5989 51.1833 83.538 51.6575 81.524 52.1434C79.9726 52.5181 79.7676 52.4245 79.3344 50.9081C78.4913 47.8169 77.6892 44.7549 76.9223 41.9037Z" fill="#F7760C"/>
<path d="M96.7049 30.0422C97.2904 28.198 97.8758 26.1723 98.4203 24.334C98.6545 23.5085 98.9004 23.2802 99.9191 23.0284C100.674 22.8821 101.254 22.806 101.921 22.7064C102.963 22.5483 103.204 22.7474 102.887 23.7778C102.258 26.0619 101.497 28.3079 100.61 30.5048C100.053 31.7309 99.7498 33.0574 99.72 34.4039C99.72 35.3817 101.266 41.7632 101.781 43.9646C102.056 45.1355 102.038 45.1706 100.92 45.5336C97.8583 46.5172 98.0456 46.0488 97.4953 43.6718C97.0562 41.8042 95.9497 36.1603 95.534 35.329C95.1023 34.4577 94.5059 33.6783 93.7776 33.034C91.7714 31.1319 89.943 29.0508 88.3152 26.8163C87.4956 25.7332 87.6361 25.5517 88.7953 25.3058C92.3081 24.7204 91.506 24.4569 93.6312 26.8807C94.59 27.9966 95.6165 29.0525 96.7049 30.0422Z" fill="#F7760C"/>
<path d="M111.915 36.3476L111.57 36.3945C109.813 36.6462 109.685 36.6345 109.316 34.9367C108.478 31.0902 107.431 27.3256 106.388 23.5201C105.902 21.7638 106.096 21.5588 107.858 21.1783C108.192 21.1022 108.537 21.0378 108.877 20.9851C109.027 20.9357 109.187 20.9196 109.344 20.9381C109.501 20.9566 109.653 21.0093 109.788 21.0923C109.922 21.1754 110.038 21.2869 110.125 21.419C110.212 21.5512 110.27 21.7008 110.293 21.8575C110.709 23.2977 111.224 24.7145 111.558 26.184C112.051 28.74 112.676 31.2687 113.432 33.7599C114.117 35.7797 114.005 35.9495 111.915 36.3476Z" fill="#F7760C"/>
<path d="M115.551 40.3115C115.629 40.6219 115.643 40.945 115.591 41.2608C115.54 41.5767 115.424 41.8786 115.251 42.148C115.078 42.4174 114.852 42.6485 114.587 42.827C114.321 43.0056 114.022 43.1278 113.707 43.1861C112.372 43.4906 111.061 42.8173 110.78 41.6756C110.458 40.3818 111.248 38.842 112.366 38.5785C113.76 38.2507 115.247 39.0762 115.551 40.3115Z" fill="#F7760C"/>
</svg>
