<svg width="28" height="28" viewBox="0 0 28 28" fill="none" xmlns="http://www.w3.org/2000/svg">
<path d="M11.6667 21C11.6667 22.2886 12.7113 23.3333 14 23.3333C15.2887 23.3333 16.3333 22.2886 16.3333 21V16.3333H21C22.2887 16.3333 23.3333 15.2887 23.3333 14C23.3333 12.7113 22.2887 11.6667 21 11.6667H16.3333V6.99999C16.3333 5.71132 15.2887 4.66666 14 4.66666C12.7113 4.66666 11.6667 5.71132 11.6667 6.99999V11.6667L7 11.6667C5.71134 11.6667 4.66667 12.7113 4.66667 14C4.66667 15.2886 5.71134 16.3333 7 16.3333L11.6667 16.3333V21Z" fill="white"/>
</svg>
