<svg width="41" height="43" viewBox="0 0 41 43" fill="none" xmlns="http://www.w3.org/2000/svg">
<g filter="url(#filter0_d_0_436)">
<rect width="40" height="42" rx="4.6" fill="#FCFCFE"/>
</g>
<path d="M30.0115 22.6642H25.6438V26.6333C25.6438 26.7133 25.6438 26.7866 25.6438 26.8633C25.6438 26.9299 25.6438 26.9933 25.641 27.0599C25.6391 27.2028 25.6262 27.3454 25.6025 27.4865C25.5767 27.6266 25.53 27.7624 25.4638 27.8897C25.3961 28.0169 25.3075 28.1328 25.2016 28.233C25.0952 28.3332 24.9738 28.4174 24.8413 28.4829C24.7071 28.5457 24.5647 28.5905 24.4178 28.6162C24.2706 28.6384 24.1219 28.6507 23.9729 28.6529C23.9035 28.6529 23.8363 28.6562 23.7683 28.6562H18.1497C18.0803 28.6562 18.0134 28.6529 17.9451 28.6529C17.7961 28.6507 17.6474 28.6384 17.5001 28.6162C17.3534 28.5905 17.2111 28.5457 17.077 28.4829C16.9446 28.4174 16.8231 28.3332 16.7167 28.233C16.6107 28.1328 16.5222 28.0169 16.4545 27.8897C16.3883 27.7624 16.3416 27.6266 16.3158 27.4865C16.2919 27.3454 16.279 27.2028 16.277 27.0599C16.277 26.9933 16.2742 26.9299 16.2742 26.8633C16.2742 26.7866 16.2742 26.7133 16.2742 26.6333V22.6642H11.8375C11.3887 22.6642 10.813 21.7345 11.352 21.2179C11.8101 20.7813 19.0105 13.8829 20.5173 12.4466C20.6281 12.3158 20.7845 12.2282 20.9574 12.2H20.9692C21.1189 12.2077 21.2578 12.2769 21.3507 12.3899C22.8576 13.8262 30.0826 20.7813 30.541 21.2179C31.0803 21.7345 30.6288 22.6642 30.0115 22.6642Z" fill="black"/>
<defs>
<filter id="filter0_d_0_436" x="0" y="0" width="40" height="43" filterUnits="userSpaceOnUse" color-interpolation-filters="sRGB">
<feFlood flood-opacity="0" result="BackgroundImageFix"/>
<feColorMatrix in="SourceAlpha" type="matrix" values="0 0 0 0 0 0 0 0 0 0 0 0 0 0 0 0 0 0 127 0" result="hardAlpha"/>
<feOffset dy="1"/>
<feColorMatrix type="matrix" values="0 0 0 0 0.537255 0 0 0 0 0.541176 0 0 0 0 0.552941 0 0 0 1 0"/>
<feBlend mode="normal" in2="BackgroundImageFix" result="effect1_dropShadow_0_436"/>
<feBlend mode="normal" in="SourceGraphic" in2="effect1_dropShadow_0_436" result="shape"/>
</filter>
</defs>
</svg>
