<svg width="10" height="10" viewBox="0 0 10 10" fill="none" xmlns="http://www.w3.org/2000/svg">
<path d="M3.85902 9.73917C4.18662 9.73917 4.44204 9.61146 4.61972 9.34494L9.81691 1.30485C9.95017 1.10496 10.0001 0.927276 10.0001 0.755147C10.0001 0.316495 9.67809 0 9.22834 0C8.9174 0 8.72861 0.111051 8.53982 0.410889L3.83681 7.86241L1.42701 4.80851C1.24377 4.58085 1.05498 4.48091 0.78291 4.48091C0.3276 4.48091 0 4.80296 0 5.24716C0 5.4415 0.0666306 5.62473 0.227655 5.81907L3.10388 9.3616C3.31487 9.62257 3.54808 9.73917 3.85902 9.73917Z" fill="white"/>
</svg>
