<svg width="20" height="20" viewBox="0 0 20 20" fill="none" xmlns="http://www.w3.org/2000/svg">
<path d="M9.99984 2.20833C11.5409 2.20833 13.0473 2.66531 14.3287 3.52147C15.61 4.37763 16.6087 5.59452 17.1984 7.01826C17.7881 8.442 17.9424 10.0086 17.6418 11.5201C17.3412 13.0315 16.5991 14.4199 15.5094 15.5095C14.4197 16.5992 13.0314 17.3413 11.5199 17.642C10.0085 17.9426 8.44184 17.7883 7.0181 17.1986C5.59436 16.6088 4.37747 15.6102 3.52131 14.3288C2.66515 13.0475 2.20817 11.541 2.20817 10C2.20817 7.93352 3.02908 5.95168 4.4903 4.49046C5.95152 3.02924 7.93336 2.20833 9.99984 2.20833ZM6.10817 10.775H13.8915C14.0971 10.775 14.2942 10.6933 14.4395 10.548C14.5849 10.4027 14.6665 10.2055 14.6665 10C14.6665 9.79446 14.5849 9.59733 14.4395 9.45199C14.2942 9.30665 14.0971 9.225 13.8915 9.225H6.10817C5.90263 9.225 5.70551 9.30665 5.56017 9.45199C5.41483 9.59733 5.33317 9.79446 5.33317 10C5.33317 10.2055 5.41483 10.4027 5.56017 10.548C5.70551 10.6933 5.90263 10.775 6.10817 10.775ZM9.99984 1.04167C8.22805 1.04167 6.49605 1.56707 5.02286 2.55142C3.54967 3.53577 2.40146 4.93487 1.72342 6.5718C1.04539 8.20872 0.867981 10.0099 1.21364 11.7477C1.5593 13.4854 2.4125 15.0817 3.66534 16.3345C4.91819 17.5873 6.51441 18.4405 8.25216 18.7862C9.9899 19.1319 11.7911 18.9545 13.428 18.2764C15.065 17.5984 16.4641 16.4502 17.4484 14.977C18.4328 13.5038 18.9582 11.7718 18.9582 10C18.956 7.62478 18.0114 5.34748 16.3319 3.66794C14.6524 1.9884 12.3751 1.04387 9.99984 1.04167Z" fill="#022150"/>
</svg>
