<svg width="14" height="16" viewBox="0 0 14 16" fill="none" xmlns="http://www.w3.org/2000/svg">
<path fill-rule="evenodd" clip-rule="evenodd" d="M6.19812 3.68322L7.17365 1.99696L8.14361 3.67361L6.19812 3.68322ZM5.03953 3.68894L6.74085 0.748096C6.9334 0.415267 7.41389 0.415267 7.60644 0.748096L9.2956 3.66792L12.7798 3.65071C13.1651 3.64881 13.4083 4.06433 13.2172 4.39836L11.4777 7.43986L13.5659 11.0494C13.7587 11.3827 13.5182 11.7997 13.1331 11.7997H8.98422L7.30895 14.7289C7.11805 15.0627 6.63672 15.0648 6.44238 14.7327L4.72619 11.7997H1.2142C0.829107 11.7997 0.588567 11.3827 0.781406 11.0494L2.52427 8.03671L0.431925 4.46095C0.237584 4.12882 0.475917 3.71148 0.861009 3.70957L5.03953 3.68894ZM3.10028 7.04105L1.73307 4.70452L4.45979 4.69105L3.10028 7.04105ZM3.68121 8.03385L5.61838 4.68533L8.72005 4.67001L10.3237 7.44196L8.40327 10.7997H5.29966L3.68121 8.03385ZM3.1052 9.02951L2.0811 10.7997H4.14105L3.1052 9.02951ZM5.88481 11.7997L6.8692 13.482L7.83135 11.7997H5.88481ZM9.55614 10.7997H12.2662L10.9034 8.44407L9.55614 10.7997ZM10.898 6.43775L11.918 4.65422L9.87204 4.66432L10.898 6.43775Z" fill="#969AA8"/>
</svg>
