<svg width="21" height="21" viewBox="0 0 21 21" fill="none" xmlns="http://www.w3.org/2000/svg">
<g clip-path="url(#clip0_189_11219)">
<path d="M10.5 19.6875C8.06332 19.6875 5.72645 18.7195 4.00346 16.9965C2.28047 15.2736 1.3125 12.9367 1.3125 10.5C1.3125 8.06332 2.28047 5.72645 4.00346 4.00346C5.72645 2.28047 8.06332 1.3125 10.5 1.3125C12.9367 1.3125 15.2736 2.28047 16.9965 4.00346C18.7195 5.72645 19.6875 8.06332 19.6875 10.5C19.6875 12.9367 18.7195 15.2736 16.9965 16.9965C15.2736 18.7195 12.9367 19.6875 10.5 19.6875ZM10.5 21C13.2848 21 15.9555 19.8938 17.9246 17.9246C19.8938 15.9555 21 13.2848 21 10.5C21 7.71523 19.8938 5.04451 17.9246 3.07538C15.9555 1.10625 13.2848 0 10.5 0C7.71523 0 5.04451 1.10625 3.07538 3.07538C1.10625 5.04451 0 7.71523 0 10.5C0 13.2848 1.10625 15.9555 3.07538 17.9246C5.04451 19.8938 7.71523 21 10.5 21Z" fill="#263238"/>
<path d="M5.62407 12.5567C5.77479 12.4697 5.95391 12.4461 6.12203 12.4911C6.29014 12.5362 6.43348 12.6462 6.5205 12.7969C6.92359 13.4956 7.50364 14.0757 8.20225 14.479C8.90086 14.8822 9.69338 15.0942 10.5 15.0937C11.3066 15.0942 12.0991 14.8822 12.7978 14.479C13.4964 14.0757 14.0764 13.4956 14.4795 12.7969C14.5223 12.7216 14.5795 12.6556 14.6479 12.6026C14.7163 12.5496 14.7945 12.5106 14.878 12.4879C14.9616 12.4652 15.0488 12.4593 15.1346 12.4705C15.2204 12.4816 15.3032 12.5096 15.3781 12.5529C15.4531 12.5962 15.5187 12.6539 15.5713 12.7226C15.6239 12.7913 15.6623 12.8698 15.6844 12.9535C15.7066 13.0372 15.7119 13.1244 15.7002 13.2101C15.6885 13.2959 15.6599 13.3785 15.6161 13.4531C15.0979 14.3513 14.3521 15.0972 13.454 15.6156C12.5559 16.134 11.537 16.4067 10.5 16.4062C9.46299 16.4067 8.44415 16.134 7.54602 15.6156C6.64789 15.0972 5.90216 14.3513 5.38388 13.4531C5.29686 13.3024 5.27328 13.1233 5.31832 12.9552C5.36336 12.787 5.47334 12.6437 5.62407 12.5567ZM9.1875 8.53125C9.1875 9.618 8.5995 10.5 7.875 10.5C7.1505 10.5 6.5625 9.618 6.5625 8.53125C6.5625 7.4445 7.1505 6.5625 7.875 6.5625C8.5995 6.5625 9.1875 7.4445 9.1875 8.53125ZM14.4375 8.53125C14.4375 9.618 13.8495 10.5 13.125 10.5C12.4005 10.5 11.8125 9.618 11.8125 8.53125C11.8125 7.4445 12.4005 6.5625 13.125 6.5625C13.8495 6.5625 14.4375 7.4445 14.4375 8.53125Z" fill="#263238"/>
</g>
<defs>
<clipPath id="clip0_189_11219">
<rect width="21" height="21" fill="white"/>
</clipPath>
</defs>
</svg>
