<svg width="35" height="35" viewBox="0 0 35 35" fill="none" xmlns="http://www.w3.org/2000/svg">
<circle cx="17.5" cy="17.5" r="17.25" stroke="#D7DCE2" stroke-width="0.5"/>
<g clip-path="url(#clip0_669_5807)">
<path d="M21.3284 9.9375H14.0984C12.9194 9.93948 11.7894 10.4087 10.9557 11.2423C10.1221 12.076 9.65286 13.2061 9.65088 14.385V24.75C9.65478 25.0969 9.79431 25.4285 10.0396 25.6738C10.2849 25.9191 10.6165 26.0586 10.9634 26.0625H21.3134C22.4923 26.0605 23.6224 25.5913 24.456 24.7577C25.2897 23.924 25.7589 22.7939 25.7609 21.615V14.385C25.7589 13.2086 25.2918 12.0808 24.4614 11.2476C23.631 10.4144 22.5047 9.94344 21.3284 9.9375ZM24.6509 21.615C24.6489 22.4956 24.2982 23.3395 23.6756 23.9622C23.0529 24.5848 22.209 24.9355 21.3284 24.9375H10.9634C10.9148 24.934 10.8691 24.9131 10.8347 24.8787C10.8002 24.8443 10.7794 24.7986 10.7759 24.75V14.385C10.7779 13.5044 11.1285 12.6605 11.7512 12.0378C12.3739 11.4152 13.2178 11.0645 14.0984 11.0625H21.3284C22.209 11.0645 23.0529 11.4152 23.6756 12.0378C24.2982 12.6605 24.6489 13.5044 24.6509 14.385V21.615ZM21.2759 14.295L20.0159 13.32C19.8092 13.1597 19.5724 13.0426 19.3196 12.9756C19.0667 12.9087 18.803 12.8933 18.5441 12.9304C18.2852 12.9675 18.0364 13.0563 17.8125 13.1915C17.5886 13.3267 17.3942 13.5056 17.2409 13.7175L13.7684 18.4125C13.5364 18.7288 13.4057 19.108 13.3934 19.5V21.39C13.3905 21.6498 13.4487 21.9067 13.5633 22.1399C13.678 22.3731 13.8458 22.5761 14.0534 22.7325C14.3302 22.9408 14.667 23.0539 15.0134 23.055C15.1644 23.0625 15.3157 23.0499 15.4634 23.0175L17.2259 22.5C17.6121 22.384 17.9494 22.1442 18.1859 21.8175L21.6584 17.1225C21.9788 16.6954 22.1182 16.1594 22.0467 15.6304C21.9751 15.1013 21.6982 14.6216 21.2759 14.295ZM18.7109 14.0475H18.8234C19.0075 14.0486 19.1864 14.1091 19.3334 14.22L20.5859 15.1875C20.7707 15.3339 20.8913 15.5465 20.9221 15.7803C20.9529 16.0141 20.8915 16.2507 20.7509 16.44L20.3609 16.9725C19.7473 17.0166 19.1388 16.834 18.6509 16.4594C18.1629 16.0848 17.8293 15.5442 17.7134 14.94L18.1259 14.385C18.1941 14.2907 18.2814 14.2118 18.3823 14.1536C18.4831 14.0955 18.5951 14.0593 18.7109 14.0475ZM17.2859 21.1275C17.1916 21.2588 17.0575 21.3561 16.9034 21.405L15.1259 21.9375C15.0552 21.9614 14.9797 21.9671 14.9062 21.954C14.8328 21.9408 14.7639 21.9094 14.7059 21.8625C14.6392 21.8133 14.5853 21.7487 14.5488 21.6743C14.5122 21.6 14.4941 21.5179 14.4959 21.435V19.545C14.516 19.3705 14.5924 19.2073 14.7134 19.08L16.9634 16.0275C17.1995 16.5557 17.5641 17.0163 18.0239 17.3674C18.4837 17.7185 19.0242 17.9489 19.5959 18.0375L17.2859 21.1275Z" fill="white"/>
</g>
<defs>
<clipPath id="clip0_669_5807">
<rect width="18" height="18" fill="white" transform="translate(8.71338 9)"/>
</clipPath>
</defs>
</svg>
