<svg width="13" height="12" viewBox="0 0 13 12" fill="none" xmlns="http://www.w3.org/2000/svg">
<path d="M6.89504 1.88301L7.29316 1.44085C8.49632 0.168004 10.3613 0.205197 11.6343 1.45507L11.73 1.55283C12.3079 2.16866 12.5604 3.13563 12.488 4.1796C12.4158 5.221 12.0246 6.24688 11.435 6.9227L11.2623 7.11641L11.069 7.32566C10.3229 8.12077 9.16977 9.21942 7.60197 10.6258C7.60172 10.626 7.60146 10.6262 7.6012 10.6265L6.70628 11.4229C6.70612 11.423 6.70595 11.4231 6.70579 11.4233C6.58818 11.5268 6.42644 11.5257 6.30977 11.4192C6.30961 11.4191 6.30945 11.4189 6.30929 11.4188L5.20458 10.401L5.20213 10.3987L4.21935 9.48104C4.21914 9.48084 4.21893 9.48065 4.21873 9.48045C3.04837 8.37892 2.17691 7.52337 1.59959 6.9106C0.968926 6.24122 0.572832 5.23116 0.509045 4.19924C0.445171 3.16591 0.717805 2.18963 1.32084 1.54958C2.58628 0.206445 4.55329 0.136929 5.78681 1.43131L6.1342 1.86224L6.50243 2.31902L6.89504 1.88301Z" stroke="#969AA8"/>
</svg>
