<svg width="374" height="71" viewBox="0 0 374 71" fill="none" xmlns="http://www.w3.org/2000/svg">
<path d="M16.9844 55.2C16.9844 49.3373 21.737 44.5846 27.5998 44.5846H346.4C352.263 44.5846 357.015 49.3373 357.015 55.2H16.9844Z" fill="white"/>
<path d="M16.9844 55.2C16.9844 49.3373 21.737 44.5846 27.5998 44.5846H346.4C352.263 44.5846 357.015 49.3373 357.015 55.2H16.9844Z" fill="black" fill-opacity="0.15"/>
<path fill-rule="evenodd" clip-rule="evenodd" d="M374 0H0V70.0615C0 66.1099 0 64.1341 0.519554 62.5351C1.56961 59.3033 4.10332 56.7696 7.33505 55.7196C8.93407 55.2 10.9099 55.2 14.8615 55.2H16.9846C16.9846 49.3373 21.7373 44.5846 27.6 44.5846H346.4C352.263 44.5846 357.015 49.3373 357.015 55.2H359.138C363.09 55.2 365.066 55.2 366.665 55.7196C369.897 56.7696 372.43 59.3033 373.48 62.5351C374 64.1341 374 66.1099 374 70.0615V0Z" fill="black"/>
<g clip-path="url(#clip0_369_5779)">
<path d="M93.5379 -1.06151H256.412V14.8616C256.412 24.8282 248.384 32.9077 238.481 32.9077H111.469C101.566 32.9077 93.5379 24.8282 93.5379 14.8616V-1.06151Z" fill="black"/>
<path d="M93.7824 -1.06151L92.2002 -2.12305C94.996 -2.12305 93.5708 1.21947 93.5708 4.03318C93.5708 4.10453 93.5694 4.17554 93.5665 4.24618H93.7824V-1.06151Z" fill="black"/>
<path d="M256.218 -1.06151L257.8 -2.12305C255.004 -2.12305 256.43 1.21947 256.43 4.03318C256.43 4.10453 256.431 4.17554 256.434 4.24618H256.218V-1.06151Z" fill="black"/>
<path d="M33.4563 20.8907C36.1703 20.8907 38.5318 22.8205 38.5318 27.4025V27.4201C38.5318 31.7026 36.6021 34.2403 33.4034 34.2403C31.0684 34.2403 29.3237 32.8569 28.9183 30.9095L28.9007 30.8126H31.1389L31.1653 30.9007C31.5001 31.7907 32.2844 32.3723 33.4034 32.3723C35.4213 32.3723 36.276 30.3985 36.373 27.9665C36.373 27.8695 36.3818 27.7726 36.3818 27.6757H36.2055C35.7385 28.6802 34.6283 29.5702 32.8836 29.5702C30.4428 29.5702 28.7333 27.7902 28.7333 25.3758V25.3582C28.7333 22.7764 30.6983 20.8907 33.4563 20.8907ZM33.4475 27.8255C34.8838 27.8255 35.9852 26.7857 35.9852 25.3494V25.3318C35.9852 23.8779 34.8838 22.7412 33.4739 22.7412C32.0729 22.7412 30.9538 23.8602 30.9538 25.2789V25.2965C30.9538 26.7681 32.0024 27.8255 33.4475 27.8255ZM42.0992 25.6843C41.2973 25.6843 40.6981 25.0674 40.6981 24.292C40.6981 23.5078 41.2973 22.8998 42.0992 22.8998C42.9098 22.8998 43.5002 23.5078 43.5002 24.292C43.5002 25.0674 42.9098 25.6843 42.0992 25.6843ZM42.0992 32.2225C41.2973 32.2225 40.6981 31.6145 40.6981 30.8302C40.6981 30.046 41.2973 29.438 42.0992 29.438C42.9098 29.438 43.5002 30.046 43.5002 30.8302C43.5002 31.6145 42.9098 32.2225 42.0992 32.2225ZM51.8346 33.9231V31.4823H45.6136V29.623C47.2614 26.7593 49.0678 23.8338 50.7949 21.208H54.0111V29.6054H55.7206V31.4823H54.0111V33.9231H51.8346ZM47.7284 29.6583H51.8699V23.0231H51.7377C50.4336 25.0146 48.9621 27.3673 47.7284 29.5261V29.6583ZM60.5568 33.9231V23.4461H60.407L57.2436 25.6843V23.543L60.5656 21.208H62.8302V33.9231H60.5568Z" fill="white"/>
<path opacity="0.35" d="M304.238 24.4153C304.238 22.3795 305.888 20.7292 307.924 20.7292H325.97C328.006 20.7292 329.656 22.3795 329.656 24.4153V29.723C329.656 31.7588 328.006 33.4092 325.97 33.4092H307.924C305.888 33.4092 304.238 31.7588 304.238 29.723V24.4153Z" stroke="white" stroke-width="1.12001"/>
<path opacity="0.4" d="M331.277 25.4769V29.9569C332.179 29.5775 332.765 28.6948 332.765 27.7169C332.765 26.739 332.179 25.8563 331.277 25.4769Z" fill="white"/>
<path d="M305.801 24.4153C305.801 23.2428 306.751 22.2922 307.924 22.2922H325.97C327.143 22.2922 328.093 23.2428 328.093 24.4153V29.723C328.093 30.8955 327.143 31.8461 325.97 31.8461H307.924C306.751 31.8461 305.801 30.8955 305.801 29.723V24.4153Z" fill="white"/>
<path fill-rule="evenodd" clip-rule="evenodd" d="M287.224 23.9775C289.842 23.9776 292.36 25.0045 294.258 26.8461C294.401 26.9882 294.629 26.9864 294.77 26.842L296.136 25.4349C296.207 25.3616 296.247 25.2624 296.246 25.1592C296.246 25.056 296.205 24.9573 296.133 24.8849C291.152 20.0127 283.295 20.0127 278.314 24.8849C278.242 24.9572 278.201 25.0559 278.2 25.1591C278.2 25.2624 278.239 25.3616 278.31 25.4349L279.677 26.842C279.817 26.9867 280.046 26.9885 280.189 26.8461C282.087 25.0044 284.605 23.9775 287.224 23.9775ZM287.261 28.2256C288.7 28.2255 290.087 28.7713 291.154 29.757C291.298 29.8969 291.525 29.8938 291.666 29.7501L293.03 28.343C293.102 28.2692 293.142 28.169 293.141 28.065C293.14 27.961 293.098 27.8617 293.025 27.7894C289.777 24.706 284.748 24.706 281.501 27.7894C281.428 27.8617 281.386 27.961 281.385 28.0651C281.384 28.1692 281.424 28.2693 281.496 28.343L282.86 29.7501C283 29.8938 283.228 29.8969 283.372 29.757C284.438 28.772 285.824 28.2262 287.261 28.2256ZM290.036 30.9721C290.038 31.0765 289.998 31.1771 289.925 31.2502L287.565 33.6813C287.496 33.7528 287.401 33.793 287.303 33.793C287.204 33.793 287.11 33.7528 287.041 33.6813L284.68 31.2502C284.607 31.177 284.567 31.0764 284.57 30.9721C284.572 30.8677 284.616 30.7689 284.692 30.699C286.199 29.3977 288.407 29.3977 289.914 30.699C289.99 30.769 290.034 30.8678 290.036 30.9721Z" fill="white"/>
<path d="M261.216 24.4153C261.216 23.8291 261.691 23.3538 262.278 23.3538H263.339C263.925 23.3538 264.401 23.8291 264.401 24.4153V32.9076C264.401 33.4939 263.925 33.9692 263.339 33.9692H262.278C261.691 33.9692 261.216 33.4939 261.216 32.9076V24.4153Z" fill="white"/>
<path d="M266.524 22.2923C266.524 21.706 266.999 21.2307 267.585 21.2307H268.647C269.233 21.2307 269.708 21.706 269.708 22.2923V32.9076C269.708 33.4939 269.233 33.9692 268.647 33.9692H267.585C266.999 33.9692 266.524 33.4939 266.524 32.9076V22.2923Z" fill="white"/>
<path d="M255.908 28.1307C255.908 27.5444 256.384 27.0692 256.97 27.0692H258.031C258.618 27.0692 259.093 27.5444 259.093 28.1307V32.9076C259.093 33.4939 258.618 33.9692 258.031 33.9692H256.97C256.384 33.9692 255.908 33.4939 255.908 32.9076V28.1307Z" fill="white"/>
<path d="M250.601 30.7846C250.601 30.1983 251.076 29.723 251.662 29.723H252.724C253.31 29.723 253.785 30.1983 253.785 30.7846V32.9076C253.785 33.4939 253.31 33.9692 252.724 33.9692H251.662C251.076 33.9692 250.601 33.4939 250.601 32.9076V30.7846Z" fill="white"/>
</g>
<defs>
<clipPath id="clip0_369_5779">
<rect width="350" height="47" fill="white"/>
</clipPath>
</defs>
</svg>
