<svg width="43" height="43" viewBox="0 0 43 43" fill="none" xmlns="http://www.w3.org/2000/svg">
<path d="M21.5 41.2083C20.8255 41.2044 20.1617 41.0398 19.5635 40.7282C18.9653 40.4166 18.4499 39.967 18.06 39.4167L16.125 36.5679C16.0222 36.4203 15.8857 36.2994 15.7268 36.2153C15.5678 36.1311 15.3911 36.0862 15.2112 36.0842H12.2908C9.62507 36.0842 7.0685 35.0252 5.18352 33.1402C3.29855 31.2552 2.23958 28.6987 2.23958 26.0329V12.7567C2.23958 10.0909 3.29855 7.53433 5.18352 5.64936C7.0685 3.76438 9.62507 2.70541 12.2908 2.70541H30.7092C32.0291 2.70541 33.3361 2.9654 34.5556 3.47052C35.7751 3.97564 36.8831 4.71601 37.8165 5.64936C38.7498 6.5827 39.4902 7.69074 39.9953 8.91022C40.5004 10.1297 40.7604 11.4367 40.7604 12.7567V26.0329C40.7604 27.3529 40.5004 28.6599 39.9953 29.8794C39.4902 31.0988 38.7498 32.2069 37.8165 33.1402C36.8831 34.0736 35.7751 34.8139 34.5556 35.3191C33.3361 35.8242 32.0291 36.0842 30.7092 36.0842H27.8604C27.6806 36.0862 27.5038 36.1311 27.3449 36.2153C27.186 36.2994 27.0494 36.4203 26.9467 36.5679L24.94 39.4167C24.5501 39.967 24.0347 40.4166 23.4365 40.7282C22.8383 41.0398 22.1745 41.2044 21.5 41.2083ZM12.2908 5.375C11.3223 5.37499 10.3633 5.56606 9.4687 5.93724C8.57412 6.30842 7.76155 6.85243 7.07753 7.53812C6.3935 8.22381 5.85147 9.03769 5.48246 9.93318C5.11345 10.8287 4.92472 11.7881 4.92708 12.7567V26.0329C4.92708 27.9859 5.7029 29.8589 7.08387 31.2399C8.46484 32.6208 10.3378 33.3967 12.2908 33.3967H15.1396C15.7519 33.3984 16.3548 33.5474 16.8974 33.8312C17.44 34.115 17.9064 34.5251 18.2571 35.0271L20.2458 37.8579C20.3929 38.051 20.5827 38.2075 20.8002 38.3153C21.0177 38.423 21.2572 38.4791 21.5 38.4791C21.7428 38.4791 21.9822 38.423 22.1998 38.3153C22.4173 38.2075 22.607 38.051 22.7542 37.8579L24.7429 35.0271C25.0936 34.5251 25.56 34.115 26.1026 33.8312C26.6452 33.5474 27.2481 33.3984 27.8604 33.3967H30.7092C32.6621 33.3967 34.5351 32.6208 35.9161 31.2399C37.2971 29.8589 38.0729 27.9859 38.0729 26.0329V12.7567C38.0753 11.7881 37.8865 10.8287 37.5175 9.93318C37.1485 9.03769 36.6065 8.22381 35.9225 7.53812C35.2384 6.85243 34.4259 6.30842 33.5313 5.93724C32.6367 5.56606 31.6777 5.37499 30.7092 5.375H12.2908ZM31.3721 15.91C31.3674 15.5551 31.2244 15.216 30.9734 14.965C30.7224 14.714 30.3833 14.5709 30.0283 14.5662H12.9717C12.6153 14.5662 12.2735 14.7078 12.0215 14.9598C11.7695 15.2118 11.6279 15.5536 11.6279 15.91C11.6279 16.2664 11.7695 16.6082 12.0215 16.8602C12.2735 17.1122 12.6153 17.2537 12.9717 17.2537H30.0283C30.3833 17.2491 30.7224 17.106 30.9734 16.855C31.2244 16.604 31.3674 16.2649 31.3721 15.91ZM28.5233 24.8683C28.5233 24.5119 28.3818 24.1702 28.1298 23.9182C27.8778 23.6662 27.536 23.5246 27.1796 23.5246H15.8204C15.464 23.5246 15.1222 23.6662 14.8702 23.9182C14.6182 24.1702 14.4767 24.5119 14.4767 24.8683C14.4767 25.2247 14.6182 25.5665 14.8702 25.8185C15.1222 26.0705 15.464 26.2121 15.8204 26.2121H27.1796C27.536 26.2121 27.8778 26.0705 28.1298 25.8185C28.3818 25.5665 28.5233 25.2247 28.5233 24.8683Z" fill="white"/>
</svg>
