<svg width="21" height="18" viewBox="0 0 21 18" fill="none" xmlns="http://www.w3.org/2000/svg">
<path d="M12.1678 1.79732C12.6081 1.46399 12.6949 0.836798 12.3616 0.396449C12.0282 -0.0439002 11.401 -0.130654 10.9607 0.202679L12.1678 1.79732ZM0.999999 8.99685L0.396446 8.19953C0.146784 8.38852 5.79632e-05 8.68354 -1.39818e-06 8.99666C-6.06999e-05 9.30979 0.146553 9.60486 0.396144 9.79395L0.999999 8.99685ZM10.9604 17.7971C11.4006 18.1306 12.0278 18.0441 12.3613 17.6039C12.6948 17.1636 12.6083 16.5364 12.1681 16.2029L10.9604 17.7971ZM20 9.99686C20.5523 9.99686 21 9.54914 21 8.99686C21 8.44457 20.5523 7.99686 20 7.99686L20 9.99686ZM10.9607 0.202679L0.396446 8.19953L1.60355 9.79418L12.1678 1.79732L10.9607 0.202679ZM0.396144 9.79395L10.9604 17.7971L12.1681 16.2029L1.60385 8.19976L0.396144 9.79395ZM0.999998 9.99685L20 9.99686L20 7.99686L0.999999 7.99685L0.999998 9.99685Z" fill="black"/>
</svg>
