<svg width="25" height="31" viewBox="0 0 25 31" fill="none" xmlns="http://www.w3.org/2000/svg">
<path d="M1.9195 20.4459C1.36311 21.8551 1.09385 23.3614 1.12753 24.8761C1.12753 31.157 23.8612 31.157 23.8725 24.8761C23.9062 23.3614 23.637 21.8551 23.0806 20.4459C22.5242 19.0366 21.6918 17.7527 20.6325 16.6696C19.5731 15.5864 18.308 14.7257 16.9115 14.1381C15.515 13.5506 14.0151 13.2479 12.5 13.2479C10.9849 13.2479 9.48505 13.5506 8.08851 14.1381C6.69198 14.7257 5.42691 15.5864 4.36754 16.6696C3.30817 17.7527 2.47588 19.0366 1.9195 20.4459Z" stroke="#4B39EF" stroke-width="2.22242" stroke-linecap="round" stroke-linejoin="round"/>
<path d="M12.4916 10.2563C15.0132 10.2563 17.0575 8.21211 17.0575 5.69046C17.0575 3.1688 15.0132 1.12459 12.4916 1.12459C9.96993 1.12459 7.92572 3.1688 7.92572 5.69046C7.92572 8.21211 9.96993 10.2563 12.4916 10.2563Z" stroke="#4B39EF" stroke-width="2.22242" stroke-linecap="round" stroke-linejoin="round"/>
</svg>
