<svg width="13" height="13" viewBox="0 0 13 13" fill="none" xmlns="http://www.w3.org/2000/svg">
<path d="M7.5 3.83675C7.5 3.28447 7.05229 2.83675 6.5 2.83675C5.94772 2.83675 5.5 3.28447 5.5 3.83675L7.5 3.83675ZM5.5 8.44092C5.5 8.9932 5.94772 9.44092 6.5 9.44092C7.05228 9.44092 7.5 8.9932 7.5 8.44092H5.5ZM8.9375 7.13883C9.48978 7.13883 9.9375 6.69112 9.9375 6.13883C9.9375 5.58655 9.48978 5.13883 8.9375 5.13883V7.13883ZM4.0625 5.13883C3.51022 5.13883 3.0625 5.58655 3.0625 6.13883C3.0625 6.69112 3.51022 7.13883 4.0625 7.13883V5.13883ZM10.375 6.13883C10.375 8.07628 8.69473 9.743 6.5 9.743V11.743C9.69005 11.743 12.375 9.28701 12.375 6.13883H10.375ZM6.5 9.743C4.30527 9.743 2.625 8.07628 2.625 6.13883H0.625C0.625 9.28701 3.30995 11.743 6.5 11.743V9.743ZM2.625 6.13883C2.625 4.20139 4.30527 2.53467 6.5 2.53467V0.534668C3.30995 0.534668 0.625 2.99065 0.625 6.13883H2.625ZM6.5 2.53467C8.69473 2.53467 10.375 4.20139 10.375 6.13883H12.375C12.375 2.99065 9.69005 0.534668 6.5 0.534668V2.53467ZM5.5 3.83675L5.5 6.13883L7.5 6.13883L7.5 3.83675L5.5 3.83675ZM5.5 6.13883V8.44092H7.5V6.13883H5.5ZM8.9375 5.13883H6.5V7.13883H8.9375V5.13883ZM6.5 5.13883H4.0625V7.13883H6.5V5.13883Z" fill="white"/>
</svg>
