<svg width="39" height="26" viewBox="0 0 39 26" fill="none" xmlns="http://www.w3.org/2000/svg">
<path d="M33.9795 0.8059L15.4666 19.3188L4.71356 8.56579C4.19431 8.04962 3.49189 7.75989 2.75973 7.75989C2.02757 7.75989 1.32515 8.04962 0.8059 8.56579C0.289725 9.08505 0 9.78746 0 10.5196C0 11.2518 0.289725 11.9542 0.8059 12.4735L13.5266 25.1941C14.0458 25.7103 14.7483 26 15.4804 26C16.2126 26 16.915 25.7103 17.4342 25.1941L37.8871 4.74128C38.1469 4.48364 38.3531 4.17712 38.4937 3.8394C38.6344 3.50168 38.7069 3.13945 38.7069 2.77359C38.7069 2.40773 38.6344 2.0455 38.4937 1.70778C38.3531 1.37006 38.1469 1.06354 37.8871 0.8059C37.3679 0.289725 36.6654 0 35.9333 0C35.2011 0 34.4987 0.289725 33.9795 0.8059Z" fill="#4B39EF"/>
</svg>
