<svg width="24" height="24" viewBox="0 0 24 24" fill="none" xmlns="http://www.w3.org/2000/svg">
<path d="M12 1.999C17.524 1.999 22.002 6.477 22.002 12.001C22.002 17.524 17.524 22.002 12 22.002C6.47605 22.002 1.99805 17.524 1.99805 12.001C1.99805 6.477 6.47605 1.999 12 1.999ZM12 3.499C10.8759 3.48681 9.76041 3.6977 8.71827 4.11947C7.67612 4.54124 6.72798 5.16552 5.92871 5.95617C5.12944 6.74681 4.49492 7.68813 4.06187 8.72564C3.62882 9.76315 3.40584 10.8762 3.40584 12.0005C3.40584 13.1248 3.62882 14.2379 4.06187 15.2754C4.49492 16.3129 5.12944 17.2542 5.92871 18.0448C6.72798 18.8355 7.67612 19.4598 8.71827 19.8815C9.76041 20.3033 10.8759 20.5142 12 20.502C14.2321 20.4678 16.3611 19.5571 17.9274 17.9665C19.4937 16.376 20.3717 14.2333 20.3717 12.001C20.3717 9.76872 19.4937 7.62598 17.9274 6.03546C16.3611 4.44494 14.2321 3.53424 12 3.5V3.499ZM8.46205 14.784C8.8828 15.32 9.42 15.7532 10.033 16.0509C10.646 16.3486 11.3186 16.5028 12 16.502C12.6806 16.5028 13.3525 16.3489 13.9649 16.0519C14.5772 15.755 15.1142 15.3228 15.535 14.788C15.6584 14.6319 15.8386 14.5312 16.0362 14.5081C16.2338 14.4849 16.4325 14.5412 16.5885 14.6645C16.7446 14.7878 16.8453 14.9681 16.8685 15.1657C16.8916 15.3632 16.8354 15.5619 16.712 15.718C16.1508 16.4306 15.435 17.0064 14.6188 17.4021C13.8026 17.7977 12.9071 18.0028 12 18.002C11.0918 18.0027 10.1953 17.797 9.37826 17.4002C8.56124 17.0035 7.84512 16.4262 7.28405 15.712C7.16624 15.5554 7.11444 15.3588 7.13972 15.1645C7.16501 14.9701 7.26538 14.7934 7.41934 14.6721C7.5733 14.5508 7.76863 14.4946 7.96351 14.5155C8.15839 14.5364 8.33734 14.6328 8.46205 14.784ZM9.00005 8.75C9.16711 8.74527 9.33342 8.7741 9.48915 8.83476C9.64488 8.89543 9.78686 8.98671 9.90669 9.10321C10.0265 9.2197 10.1218 9.35904 10.1868 9.51299C10.2519 9.66694 10.2854 9.83237 10.2854 9.9995C10.2854 10.1666 10.2519 10.3321 10.1868 10.486C10.1218 10.64 10.0265 10.7793 9.90669 10.8958C9.78686 11.0123 9.64488 11.1036 9.48915 11.1642C9.33342 11.2249 9.16711 11.2537 9.00005 11.249C8.67478 11.2398 8.36592 11.1041 8.1391 10.8708C7.91229 10.6375 7.7854 10.3249 7.7854 9.9995C7.7854 9.6741 7.91229 9.36153 8.1391 9.12821C8.36592 8.89488 8.67478 8.7592 9.00005 8.75ZM15 8.75C15.1671 8.74527 15.3334 8.7741 15.4891 8.83476C15.6449 8.89543 15.7869 8.98671 15.9067 9.10321C16.0265 9.2197 16.1218 9.35904 16.1868 9.51299C16.2519 9.66694 16.2854 9.83237 16.2854 9.9995C16.2854 10.1666 16.2519 10.3321 16.1868 10.486C16.1218 10.64 16.0265 10.7793 15.9067 10.8958C15.7869 11.0123 15.6449 11.1036 15.4891 11.1642C15.3334 11.2249 15.1671 11.2537 15 11.249C14.6748 11.2398 14.3659 11.1041 14.1391 10.8708C13.9123 10.6375 13.7854 10.3249 13.7854 9.9995C13.7854 9.6741 13.9123 9.36153 14.1391 9.12821C14.3659 8.89488 14.6748 8.7592 15 8.75Z" fill="#536471"/>
</svg>
