<svg width="17" height="17" viewBox="0 0 17 17" fill="none" xmlns="http://www.w3.org/2000/svg">
<path d="M6.87691 13.7538C8.37033 13.7538 9.7475 13.2709 10.8743 12.4661L15.1131 16.7049C15.3098 16.9016 15.5692 17 15.8464 17C16.4277 17 16.839 16.5529 16.839 15.9805C16.839 15.7123 16.7496 15.4529 16.5529 15.2651L12.3409 11.0442C13.2262 9.88164 13.7538 8.44187 13.7538 6.87691C13.7538 3.09416 10.6597 0 6.87691 0C3.1031 0 0 3.08522 0 6.87691C0 10.6597 3.09416 13.7538 6.87691 13.7538ZM6.87691 12.2693C3.92583 12.2693 1.48448 9.82798 1.48448 6.87691C1.48448 3.92583 3.92583 1.48448 6.87691 1.48448C9.82798 1.48448 12.2693 3.92583 12.2693 6.87691C12.2693 9.82798 9.82798 12.2693 6.87691 12.2693Z" fill="#3C3C43" fill-opacity="0.3"/>
</svg>
