<svg width="27" height="13" viewBox="0 0 27 13" fill="none" xmlns="http://www.w3.org/2000/svg">
<path opacity="0.2" d="M0.5 2.66667C0.5 1.47005 1.47005 0.5 2.66667 0.5H22.3333C23.53 0.5 24.5 1.47005 24.5 2.66667V10.3333C24.5 11.53 23.53 12.5 22.3333 12.5H2.66667C1.47005 12.5 0.5 11.53 0.5 10.3333V2.66667Z" stroke="white"/>
<path opacity="0.2" d="M25.6499 4V8C26.4546 7.66122 26.9779 6.87313 26.9779 6C26.9779 5.12687 26.4546 4.33878 25.6499 4Z" fill="white"/>
<path d="M2.30005 3.66634C2.30005 2.92996 2.897 2.33301 3.63338 2.33301H21.1667C21.903 2.33301 22.5 2.92996 22.5 3.66634V9.32967C22.5 10.0661 21.903 10.663 21.1667 10.663H3.63338C2.897 10.663 2.30005 10.0661 2.30005 9.32967V3.66634Z" fill="white"/>
</svg>
