<svg width="24" height="21" viewBox="0 0 24 21" fill="none" xmlns="http://www.w3.org/2000/svg">
<mask id="path-1-inside-1_0_3" fill="white">
<path fill-rule="evenodd" clip-rule="evenodd" d="M1.85468 10.9302L11.8376 20.9999L20.927 11.9897L20.8896 11.952L21.8629 10.9791C24.3748 8.46827 24.3757 4.39648 21.8648 1.88455C19.354 -0.62739 15.2822 -0.628254 12.7702 1.88262L11.8344 2.81805L10.9441 1.91996C8.45583 -0.589894 4.404 -0.607517 1.89404 1.8806C-0.615916 4.36872 -0.63354 8.42038 1.85468 10.9302Z"/>
</mask>
<path d="M11.8376 20.9999L10.3743 22.4507L11.8249 23.9139L13.2882 22.4633L11.8376 20.9999ZM1.85468 10.9302L3.31801 9.47953L1.85468 10.9302ZM20.927 11.9897L22.3776 13.4531L23.8411 12.0023L22.3903 10.5389L20.927 11.9897ZM20.8896 11.952L19.4329 10.4947L17.9815 11.9454L19.4263 13.4027L20.8896 11.952ZM21.8629 10.9791L20.4062 9.5218L21.8629 10.9791ZM12.7702 1.88262L14.227 3.33996L12.7702 1.88262ZM11.8344 2.81805L10.3711 4.26876L11.8278 5.73813L13.2911 4.27539L11.8344 2.81805ZM10.9441 1.91996L12.4074 0.46925L10.9441 1.91996ZM1.89404 1.8806L3.3447 3.34399L1.89404 1.8806ZM13.3009 19.5492L3.31801 9.47953L0.391355 12.381L10.3743 22.4507L13.3009 19.5492ZM19.4763 10.5263L10.3869 19.5366L13.2882 22.4633L22.3776 13.4531L19.4763 10.5263ZM19.4263 13.4027L19.4636 13.4404L22.3903 10.5389L22.3529 10.5013L19.4263 13.4027ZM20.4062 9.5218L19.4329 10.4947L22.3463 13.4093L23.3196 12.4365L20.4062 9.5218ZM20.4075 3.34127C22.1138 5.04834 22.1132 7.81545 20.4062 9.5218L23.3196 12.4365C26.6364 9.12109 26.6376 3.74463 23.3222 0.427821L20.4075 3.34127ZM14.227 3.33996C15.934 1.63362 18.7011 1.63421 20.4075 3.34127L23.3222 0.427821C20.0068 -2.88899 14.6303 -2.89013 11.3135 0.42527L14.227 3.33996ZM13.2911 4.27539L14.227 3.33996L11.3135 0.42527L10.3777 1.3607L13.2911 4.27539ZM9.48073 3.37068L10.3711 4.26876L13.2977 1.36733L12.4074 0.46925L9.48073 3.37068ZM3.3447 3.34399C5.04648 1.65702 7.79369 1.66897 9.48073 3.37068L12.4074 0.46925C9.11798 -2.84876 3.76153 -2.87206 0.443389 0.417216L3.3447 3.34399ZM3.31801 9.47953C1.63102 7.77787 1.64297 5.03092 3.3447 3.34399L0.443389 0.417216C-2.8748 3.70653 -2.8981 9.0629 0.391355 12.381L3.31801 9.47953Z" fill="black" mask="url(#path-1-inside-1_0_3)"/>
</svg>
