<svg width="24" height="22" viewBox="0 0 24 22" fill="none" xmlns="http://www.w3.org/2000/svg">
<path d="M9.15721 18.7932V16.0185C9.15719 15.3128 9.79311 14.7393 10.581 14.7346H13.4671C14.2587 14.7346 14.9005 15.3094 14.9005 16.0185V16.0185V18.8018C14.9003 19.401 15.4343 19.8907 16.103 19.9048H18.0271C19.9451 19.9048 21.5 18.512 21.5 16.794V16.794V8.9009C21.4897 8.22503 21.1355 7.59036 20.538 7.1775L13.9577 2.42956C12.8049 1.60285 11.1662 1.60285 10.0134 2.42956L3.46202 7.18612C2.86226 7.59731 2.50739 8.23303 2.5 8.90951V16.794C2.5 18.512 4.05487 19.9048 5.97291 19.9048H7.89696C8.58235 19.9048 9.13797 19.4071 9.13797 18.7932V18.7932" stroke="#BDBDBD" stroke-width="1.5" stroke-linecap="round" stroke-linejoin="round"/>
</svg>
