<svg width="24" height="24" viewBox="0 0 24 24" fill="none" xmlns="http://www.w3.org/2000/svg">
<g opacity="0.9">
<path d="M15.375 12.9995C15.9273 12.9995 16.375 12.5517 16.375 11.9995C16.375 11.4472 15.9273 10.9995 15.375 10.9995V12.9995ZM8.625 10.9995C8.07272 10.9995 7.625 11.4472 7.625 11.9995C7.625 12.5517 8.07272 12.9995 8.625 12.9995V10.9995ZM11 15.3745C11 15.9267 11.4477 16.3745 12 16.3745C12.5523 16.3745 13 15.9267 13 15.3745H11ZM13 8.62445C13 8.07217 12.5523 7.62445 12 7.62445C11.4477 7.62445 11 8.07217 11 8.62445L13 8.62445ZM20 12C20 16.4183 16.4183 20 12 20V22C17.5228 22 22 17.5228 22 12H20ZM12 20C7.58172 20 4 16.4183 4 12H2C2 17.5228 6.47715 22 12 22V20ZM4 12C4 7.58172 7.58172 4 12 4V2C6.47715 2 2 6.47715 2 12H4ZM12 4C16.4183 4 20 7.58172 20 12H22C22 6.47715 17.5228 2 12 2V4ZM15.375 10.9995H12V12.9995H15.375V10.9995ZM12 10.9995H8.625V12.9995H12V10.9995ZM13 15.3745V11.9995H11V15.3745H13ZM13 11.9995L13 8.62445L11 8.62445L11 11.9995L13 11.9995Z" fill="white"/>
</g>
</svg>
