<svg width="43" height="43" viewBox="0 0 43 43" fill="none" xmlns="http://www.w3.org/2000/svg">
<path d="M31.7842 38.0729H11.2158C8.83994 38.0729 6.56136 37.1291 4.88134 35.4491C3.20133 33.7691 2.25751 31.4905 2.25751 29.1146V13.9033C2.25751 11.5274 3.20133 9.24885 4.88134 7.56884C6.56136 5.88882 8.83994 4.945 11.2158 4.945H31.7842C34.1601 4.945 36.4387 5.88882 38.1187 7.56884C39.7987 9.24885 40.7425 11.5274 40.7425 13.9033V29.0967C40.7449 30.2746 40.5149 31.4414 40.0657 32.5304C39.6166 33.6193 38.9571 34.609 38.125 35.4427C37.2929 36.2765 36.3046 36.938 35.2165 37.3893C34.1285 37.8406 32.9621 38.0729 31.7842 38.0729ZM11.2158 7.61458C9.54796 7.61458 7.94839 8.27715 6.76902 9.45652C5.58965 10.6359 4.92709 12.2355 4.92709 13.9033V29.0967C4.92709 30.7645 5.58965 32.3641 6.76902 33.5435C7.94839 34.7229 9.54796 35.3854 11.2158 35.3854H31.7842C33.4521 35.3854 35.0516 34.7229 36.231 33.5435C37.4104 32.3641 38.0729 30.7645 38.0729 29.0967V13.9033C38.0729 12.2355 37.4104 10.6359 36.231 9.45652C35.0516 8.27715 33.4521 7.61458 31.7842 7.61458H11.2158ZM25.4238 21.8404L31.3183 16.8417C31.5844 16.6067 31.7496 16.2781 31.7797 15.9244C31.8097 15.5707 31.7022 15.219 31.4796 14.9425C31.2446 14.6751 30.9142 14.5103 30.5592 14.4836C30.2043 14.4568 29.8529 14.5701 29.5804 14.7992L23.6858 19.7979C23.0689 20.3172 22.2885 20.602 21.4821 20.602C20.6757 20.602 19.8952 20.3172 19.2783 19.7979L13.2225 14.7812C12.9493 14.5437 12.5929 14.4243 12.2317 14.4495C11.8705 14.4747 11.5341 14.6424 11.2965 14.9156C11.0589 15.1889 10.9396 15.5453 10.9648 15.9065C10.99 16.2677 11.1576 16.6041 11.4308 16.8417L17.5583 21.8762C18.6547 22.8126 20.0492 23.327 21.491 23.327C22.9329 23.327 24.3274 22.8126 25.4238 21.8762V21.8404Z" fill="white"/>
</svg>
