<svg width="16" height="16" viewBox="0 0 16 16" fill="none" xmlns="http://www.w3.org/2000/svg">
<path d="M4.344 9.54956L3.35066 13.8509C3.3199 13.9811 3.32914 14.1176 3.37716 14.2426C3.42518 14.3675 3.50976 14.475 3.61984 14.5511C3.72993 14.6272 3.86041 14.6683 3.99423 14.6691C4.12806 14.6699 4.25902 14.6304 4.37 14.5556L8 12.1356L11.63 14.5556C11.7436 14.631 11.8775 14.6698 12.0138 14.6668C12.15 14.6638 12.2821 14.6191 12.3923 14.5388C12.5024 14.4585 12.5853 14.3464 12.6298 14.2176C12.6744 14.0888 12.6784 13.9494 12.6413 13.8182L11.422 9.55156L14.446 6.83023C14.5428 6.74302 14.612 6.62934 14.6449 6.50324C14.6779 6.37714 14.6731 6.24415 14.6313 6.12072C14.5894 5.9973 14.5123 5.88885 14.4095 5.80878C14.3066 5.72871 14.1826 5.68054 14.0527 5.67023L10.252 5.36756L8.60733 1.7269C8.55489 1.60967 8.46964 1.51012 8.36187 1.44027C8.2541 1.37042 8.12842 1.33325 8 1.33325C7.87157 1.33325 7.74589 1.37042 7.63812 1.44027C7.53036 1.51012 7.44511 1.60967 7.39266 1.7269L5.748 5.36756L1.94733 5.66956C1.81963 5.67968 1.69756 5.72637 1.5957 5.80405C1.49385 5.88173 1.41653 5.98711 1.37299 6.10758C1.32946 6.22806 1.32156 6.35852 1.35023 6.48337C1.3789 6.60821 1.44293 6.72216 1.53466 6.81156L4.344 9.54956ZM6.246 6.66556C6.36499 6.65619 6.47928 6.61497 6.57687 6.54624C6.67445 6.47751 6.75176 6.38378 6.80066 6.2749L8 3.6209L9.19933 6.2749C9.24824 6.38378 9.32554 6.47751 9.42313 6.54624C9.52072 6.61497 9.635 6.65619 9.754 6.66556L12.402 6.87556L10.2213 8.83823C10.032 9.0089 9.95666 9.27156 10.026 9.5169L10.8613 12.4402L8.37066 10.7796C8.26134 10.7062 8.13266 10.667 8.001 10.667C7.86934 10.667 7.74065 10.7062 7.63133 10.7796L5.02866 12.5149L5.72866 9.48423C5.75433 9.37276 5.75089 9.25657 5.71866 9.14682C5.68644 9.03707 5.62652 8.93746 5.54466 8.85756L3.51933 6.8829L6.246 6.66556Z" fill="#2F80ED"/>
</svg>
