<svg width="13" height="19" viewBox="0 0 13 19" fill="none" xmlns="http://www.w3.org/2000/svg">
<path d="M6.38685 12.4258C8.16197 12.4258 9.35728 11.0967 9.35728 9.19671V3.22911C9.35728 1.32019 8.16197 0 6.38685 0C4.60282 0 3.40751 1.32019 3.40751 3.22911V9.19671C3.40751 11.0967 4.60282 12.4258 6.38685 12.4258ZM0 9.33944C0 12.8361 2.31033 15.2892 5.70892 15.5746V17.6531H2.39953C2.02488 17.6531 1.7216 17.9563 1.7216 18.331C1.7216 18.7056 2.02488 19 2.39953 19H10.3653C10.7399 19 11.0432 18.7056 11.0432 18.331C11.0432 17.9563 10.7399 17.6531 10.3653 17.6531H7.05587V15.5746C10.4634 15.2892 12.7648 12.8361 12.7648 9.33944V7.52864C12.7648 7.15399 12.4704 6.85962 12.0958 6.85962C11.7211 6.85962 11.4178 7.15399 11.4178 7.52864V9.28592C11.4178 12.3277 9.43756 14.3437 6.38685 14.3437C3.32723 14.3437 1.34695 12.3277 1.34695 9.28592V7.52864C1.34695 7.15399 1.05258 6.85962 0.669014 6.85962C0.294366 6.85962 0 7.15399 0 7.52864V9.33944Z" fill="#3C3C43" fill-opacity="0.3"/>
</svg>
