<svg width="17" height="17" viewBox="0 0 17 17" fill="none" xmlns="http://www.w3.org/2000/svg">
<g clip-path="url(#clip0_662_4916)">
<path d="M14.4925 16.1146C14.0923 16.1095 13.7084 15.9555 13.4158 15.6825L11.3758 13.7487C10.1986 14.4455 8.84172 14.7789 7.47564 14.7071C6.10955 14.6352 4.79514 14.1614 3.69748 13.345C2.96744 12.804 2.35146 12.1241 1.88491 11.3444C1.41835 10.5647 1.11042 9.70047 0.978786 8.80141C0.847152 7.90235 0.894412 6.98615 1.11785 6.1054C1.34129 5.22466 1.73651 4.39673 2.28081 3.66915C3.35025 2.22148 4.94112 1.24686 6.71659 0.95166C8.49206 0.656456 10.3127 1.06385 11.7931 2.08757C13.2734 3.11129 14.2972 4.67097 14.6477 6.43636C14.9982 8.20175 14.6478 10.0342 13.6708 11.5458L15.6187 13.3662C15.915 13.6648 16.0813 14.0683 16.0813 14.4889C16.0813 14.9096 15.915 15.3131 15.6187 15.6117C15.4756 15.7684 15.3018 15.8939 15.108 15.9804C14.9142 16.067 14.7047 16.1126 14.4925 16.1146ZM11.4962 12.4029L14.1666 14.875C14.2638 14.9687 14.393 15.0218 14.5279 15.0237C14.6584 15.0204 14.7826 14.9672 14.875 14.875C14.9621 14.7776 15.0103 14.6515 15.0103 14.5208C15.0103 14.3901 14.9621 14.2641 14.875 14.1667L12.2612 11.7158L12.5446 11.3333C13.4764 10.085 13.8741 8.51761 13.6503 6.97603C13.4264 5.43444 12.5994 4.04491 11.351 3.11311C10.1027 2.18132 8.53531 1.78359 6.99372 2.00742C5.45214 2.23125 4.06261 3.05831 3.13081 4.30665C2.66985 4.92218 2.33507 5.62272 2.1457 6.36803C1.95634 7.11335 1.91612 7.88874 2.02736 8.64964C2.1386 9.41055 2.3991 10.142 2.79391 10.8019C3.18871 11.4618 3.71002 12.0372 4.3279 12.495C5.30784 13.2245 6.49091 13.6302 7.71232 13.6556C8.93373 13.681 10.1326 13.3248 11.1421 12.6367L11.4962 12.4029ZM7.79165 12.8067C7.12655 12.8067 6.46798 12.6757 5.85351 12.4211C5.23905 12.1666 4.68073 11.7936 4.21044 11.3233C3.74015 10.853 3.3671 10.2947 3.11258 9.6802C2.85806 9.06574 2.72706 8.40716 2.72706 7.74207C2.72706 7.07698 2.85806 6.4184 3.11258 5.80394C3.3671 5.18947 3.74015 4.63116 4.21044 4.16087C4.68073 3.69058 5.23905 3.31752 5.85351 3.063C6.46798 2.80849 7.12655 2.67749 7.79165 2.67749C8.45674 2.67749 9.11531 2.80849 9.72978 3.063C10.3442 3.31752 10.9026 3.69058 11.3728 4.16087C11.8431 4.63116 12.2162 5.18947 12.4707 5.80394C12.7252 6.4184 12.8562 7.07698 12.8562 7.74207C12.8562 8.40716 12.7252 9.06574 12.4707 9.6802C12.2162 10.2947 11.8431 10.853 11.3728 11.3233C10.9026 11.7936 10.3442 12.1666 9.72978 12.4211C9.11531 12.6757 8.45674 12.8067 7.79165 12.8067ZM7.79165 3.73999C6.73023 3.73999 5.71228 4.16163 4.96174 4.91217C4.21121 5.66271 3.78956 6.68065 3.78956 7.74207C3.78956 8.80349 4.21121 9.82143 4.96174 10.572C5.71228 11.3225 6.73023 11.7442 7.79165 11.7442C8.85306 11.7442 9.87101 11.3225 10.6215 10.572C11.3721 9.82143 11.7937 8.80349 11.7937 7.74207C11.7937 6.68065 11.3721 5.66271 10.6215 4.91217C9.87101 4.16163 8.85306 3.73999 7.79165 3.73999Z" fill="#969AA8"/>
</g>
<defs>
<clipPath id="clip0_662_4916">
<rect width="17" height="17" fill="white"/>
</clipPath>
</defs>
</svg>
