<svg width="24" height="24" viewBox="0 0 24 24" fill="none" xmlns="http://www.w3.org/2000/svg">
<path d="M18.9999 8H16.9999V11H13.9999V13H16.9999V16H18.9999V13H21.9999V11H18.9999V8ZM3.99994 8C3.99994 10.28 5.71994 12 7.99994 12C10.2799 12 11.9999 10.28 11.9999 8C11.9999 5.72 10.2799 4 7.99994 4C5.71994 4 3.99994 5.72 3.99994 8ZM9.99994 8C9.99994 9.178 9.17794 10 7.99994 10C6.82194 10 5.99994 9.178 5.99994 8C5.99994 6.822 6.82194 6 7.99994 6C9.17794 6 9.99994 6.822 9.99994 8ZM3.99994 18C3.99994 16.346 5.34594 15 6.99994 15H8.99994C10.6539 15 11.9999 16.346 11.9999 18V19H13.9999V18C13.9999 15.243 11.7569 13 8.99994 13H6.99994C4.24294 13 1.99994 15.243 1.99994 18V19H3.99994V18Z" fill="#2F80ED"/>
</svg>
