<svg width="20" height="20" viewBox="0 0 20 20" fill="none" xmlns="http://www.w3.org/2000/svg">
<path d="M9.90823 14.3667C9.79856 14.3673 9.68984 14.3463 9.58831 14.3048C9.48678 14.2633 9.39443 14.2022 9.31657 14.125L4.31657 9.125C4.23846 9.04753 4.17646 8.95536 4.13416 8.85382C4.09185 8.75227 4.07007 8.64334 4.07007 8.53333C4.07007 8.42332 4.09185 8.3144 4.13416 8.21285C4.17646 8.1113 4.23846 8.01914 4.31657 7.94167C4.4727 7.78646 4.68391 7.69934 4.90407 7.69934C5.12422 7.69934 5.33543 7.78646 5.49157 7.94167L9.90823 12.3583L14.3166 7.94167C14.4727 7.78646 14.6839 7.69934 14.9041 7.69934C15.1242 7.69934 15.3354 7.78646 15.4916 7.94167C15.5697 8.01914 15.6317 8.1113 15.674 8.21285C15.7163 8.3144 15.7381 8.42332 15.7381 8.53333C15.7381 8.64334 15.7163 8.75227 15.674 8.85382C15.6317 8.95536 15.5697 9.04753 15.4916 9.125L10.4916 14.125C10.3364 14.279 10.1269 14.3657 9.90823 14.3667Z" fill="#022150"/>
</svg>
