<svg width="30" height="27" viewBox="0 0 30 27" fill="none" xmlns="http://www.w3.org/2000/svg">
<path d="M0.517546 9.41962L0.517633 9.41962L0.517626 9.41013C0.516092 7.45465 1.16234 5.55374 2.35541 4.0044C3.54848 2.45505 5.22115 1.34454 7.11211 0.846372L7.11379 0.845922C8.3832 0.506903 9.70929 0.435867 11.0076 0.637337C12.2967 0.837361 13.5304 1.30164 14.6313 2.00094C14.7394 2.08258 14.8716 2.12734 15.0082 2.12734C15.1452 2.12734 15.2778 2.08234 15.386 2.00026C16.5837 1.23426 17.9394 0.749095 19.3514 0.581262C20.7721 0.412402 22.2126 0.569197 23.5636 1.03975C25.2795 1.65164 26.7669 2.77441 27.8255 4.25699C28.8831 5.7381 29.4622 7.50731 29.485 9.327C29.3899 14.8054 26.8683 18.6982 23.9706 21.3838C21.063 24.0788 17.7886 25.5444 16.2554 26.1362L16.2536 26.1369C15.8849 26.2807 15.4934 26.357 15.0977 26.3621C14.6318 26.3554 14.1721 26.2543 13.7463 26.065C12.1645 25.3415 8.79628 23.6148 5.85207 20.8369C2.90801 18.0591 0.43191 14.2745 0.517546 9.41962ZM9.58098 1.56011C8.84163 1.56157 8.10526 1.65439 7.3886 1.83648L7.38859 1.83647L7.38619 1.8371C5.70058 2.27404 4.20851 3.25995 3.14553 4.63917C2.08365 6.01696 1.51039 7.70884 1.51597 9.44824C1.43909 14.0711 3.9013 17.6685 6.69441 20.25C9.48898 22.8328 12.6675 24.4503 14.1579 25.1259L14.1612 25.1273C14.4429 25.2527 14.7478 25.3174 15.0562 25.3174C15.3593 25.3174 15.659 25.2549 15.9366 25.1337C17.393 24.5837 20.4695 23.2156 23.214 20.7023C25.9752 18.1737 28.4152 14.4694 28.5004 9.28189L28.5005 9.27206L28.5003 9.26223C28.4656 7.66464 27.9484 6.11493 27.0166 4.81674C26.0849 3.51855 24.7821 2.53262 23.2797 1.98851L23.2797 1.98845L23.2723 1.98591C22.0691 1.57065 20.7877 1.43245 19.5237 1.58161C18.2596 1.73077 17.0456 2.16344 15.9721 2.84734L15.9721 2.84731L15.9668 2.85072C15.6982 3.02648 15.3841 3.12009 15.0631 3.12009C14.742 3.12009 14.4279 3.02648 14.1593 2.85072L14.1593 2.85068L14.1535 2.84697C12.7881 1.97964 11.1982 1.53221 9.58098 1.56011Z" fill="#4B39EF" stroke="#4B39EF"/>
</svg>
