<svg width="16" height="16" viewBox="0 0 16 16" fill="none" xmlns="http://www.w3.org/2000/svg">
<path d="M4.99933 7.33325C5.55161 7.33325 5.99933 6.88554 5.99933 6.33325C5.99933 5.78097 5.55161 5.33325 4.99933 5.33325C4.44704 5.33325 3.99933 5.78097 3.99933 6.33325C3.99933 6.88554 4.44704 7.33325 4.99933 7.33325Z" fill="#4F5E7B"/>
<path d="M6.99933 9.33342L5.99933 8.00008L3.99933 10.6667H11.9993L8.99933 6.66675L6.99933 9.33342Z" fill="#4F5E7B"/>
<path d="M13.3326 2.66675H2.66597C1.93064 2.66675 1.33264 3.26475 1.33264 4.00008V12.0001C1.33264 12.7354 1.93064 13.3334 2.66597 13.3334H13.3326C14.068 13.3334 14.666 12.7354 14.666 12.0001V4.00008C14.666 3.26475 14.068 2.66675 13.3326 2.66675ZM2.66597 12.0001V4.00008H13.3326L13.334 12.0001H2.66597Z" fill="#4F5E7B"/>
</svg>
