<svg width="20" height="20" viewBox="0 0 20 20" fill="none" xmlns="http://www.w3.org/2000/svg">
<path d="M2.5 7.50001C2.5 7.05798 2.67559 6.63406 2.98816 6.3215C3.30072 6.00894 3.72464 5.83334 4.16667 5.83334H4.94167C5.21599 5.83338 5.48608 5.76571 5.72797 5.63634C5.96987 5.50696 6.17609 5.31987 6.32833 5.09168L7.005 4.07501C7.15725 3.84682 7.36347 3.65973 7.60536 3.53035C7.84726 3.40097 8.11735 3.3333 8.39167 3.33334H11.6083C11.8827 3.3333 12.1527 3.40097 12.3946 3.53035C12.6365 3.65973 12.8428 3.84682 12.995 4.07501L13.6717 5.09168C13.8239 5.31987 14.0301 5.50696 14.272 5.63634C14.5139 5.76571 14.784 5.83338 15.0583 5.83334H15.8333C16.2754 5.83334 16.6993 6.00894 17.0118 6.3215C17.3244 6.63406 17.5 7.05798 17.5 7.50001V15C17.5 15.442 17.3244 15.866 17.0118 16.1785C16.6993 16.4911 16.2754 16.6667 15.8333 16.6667H4.16667C3.72464 16.6667 3.30072 16.4911 2.98816 16.1785C2.67559 15.866 2.5 15.442 2.5 15V7.50001Z" stroke="white" stroke-width="1.4" stroke-linecap="round" stroke-linejoin="round"/>
<path d="M12.5 10.8333C12.5 11.4964 12.2366 12.1323 11.7678 12.6011C11.2989 13.07 10.663 13.3333 10 13.3333C9.33696 13.3333 8.70107 13.07 8.23223 12.6011C7.76339 12.1323 7.5 11.4964 7.5 10.8333C7.5 10.1703 7.76339 9.53442 8.23223 9.06558C8.70107 8.59674 9.33696 8.33334 10 8.33334C10.663 8.33334 11.2989 8.59674 11.7678 9.06558C12.2366 9.53442 12.5 10.1703 12.5 10.8333V10.8333Z" stroke="white" stroke-width="2" stroke-linecap="round" stroke-linejoin="round"/>
</svg>
