<svg width="24" height="24" viewBox="0 0 24 24" fill="none" xmlns="http://www.w3.org/2000/svg">
<path d="M11.9999 13.46C12.74 13.46 13.3399 12.8601 13.3399 12.12C13.3399 11.38 12.74 10.78 11.9999 10.78C11.2599 10.78 10.6599 11.38 10.6599 12.12C10.6599 12.8601 11.2599 13.46 11.9999 13.46Z" fill="white"/>
<path d="M11.9999 8.44001C12.74 8.44001 13.3399 7.84007 13.3399 7.10001C13.3399 6.35995 12.74 5.76001 11.9999 5.76001C11.2599 5.76001 10.6599 6.35995 10.6599 7.10001C10.6599 7.84007 11.2599 8.44001 11.9999 8.44001Z" fill="white"/>
<path d="M11.9999 18.47C12.74 18.47 13.3399 17.8701 13.3399 17.13C13.3399 16.39 12.74 15.79 11.9999 15.79C11.2599 15.79 10.6599 16.39 10.6599 17.13C10.6599 17.8701 11.2599 18.47 11.9999 18.47Z" fill="white"/>
</svg>
