<svg width="24" height="21" viewBox="0 0 24 21" fill="none" xmlns="http://www.w3.org/2000/svg">
<mask id="path-1-inside-1_0_89" fill="white">
<path fill-rule="evenodd" clip-rule="evenodd" d="M1.85469 10.9303L11.8376 21L20.927 11.9897L20.8897 11.952L21.863 10.9792C24.3749 8.46828 24.3758 4.39647 21.8649 1.88452C19.354 -0.627424 15.2822 -0.628288 12.7703 1.88259L11.8344 2.81803L10.9441 1.91994C8.45587 -0.589928 4.40402 -0.607551 1.89405 1.88058C-0.615919 4.36871 -0.633543 8.42039 1.85469 10.9303Z"/>
</mask>
<path d="M11.8376 21L10.3743 22.4507L11.825 23.914L13.2883 22.4634L11.8376 21ZM1.85469 10.9303L3.31803 9.47954L1.85469 10.9303ZM20.927 11.9897L22.3777 13.4531L23.8412 12.0024L22.3904 10.539L20.927 11.9897ZM20.8897 11.952L19.433 10.4947L17.9816 11.9454L19.4264 13.4027L20.8897 11.952ZM21.863 10.9792L23.3197 12.4365L21.863 10.9792ZM12.7703 1.88259L14.227 3.33994L12.7703 1.88259ZM11.8344 2.81803L10.3711 4.26875L11.8278 5.73812L13.2912 4.27538L11.8344 2.81803ZM10.9441 1.91994L12.4074 0.469221L10.9441 1.91994ZM1.89405 1.88058L3.34471 3.34398L1.89405 1.88058ZM13.301 19.5493L3.31803 9.47954L0.391356 12.381L10.3743 22.4507L13.301 19.5493ZM19.4764 10.5263L10.387 19.5366L13.2883 22.4634L22.3777 13.4531L19.4764 10.5263ZM19.4264 13.4027L19.4637 13.4404L22.3904 10.539L22.353 10.5013L19.4264 13.4027ZM20.4063 9.52181L19.433 10.4947L22.3464 13.4094L23.3197 12.4365L20.4063 9.52181ZM20.4076 3.34126C22.1139 5.04833 22.1133 7.81546 20.4063 9.52181L23.3197 12.4365C26.6365 9.1211 26.6377 3.74461 23.3223 0.427791L20.4076 3.34126ZM14.227 3.33994C15.9341 1.63359 18.7012 1.63418 20.4076 3.34126L23.3223 0.427791C20.0069 -2.88903 14.6304 -2.89017 11.3136 0.42524L14.227 3.33994ZM13.2912 4.27538L14.227 3.33994L11.3136 0.42524L10.3777 1.36068L13.2912 4.27538ZM9.48077 3.37066L10.3711 4.26875L13.2978 1.36731L12.4074 0.469221L9.48077 3.37066ZM3.34471 3.34398C5.0465 1.657 7.79372 1.66895 9.48077 3.37066L12.4074 0.469221C9.11802 -2.8488 3.76155 -2.8721 0.443391 0.417186L3.34471 3.34398ZM3.31803 9.47954C1.63103 7.77787 1.64298 5.03091 3.34471 3.34398L0.443391 0.417186C-2.87481 3.70652 -2.89811 9.06291 0.391356 12.381L3.31803 9.47954Z" fill="black" mask="url(#path-1-inside-1_0_89)"/>
</svg>
