<svg width="19" height="19" viewBox="0 0 19 19" fill="none" xmlns="http://www.w3.org/2000/svg">
<path d="M15.0416 7.59233C15.0412 7.69707 15.02 7.80069 14.9792 7.89717C14.9384 7.99366 14.8789 8.08109 14.8041 8.15441L10.0937 12.8411C9.94538 12.9885 9.74473 13.0713 9.53558 13.0713C9.32643 13.0713 9.12578 12.9885 8.97745 12.8411L4.28287 8.15441C4.1338 8.00534 4.05005 7.80315 4.05005 7.59233C4.05005 7.38151 4.1338 7.17932 4.28287 7.03024C4.43194 6.88117 4.63413 6.79742 4.84495 6.79742C5.05578 6.79742 5.25796 6.88117 5.40704 7.03024L9.49995 11.1627L13.6325 7.03024C13.7383 6.89663 13.8843 6.80073 14.049 6.75679C14.2137 6.71285 14.3881 6.72322 14.5464 6.78636C14.7047 6.8495 14.8384 6.96204 14.9276 7.10725C15.0169 7.25246 15.0568 7.42258 15.0416 7.59233Z" fill="#4B39EF"/>
</svg>
