<svg width="25" height="31" viewBox="0 0 25 31" fill="none" xmlns="http://www.w3.org/2000/svg">
<path d="M1.12753 24.8761H2.25213C2.25213 24.8677 2.25203 24.8594 2.25185 24.8511L1.12753 24.8761ZM12.5 13.2479V14.3725V13.2479ZM23.8725 24.8761L22.7482 24.8511C22.748 24.8587 22.7479 24.8664 22.7479 24.8741L23.8725 24.8761ZM2.25185 24.8511C2.22149 23.4861 2.46414 22.1288 2.96552 20.8589L0.873473 20.0329C0.262083 21.5815 -0.0338043 23.2366 0.00320953 24.9011L2.25185 24.8511ZM2.96552 20.8589C3.4669 19.5889 4.21691 18.432 5.17154 17.4559L3.56354 15.8832C2.39943 17.0735 1.48486 18.4843 0.873473 20.0329L2.96552 20.8589ZM5.17154 17.4559C6.12618 16.4798 7.26618 15.7042 8.52465 15.1747L7.65238 13.1016C6.11778 13.7472 4.72764 14.693 3.56354 15.8832L5.17154 17.4559ZM8.52465 15.1747C9.78311 14.6452 11.1347 14.3725 12.5 14.3725V12.1233C10.8351 12.1233 9.18698 12.4559 7.65238 13.1016L8.52465 15.1747ZM12.5 14.3725C13.8653 14.3725 15.2169 14.6452 16.4754 15.1747L17.3476 13.1016C15.813 12.4559 14.1649 12.1233 12.5 12.1233V14.3725ZM16.4754 15.1747C17.7338 15.7042 18.8738 16.4798 19.8285 17.4559L21.4365 15.8832C20.2724 14.693 18.8822 13.7472 17.3476 13.1016L16.4754 15.1747ZM19.8285 17.4559C20.7831 18.432 21.5332 19.589 22.0346 20.8589L24.1266 20.0329C23.5152 18.4843 22.6006 17.0735 21.4365 15.8832L19.8285 17.4559ZM22.0346 20.8589C22.5359 22.1288 22.7785 23.4861 22.7482 24.8511L24.9968 24.9011C25.0338 23.2366 24.738 21.5815 24.1266 20.0329L22.0346 20.8589ZM22.7479 24.8741C22.7472 25.2808 22.5743 25.6896 22.1193 26.1199C21.6473 26.5662 20.9119 26.9906 19.9254 27.3537C17.9563 28.0785 15.2554 28.4621 12.4958 28.4621C9.73615 28.4621 7.03606 28.0785 5.06855 27.3538C4.08281 26.9907 3.34855 26.5665 2.87776 26.1205C2.42406 25.6908 2.25213 25.2826 2.25213 24.8761H0.00293169C0.00293169 26.0398 0.54143 27.0056 1.33102 27.7535C2.10352 28.4852 3.14542 29.0423 4.29114 29.4644C6.58655 30.3099 9.57059 30.7113 12.4958 30.7113C15.421 30.7113 18.4056 30.3098 20.7023 29.4644C21.8487 29.0425 22.8912 28.4855 23.6646 27.7541C24.455 27.0068 24.995 26.0416 24.9971 24.8781L22.7479 24.8741ZM15.9329 5.69046C15.9329 7.59102 14.3921 9.13172 12.4916 9.13172V11.3809C15.6343 11.3809 18.182 8.83321 18.182 5.69046H15.9329ZM12.4916 9.13172C10.591 9.13172 9.05032 7.59102 9.05032 5.69046H6.80112C6.80112 8.83321 9.34883 11.3809 12.4916 11.3809V9.13172ZM9.05032 5.69046C9.05032 3.7899 10.591 2.24919 12.4916 2.24919V-3.49872e-06C9.34883 -3.49872e-06 6.80112 2.5477 6.80112 5.69046H9.05032ZM12.4916 2.24919C14.3921 2.24919 15.9329 3.7899 15.9329 5.69046H18.182C18.182 2.5477 15.6343 -3.49872e-06 12.4916 -3.49872e-06V2.24919Z" fill="#4B39EF"/>
</svg>
