<svg width="152" height="152" viewBox="0 0 152 152" fill="none" xmlns="http://www.w3.org/2000/svg">
<path d="M142.056 76C142.056 112.482 112.482 142.056 76 142.056V152C117.974 152 152 117.974 152 76H142.056ZM76 142.056C39.5182 142.056 9.9439 112.482 9.9439 76H-2.95756e-05C-2.95756e-05 117.974 34.0263 152 76 152V142.056ZM9.9439 76C9.9439 39.5182 39.5182 9.9439 76 9.9439V-2.95756e-05C34.0263 -2.95756e-05 -2.95756e-05 34.0263 -2.95756e-05 76H9.9439ZM76 9.9439C112.482 9.9439 142.056 39.5182 142.056 76H152C152 34.0263 117.974 -2.95756e-05 76 -2.95756e-05V9.9439Z" fill="white"/>
<circle cx="45.4579" cy="75.2898" r="9.23365" fill="white"/>
</svg>
