<svg width="175" height="96" viewBox="0 0 175 96" fill="none" xmlns="http://www.w3.org/2000/svg">
<path d="M14.8107 47.6725C13.945 48.2021 13.034 48.6539 12.0885 49.0226C9.47581 49.8473 7.70969 48.2564 8.14757 45.5488C8.55676 42.54 9.25575 39.5778 10.2348 36.7035C11.2857 33.9084 11.0522 30.7556 9.07442 29.6463C6.88501 28.4276 4.92183 27.0045 2.50618 26.1652C1.72071 25.9608 1.03616 25.4781 0.57977 24.807C0.123379 24.1358 -0.0738115 23.3218 0.0248483 22.5162C0.294876 20.5822 1.92234 20.2027 3.49142 19.7721C5.86328 19.1153 9.07442 19.9692 10.4683 17.7579C11.7601 15.6998 10.6727 5.30739 10.7822 2.79686C10.7449 2.1913 10.9166 1.59127 11.2687 1.09712C11.6207 0.602972 12.1316 0.244621 12.7161 0.0819704C13.8984 -0.239143 14.7669 0.432296 15.4894 1.24238C17.1023 3.05229 19.8098 6.25613 21.1454 7.81062C21.8791 8.72222 22.8876 9.37239 24.0208 9.6643C24.4589 9.8013 24.9232 9.83308 25.3759 9.757C25.8286 9.68091 26.2569 9.49913 26.6262 9.22644C28.8667 7.38733 30.7131 5.10305 33.3915 3.76021C37.3908 1.74595 39.011 2.68008 38.865 7.24865C38.7702 10.2919 38.5293 13.3352 38.2228 16.3639C38.0112 18.4949 38.7337 19.8013 41.0107 20.5676C44.064 21.6814 47.0345 23.0105 49.8997 24.545C51.2644 25.231 53.1546 26.0046 52.943 27.9386C52.6948 30.2083 50.5273 30.128 48.929 30.4272C45.5745 31.1772 42.149 31.5638 38.7118 31.5803C36.5734 31.5803 35.7926 32.5072 36.0115 34.879C36.4662 39.1545 36.5784 43.4594 36.3472 47.7528C36.384 48.2565 36.2528 48.7582 35.9742 49.1794C35.6956 49.6006 35.2852 49.9176 34.8073 50.0809C33.4718 50.5552 32.4792 49.789 31.6254 48.957C28.9543 46.3662 26.3343 43.717 23.6997 41.097C23.6217 41.0195 23.5246 40.9639 23.4183 40.9357C23.312 40.9075 23.2001 40.9078 23.094 40.9364C19.3793 42.0165 17.6569 45.5342 14.8107 47.6725Z" fill="#FFE159"/>
<path d="M161.91 14.3276C161.29 13.5978 160.699 12.868 160.013 12.2404C159.425 11.5687 158.669 11.065 157.823 10.7808C156.763 10.4943 155.682 10.2942 154.59 10.1823C151.328 9.94215 148.05 10.0204 144.803 10.4159C136.163 11.4011 127.573 12.7877 118.925 13.6708C117.158 13.8532 115.414 14.1379 113.641 14.2692C111.517 14.4225 109.401 14.7509 107.284 14.999C103.102 15.4223 98.9644 16.1521 94.7753 16.5097C92.2721 16.7287 89.7835 17.1009 87.2802 17.3709C82.7992 17.8599 78.3328 18.5021 73.8591 19.1005C71.1248 19.4654 68.3832 19.789 65.6342 20.0712C61.1678 20.5309 56.7379 21.2972 52.2642 21.7205C48.3525 22.0927 44.4772 22.7569 40.5874 23.4648C38.3177 23.8808 36.0334 24.1946 33.7564 24.6471C32.0195 24.9682 30.2971 25.3769 28.5821 25.7929C26.427 26.3978 24.3094 27.1289 22.2401 27.9823C21.2909 28.2751 20.4503 28.8436 19.8252 29.6156C19.2001 30.3875 18.8188 31.328 18.7297 32.3173C18.4151 34.5346 18.3734 36.7821 18.6057 39.0096C18.8903 41.9288 19.0362 44.848 19.4376 47.7672C19.8682 50.8324 20.3426 53.8903 20.8972 56.9336C21.3278 59.32 21.7 61.7138 22.0357 64.1149C22.2109 65.4066 22.4152 66.6911 22.6342 67.9755C23.0137 70.2014 23.437 72.4273 23.9478 74.6313C24.4149 76.6091 24.8017 78.6161 25.3271 80.5792C25.9402 82.8781 26.2978 85.2281 26.8889 87.527C27.1079 88.3735 27.2976 89.2347 27.5385 90.074L28.1369 91.7672C28.4407 92.5469 28.9447 93.2328 29.5982 93.7556C30.2517 94.2784 31.0315 94.6196 31.8589 94.7447C33.1904 94.9612 34.55 94.9365 35.8728 94.6718C36.1156 94.6502 36.3598 94.6502 36.6026 94.6718C37.6973 94.6718 38.792 94.7593 39.8867 94.6718C42.806 94.4601 45.7252 94.2558 48.6444 93.8179C50.0383 93.6063 51.4541 93.4676 52.8481 93.2195C55.6505 92.7232 58.4311 92.0883 61.2554 91.7598C65.3058 91.2563 69.3635 90.7308 73.4212 90.2418C80.0406 89.4391 86.6745 88.7312 93.2281 87.4321C95.2862 87.0234 97.3734 86.7023 99.4534 86.3374C101.533 85.9725 103.774 85.5638 105.941 85.2062C109.021 84.6953 112.115 84.2793 115.203 83.8342C116.45 83.659 117.698 83.5495 118.954 83.4328C121.946 83.1554 124.916 82.703 127.916 82.3673C131.287 82.0243 134.652 81.6375 138.016 81.2069C139.6 81.0171 141.184 80.7909 143.315 80.5136C147.256 80.1122 151.693 79.2583 156.166 78.6672C156.896 78.5796 157.56 78.346 158.261 78.2001C159.677 77.9081 160.947 77.1857 162.326 76.8208C163.629 76.3539 164.857 75.7026 165.975 74.8868C167.668 73.865 167.223 69.9533 167.194 68.8586C167.15 67.253 167.077 65.6401 167.019 64.0273C166.924 61.5021 166.807 58.9771 166.632 56.4519C166.457 53.9268 166.223 51.533 165.939 49.0882C165.574 45.9865 165.209 42.8922 164.975 39.7832C164.793 37.5938 164.566 35.4044 164.384 33.215C164.202 31.0255 164.129 29.0551 163.968 26.9824C163.764 24.4281 163.647 21.8738 163.275 19.3414C163.233 19.0073 163.214 18.6709 163.216 18.3342C163.28 16.8847 162.816 15.4612 161.91 14.3276Z" fill="#8ADEFF"/>
<path d="M118.355 29.0844C118.003 29.1256 117.646 29.0768 117.317 28.9426C116.988 28.8085 116.699 28.5933 116.476 28.3171C116.253 28.041 116.104 27.7128 116.042 27.3633C115.98 27.0139 116.008 26.6544 116.122 26.3184C116.335 25.7712 116.716 25.3058 117.211 24.9897C117.705 24.6735 118.288 24.5229 118.873 24.5596C119.403 24.6113 119.89 24.8709 120.228 25.2814C120.566 25.6919 120.727 26.2198 120.676 26.749C120.557 27.321 120.274 27.8461 119.862 28.2606C119.45 28.6751 118.927 28.9613 118.355 29.0844Z" fill="#3BA3F5"/>
<path d="M26.2249 37.1958C26.7921 37.1463 27.3564 37.3199 27.7978 37.6796C28.2393 38.0393 28.5232 38.5569 28.5894 39.1225C28.6653 39.7294 28.5143 40.343 28.1654 40.8454C27.8165 41.3478 27.2944 41.7036 26.6992 41.8446C26.4144 41.8811 26.1251 41.8601 25.8485 41.7828C25.5719 41.7054 25.3136 41.5734 25.0891 41.3944C24.8645 41.2154 24.6781 40.9931 24.541 40.7407C24.4039 40.4884 24.3188 40.2111 24.2909 39.9252C24.193 39.3078 24.3406 38.6767 24.702 38.1666C25.0634 37.6566 25.6099 37.3081 26.2249 37.1958Z" fill="#3BA3F5"/>
<path d="M153.089 20.4527C153.683 20.3708 154.287 20.4283 154.855 20.6206C155.09 20.6862 155.305 20.8071 155.484 20.9732C155.662 21.1393 155.798 21.3456 155.88 21.575C155.962 21.8044 155.988 22.0502 155.956 22.2917C155.924 22.5333 155.834 22.7635 155.694 22.9632C155.455 23.3713 155.143 23.7324 154.775 24.0288C154.546 24.2672 154.254 24.4366 153.934 24.5175C153.613 24.5984 153.276 24.5877 152.961 24.4865C152.646 24.3854 152.366 24.1979 152.153 23.9454C151.939 23.6929 151.801 23.3854 151.753 23.0581C151.6 22.4894 151.651 21.8847 151.899 21.3504C151.979 21.0951 152.136 20.8711 152.35 20.7101C152.563 20.549 152.822 20.459 153.089 20.4527Z" fill="#3BA3F5"/>
<path d="M90.5569 29.6025C90.265 29.5441 90.951 32.3757 91.1262 33.1566C91.3013 33.9375 91.513 34.7622 91.7465 35.5577C91.7912 35.6403 91.815 35.7326 91.8159 35.8266C91.8167 35.9206 91.7946 36.0133 91.7514 36.0968C91.7083 36.1802 91.6454 36.2519 91.5682 36.3054C91.491 36.359 91.4019 36.393 91.3086 36.4042C91.1262 36.4553 90.9364 36.4845 90.754 36.521C89.0608 36.8494 89.0973 36.8421 88.7251 35.2074C88.037 32.1298 87.5229 29.0159 87.1852 25.8805C87.045 24.952 86.8575 24.0312 86.6233 23.1218C86.4335 22.2241 86.5503 22.0855 87.448 21.9103L88.0026 21.8301C89.1776 21.6841 89.1265 21.7133 89.6885 22.8007C91.0592 25.6288 92.6096 28.3663 94.33 30.9964C94.5185 31.2916 94.7469 31.5592 95.0087 31.7919C95.2204 31.8357 95.1182 31.2226 95.0817 30.9599C94.7314 28.5077 93.8921 24.8514 93.5418 22.3993C93.3667 21.2024 93.4397 21.1221 94.5927 20.9397C96.2567 20.6624 96.2713 20.6697 96.4246 22.3555C96.6831 26.2906 97.2739 30.1968 98.1907 34.0324C98.194 34.0688 98.194 34.1055 98.1907 34.1419C98.4753 35.6015 98.4753 35.6525 96.9792 35.8131C95.0306 36.0247 95.3298 36.3167 93.8994 34.4922C92.9945 33.3464 92.3522 32.1203 91.0897 30.2301C91.0094 30.0914 90.7102 29.566 90.5569 29.6025Z" fill="#255FB7"/>
<path d="M107.394 28.3326L109.182 28.0918C109.284 28.0648 109.391 28.0605 109.495 28.0789C109.599 28.0973 109.698 28.1381 109.784 28.1985C109.871 28.2589 109.944 28.3374 109.997 28.4286C110.051 28.5198 110.084 28.6215 110.094 28.7267C110.529 30.44 110.643 32.2192 110.43 33.974C110.375 34.347 110.218 34.6976 109.976 34.9864C109.733 35.2751 109.415 35.4906 109.057 35.6087C107.644 36.2321 106.104 36.5122 104.562 36.4262C103.979 36.4012 103.411 36.2321 102.909 35.9341C102.407 35.6361 101.987 35.2184 101.686 34.7184C101.231 33.9815 100.905 33.1718 100.723 32.3246C100.129 29.9436 100.179 27.4474 100.869 25.0923C101.165 23.9294 101.816 22.8878 102.732 22.1121C103.647 21.3365 104.782 20.8655 105.978 20.7645C106.546 20.684 107.126 20.7389 107.67 20.9247C108.213 21.1105 108.705 21.4219 109.105 21.8337C109.506 22.2455 109.803 22.746 109.974 23.2945C110.144 23.8429 110.183 24.4239 110.087 24.9901C110.087 25.0933 110.066 25.1954 110.026 25.2906C109.987 25.3859 109.928 25.4723 109.855 25.5449C109.782 25.6175 109.695 25.6749 109.599 25.7137C109.504 25.7525 109.401 25.772 109.298 25.771L108.744 25.844C107.7 25.9681 107.7 25.968 107.284 24.9828C106.78 23.8005 105.868 23.567 105.022 24.5011C103.08 26.6468 102.475 29.1062 103.963 31.8503C104.094 32.1342 104.283 32.388 104.517 32.5954C104.751 32.8028 105.025 32.9595 105.323 33.0555C105.621 33.1515 105.935 33.1848 106.246 33.1532C106.557 33.1216 106.859 33.0258 107.131 32.872C107.378 32.656 107.537 32.3565 107.577 32.0307C107.618 31.705 107.537 31.3757 107.35 31.1059C107.292 31.0604 107.224 31.0289 107.152 31.0137C107.08 30.9985 107.005 31.0001 106.934 31.0183C106.708 31.0183 106.489 31.0913 106.262 31.1132C105.102 31.2372 104.803 31.0256 104.715 29.909C104.628 28.7924 104.715 28.6026 105.854 28.4494C106.379 28.3764 106.905 28.3545 107.43 28.3107L107.394 28.3326Z" fill="#255FB7"/>
<path d="M78.6392 25.7781C79.7777 25.6249 80.9162 25.4643 82.062 25.3257C83.0253 25.2089 83.2005 25.3257 83.434 26.2963C83.4974 26.5684 83.5462 26.8437 83.58 27.121C83.7187 28.1208 83.58 28.3324 82.5291 28.4711C82.1204 28.5295 81.6971 28.5441 81.2811 28.5806C80.3324 28.6463 80.3105 28.6535 80.4929 29.5512C80.7994 31.1276 81.1424 32.6894 81.4636 34.2584L81.7701 35.7181C81.9379 36.5062 81.9379 36.5063 82.6896 36.3676C83.0983 36.2873 83.5143 36.2216 83.923 36.1632C84.0172 36.1395 84.1155 36.1368 84.2109 36.1552C84.3063 36.1736 84.3965 36.2127 84.4752 36.2698C84.5538 36.3268 84.619 36.4005 84.6661 36.4855C84.7132 36.5705 84.741 36.6647 84.7477 36.7617L84.8353 37.1704C85.1637 39.0095 85.1637 38.9949 83.3756 39.3598C81.3958 39.7605 79.3919 40.0311 77.3767 40.1698C76.3111 40.2428 76.0995 40.0604 75.917 39.0022C75.8477 38.6236 75.8038 38.2408 75.7857 37.8564C75.7857 37.185 75.9389 36.9806 76.6177 36.9368C77.1086 36.9144 77.5969 36.851 78.0773 36.7471C78.5735 36.6376 78.6903 36.3676 78.5954 35.9224C78.4787 35.3021 78.3765 34.6817 78.2524 34.0687C77.9751 32.704 77.7051 31.3392 77.4058 29.9745C77.238 29.1936 77.2088 29.2009 76.4279 29.2885C74.7567 29.4709 74.7567 29.4709 74.4647 27.7851V27.6829C74.2239 26.3839 74.2312 26.4131 75.5813 26.1576C76.5812 25.9533 77.6029 25.9168 78.6392 25.7781Z" fill="#255FB7"/>
<path d="M130.886 16.6264C132.032 16.4804 133.17 16.3198 134.309 16.1812C135.279 16.0644 135.454 16.1812 135.681 17.1445C135.744 17.4166 135.793 17.6919 135.827 17.9692C135.973 18.969 135.827 19.1807 134.783 19.3194C134.367 19.3778 133.951 19.3996 133.535 19.4288C132.579 19.5018 132.564 19.5018 132.74 20.3995C133.053 21.9758 133.389 23.5376 133.718 25.1067C133.812 25.5884 133.922 26.0628 134.017 26.5663C134.185 27.3545 134.185 27.3545 134.936 27.2158C135.352 27.1355 135.761 27.0699 136.177 27.0115C136.271 26.989 136.368 26.9872 136.463 27.0061C136.557 27.0251 136.646 27.0645 136.724 27.1214C136.802 27.1784 136.866 27.2515 136.913 27.3359C136.96 27.4203 136.987 27.5138 136.994 27.6099C136.994 27.7486 137.06 27.8873 137.082 28.0186C137.418 29.865 137.41 29.8431 135.622 30.208C133.641 30.6128 131.634 30.8834 129.616 31.0181C128.558 31.0911 128.346 30.9087 128.156 29.8504C128.087 29.4743 128.044 29.0939 128.025 28.7119C128.025 28.0332 128.186 27.8289 128.857 27.7851C129.348 27.7631 129.836 27.6997 130.317 27.5953C130.813 27.4859 130.93 27.2158 130.842 26.7706C130.718 26.1503 130.616 25.5373 130.492 24.917C130.222 23.5522 129.952 22.1875 129.653 20.83C129.477 20.0418 129.455 20.0491 128.667 20.1002C126.996 20.2827 126.996 20.2827 126.704 18.5968C126.704 18.5968 126.704 18.5312 126.704 18.4947C126.456 17.2029 126.463 17.2248 127.813 16.9694C128.806 16.7869 129.857 16.7578 130.886 16.6264Z" fill="#255FB7"/>
<path d="M35.5516 40.7393C35.3983 41.2063 36.2814 45.0305 36.0478 45.1838C35.3739 45.5329 34.6144 45.6823 33.8584 45.6143C33.7331 45.6164 33.612 45.5695 33.5207 45.4837C33.4294 45.3978 33.3751 45.2797 33.3695 45.1546C33.3184 44.848 33.2746 44.5343 33.2308 44.2204L31.8661 33.8061C31.8223 33.4558 31.7785 33.0763 31.7128 32.7698C31.5085 31.6897 31.5304 31.6532 32.574 31.5L33.0994 31.4416C34.2963 31.3467 34.3985 31.4416 34.559 32.6311C34.6028 33.0836 34.6831 35.6452 34.8364 35.6817C34.9896 35.7182 36.8214 32.9303 37.1936 32.1421C38.1205 30.7701 38.3175 30.8796 38.9233 30.792L40.2369 30.6825C40.9156 30.646 41.0762 30.9088 40.7113 31.4853C40.0399 32.5509 39.3393 33.6018 38.646 34.6527C38.0475 35.5576 37.4564 36.4699 36.836 37.3603C36.7125 37.5069 36.6516 37.6964 36.6667 37.8876C36.6817 38.0788 36.7714 38.2564 36.9163 38.382C37.8578 39.3745 38.7846 40.3744 39.7115 41.3742C40.4654 42.1078 41.1293 42.9285 41.6892 43.819C41.9885 44.3518 41.9228 44.4758 41.3462 44.5488C40.9713 44.5882 40.5986 44.6467 40.2296 44.724C39.9264 44.8134 39.6025 44.8019 39.3063 44.6914C39.0102 44.5808 38.758 44.3771 38.5876 44.1109C37.9818 43.352 35.7778 40.5495 35.5516 40.7393Z" fill="#255FB7"/>
<path d="M43.4043 35.149C43.1561 33.0983 42.8496 31.2081 42.5212 29.3106C42.3388 28.2743 42.5212 28.0772 43.5356 27.9385C45.2336 27.7099 46.9365 27.4958 48.6443 27.2963C48.9208 27.2671 49.1997 27.2671 49.4762 27.2963C49.6152 27.3072 49.7466 27.364 49.8496 27.4579C49.9527 27.5517 50.0216 27.6771 50.0455 27.8144C50.6439 29.8506 50.4907 30.1133 48.418 30.3834C47.6225 30.4928 46.827 30.6023 46.0316 30.6899C45.5499 30.7337 45.3455 30.9234 45.4769 31.4197C45.6061 31.9268 45.706 32.441 45.7761 32.9596C45.8418 33.4048 46.0753 33.5361 46.5059 33.4632C47.0606 33.3756 47.6152 33.3318 48.1699 33.2515C48.2507 33.2324 48.3345 33.2304 48.4161 33.2454C48.4978 33.2605 48.5754 33.2923 48.644 33.339C48.7126 33.3857 48.7708 33.4462 48.8148 33.5165C48.8588 33.5869 48.8877 33.6656 48.8997 33.7478C49.5346 35.7547 49.3887 35.5723 47.7393 35.7839C46.2797 35.981 46.2797 35.9809 46.5278 37.4333C46.776 38.8856 46.7906 38.8929 48.2502 38.601L50.4396 38.1704C51.1037 38.0463 51.2861 38.1704 51.4832 38.8418C52.0597 40.8926 51.9795 41.0312 49.8849 41.3669C48.5421 41.5859 47.1919 41.7756 45.8491 41.98C44.8201 42.1405 44.6814 42.0675 44.4917 41.0677C44.0976 39.0607 43.74 37.0319 43.4043 35.149Z" fill="#255FB7"/>
<path d="M54.0594 35.6894C53.8112 33.6459 53.512 31.7484 53.1763 29.8509C53.0011 28.8146 53.1763 28.6176 54.198 28.4789C55.8912 28.26 57.594 28.0483 59.3066 27.844C59.583 27.8111 59.8623 27.8111 60.1386 27.844C60.2763 27.8584 60.4059 27.9164 60.5083 28.0096C60.6107 28.1028 60.6806 28.2263 60.7079 28.3621C61.3063 30.3983 61.1457 30.661 59.0804 30.9383C58.2849 31.0405 57.4894 31.1573 56.6866 31.2375C56.205 31.2886 56.0006 31.4711 56.1393 31.9673C56.2649 32.4753 56.3648 32.9892 56.4385 33.5073C56.5042 33.9524 56.7304 34.0838 57.1683 34.0108C57.7157 33.9232 58.2776 33.8794 58.825 33.7992C58.9086 33.7754 58.9963 33.7697 59.0823 33.7824C59.1682 33.7951 59.2505 33.8259 59.3237 33.8728C59.3968 33.9198 59.4592 33.9817 59.5066 34.0546C59.554 34.1274 59.5853 34.2095 59.5986 34.2954C60.2262 36.3097 60.0802 36.1199 58.4309 36.3389C56.9713 36.5286 56.9713 36.5286 57.2194 37.9809C57.4675 39.4332 57.4894 39.4405 58.949 39.1486L61.1384 38.718C61.8099 38.594 61.9923 38.7181 62.1821 39.3895C62.7659 41.4475 62.6783 41.5789 60.5838 41.9219C59.241 42.1335 57.8908 42.3233 56.548 42.5349C55.519 42.6882 55.3876 42.6225 55.1978 41.6154C54.76 39.6449 54.4024 37.5796 54.0594 35.6894Z" fill="#255FB7"/>
<path d="M66.2545 24.6838C67.1863 24.4849 68.1478 24.4675 69.0862 24.6328C71.2026 25.0633 72.0638 26.2529 71.874 28.3986C71.677 30.6829 70.6188 32.2957 68.3418 32.9306C68.2228 32.941 68.1078 32.9787 68.0058 33.041C67.9039 33.1032 67.8177 33.1882 67.7541 33.2892C67.6905 33.3903 67.6511 33.5048 67.6391 33.6236C67.6271 33.7425 67.6428 33.8625 67.685 33.9742C67.9696 35.5579 68.2104 37.1562 68.4148 38.7472C68.568 39.7105 68.5607 39.7105 67.5536 39.8492C65.678 40.0973 65.6488 40.0827 65.3131 38.2217C64.5833 34.2005 63.9411 30.1939 63.1237 26.1726C62.9704 25.4428 63.0288 25.348 63.7586 25.1582C64.5734 24.9202 65.4092 24.7613 66.2545 24.6838ZM66.5684 30.2012C66.6121 30.5223 66.8019 30.6099 67.1157 30.6099C67.468 30.5809 67.8104 30.4786 68.1208 30.3094C68.4311 30.1401 68.7026 29.9078 68.9178 29.6274C69.133 29.3469 69.287 29.0245 69.3701 28.6808C69.4531 28.3372 69.4633 27.98 69.4 27.6322C69.3545 27.4129 69.2524 27.2093 69.1039 27.0416C68.9554 26.8739 68.7656 26.7479 68.5534 26.6762C68.1923 26.5652 67.8126 26.5273 67.4366 26.5649C67.0607 26.6025 66.696 26.7148 66.364 26.8952C65.8021 27.1798 66.4954 29.683 66.5684 30.2012Z" fill="#255FB7"/>
<path d="M142.753 25.596C142.475 23.9758 142.278 22.3411 141.928 20.7282C141.709 19.6919 141.68 19.6554 140.665 19.7649C140.023 19.8305 139.374 19.9181 138.731 20.0276C138.641 20.0589 138.543 20.0681 138.448 20.0544C138.353 20.0407 138.263 20.0045 138.184 19.9489C138.106 19.8933 138.042 19.8198 137.997 19.7345C137.953 19.6492 137.929 19.5545 137.929 19.4584C137.929 19.3781 137.929 19.3051 137.892 19.2321C137.549 17.3419 137.557 17.3784 139.425 17.1595C141.746 16.8821 144.052 16.5245 146.365 16.2253C146.781 16.1742 147.343 15.875 147.606 16.415C147.968 17.0523 148.078 17.8026 147.912 18.5169C147.818 18.8161 147.504 18.8234 147.241 18.8745C146.599 18.9839 145.964 19.1153 145.322 19.2029C144.679 19.2905 144.636 19.5678 144.752 20.0787C144.979 21.1296 145.117 22.1951 145.395 23.2241C145.895 25.5016 146.258 27.8071 146.482 30.1281C146.621 31.1352 146.526 31.2228 145.489 31.3615C143.41 31.6461 143.665 31.7118 143.3 29.7997C143.067 28.413 142.935 26.9972 142.753 25.596Z" fill="#255FB7"/>
<path d="M91.9072 43.5269L28.3194 52.467C27.1809 52.6275 26.0424 52.7297 24.9039 52.861C24.5901 52.861 24.2763 52.861 24.2398 52.4961C24.2033 52.1312 24.4733 52.051 24.7579 51.9999C25.3126 51.8977 25.8599 51.7809 26.4146 51.6934C40.3539 49.6061 54.3077 47.6867 68.2616 45.6944L109.313 39.8559L146.358 34.5941L158.319 32.8936C158.495 32.8598 158.673 32.8402 158.852 32.8352C158.989 32.8243 159.126 32.8656 159.234 32.9508C159.342 33.0361 159.414 33.1589 159.436 33.295C159.456 33.3659 159.461 33.4401 159.452 33.5132C159.443 33.5862 159.419 33.6568 159.383 33.7206C159.346 33.7845 159.297 33.8404 159.239 33.8851C159.18 33.9298 159.113 33.9624 159.042 33.981C158.824 34.037 158.602 34.0784 158.378 34.1051L123.595 39.0094L91.9072 43.5049V43.5269Z" fill="#D4FFFF"/>
<path d="M99.0009 81.0247C78.8291 83.7907 58.6646 86.6296 38.4636 89.235C37.0843 89.4175 35.6976 89.5707 34.3183 89.7386C34.2285 89.7458 34.1382 89.7458 34.0483 89.7386C33.7418 89.6948 33.2674 89.9356 33.2017 89.4539C33.136 88.9723 33.6323 89.0307 33.9315 88.9796C39.8283 87.987 45.7543 87.2061 51.6804 86.3961C86.4628 81.6329 121.25 76.877 156.042 72.1284C158.582 71.7854 161.115 71.3986 163.662 71.1358L164.063 71.0921C164.198 71.0711 164.337 71.1046 164.447 71.1853C164.558 71.266 164.632 71.3873 164.654 71.5226C164.673 71.5944 164.677 71.6694 164.665 71.7427C164.653 71.816 164.625 71.8858 164.583 71.9474C164.542 72.009 164.488 72.061 164.424 72.0998C164.361 72.1385 164.29 72.1632 164.216 72.1722C163.932 72.2356 163.644 72.2843 163.355 72.3181C151.109 73.9967 138.863 75.6752 126.617 77.3538C117.407 78.6164 108.204 79.784 99.0009 81.0247Z" fill="#D4FFFF"/>
<path d="M80.3762 77.8427C78.4714 78.0763 77.8145 77.4705 77.6905 75.5657C77.6175 74.3178 77.4788 73.0698 77.4278 71.8218C77.3767 70.5739 77.6905 70.3622 78.8217 70.2966C80.4418 70.209 82.062 70.1214 83.6822 70.1141C86.1287 70.0375 88.567 69.7937 90.9802 69.3843L91.1992 69.3478C91.7903 69.231 92.3814 69.107 92.4909 68.3699C92.6004 67.6328 92.2355 67.173 91.2357 66.8446C90.0967 66.5224 88.9159 66.3724 87.7326 66.3994C85.9665 66.3483 84.1857 66.3191 82.4269 66.3994C78.7779 66.5819 76.1944 63.8232 75.4427 60.7799C75.0808 59.265 75.0519 57.6897 75.3581 56.1626C75.6643 54.6355 76.2982 53.193 77.2161 51.9347C77.553 51.4005 78.0177 50.9587 78.5681 50.649C79.1185 50.3394 79.7374 50.1718 80.3689 50.1612C81.6971 50.1174 83.0254 49.9861 84.3463 50.0226C85.344 50.1014 86.346 49.9382 87.2672 49.5469C88.1884 49.1556 89.0015 48.5476 89.6374 47.7748C89.8621 47.4882 90.1335 47.2414 90.4402 47.045C91.4619 46.4466 92.4252 46.8407 92.5785 48.0083C92.9573 50.3478 92.7899 52.7431 92.0895 55.0071C91.4984 56.7806 90.0826 57.0506 88.3675 57.5177C86.6525 57.9847 81.7993 57.9264 81.0695 57.9628C80.7406 57.9369 80.4102 57.9895 80.1056 58.1164C79.8011 58.2433 79.5311 58.4408 79.3179 58.6926C79.217 58.8803 79.1739 59.0936 79.1939 59.3057C79.1939 59.5903 79.4712 59.6268 79.6755 59.6414C81.3817 59.7437 83.0938 59.6679 84.7842 59.4152C86.2313 59.1777 87.6967 59.0702 89.163 59.0941C89.8975 59.1272 90.613 59.3377 91.2485 59.7075C91.884 60.0773 92.4204 60.5955 92.812 61.2178C93.5041 62.18 93.9728 63.2845 94.1841 64.4508C94.6949 67.6109 94.403 70.7855 94.4176 73.9383C94.458 74.5006 94.2755 75.0563 93.9095 75.4851C93.5435 75.9139 93.0234 76.1815 92.4617 76.2299C91.637 76.405 83.5946 77.4559 80.3762 77.8427Z" fill="#3BA3F5"/>
<path d="M39.5947 72.6318C40.1959 75.3793 40.2923 78.2133 39.8793 80.9953C39.8355 81.3602 39.7917 81.7251 39.7406 82.09C39.4779 83.8562 39.2371 84.0532 37.5512 84.3378C37.157 84.4321 36.743 84.3997 36.3682 84.245C35.9935 84.0904 35.6771 83.8215 35.464 83.4767C34.075 81.6316 33.3522 79.3703 33.4132 77.0617C33.4276 75.1386 33.8013 73.2352 34.5152 71.4495C34.6831 71.0408 34.8509 70.6248 34.9896 70.2088C35.537 68.5303 35.464 68.2602 34.0774 67.2239C33.2527 66.6036 32.4061 66.0051 31.5668 65.4067C30.6575 64.767 29.9913 63.8385 29.6766 62.7721C29.1062 60.8625 28.8403 58.875 28.8885 56.8826C28.8598 56.6238 28.9153 56.3626 29.0468 56.1378C29.1783 55.913 29.3786 55.7366 29.6183 55.6346C30.2459 55.3427 31.0049 55.08 31.4647 55.6346C32.3327 56.6516 33.5271 57.3353 34.8437 57.5686C35.5005 57.7673 36.0664 58.1911 36.4419 58.7655C37.2436 59.8285 37.7814 61.0666 38.011 62.378C38.264 64.2051 38.6643 66.0087 39.2079 67.7713C39.3246 68.107 39.4049 68.5011 39.9012 68.5011C40.3975 68.5011 40.4923 68.1143 40.631 67.7713C41.4192 66.0781 41.6381 64.4215 40.5872 62.7137C39.9005 61.409 39.3948 60.0169 39.0838 58.5757C38.8151 57.5726 38.7092 56.5327 38.77 55.4959C38.77 54.9486 38.9451 54.4523 39.5655 54.3283C40.1858 54.2042 40.6894 54.3283 40.8791 54.8756C41.2294 55.9338 42.0541 56.0652 42.9591 56.1747C44.1089 56.2765 45.199 56.7317 46.0797 57.4778C46.9604 58.224 47.5886 59.2244 47.878 60.3419C48.4472 62.035 48.6078 63.8011 49.0967 65.5089C49.1516 65.7982 49.1516 66.0953 49.0967 66.3847C49.0945 66.611 49.0235 66.8313 48.8931 67.0164C48.7628 67.2015 48.5793 67.3426 48.3669 67.421C47.8634 67.5815 47.6371 67.2458 47.3233 66.8444C46.141 65.1002 45.4769 65.1513 44.4041 67.0196C44.2216 67.3407 44.0319 67.6618 43.8567 67.9829C43.8041 68.0586 43.7684 68.1448 43.752 68.2355C43.7356 68.3262 43.739 68.4194 43.7618 68.5087C43.7847 68.598 43.8265 68.6814 43.8844 68.7531C43.9424 68.8248 44.0151 68.8832 44.0976 68.9244C44.6449 69.3039 45.1996 69.6542 45.7396 70.0556C47.5607 71.3326 48.9767 73.1057 49.8192 75.1642C50.4504 76.9827 51.5033 78.6258 52.8917 79.959C53.7602 80.6888 53.3953 81.7762 52.2933 82.2068C50.8445 82.7934 49.2363 82.8555 47.7466 82.3825C46.2568 81.9094 44.9791 80.9309 44.1341 79.616C43.5065 78.6175 42.9645 77.5677 42.5139 76.4778C42.0979 75.5364 41.6454 74.6022 41.1711 73.69C41.0342 73.3834 40.8137 73.1215 40.5349 72.9344C40.2561 72.7472 39.9303 72.6424 39.5947 72.6318Z" fill="#3BA3F5"/>
<path d="M153.897 54.2845C153.824 54.7661 154.116 54.9121 154.349 55.0581C156.174 56.2187 157.557 57.9586 158.276 59.9989C158.684 61.0425 159.093 62.035 160.37 62.3415C160.66 62.4189 160.916 62.5924 161.095 62.8336C161.274 63.0749 161.365 63.3696 161.355 63.6698C161.355 64.042 161.45 64.3996 161.479 64.7718C161.596 66.3773 161.26 66.7641 159.706 66.8736C158.524 66.9539 157.341 67.005 156.166 67.1144C155.76 67.1759 155.346 67.0945 154.993 66.8842C154.64 66.6739 154.371 66.3477 154.232 65.9613C153.733 64.8082 153.38 63.597 153.182 62.3561C152.855 60.3066 152.033 58.3677 150.788 56.7074C150.197 55.9776 149.532 54.7808 148.598 55.1238C147.569 55.5106 147.737 56.8826 147.869 57.897C148.022 59.0647 148.336 60.2105 148.598 61.3636C148.861 62.5167 149.131 63.8084 149.379 65.0126C149.502 65.8166 149.49 66.6356 149.343 67.4355C149.335 67.6594 149.247 67.873 149.094 68.0367C148.941 68.2004 148.734 68.3031 148.511 68.3259L146.54 68.6251C144.351 68.9462 144.292 68.4573 143.665 67.2896C142.255 64.838 141.629 62.0138 141.87 59.196C142.125 56.5469 142.519 53.9196 142.972 51.2996C143.094 50.8029 143.091 50.2837 142.964 49.7882C142.837 49.2928 142.589 48.8367 142.242 48.4607C140.683 46.6526 139.758 44.3845 139.607 42.0019C139.56 41.6366 139.545 41.2678 139.563 40.8998C139.563 40.4839 139.52 39.973 140.016 39.7468C140.216 39.6408 140.447 39.6097 140.668 39.6593C140.889 39.7088 141.084 39.8356 141.22 40.0168C141.884 40.8634 142.745 40.805 143.643 40.6444C144.949 40.4182 146.256 40.1555 147.562 39.9146C148.36 39.7558 149.167 39.6437 149.978 39.5789C152.693 39.4329 154.918 40.3087 156.298 42.7974C157.801 45.5195 158.64 48.3585 157.845 51.5039C157.392 53.3138 157.232 53.5036 155.422 53.8028C154.877 53.8088 154.346 53.9764 153.897 54.2845ZM154.203 50.1246C154.554 49.9713 154.889 49.7597 154.824 49.3437C154.787 49.1554 154.691 48.9835 154.551 48.8525C154.411 48.7214 154.233 48.6379 154.043 48.6139C153.747 48.5811 153.448 48.5811 153.152 48.6139C150.963 48.7721 148.788 49.0843 146.642 49.5481C146.552 49.5654 146.466 49.6007 146.39 49.6518C146.313 49.703 146.248 49.769 146.198 49.846C146.147 49.9229 146.113 50.0092 146.097 50.0997C146.08 50.1902 146.082 50.283 146.102 50.3727C146.102 50.6574 146.183 50.9493 146.219 51.2412C146.285 51.8615 146.606 52.1534 147.248 52.044C149.611 51.5771 151.936 50.9356 154.203 50.1246Z" fill="#3BA3F5"/>
<path d="M105.715 66.2165C105.868 68.5592 106.022 70.7632 106.146 72.9672C106.219 74.2006 106.029 74.4925 104.883 74.5655C102.066 74.7479 101.876 74.9012 100.687 72.1717C100.132 71.0003 99.8444 69.7203 99.8444 68.4242C99.8444 67.128 100.132 65.8481 100.687 64.6766C101.186 63.608 101.604 62.5028 101.935 61.3706C102.17 60.5909 102.246 59.7721 102.161 58.9622C102.143 58.5552 102.033 58.1575 101.838 57.7996C101.643 57.4417 101.369 57.133 101.037 56.8969C100.69 56.6318 100.327 56.3881 99.9497 56.1671C97.9646 55.1089 96.994 53.3282 96.4977 51.2482C96.1912 49.9565 96.0087 48.6355 95.7679 47.3292C95.6876 46.8913 95.6292 46.4315 96.1255 46.1688C96.4144 46.0107 96.7483 45.9549 97.0729 46.0105C97.3975 46.0662 97.6938 46.23 97.9135 46.4753C98.0027 46.5931 98.0785 46.7204 98.1397 46.8548C98.3691 47.3207 98.6934 47.7335 99.0919 48.0666C99.4903 48.3996 99.954 48.6457 100.453 48.7888C101.514 49.138 102.443 49.8034 103.115 50.6957C103.787 51.588 104.169 52.6645 104.212 53.7806C104.32 54.6579 104.566 55.5126 104.942 56.3131C105.122 56.8467 105.483 57.3003 105.963 57.595C106.443 57.8896 107.011 58.0067 107.569 57.9259C109.247 57.7216 110.904 57.3421 112.597 57.9259C112.955 58.0427 113.042 57.5902 112.947 57.3202C112.745 56.6808 112.395 56.0981 111.926 55.6189C111.457 55.1397 110.882 54.7775 110.247 54.5615C109.591 54.3261 108.992 53.9548 108.488 53.4719C107.985 52.9889 107.59 52.4053 107.328 51.7591C106.43 49.9771 105.787 48.0782 105.416 46.1177C105.306 45.5047 105.263 44.9427 105.992 44.6581C106.118 44.5808 106.259 44.5321 106.405 44.5156C106.551 44.4991 106.7 44.5151 106.839 44.5625C106.979 44.6099 107.106 44.6875 107.212 44.7898C107.318 44.8922 107.4 45.0166 107.452 45.1543C107.652 45.5922 107.982 45.9576 108.398 46.2005C108.813 46.4435 109.293 46.5522 109.773 46.5118C110.516 46.5278 111.254 46.6507 111.962 46.8767C112.525 47.0655 113.043 47.3657 113.487 47.7594C113.931 48.1532 114.291 48.6323 114.546 49.1683C115.603 51.1242 116.2 53.2959 116.29 55.5176C116.341 57.2869 116.536 59.0492 116.874 60.7867C117.516 64.1949 117.896 67.6396 118.333 71.0697C118.509 72.3615 118.26 72.6534 117.012 72.8212C116.794 72.8212 116.567 72.8796 116.348 72.8869C114.787 72.9307 114.451 72.6607 114.159 71.0697C113.871 69.5433 113.871 67.9765 114.159 66.4501C114.281 65.7256 114.358 64.9944 114.392 64.2606C114.441 64.0045 114.419 63.7401 114.331 63.495C114.242 63.2499 114.09 63.0329 113.889 62.8667C113.385 62.5529 112.896 62.9324 112.48 63.2243C112.182 63.4512 111.897 63.6949 111.627 63.9541C111.174 64.3409 110.743 64.7496 110.298 65.1291C108.51 66.5741 108.284 66.6471 105.715 66.2165Z" fill="#3BA3F5"/>
<path d="M72.1439 63.5748C72.6298 66.3368 72.7818 69.1473 72.5963 71.9457C72.3973 73.9284 71.885 75.8671 71.0783 77.6892C70.919 78.1414 70.6425 78.5431 70.2771 78.8534C69.9117 79.1637 69.4704 79.3715 68.9984 79.4553C66.554 80.0093 64.0654 80.3463 61.5617 80.4625C61.2364 80.4775 60.9115 80.4249 60.6075 80.3081C60.3036 80.1913 60.0271 80.0127 59.7956 79.7838C59.2093 79.2181 58.7166 78.5628 58.336 77.8425C56.1991 73.9315 55.2767 69.4722 55.6868 65.0344C55.7135 64.5933 55.7696 64.1544 55.8546 63.7208C56.007 63.0832 56.0106 62.4192 55.8651 61.7801C55.7195 61.141 55.4288 60.5439 55.0153 60.0353C53.606 58.0998 52.9685 55.7086 53.2273 53.3284C53.2638 52.8905 53.3222 52.4088 53.8331 52.241C54.0643 52.1165 54.3332 52.0811 54.5888 52.1417C54.8443 52.2022 55.0688 52.3544 55.2197 52.5694C56.059 54.029 57.358 53.9195 58.7009 53.6568C59.6423 53.4743 60.5765 53.2481 61.5033 53.0219C63.2637 52.5604 65.1294 52.72 66.7858 53.4738C68.4423 54.2276 69.7882 55.5294 70.5967 57.1598C71.6768 59.1887 71.8154 61.3927 72.1439 63.5748ZM64.8458 69.7416L68.1299 69.26C68.5897 69.1943 68.9911 69.0337 69.0933 68.5302C69.6141 66.5242 69.4916 64.4054 68.743 62.4728C68.6678 62.2174 68.5164 61.9911 68.309 61.8241C68.1016 61.6572 67.8481 61.5576 67.5826 61.5387C65.3907 61.3042 63.1758 61.405 61.0143 61.8379C60.6549 61.9117 60.3251 62.0894 60.0657 62.3488C59.8062 62.6083 59.6286 62.9381 59.5547 63.2975C59.1722 64.5693 59.0118 65.8975 59.0804 67.2238C59.0927 67.8896 59.2708 68.5417 59.5985 69.1213C59.7373 69.4645 59.988 69.7508 60.3099 69.9336C60.6318 70.1164 61.0061 70.1851 61.3719 70.1284C62.4885 69.9679 64.8312 69.7052 64.8385 69.7416H64.8458Z" fill="#3BA3F5"/>
<path d="M64.1161 63.8013C64.4922 63.8155 64.8512 63.9626 65.1291 64.2165C65.4071 64.4703 65.586 64.8146 65.634 65.1879C65.6765 65.4241 65.6694 65.6665 65.6131 65.8998C65.5568 66.1331 65.4526 66.3521 65.3071 66.5429C65.1616 66.7338 64.9779 66.8922 64.7679 67.0082C64.5578 67.1242 64.3259 67.1952 64.0869 67.2168C63.9044 67.2338 63.7203 67.2132 63.5462 67.156C63.372 67.0989 63.2115 67.0065 63.0745 66.8847C62.9376 66.7628 62.8273 66.6141 62.7503 66.4477C62.6733 66.2814 62.6315 66.101 62.6273 65.9177C62.5561 65.4412 62.6711 64.9557 62.9482 64.5617C63.2254 64.1676 63.6436 63.8953 64.1161 63.8013Z" fill="#3BA3F5"/>
<path d="M137.432 61.1959C137.07 61.2468 136.723 61.371 136.411 61.5608C135.191 62.2499 133.892 62.7889 132.543 63.1664C130.854 63.7041 129.107 64.0374 127.339 64.1589C127.195 64.1928 127.045 64.196 126.899 64.1682C126.753 64.1404 126.615 64.0823 126.493 63.9977C126.372 63.913 126.269 63.8038 126.192 63.6769C126.115 63.55 126.066 63.4084 126.047 63.2612C125.828 62.2541 125.588 61.247 125.449 60.2253C125.31 59.2036 125.668 58.9408 126.551 59.2546C127.733 59.6779 128.879 60.1888 130.039 60.6413C131.068 61.05 131.36 61.0135 131.944 60.2107C133.17 58.5482 134.152 56.72 134.863 54.7809C134.983 54.5516 135.023 54.2892 134.978 54.0346C134.933 53.7799 134.806 53.5472 134.615 53.3724C134.244 53.1567 133.84 53.0038 133.418 52.9199C133.091 52.8422 132.751 52.8298 132.419 52.8835C130.733 53.1608 126.58 53.8176 125.442 53.9562C125.164 53.9562 124.821 53.8906 124.894 53.4965C124.923 53.3885 124.962 53.2834 125.011 53.1827C125.074 53.0278 125.174 52.8902 125.3 52.781C125.427 52.6719 125.578 52.5945 125.741 52.555C127.865 52.1026 130.309 51.1684 132.616 51.5479H132.769L134.404 51.8033C134.773 51.8667 135.151 51.8493 135.513 51.7523C135.804 51.6972 136.063 51.5359 136.241 51.2998C136.419 51.0637 136.503 50.7697 136.476 50.4751C136.583 49.2236 136.479 47.9631 136.17 46.7458C135.946 45.8062 135.403 44.9733 134.634 44.3891C133.865 43.8049 132.917 43.5055 131.951 43.542C130.565 43.6806 129.156 43.6222 127.77 43.8923C126.617 44.1185 125.442 44.2499 124.274 44.4396C122.873 44.6586 121.581 44.6586 121.004 42.98C120.945 42.8445 120.852 42.7265 120.734 42.637C120.572 42.4853 120.367 42.3861 120.147 42.3523C119.927 42.3184 119.702 42.3515 119.501 42.4473C119.326 42.51 119.176 42.6278 119.073 42.7831C118.97 42.9383 118.921 43.1227 118.932 43.3084C119.078 45.9503 118.997 48.6725 120.567 50.9859C121.074 51.7108 121.405 52.5447 121.532 53.4206C121.658 54.2965 121.578 55.1898 121.296 56.0289C121.062 57.1193 120.995 58.2391 121.099 59.3495C121.208 61.1135 121.484 62.8631 121.924 64.5749C122.303 66.4505 122.501 68.3626 122.792 70.2601C122.975 71.4351 123.172 71.6102 124.398 71.457C126.449 71.1942 134.455 69.866 136.432 69.6251C137.71 69.4719 138.06 68.6326 137.768 66.83C137.603 65.4856 137.812 64.1217 138.374 62.889C138.49 62.5581 138.507 62.2008 138.425 61.86C138.412 61.747 138.375 61.6381 138.316 61.5408C138.257 61.4436 138.178 61.3605 138.083 61.2972C137.988 61.234 137.881 61.1921 137.769 61.1746C137.656 61.1571 137.542 61.1644 137.432 61.1959Z" fill="#3BA3F5"/>
<path d="M142.074 86.6657C143.074 86.0381 144.212 85.2645 145.409 84.5931C146.292 84.1041 146.372 83.6152 145.825 82.7905C145.065 81.6481 144.366 80.4666 143.73 79.2509C143.38 78.5649 143.139 77.7475 143.876 77.1418C144.614 76.5361 145.3 77.0396 145.905 77.5359C146.204 77.784 146.489 78.0322 146.788 78.2657C148.861 79.9078 148.861 79.9078 150.226 77.6965C150.78 76.7842 151.444 76.1566 152.641 76.3828C153.838 76.609 153.911 77.6454 153.889 78.5138C153.846 80.477 154.561 81.3309 156.597 80.8346C157.205 80.7507 157.821 80.7507 158.429 80.8346C158.737 80.8116 159.044 80.8945 159.299 81.0697C159.554 81.2449 159.741 81.5018 159.83 81.798C159.916 82.096 159.901 82.4143 159.786 82.7025C159.671 82.9907 159.463 83.2322 159.195 83.3889C157.969 84.3012 156.765 85.2499 155.458 86.0381C154.451 86.6439 154.451 87.1985 155.123 88.0159C155.998 89.0741 156.422 90.4607 157.465 91.3949C157.612 91.4866 157.738 91.6078 157.836 91.7509C157.933 91.8939 158 92.0557 158.032 92.2259C158.063 92.3962 158.059 92.5711 158.019 92.7396C157.98 92.9081 157.905 93.0666 157.801 93.2048C157.298 93.8908 156.59 93.6938 155.933 93.3799C155.022 92.9842 154.133 92.5409 153.269 92.0517C152.255 91.4241 151.663 91.7014 151.08 92.6501C150.496 93.5989 150.124 95.2045 148.533 94.8396C147.124 94.5111 147.292 92.9932 147.161 91.9203C146.971 90.3367 146.307 89.5996 144.687 89.6434C143.999 89.6344 143.317 89.5186 142.665 89.3003C141.132 88.8698 140.877 87.8918 142.074 86.6657Z" fill="#FFE159"/>
<path d="M161.917 42.6369C162.647 42.2501 163.53 41.7539 164.435 41.3525C165.099 41.0533 165.165 40.7029 164.836 40.0826C164.362 39.2141 163.931 38.3165 163.545 37.4042C163.333 36.9007 163.209 36.2949 163.778 35.9446C164.347 35.5943 164.807 35.9446 165.238 36.346L165.822 36.9299C167.216 38.2289 167.216 38.2289 168.325 36.7182C168.49 36.3966 168.761 36.1418 169.092 35.9969C169.423 35.8519 169.794 35.8258 170.142 35.9228C171.04 36.1709 170.981 36.908 170.916 37.5283C170.762 38.9368 171.222 39.5936 172.718 39.3601C173.159 39.3354 173.601 39.3722 174.032 39.4696C174.256 39.4717 174.472 39.5503 174.644 39.6924C174.817 39.8345 174.936 40.0315 174.981 40.2505C175.024 40.4688 174.994 40.6954 174.895 40.8948C174.796 41.0942 174.634 41.2551 174.433 41.3525C173.514 41.9607 172.564 42.521 171.587 43.031C170.857 43.4105 170.792 43.8119 171.229 44.4396C171.799 45.2496 172.018 46.2641 172.689 47.0012C172.789 47.0758 172.873 47.1704 172.935 47.2791C172.996 47.3879 173.034 47.5083 173.047 47.6326C173.059 47.757 173.045 47.8825 173.006 48.0012C172.967 48.12 172.904 48.2293 172.82 48.3221C172.419 48.7892 171.923 48.5995 171.47 48.3221C170.839 47.9812 170.225 47.6085 169.631 47.2055C168.945 46.6946 168.5 46.8625 168.011 47.5047C167.522 48.147 167.164 49.2855 166.048 48.9206C165.055 48.5995 165.267 47.5193 165.238 46.7312C165.194 45.5854 164.763 45.0161 163.596 44.9504C163.093 44.9038 162.6 44.7782 162.136 44.5782C161.1 44.1622 160.976 43.447 161.917 42.6369Z" fill="#FFE159"/>
</svg>
