<svg width="18" height="18" viewBox="0 0 18 18" fill="none" xmlns="http://www.w3.org/2000/svg">
<g clip-path="url(#clip0_661_6117)">
<path d="M15.9337 7.69597L9.81534 7.69568C9.54517 7.69568 9.32617 7.91464 9.32617 8.18482V10.1394C9.32617 10.4095 9.54517 10.6285 9.81531 10.6285H13.2608C12.8835 11.6076 12.1793 12.4276 11.2809 12.9486L12.7501 15.4919C15.1068 14.1289 16.5001 11.7374 16.5001 9.06033C16.5001 8.67915 16.472 8.40666 16.4158 8.09983C16.3731 7.86671 16.1707 7.69597 15.9337 7.69597Z" fill="#167EE6"/>
<path d="M8.99992 13.5652C7.31377 13.5652 5.84178 12.6439 5.0512 11.2806L2.50806 12.7465C3.80225 14.9895 6.22668 16.5 8.99992 16.5C10.3604 16.5 11.6441 16.1337 12.7499 15.4953V15.4918L11.2808 12.9486C10.6088 13.3383 9.8311 13.5652 8.99992 13.5652Z" fill="#12B347"/>
<path d="M12.75 15.4954V15.4919L11.2808 12.9486C10.6088 13.3383 9.83124 13.5652 9 13.5652V16.5C10.3605 16.5 11.6442 16.1337 12.75 15.4954Z" fill="#0F993E"/>
<path d="M4.43479 8.99993C4.43479 8.16881 4.6616 7.39124 5.05128 6.71926L2.50813 5.25342C1.86627 6.35577 1.5 7.63599 1.5 8.99993C1.5 10.3639 1.86627 11.6441 2.50813 12.7464L5.05128 11.2806C4.6616 10.6086 4.43479 9.83105 4.43479 8.99993Z" fill="#FFD500"/>
<path d="M8.99992 4.43479C10.0995 4.43479 11.1094 4.82549 11.8983 5.47538C12.0929 5.63569 12.3758 5.62412 12.5541 5.44585L13.9389 4.06099C14.1412 3.85872 14.1268 3.52764 13.9107 3.3402C12.589 2.19354 10.8693 1.5 8.99992 1.5C6.22668 1.5 3.80225 3.01046 2.50806 5.25349L5.0512 6.71933C5.84178 5.35605 7.31377 4.43479 8.99992 4.43479Z" fill="#FF4B26"/>
<path d="M11.8984 5.47538C12.093 5.63569 12.3759 5.62412 12.5542 5.44585L13.939 4.06099C14.1412 3.85872 14.1268 3.52764 13.9108 3.3402C12.5891 2.19352 10.8693 1.5 9 1.5V4.43479C10.0995 4.43479 11.1095 4.82549 11.8984 5.47538Z" fill="#D93F21"/>
</g>
<defs>
<clipPath id="clip0_661_6117">
<rect width="18" height="18" fill="white"/>
</clipPath>
</defs>
</svg>
