<svg width="17" height="17" viewBox="0 0 17 17" fill="none" xmlns="http://www.w3.org/2000/svg">
<g clip-path="url(#clip0_661_6109)">
<path d="M12.8897 16.3179C11.956 17.215 10.9366 17.0734 9.95533 16.6485C8.91686 16.2141 7.96414 16.1952 6.86851 16.6485C5.49659 17.2339 4.77253 17.064 3.95319 16.3179C-0.696095 11.568 -0.0101352 4.33445 5.26794 4.07004C6.55412 4.13614 7.44967 4.76884 8.20232 4.8255C9.32653 4.59886 10.4031 3.94728 11.6035 4.03227C13.0421 4.14559 14.1283 4.71218 14.8428 5.73205C11.8703 7.49794 12.5753 11.3791 15.3001 12.4651C14.757 13.8816 14.052 15.2886 12.8802 16.3274L12.8897 16.3179ZM8.10705 4.01338C7.96414 1.90754 9.68857 0.169979 11.6702 0C11.9465 2.43636 9.44086 4.24946 8.10705 4.01338Z" fill="black"/>
</g>
<defs>
<clipPath id="clip0_661_6109">
<rect width="17" height="17" fill="white"/>
</clipPath>
</defs>
</svg>
